<?xml version="1.0" encoding="UTF-8"?> <svg xmlns="http://www.w3.org/2000/svg" width="310" height="70" viewBox="0 0 310 70" fill="none"><g clip-path="url(#clip0_258_3024)"><path d="M21.2501 52.1899L16.0701 57.3699L10.8301 52.1199L16.0101 46.9399L21.2501 52.1899Z" fill="#E30613"></path><path d="M31.94 52.1899L26.76 57.3699L21.52 52.1199L26.7 46.9399L31.94 52.1899Z" fill="#E30613"></path><path d="M31.94 41.8201L26.76 47.0001L21.52 41.7601L26.7 36.5801L31.94 41.8201Z" fill="#E30613"></path><path d="M42.5103 31.5701L37.3303 36.7501L32.0903 31.5101L37.2703 26.3301L42.5103 31.5701Z" fill="#E30613"></path><path d="M63.4105 31.5701L58.2305 36.7501L52.9805 31.5101L58.1605 26.3301L63.4105 31.5701Z" fill="#E95114"></path><path d="M42.5103 52.1899L37.3303 57.3699L32.0903 52.1199L37.2703 46.9399L42.5103 52.1899Z" fill="#E30613"></path><path d="M42.3502 62.8001L37.1702 67.9801L31.9302 62.7401L37.1102 57.5601L42.3502 62.8001Z" fill="#E30613"></path><path d="M52.8604 62.8001L47.6804 67.9801L42.4404 62.7401L47.6104 57.5601L52.8604 62.8001Z" fill="#E30613"></path><path d="M63.4105 62.8001L58.2305 67.9801L52.9805 62.7401L58.1605 57.5601L63.4105 62.8001Z" fill="#E30613"></path><path d="M73.8101 62.8001L68.6301 67.9801L63.3901 62.7401L68.5701 57.5601L73.8101 62.8001Z" fill="#E30613"></path><path d="M84.3804 52.1899L79.2004 57.3699L73.9604 52.1199L79.1404 46.9399L84.3804 52.1899Z" fill="#E30613"></path><path d="M31.94 62.8001L26.76 67.9801L21.52 62.7401L26.7 57.5601L31.94 62.8001Z" fill="#E30613"></path><path d="M57.0702 58.7201H57.5902L59.9302 39.5001V39.1301L59.6202 39.3801L57.0702 58.7201ZM3.45024 32.6601C-1.70976 28.0001 0.270238 23.8801 0.930238 23.2201C4.61024 20.8201 10.8702 23.8101 10.8702 23.8101L42.0002 38.1101L55.4402 37.4801C55.7702 34.2901 57.0802 27.3001 62.4402 24.7801L64.4402 23.8601L64.7902 26.0001C65.3485 29.5077 64.609 33.0985 62.7102 36.1001L78.7602 19.1401L82.8302 14.0901L83.6902 14.2101L92.4002 15.4101L97.1802 15.8301L90.0002 22.5901L71.5802 45.1701C71.2738 45.8863 71.2382 46.6896 71.4802 47.4301C72.1995 48.9432 73.0993 50.3635 74.1602 51.6601L74.2502 51.7701L74.3102 51.8901C74.7433 52.6784 74.9237 53.5808 74.8272 54.4751C74.7306 55.3693 74.3616 56.2124 73.7702 56.8901C71.9402 58.8901 66.0902 64.6401 65.7702 64.9901C64.3941 66.1987 62.599 66.8197 60.7702 66.7201C54.6302 66.7201 47.2002 61.1801 38.6902 50.2601L9.06024 36.2601C7.04559 35.302 5.16056 34.0924 3.45024 32.6601Z" fill="#1D171A"></path><path d="M80.0003 20.3201L88.7103 21.5201L70.2603 44.0901C70.2603 44.0901 69.2603 45.1501 69.7803 47.8201C70.0803 49.2301 72.7803 52.7401 72.7803 52.7401C73.0394 53.2224 73.1493 53.7708 73.0959 54.3157C73.0424 54.8606 72.8282 55.3773 72.4803 55.8001C70.6403 57.8001 64.4803 63.8501 64.4803 63.8501C64.4803 63.8501 57.1303 71.4101 39.7603 49.0001L6.8103 33.2201C3.2603 31.7601 -3.7397 20.4801 8.6703 24.6901L41.6203 39.8301L57.0003 39.1101C57.0003 39.1101 57.1203 29.1101 63.1303 26.3201C63.4982 28.6065 63.2258 30.9501 62.3432 33.0911C61.4607 35.2322 60.0025 37.087 58.1303 38.4501L55.1903 60.4501H59.1903L61.7203 39.7301L80.0003 20.3201Z" fill="white"></path><path d="M47.2003 38.4301C45.1849 38.4301 43.2147 37.8324 41.539 36.7127C39.8633 35.593 38.5572 34.0016 37.7859 32.1396C37.0147 30.2776 36.8129 28.2287 37.2061 26.2521C37.5992 24.2754 38.5697 22.4597 39.9948 21.0346C41.4199 19.6095 43.2356 18.639 45.2123 18.2459C47.189 17.8527 49.2378 18.0545 51.0998 18.8257C52.9618 19.597 54.5532 20.9031 55.6729 22.5788C56.7926 24.2545 57.3903 26.2247 57.3903 28.2401C57.3876 30.9418 56.3132 33.5321 54.4028 35.4425C52.4923 37.353 49.902 38.4274 47.2003 38.4301Z" fill="#1D171A"></path><path d="M55.6905 28.24C55.6905 26.5608 55.1925 24.9194 54.2596 23.5232C53.3267 22.127 52.0008 21.0389 50.4494 20.3963C48.8981 19.7537 47.191 19.5855 45.5441 19.9131C43.8972 20.2407 42.3845 21.0493 41.1971 22.2367C40.0098 23.424 39.2012 24.9368 38.8736 26.5837C38.546 28.2306 38.7141 29.9376 39.3567 31.489C39.9993 33.0403 41.0875 34.3663 42.4837 35.2992C43.8798 36.2321 45.5213 36.73 47.2005 36.73C48.3154 36.73 49.4194 36.5104 50.4494 36.0837C51.4795 35.6571 52.4154 35.0317 53.2038 34.2433C53.9922 33.455 54.6175 32.519 55.0442 31.489C55.4708 30.4589 55.6905 29.3549 55.6905 28.24Z" fill="white"></path><path d="M55.8704 24.5399H38.6604V12.6499C37.9384 12.2751 37.3001 11.7574 36.7844 11.1282C36.2686 10.499 35.8862 9.77153 35.6604 8.98995C35.5394 8.31762 35.5926 7.6255 35.8149 6.97956C36.0372 6.33362 36.4213 5.75538 36.9304 5.29995C37.5865 4.64748 38.3675 4.13407 39.2266 3.79042C40.0857 3.44677 41.0054 3.27995 41.9304 3.29995C43.8583 3.37383 45.7392 3.91612 47.4104 4.87995C48.955 3.94292 50.7148 3.41944 52.5204 3.35995C54.3263 3.34691 56.0701 4.01868 57.4004 5.23995C59.2304 6.88995 59.4004 8.41995 59.1304 9.40995C58.8715 10.1774 58.4444 10.8773 57.8804 11.4586C57.3164 12.0399 56.6297 12.4879 55.8704 12.7699V24.5399Z" fill="#1D171A"></path><path d="M54.17 11.6099C54.17 11.6099 60 9.8599 56.26 6.4999C52.36 2.9899 47.41 6.8599 47.41 6.8599C47.41 6.8599 41.78 2.8599 38.14 6.4999C35.23 9.4099 40.36 11.6099 40.36 11.6099V22.8399H54.17V11.6099Z" fill="white"></path><path d="M56.9003 43.55C56.8983 43.0936 56.7611 42.6479 56.5061 42.2694C56.2511 41.8908 55.8896 41.5963 55.4673 41.423C55.0451 41.2497 54.5809 41.2054 54.1335 41.2956C53.6861 41.3859 53.2754 41.6067 52.9533 41.9301C52.6313 42.2536 52.4123 42.6652 52.3239 43.113C52.2356 43.5608 52.2819 44.0248 52.4571 44.4463C52.6322 44.8678 52.9283 45.228 53.3079 45.4814C53.6876 45.7348 54.1338 45.87 54.5903 45.87C54.8945 45.87 55.1957 45.8099 55.4766 45.6932C55.7575 45.5765 56.0126 45.4054 56.2272 45.1899C56.4419 44.9743 56.6118 44.7185 56.7273 44.4371C56.8428 44.1557 56.9016 43.8542 56.9003 43.55Z" fill="#1D171A"></path><path d="M56.2201 48.8801C56.2201 48.4232 56.0846 47.9766 55.8308 47.5967C55.577 47.2168 55.2162 46.9207 54.7941 46.7459C54.372 46.5711 53.9075 46.5253 53.4594 46.6145C53.0113 46.7036 52.5997 46.9236 52.2767 47.2467C51.9536 47.5697 51.7336 47.9813 51.6445 48.4294C51.5554 48.8775 51.6011 49.342 51.7759 49.7641C51.9508 50.1862 52.2469 50.5469 52.6267 50.8008C53.0066 51.0546 53.4532 51.1901 53.9101 51.1901C54.2138 51.1914 54.5148 51.1325 54.7957 51.0169C55.0765 50.9013 55.3317 50.7312 55.5465 50.5164C55.7612 50.3017 55.9313 50.0465 56.047 49.7656C56.1626 49.4848 56.2214 49.1838 56.2201 48.8801Z" fill="#1D171A"></path><path d="M55.4804 54.2199C55.4804 53.763 55.3449 53.3164 55.091 52.9365C54.8372 52.5567 54.4764 52.2606 54.0544 52.0858C53.6323 51.9109 53.1678 51.8652 52.7197 51.9543C52.2716 52.0434 51.86 52.2634 51.5369 52.5865C51.2139 52.9096 50.9939 53.3212 50.9047 53.7693C50.8156 54.2173 50.8614 54.6818 51.0362 55.1039C51.211 55.526 51.5071 55.8868 51.887 56.1406C52.2669 56.3944 52.7135 56.5299 53.1704 56.5299C53.4741 56.5312 53.7751 56.4724 54.0559 56.3568C54.3368 56.2411 54.592 56.071 54.8067 55.8563C55.0215 55.6415 55.1916 55.3863 55.3072 55.1055C55.4228 54.8246 55.4817 54.5236 55.4804 54.2199Z" fill="#1D171A"></path><path d="M55.2301 43.55C55.2301 43.3802 55.1627 43.2175 55.0426 43.0974C54.9226 42.9774 54.7598 42.91 54.5901 42.91C54.4607 42.908 54.3337 42.9447 54.2253 43.0154C54.1169 43.086 54.032 43.1874 53.9816 43.3066C53.9311 43.4258 53.9174 43.5573 53.9422 43.6843C53.9669 43.8113 54.0291 43.928 54.1206 44.0195C54.2121 44.111 54.3288 44.1731 54.4558 44.1979C54.5828 44.2227 54.7143 44.209 54.8335 44.1585C54.9527 44.1081 55.0541 44.0232 55.1247 43.9148C55.1954 43.8064 55.2321 43.6794 55.2301 43.55Z" fill="white"></path><path d="M54.5602 48.9C54.5622 48.771 54.5257 48.6444 54.4555 48.5362C54.3853 48.428 54.2845 48.3431 54.1659 48.2924C54.0473 48.2417 53.9163 48.2273 53.7896 48.2513C53.6629 48.2752 53.5461 48.3363 53.4542 48.4268C53.3623 48.5173 53.2994 48.6331 53.2735 48.7595C53.2476 48.8858 53.2599 49.017 53.3088 49.1364C53.3576 49.2557 53.4409 49.3578 53.548 49.4297C53.6551 49.5016 53.7812 49.54 53.9102 49.54C54.0808 49.54 54.2447 49.4729 54.3663 49.3532C54.4879 49.2334 54.5576 49.0706 54.5602 48.9Z" fill="white"></path><path d="M53.8502 54.2099C53.8502 54.0402 53.7828 53.8774 53.6628 53.7574C53.5427 53.6373 53.38 53.5699 53.2102 53.5699C53.0808 53.5679 52.9538 53.6046 52.8454 53.6753C52.737 53.7459 52.6521 53.8473 52.6017 53.9665C52.5513 54.0857 52.5375 54.2172 52.5623 54.3442C52.5871 54.4712 52.6492 54.5879 52.7407 54.6794C52.8322 54.7709 52.9489 54.8331 53.0759 54.8578C53.2029 54.8826 53.3344 54.8689 53.4536 54.8184C53.5728 54.768 53.6742 54.6831 53.7449 54.5747C53.8155 54.4663 53.8522 54.3393 53.8502 54.2099Z" fill="white"></path><path d="M102.71 10.51C102.64 10.21 101.05 3.67 91.14 1.73C90.85 1.19 90 0.21 87.9 0C87.49 0 85.21 0.05 84.43 1.64C80.23 2.3 74.49 4.33 72.86 10.45L72.29 12.59H103.21L102.75 10.51H102.71Z" fill="#1D171A"></path><path d="M74.4702 10.8901H101C101 10.8901 99.5202 4.1201 88.3202 3.0001C87.3902 3.0001 76.5902 2.8801 74.4702 10.8501V10.8901Z" fill="#E30613"></path><path d="M105.6 17.21H104.73H69.7204H68.7504L68.2604 16.38L66.4504 13.31L64.9404 10.75H67.9204H106.95H110.29L108.33 13.45L106.11 16.51L105.6 17.21Z" fill="#1D171A"></path><path d="M67.9204 12.45H106.95L104.73 15.51H69.7204L67.9204 12.45Z" fill="#E30613"></path><path d="M81.1104 18.99H90.9004L93.1804 17.21H82.4304L81.1104 18.99Z" fill="white"></path><path d="M125.79 24.4C125.981 24.6274 126.121 24.8935 126.2 25.18L126.82 26.82C127.194 27.6493 127.447 28.5284 127.57 29.43C127.599 29.6235 127.55 29.8206 127.433 29.978C127.317 30.1354 127.143 30.2404 126.95 30.27L126.57 30.36C126.37 30.36 126.26 30.48 126.26 30.61C126.26 30.74 126.37 30.87 126.58 30.87C126.711 30.8627 126.841 30.846 126.97 30.82C127.684 30.7484 128.402 30.7217 129.12 30.74C130.21 30.74 130.98 30.74 131.4 30.8H131.87C132.1 30.8 132.21 30.73 132.22 30.59C132.23 30.45 132.1 30.34 131.85 30.29C131.29 30.2365 130.753 30.0403 130.29 29.72C129.854 29.1572 129.516 28.525 129.29 27.85L129.02 27.19L123.74 13.6C123.653 13.36 123.543 13.24 123.41 13.24C123.27 13.24 123.16 13.36 123.05 13.61L116.69 27.72L116.34 28.54C116.146 28.9304 115.912 29.2991 115.64 29.64C115.474 29.8922 115.247 30.0985 114.98 30.24L114.52 30.37C114.458 30.382 114.403 30.416 114.364 30.4656C114.326 30.5152 114.306 30.5772 114.31 30.64C114.31 30.79 114.42 30.87 114.64 30.87L115.33 30.8H115.89C116.4 30.8 116.89 30.8 117.26 30.8L118.44 30.87H118.86C119.1 30.87 119.21 30.8 119.2 30.67C119.19 30.54 119.07 30.43 118.82 30.38C118.411 30.3177 118.021 30.1638 117.68 29.93C117.57 29.8218 117.487 29.6897 117.437 29.544C117.386 29.3983 117.37 29.2429 117.39 29.09C117.454 28.4408 117.641 27.8096 117.94 27.23L118.75 25.41C118.869 25.0364 119.07 24.6946 119.34 24.41C119.704 24.2745 120.094 24.2233 120.48 24.26H125C125.285 24.2326 125.572 24.2702 125.84 24.37L125.79 24.4ZM125.16 22.52C125.193 22.6136 125.213 22.7111 125.22 22.81C125.22 23.01 125.02 23.12 124.61 23.12H120.87H120.54C120.16 23.12 119.97 23.02 119.97 22.8C119.998 22.639 120.052 22.4837 120.13 22.34L122.54 17C122.62 16.84 122.68 16.76 122.74 16.77C122.8 16.78 122.96 16.91 123.06 17.18L123.16 17.43L125.1 22.33L125.16 22.55V22.52ZM143 19.61C142.907 19.6317 142.821 19.6764 142.75 19.74C142.716 19.777 142.67 19.8016 142.62 19.81H142.47L142.33 19.75L141.98 19.56C140.949 19.0115 139.798 18.7296 138.63 18.74C137.807 18.7176 136.988 18.865 136.224 19.173C135.46 19.4809 134.768 19.9429 134.19 20.53C133.609 21.1173 133.153 21.8161 132.848 22.5842C132.544 23.3524 132.399 24.1741 132.42 25C132.386 25.8033 132.52 26.6048 132.813 27.3537C133.105 28.1025 133.551 28.7823 134.12 29.35C134.723 29.9112 135.431 30.347 136.203 30.632C136.976 30.917 137.797 31.0455 138.62 31.01C140.177 31.0017 141.698 30.5433 143 29.69C143.24 29.53 143.38 29.37 143.4 29.22V29.07L143.59 28V27.81V27.72C143.59 27.6 143.59 27.54 143.46 27.55C143.33 27.56 143.26 27.71 143.11 28.02C142.72 28.7486 142.112 29.3363 141.37 29.7C140.592 30.1521 139.71 30.3934 138.81 30.4C138.111 30.4156 137.419 30.2683 136.787 29.9698C136.155 29.6712 135.602 29.2296 135.17 28.68C134.188 27.4213 133.685 25.855 133.75 24.26C133.677 22.9038 134.136 21.5725 135.03 20.55C135.482 20.0922 136.026 19.7353 136.626 19.5026C137.225 19.2699 137.868 19.1668 138.51 19.2C139.448 19.1868 140.37 19.4437 141.166 19.9402C141.963 20.4367 142.599 21.1517 143 22C143.14 22.24 143.25 22.36 143.32 22.36C143.347 22.3546 143.372 22.3439 143.394 22.3284C143.417 22.3129 143.436 22.293 143.45 22.27V22.19V21.97L143.16 19.89C143.16 19.67 143.07 19.57 142.98 19.57L143 19.61ZM151.95 26.29C152.079 26.4531 152.174 26.64 152.23 26.84L152.67 27.99C152.933 28.5715 153.112 29.1878 153.2 29.82C153.217 29.9562 153.181 30.0938 153.099 30.2038C153.017 30.3139 152.895 30.3878 152.76 30.41L152.5 30.47C152.35 30.47 152.28 30.56 152.28 30.65C152.28 30.74 152.36 30.83 152.51 30.83C152.596 30.8397 152.684 30.8397 152.77 30.83C153.272 30.7863 153.776 30.7696 154.28 30.78C155.04 30.78 155.58 30.78 155.88 30.83H156.2C156.36 30.83 156.44 30.83 156.45 30.69C156.46 30.55 156.37 30.51 156.19 30.48C155.794 30.4408 155.415 30.2995 155.09 30.07C154.795 29.6777 154.568 29.2381 154.42 28.77L154.23 28.3L150.51 18.77C150.45 18.61 150.37 18.52 150.28 18.52C150.19 18.52 150.11 18.61 150.03 18.78L145.58 28.66L145.33 29.23C145.2 29.5043 145.039 29.7627 144.85 30C144.729 30.1756 144.568 30.3197 144.38 30.42L144.06 30.51C144.017 30.5193 143.978 30.5433 143.951 30.578C143.923 30.6127 143.909 30.6558 143.91 30.7C143.91 30.81 143.99 30.86 144.14 30.86H144.63H145C145.36 30.86 145.68 30.86 146 30.86H146.83H147.12C147.29 30.86 147.37 30.81 147.37 30.72C147.37 30.63 147.27 30.55 147.1 30.52C146.812 30.4771 146.538 30.3675 146.3 30.2C146.223 30.1234 146.165 30.0307 146.129 29.9287C146.092 29.8266 146.079 29.7178 146.09 29.61C146.139 29.1564 146.271 28.7157 146.48 28.31L147 27C147.085 26.74 147.225 26.5013 147.41 26.3C147.666 26.2082 147.939 26.1741 148.21 26.2H151.34C151.539 26.1799 151.741 26.2038 151.93 26.27L151.95 26.29ZM151.5 25C151.505 25.0632 151.505 25.1267 151.5 25.19C151.5 25.34 151.36 25.41 151.07 25.41H148.22C147.96 25.41 147.83 25.34 147.83 25.19C147.846 25.0773 147.883 24.9686 147.94 24.87L149.62 21.13C149.68 21.02 149.72 20.96 149.76 20.97C149.8 20.98 149.92 21.07 149.99 21.25L150.06 21.44L151.41 24.85L151.46 25.01L151.5 25ZM158.33 28.82C158.366 29.2515 158.304 29.6855 158.15 30.09C158.065 30.2163 157.953 30.3216 157.821 30.3979C157.689 30.4741 157.542 30.5193 157.39 30.53C157.23 30.53 157.15 30.63 157.15 30.72C157.15 30.81 157.25 30.92 157.46 30.91C157.624 30.9039 157.788 30.8872 157.95 30.86C158.483 30.7863 159.022 30.7529 159.56 30.76C160.13 30.76 160.8 30.76 161.56 30.84L162.35 30.89C163.582 30.8947 164.789 30.5477 165.83 29.89C166.682 29.3714 167.374 28.6273 167.83 27.74C168.303 26.8113 168.547 25.7824 168.54 24.74C168.567 23.9728 168.438 23.2082 168.159 22.4929C167.881 21.7776 167.459 21.1267 166.92 20.58C166.196 19.9408 165.352 19.4531 164.436 19.1456C163.521 18.8382 162.553 18.7173 161.59 18.79C161.18 18.79 160.8 18.79 160.45 18.79L159.64 18.86C159.32 18.86 158.87 18.91 158.28 18.91H157.68H156.99C156.84 18.91 156.77 18.96 156.77 19.07C156.77 19.18 156.86 19.24 157.05 19.25C157.242 19.2513 157.431 19.295 157.604 19.378C157.777 19.461 157.929 19.5812 158.05 19.73C158.279 20.1156 158.384 20.5626 158.35 21.01V28.8L158.33 28.82ZM159.87 19.61C160.412 19.3532 161.014 19.2528 161.61 19.32C162.776 19.2953 163.919 19.6459 164.87 20.32C165.631 20.8625 166.229 21.6024 166.6 22.46C167.027 23.4018 167.242 24.4259 167.23 25.46C167.308 26.2812 167.164 27.1084 166.812 27.8546C166.46 28.6007 165.914 29.2382 165.23 29.7C164.43 30.1914 163.509 30.4479 162.57 30.44C162.164 30.4341 161.758 30.3906 161.36 30.31C160.961 30.2511 160.568 30.1506 160.19 30.01C160.032 29.9669 159.893 29.871 159.796 29.7383C159.7 29.6055 159.652 29.4438 159.66 29.28V20.3C159.642 20.1727 159.652 20.0431 159.69 19.9203C159.728 19.7975 159.793 19.6847 159.88 19.59L159.87 19.61ZM172.94 19.71C173.152 19.5988 173.392 19.5536 173.63 19.58H175C175.616 19.5553 176.233 19.5989 176.84 19.71C176.983 19.7346 177.118 19.794 177.233 19.8829C177.348 19.9718 177.44 20.0875 177.5 20.22C177.571 20.3878 177.608 20.5679 177.61 20.75V21C177.61 21.18 177.66 21.27 177.77 21.26C177.813 21.2627 177.855 21.2515 177.891 21.2281C177.928 21.2047 177.955 21.1703 177.97 21.13C178.009 20.925 178.035 20.718 178.05 20.51V20C178.05 19.62 178.05 19.39 178.12 19.31C178.128 19.2435 178.128 19.1764 178.12 19.11C178.12 18.95 178.02 18.86 177.83 18.86H177.49H176.86L175.64 18.92C175.09 18.92 174.47 18.92 173.77 18.92C172.768 18.9322 171.766 18.8854 170.77 18.78C170.577 18.768 170.383 18.768 170.19 18.78C169.93 18.78 169.8 18.86 169.8 19.01C169.8 19.16 169.89 19.17 170.05 19.17C170.249 19.1449 170.451 19.1713 170.636 19.2466C170.822 19.3219 170.985 19.4436 171.11 19.6C171.344 20.1238 171.44 20.6986 171.39 21.27V29.16C171.39 29.86 171.18 30.26 170.76 30.38L170.43 30.47C170.28 30.47 170.21 30.58 170.21 30.67C170.21 30.76 170.3 30.86 170.49 30.86C170.641 30.8511 170.792 30.8311 170.94 30.8C171.647 30.7155 172.359 30.6821 173.07 30.7C173.79 30.7 174.71 30.75 175.81 30.85H176.48C176.851 30.8566 177.218 30.7759 177.551 30.6143C177.885 30.4528 178.175 30.2149 178.4 29.92C178.757 29.5573 178.982 29.0856 179.04 28.58C179.04 28.42 178.98 28.35 178.87 28.35C178.829 28.3615 178.79 28.3818 178.758 28.4094C178.725 28.437 178.698 28.4713 178.68 28.51C178.03 29.51 176.58 30.05 174.32 30.05C173.865 30.0927 173.407 30.0312 172.98 29.87C172.81 29.74 172.72 29.44 172.72 28.95V25.51C172.713 25.4461 172.722 25.3814 172.746 25.3219C172.771 25.2625 172.81 25.2102 172.86 25.17C173.04 25.0952 173.236 25.0644 173.43 25.08H175.34C175.686 25.0622 176.03 25.1346 176.34 25.29C176.46 25.3865 176.559 25.5063 176.631 25.6421C176.703 25.7778 176.747 25.9268 176.76 26.08V26.32C176.761 26.3476 176.768 26.3746 176.78 26.3996C176.792 26.4246 176.808 26.4471 176.828 26.4656C176.849 26.4842 176.873 26.4986 176.899 26.5079C176.925 26.5172 176.952 26.5213 176.98 26.52C177.1 26.52 177.15 26.44 177.15 26.3C177.158 26.2168 177.158 26.1331 177.15 26.05C177.15 25.7 177.15 25.36 177.15 25C177.149 24.4923 177.176 23.9848 177.23 23.48C177.23 23.39 177.23 23.33 177.23 23.29C177.23 23.25 177.17 23.06 177.05 23.05C176.93 23.04 176.86 23.12 176.83 23.26C176.801 23.5187 176.716 23.7679 176.58 23.99C176.403 24.1277 176.192 24.2142 175.97 24.24C175.497 24.3175 175.019 24.351 174.54 24.34H173.21C173.055 24.3595 172.898 24.3316 172.76 24.26C172.695 24.109 172.67 23.9434 172.69 23.78V20.29C172.661 20.0781 172.715 19.8632 172.84 19.69L172.94 19.71ZM191.28 27.54V28.96C191.307 29.3325 191.246 29.7061 191.1 30.05C191.025 30.1686 190.925 30.2699 190.808 30.3474C190.691 30.425 190.559 30.477 190.42 30.5C190.27 30.5 190.2 30.61 190.2 30.7C190.2 30.79 190.28 30.85 190.45 30.85H191.45H192.29C192.533 30.8339 192.777 30.8339 193.02 30.85L193.69 30.92H194C194.21 30.92 194.32 30.87 194.32 30.76C194.32 30.65 194.17 30.57 193.86 30.53C193.53 30.5134 193.218 30.3785 192.98 30.15C192.795 29.8694 192.711 29.5347 192.74 29.2V28.11L192.58 23.4L192.53 21.31C192.505 20.8264 192.566 20.3422 192.71 19.88C192.758 19.7439 192.84 19.6225 192.948 19.5278C193.057 19.4331 193.189 19.3684 193.33 19.34L193.7 19.24C193.749 19.2349 193.793 19.2113 193.825 19.1741C193.857 19.1368 193.873 19.0888 193.87 19.04C193.87 18.92 193.82 18.87 193.7 18.87H193.45C193.23 18.87 192.94 18.87 192.57 18.87H192.29H191.91C191.869 18.8645 191.827 18.868 191.787 18.88C191.748 18.8921 191.711 18.9126 191.68 18.94C191.597 19.0468 191.53 19.1646 191.48 19.29L187.42 28L187.34 28.18L187.24 28.41C187.19 28.52 187.14 28.58 187.11 28.58C187.08 28.58 187.03 28.5 186.97 28.35L186.53 27.46L182.93 19.67L182.83 19.47C182.66 19.1 182.46 18.92 182.21 18.92H181.89C181.76 18.92 181.46 18.92 180.99 18.92C180.793 18.93 180.597 18.93 180.4 18.92H180.11C179.97 18.92 179.89 18.99 179.89 19.11C179.89 19.23 179.98 19.29 180.15 19.32C180.432 19.3542 180.702 19.4544 180.939 19.6125C181.175 19.7706 181.371 19.9822 181.51 20.23C181.825 20.9505 181.965 21.735 181.92 22.52C181.92 23 181.92 24.15 181.79 25.97L181.67 28.48C181.683 28.9993 181.58 29.515 181.37 29.99C181.273 30.1466 181.143 30.2804 180.989 30.3822C180.836 30.4841 180.662 30.5515 180.48 30.58C180.35 30.58 180.28 30.67 180.28 30.77C180.28 30.87 180.36 30.95 180.54 30.95H180.8C181.205 30.8971 181.612 30.8704 182.02 30.87C182.37 30.87 182.87 30.87 183.51 30.95C183.616 30.9599 183.724 30.9599 183.83 30.95C184 30.95 184.08 30.89 184.08 30.76C184.08 30.63 183.91 30.56 183.55 30.51C182.84 30.4 182.48 29.83 182.48 28.82C182.48 27.81 182.48 27.05 182.48 26.7L182.68 22.41L185.93 29.41L186.11 29.77C186.24 30.04 186.33 30.2 186.35 30.25C186.47 30.53 186.6 30.67 186.74 30.67C186.87 30.67 186.99 30.54 187.1 30.27L187.26 29.94C187.39 29.68 187.55 29.35 187.73 28.94L188.46 27.31L189.34 25.49L190.12 23.84C190.28 23.5 190.61 22.91 191.12 22.05L191.34 27.55L191.28 27.54ZM200.84 25.37C200.859 25.0562 200.974 24.756 201.17 24.51L201.38 24.22L203.48 21.08L204.04 20.24C204.342 19.7719 204.793 19.4195 205.32 19.24C205.47 19.19 205.54 19.12 205.54 19.03C205.54 18.94 205.46 18.87 205.31 18.88H204.85C204.68 18.88 204.31 18.88 203.72 18.88C203.314 18.9048 202.906 18.9048 202.5 18.88C202.347 18.8703 202.193 18.8703 202.04 18.88C201.92 18.88 201.85 18.88 201.84 19.02C201.83 19.16 201.91 19.19 202.05 19.22C202.78 19.39 203.14 19.67 203.14 20.06C203.034 20.5278 202.83 20.9676 202.54 21.35L202.12 22.02L200.87 23.92L200.78 24.05C200.761 24.0827 200.736 24.1106 200.704 24.1314C200.673 24.1523 200.637 24.1655 200.6 24.17C200.565 24.1649 200.533 24.1512 200.505 24.1303C200.477 24.1093 200.455 24.0817 200.44 24.05L200.33 23.88L198.51 21L198.26 20.58C198.075 20.3354 197.948 20.0514 197.89 19.75C197.89 19.48 198.08 19.28 198.47 19.16C198.6 19.16 198.67 19.06 198.67 18.98C198.67 18.9 198.58 18.81 198.42 18.81H197.96C197.72 18.81 197.18 18.81 196.34 18.81C195.946 18.8128 195.551 18.7894 195.16 18.74H194.72C194.54 18.74 194.45 18.81 194.45 18.93C194.45 19.05 194.54 19.09 194.7 19.09C195.02 19.0942 195.333 19.1802 195.61 19.34C195.903 19.4953 196.148 19.7268 196.32 20.01L196.61 20.48L199 24.38C199.156 24.6104 199.284 24.8589 199.38 25.12C199.447 25.3844 199.474 25.6575 199.46 25.93V28.93C199.5 29.3429 199.435 29.7592 199.27 30.14C199.023 30.3801 198.694 30.5161 198.35 30.52C198.16 30.52 198.07 30.62 198.07 30.74C198.07 30.86 198.13 30.88 198.27 30.88H198.59C198.876 30.8642 199.164 30.8642 199.45 30.88H200.13H200.81L201.44 30.94H201.89C202.09 30.94 202.2 30.87 202.2 30.74C202.2 30.61 202.11 30.58 201.93 30.56C201.41 30.51 201.1 30.4 200.99 30.25C200.836 29.8594 200.778 29.4377 200.82 29.02V25.35L200.84 25.37ZM215.94 19.2C215.167 19.4874 214.464 19.9376 213.88 20.52C213.336 21.0941 212.917 21.7752 212.65 22.52C212.356 23.2721 212.203 24.0723 212.2 24.88C212.164 25.7012 212.299 26.521 212.596 27.2871C212.894 28.0533 213.348 28.749 213.93 29.33C214.53 29.9032 215.24 30.3493 216.016 30.6414C216.793 30.9335 217.621 31.0657 218.45 31.03C219.278 31.0578 220.102 30.914 220.871 30.6077C221.641 30.3013 222.338 29.8391 222.92 29.25C223.504 28.6514 223.961 27.9402 224.261 27.1598C224.562 26.3793 224.701 25.5458 224.67 24.71C224.696 23.9139 224.555 23.1213 224.257 22.3827C223.959 21.644 223.511 20.9756 222.94 20.42C222.346 19.8612 221.646 19.4259 220.882 19.1393C220.118 18.8526 219.305 18.7203 218.49 18.75C217.617 18.749 216.751 18.9153 215.94 19.24V19.2ZM221.84 21C222.9 22.1804 223.462 23.7246 223.41 25.31C223.451 26.6607 222.984 27.9777 222.1 29C221.688 29.4721 221.176 29.8477 220.603 30.1C220.029 30.3523 219.407 30.4752 218.78 30.46C218.065 30.4632 217.359 30.3026 216.716 29.9906C216.073 29.6786 215.51 29.2234 215.07 28.66C214.047 27.4226 213.51 25.8547 213.56 24.25C213.487 22.9322 213.908 21.6345 214.74 20.61C215.137 20.1603 215.629 19.8055 216.181 19.5718C216.733 19.3381 217.331 19.2315 217.93 19.26C218.669 19.2467 219.402 19.3956 220.078 19.6963C220.754 19.9969 221.355 20.4419 221.84 21ZM229.2 19.61C229.59 19.4994 229.996 19.4588 230.4 19.49C230.89 19.49 231.3 19.49 231.62 19.49L232.62 19.6C232.88 19.5983 233.136 19.6564 233.37 19.77C233.515 19.9299 233.612 20.1275 233.65 20.34C233.694 20.5208 233.724 20.7047 233.74 20.89C233.74 21.03 233.8 21.11 233.89 21.11C233.98 21.11 234.13 20.97 234.13 20.71C234.114 20.1995 234.161 19.689 234.27 19.19C234.281 19.097 234.281 19.003 234.27 18.91C234.27 18.77 234.21 18.71 234.08 18.71H233.8C233.469 18.7568 233.135 18.7835 232.8 18.79L231.6 18.85C231.287 18.85 230.587 18.85 229.5 18.85C228.27 18.85 227.41 18.85 226.89 18.77L226.36 18.72C226.12 18.72 226 18.79 226.01 18.94C226.02 19.09 226.09 19.08 226.23 19.09C226.477 19.099 226.72 19.1498 226.95 19.24C227.11 19.3371 227.241 19.4752 227.33 19.64C227.524 20.034 227.614 20.4714 227.59 20.91V28.8C227.624 29.2104 227.555 29.6227 227.39 30C227.306 30.1278 227.196 30.2359 227.066 30.317C226.937 30.3981 226.791 30.4503 226.64 30.47C226.46 30.47 226.37 30.58 226.37 30.67C226.37 30.76 226.45 30.82 226.62 30.82H227.06C227.256 30.8086 227.453 30.8086 227.65 30.82H229C229.283 30.8052 229.567 30.8052 229.85 30.82C230.026 30.8314 230.204 30.8314 230.38 30.82C230.57 30.82 230.65 30.76 230.64 30.63C230.63 30.5 230.53 30.46 230.34 30.46C230.153 30.4708 229.966 30.4396 229.793 30.3687C229.62 30.2977 229.465 30.1888 229.34 30.05C229.105 29.7518 228.984 29.3794 229 29V25.74C228.98 25.5639 228.98 25.3861 229 25.21C229 25.11 229.14 25.04 229.34 25.01C229.786 24.9859 230.234 24.9859 230.68 25.01C231.247 24.9927 231.815 25.0431 232.37 25.16C232.53 25.1837 232.676 25.2656 232.78 25.39C232.888 25.5792 232.962 25.7856 233 26C233.07 26.28 233.15 26.42 233.27 26.42C233.39 26.42 233.43 26.35 233.43 26.22C233.438 26.1369 233.438 26.0531 233.43 25.97C233.43 25.79 233.43 25.36 233.43 24.69C233.43 24.45 233.43 24.27 233.43 24.16V23.3C233.43 23.13 233.43 23.04 233.28 23.04C233.13 23.04 233.12 23.11 233.1 23.24C233.086 23.4015 233.038 23.5582 232.958 23.6996C232.879 23.841 232.771 23.9639 232.64 24.06C232.287 24.2467 231.888 24.3299 231.49 24.3H229.49C229.18 24.3 229.02 24.22 229 24.06V20.24C229 19.89 229.07 19.68 229.23 19.59L229.2 19.61Z" fill="#1D1D1B"></path><path d="M109.58 30.1201C109.363 30.1772 109.161 30.2833 108.99 30.4301C108.913 30.5131 108.811 30.5691 108.7 30.5901L108.37 30.4701L108.06 30.3401L107.29 29.9301C104.978 28.6955 102.392 28.0627 99.7702 28.0901C97.9319 28.0377 96.1025 28.366 94.3971 29.0544C92.6917 29.7427 91.1471 30.7763 89.8602 32.0901C88.551 33.3992 87.5214 34.9606 86.8339 36.6796C86.1463 38.3986 85.815 40.2393 85.8602 42.0901C85.7875 43.8897 86.0895 45.6847 86.7471 47.3614C87.4047 49.038 88.4035 50.5598 89.6802 51.8301C91.0186 53.0788 92.592 54.049 94.3087 54.6841C96.0254 55.3193 97.8513 55.6069 99.6802 55.5301C103.174 55.5571 106.6 54.5669 109.54 52.6801C110.1 52.3201 110.4 51.9701 110.45 51.6301L110.53 51.2801L110.98 48.9101L111.06 48.4801V48.3001C111.06 48.0401 110.96 47.9101 110.75 47.9301C110.54 47.9501 110.32 48.2901 109.98 48.9301C109.107 50.564 107.743 51.8826 106.08 52.7001C104.34 53.7047 102.369 54.2421 100.36 54.2601C98.7971 54.2953 97.2472 53.9667 95.8328 53.3003C94.4184 52.6338 93.1783 51.6479 92.2102 50.4201C90.0096 47.6061 88.8855 44.0991 89.0402 40.5301C89.0402 37.0234 89.9902 34.2568 91.8902 32.2301C92.9018 31.2064 94.1195 30.4094 95.4625 29.8922C96.8056 29.375 98.2433 29.1493 99.6802 29.2301C103.82 29.2301 107.097 31.3434 109.51 35.5701C109.82 36.1201 110.06 36.3901 110.21 36.3801C110.271 36.3764 110.33 36.3569 110.38 36.3235C110.431 36.2902 110.473 36.2442 110.5 36.1901L110.56 35.9901L110.5 35.5101L110 30.8601C109.94 30.3701 109.8 30.1201 109.6 30.1201H109.58ZM128.58 52.5701C127.947 53.1944 127.187 53.6755 126.352 53.9809C125.517 54.2862 124.627 54.4088 123.74 54.3401C121.327 54.3401 119.614 53.6335 118.6 52.2201C117.874 51.2335 117.51 49.5668 117.51 47.2201V40.4001V39.5101C117.466 38.8878 117.559 38.2633 117.78 37.6801C117.894 37.4961 118.047 37.3396 118.229 37.222C118.41 37.1044 118.616 37.0286 118.83 37.0001C119.12 37.0001 119.26 36.8401 119.26 36.6701C119.26 36.5001 119.16 36.4601 118.95 36.4601C118.74 36.4601 118.59 36.4601 118.26 36.4601C117.93 36.4601 117.61 36.4601 117.5 36.4601H116.5H115.45C115.26 36.4601 114.96 36.4601 114.55 36.4601H113.61C113.27 36.4601 113.09 36.5601 113.09 36.7801C113.09 37.0001 113.22 37.0201 113.46 37.0601C114.07 37.0809 114.648 37.3393 115.07 37.7801C115.396 38.3935 115.535 39.0887 115.47 39.7801V40.5501V47.4401C115.416 49.0328 115.759 50.6138 116.47 52.0401C117.098 53.1096 118.041 53.9586 119.17 54.4701C120.468 55.077 121.887 55.3813 123.32 55.3601C124.599 55.3685 125.865 55.1131 127.04 54.6101C128.096 54.194 129.021 53.5036 129.72 52.6101C130.805 50.9151 131.324 48.919 131.2 46.9101V40.2301C131.157 39.4556 131.238 38.6791 131.44 37.9301C131.542 37.6984 131.691 37.4901 131.876 37.3181C132.062 37.1461 132.281 37.014 132.52 36.9301C132.71 36.8501 132.81 36.7401 132.81 36.6101C132.81 36.4801 132.72 36.3701 132.55 36.3701H131.95C131.72 36.3701 131.09 36.3701 130.08 36.3701C129.668 36.3753 129.257 36.3452 128.85 36.2801C128.47 36.2201 128.18 36.1801 127.98 36.1701C127.78 36.1601 127.71 36.2501 127.71 36.4501C127.71 36.6501 127.84 36.7101 128.1 36.7301C128.426 36.7371 128.746 36.8203 129.035 36.9731C129.323 37.1259 129.571 37.344 129.76 37.6101C130.144 38.3703 130.314 39.2208 130.25 40.0701V47.0701C130.395 48.9866 129.825 50.8889 128.65 52.4101L128.58 52.5701ZM139.58 39.5701C139.58 38.1501 139.98 37.3401 140.8 37.1401L141.27 37.0301C141.53 36.9701 141.66 36.8401 141.66 36.6401C141.66 36.5101 141.56 36.4501 141.34 36.4501H140.76C140.08 36.4501 139.33 36.5201 138.5 36.5201C137.67 36.5201 137.04 36.5201 136.43 36.4401C136.07 36.4401 135.78 36.3901 135.58 36.3901C135.38 36.3901 135.12 36.4901 135.12 36.6901C135.12 36.8901 135.22 36.9101 135.44 36.9501L136.05 37.0701C137.05 37.2701 137.52 37.9701 137.52 39.1801V51.3701V52.0001C137.569 52.6338 137.459 53.2697 137.2 53.8501C136.899 54.2813 136.445 54.5816 135.93 54.6901C135.69 54.7601 135.56 54.8601 135.56 55.0101C135.56 55.1601 135.68 55.2601 135.9 55.2501C136.155 55.233 136.409 55.203 136.66 55.1601C137.589 55.0413 138.524 54.9879 139.46 55.0001C140.42 55.0001 141.33 55.0301 142.19 55.0901L143.66 55.2101C144.04 55.2101 144.37 55.2101 144.66 55.2101C145.363 55.2757 146.071 55.177 146.728 54.9219C147.386 54.6668 147.976 54.2622 148.45 53.7401C148.939 53.1765 149.248 52.4803 149.34 51.7401C149.34 51.5601 149.28 51.4701 149.13 51.4701C148.98 51.4701 148.88 51.5901 148.75 51.8301C148.192 52.6478 147.339 53.2176 146.37 53.4201C144.941 53.85 143.453 54.0558 141.96 54.0301C141.279 54.1096 140.588 54.0061 139.96 53.7301C139.674 53.1298 139.566 52.4599 139.65 51.8001V39.6001L139.58 39.5701ZM155.71 37.2001L156.41 36.9301C156.65 36.8501 156.76 36.7301 156.76 36.5801C156.76 36.4301 156.64 36.3301 156.4 36.3301H156.06L155.15 36.4001C154.68 36.4001 154.15 36.4001 153.44 36.4001C152.562 36.4106 151.684 36.3705 150.81 36.2801H150.57C150.3 36.2801 150.17 36.3801 150.18 36.5701C150.19 36.7601 150.33 36.8301 150.61 36.8801C150.923 36.8944 151.229 36.9718 151.511 37.1075C151.793 37.2433 152.044 37.4347 152.25 37.6701C152.574 38.3803 152.709 39.1624 152.64 39.9401V51.6501C152.702 52.4162 152.6 53.1866 152.34 53.9101C152.187 54.1202 151.989 54.2937 151.761 54.4182C151.533 54.5427 151.28 54.615 151.02 54.6301C150.74 54.6701 150.6 54.7701 150.6 54.9301C150.6 55.1201 150.72 55.2101 150.97 55.2101C151.187 55.2224 151.404 55.2224 151.62 55.2101L153.21 55.1101H155.21C155.691 55.1006 156.172 55.1206 156.65 55.1701C156.819 55.1988 156.989 55.2155 157.16 55.2201C157.44 55.2201 157.58 55.1101 157.58 54.9001C157.58 54.6901 157.35 54.6201 156.9 54.5601C156.458 54.5214 156.03 54.3811 155.65 54.1501C155.329 53.8935 155.096 53.5443 154.98 53.1501C154.782 52.329 154.705 51.4835 154.75 50.6401V40.4801C154.75 38.5701 155.08 37.4801 155.75 37.2301L155.71 37.2001ZM175.84 40.8101V39.3801C175.797 38.775 175.886 38.1677 176.1 37.6001C176.226 37.4184 176.387 37.2644 176.575 37.1474C176.762 37.0305 176.972 36.9531 177.19 36.9201C177.38 36.8701 177.47 36.7801 177.46 36.6601C177.45 36.5401 177.32 36.3801 177.08 36.3801C176.858 36.39 176.638 36.4168 176.42 36.4601C175.976 36.5145 175.528 36.5379 175.08 36.5301C174.08 36.5301 173.19 36.5301 172.57 36.4401C172.38 36.4297 172.19 36.4297 172 36.4401C171.74 36.4401 171.61 36.5201 171.61 36.6901C171.61 36.8601 171.74 36.9801 172 37.0201C172.696 37.0784 173.363 37.3237 173.93 37.7301C174.344 38.1782 174.582 38.7606 174.6 39.3701L174.77 42.4901V44.3201V51.0001C174.77 51.1701 174.71 51.2501 174.62 51.2601C174.53 51.2701 174.44 51.1601 174.24 50.9401L161.73 36.8101C161.653 36.699 161.551 36.6065 161.434 36.5391C161.316 36.4716 161.185 36.431 161.05 36.4201H160.33H159.42H158.87H158.65C158.45 36.4201 158.35 36.5001 158.35 36.6701C158.35 36.8401 158.47 36.9501 158.72 36.9801C159.179 37.0399 159.616 37.2117 159.993 37.4803C160.369 37.7488 160.674 38.1059 160.88 38.5201C161.426 39.6743 161.68 40.9448 161.62 42.2201V51.4501C161.674 52.1828 161.536 52.9168 161.22 53.5801C160.844 54.0975 160.299 54.4685 159.68 54.6301C159.42 54.7201 159.29 54.8301 159.3 54.9601C159.31 55.0901 159.44 55.2101 159.68 55.2101L160.18 55.1601C160.512 55.1197 160.846 55.0997 161.18 55.1001H161.83L163.22 55.1701C163.91 55.1701 164.31 55.2301 164.41 55.2501H164.81C165 55.2501 165.1 55.1601 165.1 54.9901C165.1 54.8201 164.95 54.6801 164.65 54.6501C164.134 54.6153 163.637 54.4426 163.21 54.1501C162.917 53.8023 162.751 53.3649 162.74 52.9101V51.9101V51.3401V42.1301C162.74 41.7201 162.82 41.5201 162.99 41.5201C163.027 41.5184 163.064 41.5246 163.099 41.5384C163.133 41.5522 163.165 41.5733 163.19 41.6001L163.32 41.7501L174.75 54.8101L175.05 55.1601C175.137 55.2425 175.251 55.289 175.37 55.2901C175.416 55.2942 175.463 55.2892 175.507 55.2753C175.551 55.2614 175.591 55.239 175.627 55.2092C175.662 55.1795 175.691 55.143 175.712 55.102C175.734 55.061 175.746 55.0161 175.75 54.9701C175.807 54.3485 175.827 53.7241 175.81 53.1001V41.7401V40.8401L175.84 40.8101ZM190.72 48.0501C190.929 48.3017 191.083 48.5948 191.17 48.9101L191.85 50.7101C192.262 51.6223 192.542 52.5888 192.68 53.5801C192.709 53.7918 192.654 54.0065 192.527 54.1783C192.4 54.3501 192.211 54.4656 192 54.5001L191.58 54.6001C191.36 54.6001 191.24 54.7401 191.24 54.8801C191.24 55.0201 191.36 55.1601 191.6 55.1601C191.74 55.1693 191.88 55.1693 192.02 55.1601C192.801 55.0775 193.586 55.0474 194.37 55.0701C195.57 55.0701 196.37 55.0701 196.88 55.1401H197.39C197.64 55.1401 197.76 55.0701 197.77 54.9101C197.78 54.7501 197.65 54.6301 197.37 54.5801C196.754 54.5272 196.163 54.3096 195.66 53.9501C195.189 53.3527 194.83 52.6751 194.6 51.9501L194.3 51.2101L188.47 36.2801C188.38 36.0201 188.25 35.8901 188.11 35.8901C187.97 35.8901 187.84 36.0201 187.72 36.2901L180.72 51.7701L180.33 52.6701C180.126 53.0993 179.871 53.5022 179.57 53.8701C179.381 54.1468 179.127 54.3733 178.83 54.5301L178.33 54.6801C178.263 54.6922 178.203 54.7283 178.16 54.7817C178.118 54.8351 178.097 54.9021 178.1 54.9701C178.1 55.1401 178.22 55.2201 178.47 55.2201L179.22 55.1401H179.83C180.397 55.1401 180.897 55.1401 181.33 55.1401L182.63 55.2101H183.09C183.35 55.2101 183.48 55.1301 183.47 54.9801C183.46 54.8301 183.32 54.7201 183.05 54.6701C182.598 54.6048 182.167 54.4372 181.79 54.1801C181.674 54.0565 181.586 53.9097 181.531 53.7494C181.475 53.5891 181.455 53.4189 181.47 53.2501C181.549 52.5517 181.756 51.8737 182.08 51.2501L182.97 49.2501C183.108 48.8481 183.329 48.48 183.62 48.1701C184.018 48.0181 184.446 47.9599 184.87 48.0001H189.77C190.082 47.9674 190.397 48.0086 190.69 48.1201L190.72 48.0501ZM190 46.0001C190.04 46.0991 190.064 46.2037 190.07 46.3101C190.07 46.5301 189.84 46.6501 189.39 46.6501H185.3H184.93C184.52 46.6501 184.31 46.5401 184.31 46.3001C184.342 46.1245 184.402 45.9554 184.49 45.8001L187.15 40.0001C187.23 39.8201 187.3 39.7301 187.37 39.7401C187.44 39.7501 187.61 39.9001 187.72 40.1901L187.83 40.4701L190 45.7701V46.0001ZM211.07 41.0001C211.113 40.331 210.991 39.6616 210.713 39.0511C210.436 38.4407 210.012 37.9079 209.48 37.5001C208.072 36.6256 206.424 36.2163 204.77 36.3301C204.22 36.3301 203.58 36.3301 202.86 36.3901C201.854 36.4501 201.144 36.4801 200.73 36.4801C200.25 36.4801 199.85 36.4801 199.52 36.4801L198.57 36.4301C198.26 36.4301 198.11 36.5201 198.11 36.7101C198.11 36.9001 198.25 36.9801 198.54 37.0301L199.18 37.1201C200.18 37.2901 200.66 38.0701 200.66 39.4901V40.9001V50.6501C200.721 51.6886 200.606 52.7299 200.32 53.7301C200.19 54.0054 199.991 54.2422 199.742 54.4175C199.493 54.5927 199.203 54.7005 198.9 54.7301C198.68 54.7801 198.56 54.8701 198.56 55.0001C198.56 55.1301 198.68 55.2801 198.9 55.2801C199.12 55.2801 199.28 55.2801 199.63 55.2201C199.98 55.1601 200.44 55.1601 200.74 55.1601H201.45H202.75C203.52 55.1601 204.1 55.1601 204.47 55.2201L205.26 55.2801C205.58 55.2801 205.73 55.1901 205.71 55.0201C205.69 54.8501 205.54 54.7501 205.21 54.7201C204.567 54.6932 203.944 54.489 203.41 54.1301C203.145 53.9433 202.951 53.6718 202.86 53.3601C202.759 52.8331 202.719 52.2963 202.74 51.7601V47.0001C202.74 46.7801 202.79 46.6301 202.9 46.5701L203.2 46.5101H205.01C205.221 46.497 205.432 46.5423 205.619 46.6411C205.806 46.7399 205.962 46.8883 206.07 47.0701L206.25 47.3701L209.63 52.5101C210.155 53.3584 210.833 54.1012 211.63 54.7001C212.273 55.1445 213.038 55.3786 213.82 55.3701C214.269 55.3743 214.717 55.3171 215.15 55.2001C215.55 55.0901 215.75 54.9701 215.76 54.8301C215.77 54.6901 215.69 54.6501 215.53 54.6401H215.09C214.09 54.5801 213.09 53.7001 211.89 52.0101L211.46 51.3601L207.71 45.8501C209.95 44.7301 211.07 43.1601 211.07 41.1201V41.0001ZM203 45.3101C202.88 45.2001 202.83 44.9301 202.83 44.5101V39.0001V38.5501C202.807 38.3709 202.822 38.1887 202.875 38.0161C202.929 37.8435 203.019 37.6845 203.14 37.5501C203.473 37.3461 203.862 37.255 204.25 37.2901C205.551 37.2366 206.82 37.6922 207.79 38.5601C208.244 38.9683 208.604 39.4705 208.844 40.0318C209.084 40.5931 209.199 41.1999 209.18 41.8101C209.208 42.3017 209.133 42.7937 208.961 43.255C208.789 43.7163 208.523 44.1368 208.18 44.4901C207.413 45.1826 206.402 45.5423 205.37 45.4901H203.84C203.42 45.4901 203.15 45.4901 203.04 45.3201L203 45.3101ZM223.66 46.6001C223.692 46.1123 223.869 45.6453 224.17 45.2601L224.5 44.8001L227.79 39.8801L228.68 38.5601C229.161 37.8467 229.864 37.3123 230.68 37.0401C230.91 36.9701 231.02 36.8601 231.02 36.7201C231.02 36.5801 230.9 36.4601 230.65 36.4801L229.93 36.5501C229.68 36.5501 229.09 36.5501 228.16 36.5501C227.526 36.5647 226.892 36.5447 226.26 36.4901C226.022 36.451 225.781 36.4276 225.54 36.4201C225.34 36.4201 225.24 36.4901 225.23 36.6501C225.22 36.8101 225.33 36.9101 225.55 36.9601C226.69 37.2301 227.26 37.6701 227.26 38.2701C227.094 38.9966 226.774 39.6788 226.32 40.2701L225.65 41.3201L223.7 44.3201L223.56 44.5301C223.531 44.5813 223.491 44.625 223.443 44.658C223.394 44.691 223.338 44.7122 223.28 44.7201C223.19 44.7201 223.11 44.6501 223.03 44.5301L222.85 44.2501L220 39.8201L219.62 39.1701C219.327 38.7836 219.125 38.3358 219.03 37.8601C219.03 37.4301 219.33 37.1201 219.94 36.9401C220.15 36.8801 220.25 36.7801 220.25 36.6501C220.25 36.5201 220.12 36.3801 219.86 36.3801L219.14 36.4401C218.767 36.4801 217.917 36.5001 216.59 36.5001C215.975 36.4999 215.361 36.4631 214.75 36.3901C214.52 36.3752 214.29 36.3752 214.06 36.3901C213.78 36.3901 213.64 36.4901 213.64 36.6901C213.64 36.8501 213.77 36.9301 214.04 36.9301C214.539 36.9432 215.028 37.0807 215.46 37.3301C215.909 37.5645 216.29 37.9085 216.57 38.3301L217.03 39.0801L220.82 45.0801C221.07 45.4353 221.272 45.822 221.42 46.2301C221.516 46.6497 221.556 47.08 221.54 47.5101V52.1401C221.605 52.7864 221.499 53.4385 221.23 54.0301C220.849 54.4148 220.332 54.634 219.79 54.6401C219.5 54.6401 219.35 54.7901 219.35 54.9701C219.35 55.1501 219.45 55.2001 219.66 55.2001L220.18 55.1401C220.627 55.1152 221.074 55.1152 221.52 55.1401H222.58L223.65 55.2001L224.65 55.2901L225.35 55.3601C225.67 55.3601 225.83 55.2501 225.83 55.0401C225.83 54.8301 225.69 54.7801 225.41 54.7601C224.6 54.6701 224.11 54.5201 223.94 54.2801C223.698 53.6675 223.609 53.005 223.68 52.3501V46.6001H223.66ZM251.66 45.1101C251.959 45.4695 252.178 45.889 252.3 46.3401L253.3 48.9001C253.89 50.2025 254.287 51.5836 254.48 53.0001C254.501 53.1525 254.492 53.3075 254.453 53.4563C254.415 53.6052 254.347 53.7449 254.254 53.8675C254.161 53.9901 254.045 54.0932 253.912 54.1708C253.779 54.2485 253.633 54.2992 253.48 54.3201L252.88 54.4501C252.56 54.5201 252.4 54.6501 252.4 54.8501C252.4 55.0501 252.56 55.2501 252.9 55.2501C253.102 55.2394 253.303 55.2127 253.5 55.1701C254.62 55.0602 255.745 55.0201 256.87 55.0501C258.59 55.0501 259.78 55.0501 260.46 55.1501H261.19C261.54 55.1501 261.72 55.0401 261.73 54.8301C261.74 54.6201 261.55 54.4301 261.15 54.3601C260.271 54.2776 259.429 53.9636 258.71 53.4501C258.039 52.5731 257.528 51.5847 257.2 50.5301L256.77 49.5301L248.44 28.1901C248.3 27.8101 248.13 27.6201 247.92 27.6201C247.71 27.6201 247.53 27.8201 247.36 28.2001L237.36 50.3201L236.8 51.6001C236.506 52.2124 236.144 52.7894 235.72 53.3201C235.471 53.7127 235.127 54.036 234.72 54.2601L234 54.4701C233.904 54.4891 233.818 54.542 233.757 54.619C233.697 54.6961 233.666 54.7922 233.67 54.8901C233.67 55.1301 233.85 55.2501 234.2 55.2501L235.28 55.1401C235.48 55.1401 235.77 55.1401 236.15 55.1401C236.96 55.1401 237.67 55.1401 238.29 55.1401L240.15 55.2401H240.8C241.18 55.2401 241.36 55.1301 241.34 54.9201C241.32 54.7101 241.13 54.5401 240.74 54.4601C240.096 54.373 239.482 54.133 238.95 53.7601C238.786 53.5844 238.661 53.3759 238.584 53.1484C238.506 52.9208 238.478 52.6794 238.5 52.4401C238.603 51.4249 238.894 50.4379 239.36 49.5301L240.63 46.6801C240.825 46.1025 241.142 45.5737 241.56 45.1301C242.127 44.9124 242.736 44.8302 243.34 44.8901H250.34C250.787 44.8451 251.239 44.9033 251.66 45.0601V45.1101ZM250.66 42.1701C250.715 42.3145 250.749 42.4661 250.76 42.6201C250.76 42.9401 250.44 43.1001 249.76 43.1001H243.91H243.39C242.79 43.1001 242.5 42.9301 242.5 42.6001C242.541 42.3474 242.626 42.1037 242.75 41.8801L246.53 33.4901C246.64 33.2401 246.74 33.1101 246.84 33.1301C246.94 33.1501 247.18 33.3501 247.34 33.7701L247.49 34.1701L250.54 41.8401L250.63 42.1901L250.66 42.1701ZM274.8 41.0501C274.843 40.381 274.721 39.7116 274.443 39.1011C274.166 38.4907 273.742 37.9579 273.21 37.5501C271.802 36.6756 270.154 36.2663 268.5 36.3801C267.95 36.3801 267.31 36.3801 266.59 36.4401C265.59 36.5001 264.87 36.5301 264.46 36.5301C264.05 36.5301 263.58 36.5301 263.25 36.5301L262.3 36.4801C261.99 36.4801 261.84 36.5701 261.84 36.7601C261.84 36.9501 261.98 37.0301 262.27 37.0801L262.91 37.1701C263.91 37.3401 264.39 38.1201 264.39 39.5401V40.9501V50.7001C264.451 51.7386 264.336 52.7799 264.05 53.7801C263.92 54.0554 263.721 54.2922 263.472 54.4675C263.223 54.6427 262.933 54.7505 262.63 54.7801C262.41 54.8301 262.29 54.9201 262.29 55.0501C262.29 55.1801 262.41 55.3301 262.63 55.3301C262.85 55.3301 263.01 55.3301 263.36 55.2701C263.71 55.2101 264.17 55.2101 264.47 55.2101H265.18H266.48C267.25 55.2101 267.83 55.2101 268.2 55.2701L269 55.3301C269.31 55.3301 269.46 55.2401 269.44 55.0701C269.42 54.9001 269.27 54.8001 268.94 54.7701C268.298 54.7416 267.675 54.5376 267.14 54.1801C266.875 53.9933 266.681 53.7218 266.59 53.4101C266.489 52.8831 266.449 52.3463 266.47 51.8101V47.0001C266.47 46.7801 266.47 46.6301 266.63 46.5701L266.93 46.5101H268.74C268.951 46.4958 269.163 46.5406 269.35 46.6395C269.537 46.7384 269.693 46.8875 269.8 47.0701L269.99 47.3701L273.36 52.5101C273.885 53.3584 274.563 54.1012 275.36 54.7001C276.003 55.1445 276.768 55.3786 277.55 55.3701C277.999 55.3749 278.447 55.3177 278.88 55.2001C279.28 55.0901 279.48 54.9701 279.49 54.8301C279.5 54.6901 279.42 54.6501 279.26 54.6401H278.82C277.82 54.5801 276.82 53.7001 275.62 52.0101L275.19 51.3601L271.45 45.8501C273.68 44.7301 274.8 43.1601 274.8 41.1201V41.0501ZM266.66 45.3101C266.515 45.0701 266.456 44.7883 266.49 44.5101V38.5101C266.465 38.3317 266.479 38.1499 266.531 37.9773C266.583 37.8047 266.671 37.6453 266.79 37.5101C267.123 37.3061 267.512 37.215 267.9 37.2501C269.201 37.1966 270.47 37.6522 271.44 38.5201C271.894 38.9283 272.254 39.4305 272.494 39.9918C272.734 40.5531 272.849 41.1599 272.83 41.7701C272.858 42.2617 272.783 42.7537 272.611 43.215C272.439 43.6763 272.173 44.0968 271.83 44.4501C271.452 44.7927 271.01 45.0574 270.53 45.229C270.049 45.4006 269.54 45.4757 269.03 45.4501H267.49C267.07 45.4501 266.8 45.4501 266.69 45.2801L266.66 45.3101ZM293.81 38.2401C294.14 38.5805 294.339 39.027 294.37 39.5001C294.43 39.7901 294.54 39.9301 294.71 39.9201C294.88 39.9101 295 39.7601 294.99 39.4901C294.979 39.2685 294.952 39.048 294.91 38.8301C294.853 38.4429 294.829 38.0514 294.84 37.6601C294.84 37.1301 294.79 36.8101 294.68 36.6601C294.57 36.5101 294.28 36.4901 293.78 36.4901H279.1C278.99 36.4755 278.878 36.4859 278.772 36.5205C278.667 36.5551 278.57 36.6131 278.49 36.6901C278.372 36.9465 278.324 37.2292 278.35 37.5101C278.334 38.0519 278.267 38.5909 278.15 39.1201C278.065 39.4481 278.009 39.7826 277.98 40.1201C277.98 40.3501 278.07 40.4701 278.23 40.4801C278.39 40.4901 278.52 40.3201 278.6 39.9701C278.686 39.3524 278.954 38.7744 279.37 38.3101C279.859 38.0146 280.437 37.9046 281 38.0001H284.59C284.818 37.9721 285.05 38.0176 285.25 38.1301C285.365 38.3189 285.414 38.5404 285.39 38.7601V52.5301C285.443 53.0818 285.317 53.6358 285.03 54.1101C284.641 54.466 284.137 54.6716 283.61 54.6901C283.32 54.6901 283.17 54.8101 283.17 54.9501C283.17 55.0901 283.3 55.2501 283.57 55.2501L284.49 55.1701C284.823 55.151 285.157 55.151 285.49 55.1701H286.55H287.55C287.96 55.1455 288.371 55.1455 288.78 55.1701C288.999 55.209 289.219 55.2357 289.44 55.2501C289.7 55.2501 289.82 55.1501 289.82 54.9501C289.82 54.7501 289.66 54.7001 289.35 54.6501C288.867 54.6244 288.413 54.4137 288.082 54.0617C287.75 53.7097 287.567 53.2436 287.57 52.7601V38.9101C287.537 38.6344 287.59 38.3552 287.72 38.1101C287.944 37.9718 288.209 37.9152 288.47 37.9501H292.28C292.81 37.9021 293.344 38.0025 293.82 38.2401H293.81ZM298.24 37.5501C297.713 37.9825 297.292 38.5301 297.009 39.1507C296.727 39.7713 296.59 40.4485 296.61 41.1301C296.586 41.721 296.684 42.3105 296.899 42.8614C297.114 43.4122 297.442 43.9124 297.86 44.3301C299.067 45.362 300.478 46.1285 302 46.5801C303.238 46.912 304.423 47.417 305.52 48.0801C305.897 48.3863 306.2 48.7739 306.406 49.2137C306.612 49.6536 306.716 50.1344 306.71 50.6201C306.712 51.1353 306.596 51.644 306.373 52.1082C306.149 52.5723 305.824 52.9799 305.42 53.3001C304.537 54.0412 303.413 54.4326 302.26 54.4001C301.03 54.3972 299.834 53.9974 298.85 53.2601C297.867 52.5751 297.145 51.5777 296.8 50.4301C296.67 50.0001 296.52 49.7701 296.35 49.7701C296.18 49.7701 296.08 49.8901 296.08 50.1601C296.129 50.7485 296.246 51.3292 296.43 51.8901C296.64 52.6401 296.75 53.0601 296.77 53.1301C296.831 53.448 296.911 53.7619 297.01 54.0701C297.087 54.2115 297.201 54.3291 297.34 54.4101C297.908 54.7495 298.531 54.9865 299.18 55.1101C299.93 55.2915 300.698 55.3887 301.47 55.4001C303.196 55.4747 304.887 54.9004 306.21 53.7901C306.807 53.2797 307.283 52.642 307.601 51.9238C307.919 51.2057 308.073 50.4254 308.05 49.6401C308.05 47.1501 306.38 45.3501 303.05 44.2601C301.954 43.9236 300.875 43.5298 299.82 43.0801C299.347 42.8418 298.933 42.5 298.61 42.0801C298.17 41.5086 297.944 40.8011 297.97 40.0801C297.964 39.6696 298.051 39.2631 298.225 38.8909C298.398 38.5186 298.653 38.1902 298.97 37.9301C299.648 37.3493 300.518 37.0426 301.41 37.0701C302.595 37.0675 303.753 37.4154 304.74 38.0701C305.675 38.6157 306.385 39.4776 306.74 40.5001C306.88 40.9401 307.03 41.1601 307.18 41.1601C307.33 41.1601 307.47 41.0201 307.47 40.7401C307.459 40.5521 307.436 40.3651 307.4 40.1801L307.18 38.7801C307.07 38.0201 307.01 37.5601 307.01 37.4101C307.01 36.9501 306.89 36.7301 306.67 36.7401C306.616 36.7366 306.562 36.7545 306.52 36.7901L306.33 36.9601C306.228 37.0099 306.112 37.024 306 37.0001C305.917 37.0143 305.833 37.0143 305.75 37.0001L304.82 36.6001C304.036 36.2995 303.2 36.1568 302.36 36.1801C300.836 36.1152 299.34 36.6056 298.15 37.5601L298.24 37.5501Z" fill="#1D1D1B"></path><path d="M96.0002 64.4701V64.0001H92.7402V64.4701L93.1502 64.5401C93.7402 64.6401 93.7402 64.8601 93.4702 65.3901C93.2296 65.9067 92.9452 66.4019 92.6202 66.8701C91.7602 66.0801 91.0302 65.4201 90.5402 65.0201C91.0602 64.6401 91.3002 64.4601 91.5402 64.2401C91.7279 64.1087 91.8824 63.9355 91.9917 63.7342C92.1011 63.5329 92.1622 63.309 92.1702 63.0801C92.171 62.8043 92.1148 62.5314 92.005 62.2784C91.8952 62.0254 91.7344 61.7979 91.5325 61.6101C91.3305 61.4223 91.092 61.2782 90.8317 61.187C90.5715 61.0958 90.2952 61.0594 90.0202 61.0801C89.4152 61.0638 88.8282 61.2867 88.3864 61.7004C87.9446 62.1141 87.6837 62.6853 87.6602 63.2901C87.6801 63.6337 87.7713 63.9694 87.9279 64.2758C88.0846 64.5823 88.3033 64.8528 88.5702 65.0701C87.7202 65.6601 86.7402 66.2701 86.7402 67.4301C86.7541 67.7652 86.8351 68.094 86.9782 68.3973C87.1213 68.7006 87.3238 68.9721 87.5736 69.1958C87.8234 69.4195 88.1155 69.5909 88.4327 69.6999C88.7499 69.8088 89.0857 69.8531 89.4202 69.8301C89.9564 69.8033 90.4794 69.6542 90.9491 69.3942C91.4188 69.1342 91.8228 68.7702 92.1302 68.3301C92.4902 68.7101 92.8802 69.0901 93.0202 69.2401C93.6304 69.6684 94.3464 69.9209 95.0902 69.9701L95.2402 69.7901C94.583 68.8655 93.8324 68.011 93.0002 67.2401C93.5602 66.4601 93.8502 65.9801 94.2402 65.4901C94.7302 64.8301 95.0202 64.6301 95.5502 64.5401L95.9502 64.4701H96.0002ZM90.0002 61.6101C90.6602 61.6101 91.1002 62.2701 91.1002 63.0701C91.0933 63.3913 91.012 63.7065 90.8628 63.9911C90.7136 64.2756 90.5005 64.5217 90.2402 64.7101C89.3902 64.0501 88.9302 63.5601 88.9302 62.8801C88.9053 62.5701 89.0036 62.2628 89.204 62.025C89.4044 61.7872 89.6905 61.6381 90.0002 61.6101ZM90.0002 68.8001C89.5139 68.8081 89.0442 68.6233 88.6938 68.286C88.3434 67.9487 88.1407 67.4864 88.1302 67.0001C88.1435 66.6869 88.2267 66.3806 88.3738 66.1037C88.5209 65.8268 88.7281 65.5864 88.9802 65.4001C90.1102 66.4001 90.9102 67.1201 91.7802 67.9801C91.5636 68.2411 91.2913 68.4502 90.9833 68.5921C90.6753 68.734 90.3393 68.8051 90.0002 68.8001ZM114 58.5901H109.57V59.0601C110.89 59.1801 111.03 59.2701 111.03 60.6701V63.4201H105.24V60.6701C105.24 59.2701 105.38 59.1801 106.67 59.0601V58.5901H102.28V59.0601C103.67 59.1801 103.8 59.2501 103.8 60.6701V67.5301C103.8 68.9501 103.67 69.0401 102.31 69.1401V69.6101H106.77V69.1401C105.38 69.0401 105.24 68.9401 105.24 67.5301V64.1301H111V67.5301C111 68.9501 110.85 69.0401 109.4 69.1401V69.6101H114V69.1401C112.63 69.0401 112.49 68.9501 112.49 67.5301V60.6701C112.49 59.2701 112.63 59.1801 114.02 59.0601V58.5901H114ZM119.92 61.5201C119.355 61.5103 118.793 61.6156 118.27 61.8296C117.746 62.0436 117.272 62.3619 116.875 62.7651C116.479 63.1682 116.168 63.6478 115.963 64.1748C115.757 64.7017 115.661 65.2649 115.68 65.8301C115.679 66.378 115.79 66.9203 116.008 67.4234C116.225 67.9264 116.543 68.3795 116.942 68.7546C117.342 69.1296 117.814 69.4186 118.33 69.6036C118.845 69.7886 119.393 69.8657 119.94 69.8301C120.499 69.8441 121.055 69.7436 121.573 69.535C122.092 69.3263 122.562 69.0138 122.956 68.6167C123.349 68.2196 123.657 67.7463 123.861 67.2258C124.064 66.7053 124.159 66.1487 124.14 65.5901C124.151 65.0399 124.048 64.4935 123.837 63.985C123.627 63.4765 123.314 63.0169 122.918 62.6349C122.522 62.2529 122.051 61.9567 121.535 61.7649C121.019 61.5731 120.47 61.4897 119.92 61.5201ZM119.78 62.0601C121.53 62.0601 122.55 64.0001 122.55 65.9201C122.55 68.3801 121.38 69.3101 120.1 69.3101C118.44 69.3101 117.27 67.7001 117.27 65.4401C117.27 63.1801 118.48 62.0601 119.78 62.0601ZM131.4 63.8301C131.28 62.9801 131.2 62.3501 131.1 61.8301C130.546 61.639 129.966 61.5311 129.38 61.5101C127.65 61.5101 126.59 62.5101 126.59 63.8701C126.59 65.2301 127.79 65.7701 128.72 66.1601L129.1 66.3301C129.76 66.6201 130.47 66.9901 130.47 67.9301C130.476 68.1124 130.444 68.2939 130.376 68.4631C130.307 68.6322 130.204 68.7852 130.074 68.9123C129.943 69.0394 129.787 69.1378 129.616 69.2011C129.445 69.2644 129.262 69.2913 129.08 69.2801C127.79 69.2801 127.08 67.9801 126.74 67.0301L126.25 67.1101C126.344 67.8237 126.477 68.5315 126.65 69.2301C127.321 69.6195 128.084 69.8231 128.86 69.8201C130.54 69.8201 131.79 68.8201 131.77 67.4001C131.75 65.9801 130.77 65.4001 129.62 64.9901L129.32 64.8701C128.48 64.5101 127.82 64.1901 127.82 63.3101C127.814 63.1414 127.844 62.9733 127.906 62.8165C127.969 62.6597 128.063 62.5176 128.184 62.3991C128.304 62.2807 128.448 62.1885 128.605 62.1285C128.763 62.0684 128.932 62.0417 129.1 62.0501C130.1 62.0501 130.59 62.8501 130.91 63.8901L131.4 63.8201V63.8301ZM133.83 61.7401V62.2201C134.83 62.3001 134.95 62.3501 134.95 63.5901V67.8701C134.95 68.9901 134.85 69.0601 133.76 69.1601V69.6101H137.65V69.1601C136.41 69.0601 136.3 68.9901 136.3 67.8501V66.3601L137.3 66.6301C137.503 66.6487 137.707 66.6487 137.91 66.6301C139.35 66.4501 140.53 65.6301 140.53 64.1101C140.53 62.5901 139.33 61.7801 137.53 61.7801L133.83 61.7401ZM136.3 63.0001C136.3 62.4101 136.3 62.2701 137.14 62.2701C137.386 62.2462 137.634 62.2763 137.867 62.3581C138.1 62.4399 138.313 62.5715 138.49 62.7438C138.667 62.9161 138.804 63.1249 138.892 63.3557C138.981 63.5864 139.017 63.8337 139 64.0801C139 65.7301 137.88 66.0001 137.29 66.0001C136.95 65.9985 136.612 65.9411 136.29 65.8301V63.0001H136.3ZM146.21 69.6301V69.1801C145.09 69.0901 144.99 69.0101 144.99 67.7901V63.6101C144.99 62.3501 145.11 62.3001 146.21 62.2001V61.7401H142.43V62.2201C143.52 62.3001 143.62 62.3501 143.62 63.5901V67.7701C143.62 68.9901 143.52 69.0701 142.43 69.1601V69.6101L146.21 69.6301ZM155.63 63.9001C155.56 63.1501 155.47 61.9801 155.47 61.4801H155.12C155.052 61.5811 154.957 61.661 154.845 61.7105C154.734 61.76 154.611 61.7772 154.49 61.7601H149.44C149.313 61.7827 149.183 61.7684 149.064 61.7187C148.945 61.6691 148.843 61.5862 148.77 61.4801H148.42C148.42 62.0801 148.32 62.9501 148.27 63.9301H148.74C148.796 63.5116 148.939 63.1095 149.16 62.7501C149.38 62.4401 149.64 62.3101 150.69 62.3101H151.22V67.7701C151.22 68.9901 151.12 69.0801 149.94 69.1601V69.6301H153.94V69.1601C152.7 69.0801 152.6 69.0101 152.6 67.7501V62.2901H153.34C154.11 62.2901 154.46 62.3901 154.68 62.6701C154.914 63.047 155.064 63.47 155.12 63.9101H155.62L155.63 63.9001ZM165.07 69.6301V69.1801C164.31 69.1801 163.99 69.0201 163.6 68.0201L161 61.5101L160.47 61.6201L158 67.7101C157.49 68.9501 157.17 69.0701 156.39 69.1601V69.6101H159.46V69.1601H159.05C158.56 69.0901 158.39 68.9501 158.59 68.2901C158.73 67.8301 158.86 67.4201 159 67.0801H161.76L162.26 68.3601C162.48 68.9701 162.38 69.1101 161.87 69.1701H161.56V69.6201L165.07 69.6301ZM161.48 66.3901H159.21L160.33 63.3901L161.45 66.3901H161.48ZM173.15 67.3901C173.026 67.8567 172.812 68.2948 172.52 68.6801C172.25 69.0001 171.79 69.1001 171.03 69.1201C170.612 69.1499 170.191 69.1024 169.79 68.9801C169.55 68.8701 169.47 68.5601 169.47 67.9801V63.5601C169.47 62.3301 169.59 62.2901 170.74 62.2001V61.7401H166.89V62.2001C167.99 62.2901 168.1 62.3301 168.1 63.5601V67.7701C168.1 68.9901 168.01 69.0701 166.82 69.1601V69.6101H173.17C173.28 69.2401 173.54 67.9201 173.62 67.4101H173.15V67.3901ZM179.15 69.6401V69.1901C178.03 69.1001 177.93 69.0201 177.93 67.8001V63.6101C177.93 62.3501 178.05 62.3001 179.15 62.2001V61.7401H175.37V62.2201C176.46 62.3001 176.56 62.3501 176.56 63.5901V67.7701C176.56 68.9901 176.46 69.0701 175.37 69.1601V69.6101L179.15 69.6401ZM188.57 63.9101C188.5 63.1601 188.41 61.9901 188.41 61.4901H188.06C187.992 61.5911 187.897 61.671 187.785 61.7205C187.674 61.77 187.551 61.7872 187.43 61.7701H182.37C182.245 61.792 182.116 61.7772 181.999 61.7275C181.882 61.6778 181.782 61.5954 181.71 61.4901H181.36C181.36 62.0901 181.26 62.9601 181.21 63.9401H181.68C181.736 63.5216 181.879 63.1195 182.1 62.7601C182.32 62.4501 182.58 62.3201 183.63 62.3201H184.16V67.7801C184.16 69.0001 184.06 69.0901 182.88 69.1701V69.6401H186.88V69.1701C185.64 69.0901 185.54 69.0201 185.54 67.7601V62.2901H186.28C187.05 62.2901 187.4 62.3901 187.62 62.6701C187.854 63.047 188.004 63.47 188.06 63.9101H188.56H188.57ZM198.4 61.7701H195.4V62.2301L195.8 62.3001C196.31 62.3601 196.4 62.5001 196.19 62.9401C195.98 63.3801 195.36 64.5901 194.84 65.5201C194.4 64.8301 193.7 63.6001 193.29 62.8601C193.12 62.5401 193.14 62.4001 193.51 62.3301L194.04 62.2301V61.7701H190.56V62.2301C190.859 62.2204 191.153 62.3037 191.402 62.4685C191.651 62.6334 191.843 62.8715 191.95 63.1501C192.7 64.3701 193.12 65.1001 193.51 65.7801C193.684 66.0215 193.775 66.3126 193.77 66.6101V67.8501C193.77 68.9801 193.68 69.0901 192.44 69.1901V69.6401H196.5V69.1901C195.26 69.0901 195.14 68.9801 195.14 67.8501V66.4101C195.136 66.1436 195.213 65.8822 195.36 65.6601C195.81 64.7942 196.311 63.9561 196.86 63.1501C196.999 62.8589 197.22 62.6143 197.495 62.4457C197.77 62.2771 198.088 62.1918 198.41 62.2001V61.7401L198.4 61.7701ZM218.62 69.6401V69.1701C217.15 69.0301 217.1 68.9501 217.05 67.1701L216.9 61.0001C216.84 59.2501 216.96 59.2201 218.46 59.0801V58.6101H215.57L211.66 67.0901L207.79 58.6101H205V59.0801C206.54 59.2301 206.63 59.3001 206.48 61.5101L206.25 65.0001C206.11 66.7601 206.01 67.5101 205.92 68.1001C205.83 68.6901 205.47 69.0001 204.48 69.1001V69.5701H208.48V69.1001C207.36 68.9801 206.96 68.8601 206.92 68.1001C206.88 67.3401 206.92 66.6701 206.92 65.2801L207.18 60.4501L211 69.5001H211.34L215.48 60.2001H215.54V67.1201C215.54 68.9201 215.54 69.0001 214.12 69.1201V69.5901L218.62 69.6401ZM229.02 69.6401V69.1901C228.26 69.1901 227.94 69.0301 227.55 68.0301L225 61.5101L224.47 61.6201L221.98 67.7101C221.47 68.9501 221.15 69.0701 220.37 69.1601V69.6101H223.44V69.1601H223.03C222.54 69.0901 222.37 68.9501 222.57 68.2901C222.71 67.8301 222.84 67.4201 222.98 67.0801H225.74L226.24 68.3601C226.46 68.9701 226.35 69.1101 225.85 69.1701H225.54V69.6201L229.02 69.6401ZM225.43 66.4001H223.15L224.27 63.4001L225.39 66.4001H225.43ZM239.63 61.7701H236.34V62.2301C237.34 62.3001 237.58 62.4301 237.64 62.9901C237.713 63.7076 237.744 64.4289 237.73 65.1501V67.3201L232.93 61.7701H230.63V62.2301C231.8 62.3201 232.07 62.5701 232.07 63.9801V66.2501C232.082 66.9881 232.049 67.7262 231.97 68.4601C231.9 68.9701 231.59 69.1201 230.81 69.1901V69.6401H234.12V69.1901C233.19 69.1201 232.86 68.9701 232.81 68.4401C232.72 67.7138 232.687 66.9816 232.71 66.2501V63.5601L237.82 69.7201H238.37V65.1201C238.355 64.3951 238.392 63.6699 238.48 62.9501C238.53 62.4001 238.83 62.2701 239.65 62.2001V61.7401L239.63 61.7701ZM249.5 69.6401V69.1901C248.74 69.1901 248.41 69.0301 248.02 68.0301L245.41 61.5401L244.89 61.6501L242.39 67.7401C241.88 68.9801 241.56 69.1001 240.78 69.1901V69.6401H243.85V69.1901H243.44C242.95 69.1201 242.78 68.9801 242.98 68.3201C243.12 67.8601 243.26 67.4501 243.39 67.1101H246.16L246.65 68.3901C246.87 69.0001 246.77 69.1401 246.26 69.2001H245.95V69.6501L249.5 69.6401ZM245.9 66.4001H243.63L244.75 63.4001L245.87 66.4001H245.9ZM259.37 65.7601H255.76V66.2201C257.12 66.3501 257.2 66.4501 257.2 67.2201V68.4401C257.2 69.1201 256.47 69.2701 255.9 69.2701C253.67 69.2701 252.65 67.3701 252.65 65.5201C252.65 63.3201 253.99 62.0401 255.65 62.0401C256.249 61.9777 256.849 62.1519 257.322 62.5255C257.795 62.8991 258.103 63.4426 258.18 64.0401H258.65C258.54 63.0401 258.49 62.3001 258.43 61.8901C257.631 61.6712 256.808 61.5503 255.98 61.5301C253.46 61.5301 251.07 62.9401 251.07 65.7701C251.07 68.2301 253.01 69.8401 255.84 69.8401C256.812 69.7803 257.775 69.6126 258.71 69.3401C258.63 68.9825 258.593 68.6165 258.6 68.2501V67.2501C258.6 66.4201 258.65 66.3701 259.4 66.2501V65.7901L259.37 65.7601ZM267.72 67.4701C267.581 67.9105 267.361 68.321 267.07 68.6801C266.77 69.0001 266.33 69.1001 265.48 69.1001C265.03 69.15 264.574 69.0917 264.15 68.9301C263.95 68.8001 263.87 68.4901 263.87 67.8501V65.8501H265.11C266.11 65.8501 266.21 65.9801 266.36 66.8501H266.84V64.2901H266.36C266.21 65.1001 266.12 65.2201 265.11 65.2201H263.87V62.7801C263.87 62.3201 263.87 62.3001 264.36 62.3001H265.26C266.16 62.3001 266.43 62.4201 266.65 62.7101C266.868 63.0097 267.025 63.3496 267.11 63.7101H267.56C267.5 62.9301 267.45 62.1001 267.43 61.7601H261.32V62.2401C262.41 62.3101 262.49 62.3901 262.49 63.6301V67.7501C262.49 68.9701 262.41 69.0801 261.21 69.1801V69.6301H267.75C267.85 69.3001 268.11 68.0401 268.19 67.5501L267.72 67.4601V67.4701ZM280.84 61.7701H278.19L275.51 67.2901L273.05 61.7701H270.42V62.2501C271.62 62.3301 271.72 62.4001 271.62 63.7701L271.42 66.1501C271.32 67.2501 271.23 67.9101 271.15 68.4401C271.07 68.9701 270.77 69.1201 270.01 69.1901V69.6401H273.18V69.1901C272.28 69.1201 272.03 68.9701 271.99 68.4201C271.95 67.8701 271.99 67.4201 272.06 66.2001L272.23 63.0601H272.28L274.88 69.5101H275.24L278.24 62.9401H278.29V67.8501C278.29 69.0301 278.19 69.0901 277.08 69.1901V69.6401H280.9V69.1901C279.71 69.0901 279.64 69.0201 279.63 67.8501L279.54 63.5901C279.54 62.4001 279.59 62.3301 280.85 62.2501V61.7701H280.84ZM289.28 67.4701C289.141 67.9105 288.921 68.321 288.63 68.6801C288.33 69.0001 287.89 69.1001 287.04 69.1001C286.593 69.1515 286.14 69.0932 285.72 68.9301C285.51 68.8001 285.43 68.4901 285.43 67.8501V65.8501H286.67C287.67 65.8501 287.77 65.9801 287.92 66.8501H288.4V64.2901H287.92C287.77 65.1001 287.69 65.2201 286.67 65.2201H285.43V62.7801C285.43 62.3201 285.43 62.3001 285.92 62.3001H286.82C287.72 62.3001 287.99 62.4201 288.21 62.7101C288.432 63.0074 288.589 63.3481 288.67 63.7101H289.13C289.06 62.9301 289.01 62.1001 288.99 61.7601H282.9V62.2401C283.99 62.3101 284.08 62.3901 284.08 63.6301V67.7501C284.08 68.9701 283.99 69.0801 282.79 69.1801V69.6301H289.33C289.43 69.3001 289.69 68.0401 289.77 67.5501L289.3 67.4601L289.28 67.4701ZM300.49 61.7701H297.2V62.2301C298.2 62.3001 298.44 62.4301 298.51 62.9901C298.578 63.708 298.605 64.4292 298.59 65.1501V67.3201L293.79 61.7701H291.48V62.2301C292.65 62.3201 292.92 62.5701 292.92 63.9801V66.2501C292.932 66.9881 292.899 67.7262 292.82 68.4601C292.75 68.9701 292.45 69.1201 291.67 69.1901V69.6401H295V69.1901C294.07 69.1201 293.75 68.9701 293.7 68.4401C293.61 67.7138 293.577 66.9816 293.6 66.2501V63.5401L298.71 69.7001H299.27V65.1201C299.259 64.3954 299.292 63.6707 299.37 62.9501C299.42 62.4001 299.73 62.2701 300.54 62.2001V61.7401L300.49 61.7701ZM309.57 63.9101C309.5 63.1601 309.41 61.9901 309.41 61.4901H309.06C308.992 61.5911 308.897 61.671 308.785 61.7205C308.674 61.77 308.551 61.7872 308.43 61.7701H303.4C303.273 61.7927 303.143 61.7784 303.024 61.7287C302.905 61.6791 302.803 61.5962 302.73 61.4901H302.38C302.38 62.0901 302.28 62.9601 302.23 63.9401H302.7C302.756 63.5216 302.899 63.1195 303.12 62.7601C303.34 62.4501 303.6 62.3201 304.65 62.3201H305.18V67.7801C305.18 69.0001 305.08 69.0901 303.9 69.1701V69.6401H307.9V69.1701C306.66 69.0901 306.56 69.0201 306.56 67.7601V62.2901H307.3C308.07 62.2901 308.42 62.3901 308.64 62.6701C308.874 63.047 309.024 63.47 309.08 63.9101H309.58H309.57Z" fill="#1D1D1B"></path></g><defs><clipPath id="clip0_258_3024"><rect width="309.59" height="69.97" fill="white"></rect></clipPath></defs></svg> 