<svg width="305" height="99" viewBox="0 0 305 99" fill="none" xmlns="http://www.w3.org/2000/svg">
<g clip-path="url(#clip0_183_14364)">
<path d="M48.9537 25.5662C45.0231 25.5654 41.2418 27.0711 38.3877 29.7736C35.5336 32.476 33.8238 36.1696 33.6101 40.0943C33.6031 40.202 33.6183 40.31 33.6547 40.4115C33.6912 40.5131 33.7481 40.6061 33.822 40.6848C33.8958 40.7635 33.9851 40.8261 34.0842 40.8689C34.1833 40.9116 34.2901 40.9336 34.398 40.9334H63.5094C63.6173 40.9336 63.7241 40.9116 63.8232 40.8689C63.9223 40.8261 64.0115 40.7635 64.0854 40.6848C64.1593 40.6061 64.2162 40.5131 64.2526 40.4115C64.2891 40.31 64.3043 40.202 64.2972 40.0943C64.0836 36.1696 62.3738 32.476 59.5197 29.7736C56.6656 27.0711 52.8842 25.5654 48.9537 25.5662Z" fill="#F37651"/>
<path d="M47.8546 3.6793L48.6542 0L49.5366 3.65961L47.8546 3.6793Z" fill="#F37651"/>
<path d="M53.2948 18.6132C53.1443 14.215 51.9392 9.9174 49.7809 6.08228L47.6616 6.10985C45.5901 9.99216 44.4822 14.3155 44.4313 18.7156" fill="#F37651"/>
<path d="M53.2081 19.8303L53.2987 27.6262L44.5377 27.7247L44.4471 19.9327" fill="#F37651"/>
<path d="M54.6578 17.9829H43.0684C42.9931 17.9829 42.9193 18.0045 42.8559 18.0451C42.7925 18.0857 42.7421 18.1436 42.7106 18.212C42.679 18.2804 42.6678 18.3564 42.6782 18.431C42.6885 18.5056 42.72 18.5757 42.769 18.6329L43.9508 20.0156H53.7596L54.9414 18.6329C54.9896 18.5767 55.0209 18.5081 55.0319 18.4348C55.0429 18.3616 55.033 18.2868 55.0034 18.219C54.9738 18.1511 54.9256 18.093 54.8645 18.0513C54.8034 18.0095 54.7317 17.9858 54.6578 17.9829Z" fill="#373064" stroke="#373064" stroke-width="0.38999" stroke-linecap="round" stroke-linejoin="round"/>
<path d="M50.6593 3.80933H46.72C46.6578 3.80937 46.5965 3.82413 46.5412 3.85241C46.4858 3.88068 46.4379 3.92166 46.4014 3.97199C46.3649 4.02233 46.3408 4.08058 46.3311 4.142C46.3215 4.20342 46.3265 4.26626 46.3458 4.32537L46.8382 5.842H50.5332L51.0256 4.32537C51.0447 4.26689 51.0499 4.20475 51.0406 4.14393C51.0313 4.08311 51.008 4.0253 50.9724 3.97513C50.9368 3.92497 50.8899 3.88384 50.8355 3.85505C50.7812 3.82626 50.7208 3.8106 50.6593 3.80933Z" fill="#F37651"/>
<path d="M41.4217 7.91019C41.5372 8.96622 41.2497 10.0269 40.6166 10.88C39.9836 11.7332 39.0518 12.3158 38.0076 12.5114C36.9635 12.7069 35.884 12.501 34.9851 11.9348C34.0862 11.3686 33.4343 10.4839 33.1598 9.45765C32.8853 8.43142 33.0083 7.33936 33.5044 6.39998C34.0005 5.46061 34.833 4.7432 35.8354 4.3913C36.8377 4.0394 37.936 4.07896 38.9104 4.50206C39.8849 4.92517 40.6636 5.70062 41.0908 6.67325C41.2634 7.06635 41.3749 7.48345 41.4217 7.91019Z" fill="#F37651"/>
<path d="M37.7384 12.9801C37.1342 13.0476 36.5226 12.9955 35.9385 12.8266C35.3545 12.6577 34.8094 12.3755 34.3344 11.996C33.3751 11.2295 32.7596 10.1134 32.6233 8.89309C32.4869 7.6728 32.8409 6.44833 33.6074 5.48905C34.3738 4.52977 35.49 3.91426 36.7103 3.77791C37.9306 3.64157 39.155 3.99557 40.1143 4.76204C41.0736 5.5285 41.6891 6.64465 41.8254 7.86493C41.9618 9.08522 41.6078 10.3097 40.8413 11.269C40.0749 12.2283 38.9587 12.8438 37.7384 12.9801ZM36.7969 4.58153C36.2868 4.62275 35.7902 4.76601 35.3365 5.00282C34.8829 5.23963 34.4814 5.56517 34.1559 5.9601C33.8304 6.35503 33.5876 6.81132 33.4418 7.30189C33.2961 7.79245 33.2503 8.3073 33.3074 8.81588C33.3644 9.32446 33.523 9.81641 33.7737 10.2625C34.0245 10.7086 34.3623 11.0999 34.7671 11.4129C35.1719 11.726 35.6355 11.9546 36.1304 12.085C36.6252 12.2155 37.1413 12.2453 37.6478 12.1726C38.1467 12.1172 38.6298 11.964 39.0694 11.7217C39.509 11.4794 39.8965 11.1528 40.2098 10.7605C40.523 10.3683 40.7557 9.91808 40.8948 9.43575C41.0338 8.95342 41.0763 8.44841 41.0199 7.94963C40.9645 7.4511 40.8114 6.96837 40.5694 6.52904C40.3273 6.0897 40.001 5.70239 39.6092 5.38922C39.2174 5.07605 38.7677 4.84318 38.2858 4.70392C37.804 4.56465 37.2993 4.52173 36.8009 4.57759L36.7969 4.58153Z" fill="#F37651"/>
<path opacity="0.1" d="M36.9505 17.4038L37.2026 17.4944L37.1672 17.5456C37.0926 17.502 37.0203 17.4547 36.9505 17.4038Z" fill="black"/>
<path d="M38.8847 3.73046C38.8319 3.55258 38.7392 3.38912 38.6135 3.25257C38.4879 3.11602 38.3327 3.00999 38.1599 2.9426C37.3129 2.57624 36.4542 2.86381 35.5954 2.89533C35.061 2.86506 34.5251 2.87427 33.9921 2.9229C33.63 2.99056 33.2878 3.13858 32.9905 3.35606C32.6933 3.57354 32.4486 3.85495 32.2746 4.17954C31.92 4.84528 31.8806 5.6489 31.5615 6.33039C31.2582 6.94098 30.7146 7.44522 30.5925 8.1149C30.5454 8.53094 30.5857 8.95223 30.7107 9.35183C31.1597 11.1797 31.7034 12.9996 31.8255 14.8668C31.8725 15.3008 31.8418 15.7397 31.7349 16.1629C31.6835 16.3418 31.6051 16.5118 31.5025 16.6671C31.4655 16.7177 31.4472 16.7795 31.4505 16.842C31.4539 16.9046 31.4787 16.9641 31.5209 17.0104C31.5631 17.0567 31.6199 17.0871 31.6819 17.0963C31.7439 17.1055 31.8071 17.0931 31.8609 17.061C32.0333 16.9657 32.1805 16.8306 32.2903 16.6671C32.2714 16.9572 32.2185 17.2441 32.1327 17.5219C32.1182 17.57 32.1173 17.6212 32.1301 17.6697C32.1429 17.7183 32.1689 17.7623 32.2052 17.797C32.2416 17.8317 32.2868 17.8556 32.3358 17.8662C32.3849 17.8767 32.436 17.8735 32.4833 17.8568C32.83 17.7386 33.1688 17.4628 33.5351 17.3841C34.1418 17.2383 34.7524 17.5613 35.3393 17.778C35.9263 17.9947 36.7063 18.038 37.0608 17.5219L36.8126 17.4313C37.3352 17.7575 37.9203 17.9709 38.5302 18.0577L40.0468 18.3728C40.2241 18.4122 40.4407 18.4359 40.555 18.298C40.5793 18.2585 40.5955 18.2145 40.6028 18.1687C40.61 18.1229 40.608 18.0761 40.5971 18.031C40.5861 17.986 40.5662 17.9435 40.5387 17.9062C40.5112 17.8688 40.4766 17.8373 40.4368 17.8134C40.2683 17.7257 40.0788 17.6862 39.8892 17.6992C40.1951 17.6792 40.5016 17.7262 40.7874 17.8371C40.9306 17.8909 41.0874 17.897 41.2344 17.8544C41.3813 17.8118 41.5106 17.7228 41.6028 17.6007C41.6435 17.4756 41.6522 17.3422 41.6281 17.2129C41.604 17.0835 41.5479 16.9622 41.4649 16.8601C41.238 16.4769 40.9741 16.1167 40.6771 15.7847C40.2319 15.2962 39.6844 14.8117 39.6292 14.1538C39.5741 13.496 40.0035 12.9287 39.9089 12.3102C39.8144 11.6918 39.318 11.3254 38.865 10.9591C38.412 10.5927 37.9432 10.1121 37.9629 9.53304C37.9826 8.95397 38.4002 8.57973 38.5814 8.08338C38.7307 7.68058 38.7237 7.23644 38.5617 6.83856C38.4463 6.62317 38.3475 6.3993 38.2662 6.16888C38.0259 5.22739 39.1132 4.68771 38.8847 3.73046Z" fill="#373064"/>
<path d="M35.7372 9.73788L37.9393 9.04457L36.2021 4.62862L35.6348 2.82442C35.6264 2.78955 35.605 2.75918 35.575 2.73944C35.545 2.7197 35.5087 2.71206 35.4733 2.71806L34.2324 3.11199C34.1981 3.12367 34.1697 3.14842 34.1535 3.18086C34.1373 3.21331 34.1345 3.25083 34.1458 3.28532L34.6855 5.08164L35.7372 9.73788Z" fill="#F37651"/>
<g opacity="0.1">
<path d="M37.1555 12.1252C38.2455 12.1252 39.1291 11.2415 39.1291 10.1516C39.1291 9.06158 38.2455 8.17798 37.1555 8.17798C36.0655 8.17798 35.1819 9.06158 35.1819 10.1516C35.1819 11.2415 36.0655 12.1252 37.1555 12.1252Z" fill="black"/>
</g>
<path d="M37.1593 12.1803C38.2493 12.1803 39.1329 11.2967 39.1329 10.2067C39.1329 9.11676 38.2493 8.23315 37.1593 8.23315C36.0693 8.23315 35.1857 9.11676 35.1857 10.2067C35.1857 11.2967 36.0693 12.1803 37.1593 12.1803Z" fill="white"/>
<path d="M37.1593 11.4987C37.8729 11.4987 38.4514 10.9202 38.4514 10.2066C38.4514 9.49304 37.8729 8.91455 37.1593 8.91455C36.4457 8.91455 35.8672 9.49304 35.8672 10.2066C35.8672 10.9202 36.4457 11.4987 37.1593 11.4987Z" fill="#373064"/>
<path d="M37.1594 10.6006C37.377 10.6006 37.5533 10.4242 37.5533 10.2067C37.5533 9.98911 37.377 9.81274 37.1594 9.81274C36.9418 9.81274 36.7655 9.98911 36.7655 10.2067C36.7655 10.4242 36.9418 10.6006 37.1594 10.6006Z" stroke="white" stroke-width="0.807556" stroke-linecap="round" stroke-linejoin="round"/>
<path opacity="0.05" d="M36.1476 4.46307L34.6406 4.93677L34.6571 4.98938L36.1641 4.51568L36.1476 4.46307Z" fill="black"/>
<path d="M62.2461 25.5896L69.3466 18.5679L76.2382 25.5368C76.2727 25.5717 76.2919 25.6189 76.2917 25.668C76.2914 25.7171 76.2716 25.7641 76.2367 25.7987L69.2678 32.6902L62.2461 25.5896Z" fill="#F37651"/>
<path d="M67.2989 16.5056L68.2561 17.4707C68.2812 17.4958 68.2952 17.5298 68.2952 17.5653C68.2952 17.6007 68.2812 17.6347 68.2561 17.6598L65.412 20.4725L66.5938 21.6819L65.3805 22.8636L64.1987 21.6543L61.3545 24.4669C61.3294 24.492 61.2954 24.506 61.26 24.506C61.2245 24.506 61.1905 24.492 61.1654 24.4669L60.2082 23.5018C60.1831 23.4767 60.1691 23.4427 60.1691 23.4073C60.1691 23.3718 60.1831 23.3378 60.2082 23.3127L67.1098 16.5056C67.1349 16.4806 67.1689 16.4666 67.2044 16.4666C67.2398 16.4666 67.2738 16.4806 67.2989 16.5056Z" fill="#F37651"/>
<path d="M71.1712 34.6264L70.2139 33.6613C70.1889 33.6362 70.1749 33.6022 70.1749 33.5668C70.1749 33.5313 70.1889 33.4973 70.2139 33.4722L73.062 30.6556L71.8803 29.4463L73.0936 28.2645L74.2753 29.4738L77.1195 26.6572C77.1446 26.6322 77.1786 26.6182 77.2141 26.6182C77.2495 26.6182 77.2835 26.6322 77.3086 26.6572L78.2659 27.6224C78.2909 27.6475 78.3049 27.6815 78.3049 27.7169C78.3049 27.7523 78.2909 27.7863 78.2659 27.8114L71.3603 34.6264C71.3352 34.6514 71.3012 34.6655 71.2657 34.6655C71.2303 34.6655 71.1963 34.6514 71.1712 34.6264Z" fill="#F37651"/>
<path d="M78.4471 23.5964L77.482 24.5536C77.4569 24.5786 77.4229 24.5927 77.3874 24.5927C77.352 24.5927 77.318 24.5786 77.2929 24.5536L74.4724 21.7212L73.263 22.903L72.0615 21.6897L73.2709 20.5079L70.4582 17.6638C70.4332 17.6387 70.4192 17.6047 70.4192 17.5692C70.4192 17.5338 70.4332 17.4998 70.4582 17.4747L71.4273 16.5056C71.4524 16.4806 71.4864 16.4666 71.5218 16.4666C71.5573 16.4666 71.5913 16.4806 71.6164 16.5056L78.4511 23.4112C78.4744 23.4366 78.487 23.4701 78.4862 23.5046C78.4855 23.5391 78.4715 23.5719 78.4471 23.5964Z" fill="#F37651"/>
<path d="M60.1373 27.6184L61.1024 26.665C61.1275 26.64 61.1615 26.626 61.1969 26.626C61.2324 26.626 61.2664 26.64 61.2915 26.665L64.1081 29.5132L65.3174 28.3314L66.5189 29.5486L65.3096 30.7304L68.1262 33.5785C68.1512 33.6036 68.1652 33.6376 68.1652 33.673C68.1652 33.7085 68.1512 33.7425 68.1262 33.7676L67.1571 34.7209C67.132 34.7459 67.098 34.76 67.0625 34.76C67.0271 34.76 66.9931 34.7459 66.968 34.7209L60.1373 27.8114C60.1243 27.7989 60.1139 27.7839 60.1069 27.7673C60.0998 27.7507 60.0962 27.7329 60.0962 27.7149C60.0962 27.6968 60.0998 27.679 60.1069 27.6624C60.1139 27.6458 60.1243 27.6308 60.1373 27.6184Z" fill="#F37651"/>
<path d="M69.3119 29.8047C71.6181 29.8047 73.4876 27.9352 73.4876 25.629C73.4876 23.3229 71.6181 21.4534 69.3119 21.4534C67.0058 21.4534 65.1363 23.3229 65.1363 25.629C65.1363 27.9352 67.0058 29.8047 69.3119 29.8047Z" fill="white"/>
<path d="M70.6079 25.6685C70.6079 25.6213 68.9652 23.7501 68.9455 23.6989C68.938 23.6785 68.9288 23.6587 68.9179 23.6398C68.8508 23.522 68.7471 23.4293 68.6225 23.3759C68.4136 23.3182 68.1913 23.3335 67.9922 23.4192C67.7345 23.5289 67.4452 23.5388 67.1807 23.4468C67.1571 23.4468 67.1807 23.4468 67.1807 23.4468C67.2658 23.7158 67.2519 24.0065 67.1413 24.2661C67.0533 24.4644 67.0353 24.6866 67.0901 24.8964C67.1407 25.0216 67.2324 25.1257 67.3501 25.1919C67.4643 25.2785 69.3513 26.9015 69.3513 26.9015" fill="#373064"/>
<path d="M67.9494 25.5392C67.9494 25.5865 69.592 27.4577 69.6117 27.5089C69.6193 27.5293 69.6285 27.5491 69.6393 27.568C69.7064 27.6858 69.8102 27.7785 69.9348 27.8319C70.1437 27.8895 70.366 27.8742 70.5651 27.7886C70.8227 27.6788 71.112 27.669 71.3765 27.761C71.4002 27.761 71.3765 27.761 71.3765 27.761C71.2914 27.4919 71.3054 27.2013 71.4159 26.9416C71.5039 26.7434 71.522 26.5212 71.4672 26.3113C71.4165 26.1862 71.3248 26.082 71.2072 26.0159C71.0929 25.9292 69.206 24.3062 69.206 24.3062" fill="#373064"/>
<path d="M69.2844 26.8779C69.3277 26.8779 71.2028 25.2352 71.254 25.2155L71.321 25.1722C71.4397 25.1062 71.5327 25.0021 71.5849 24.8767C71.6425 24.6678 71.6272 24.4455 71.5416 24.2464C71.4368 23.9877 71.4271 23.7002 71.514 23.4349C71.2461 23.5191 70.9571 23.5051 70.6986 23.3955C70.5003 23.3076 70.2781 23.2895 70.0683 23.3443C69.9413 23.3936 69.8355 23.4855 69.7689 23.6043C69.6862 23.7186 68.0592 25.6055 68.0592 25.6055" fill="#373064"/>
<path d="M69.3 24.345C69.2527 24.345 67.3816 25.9837 67.3304 26.0034L67.2713 26.031C67.1535 26.0981 67.0608 26.2018 67.0073 26.3264C66.9497 26.5367 66.965 26.7602 67.0507 26.9607C67.1551 27.2112 67.1649 27.4913 67.0782 27.7485C67.0782 27.7485 67.0782 27.7722 67.0782 27.7485C67.3468 27.6622 67.6375 27.6747 67.8976 27.784C68.0958 27.872 68.3181 27.89 68.5279 27.8352C68.653 27.7846 68.7572 27.6929 68.8233 27.5752C68.91 27.461 70.533 25.578 70.533 25.578" fill="#373064"/>
<path d="M69.2804 26.4091C69.7286 26.4091 70.0919 26.0458 70.0919 25.5976C70.0919 25.1495 69.7286 24.7861 69.2804 24.7861C68.8323 24.7861 68.4689 25.1495 68.4689 25.5976C68.4689 26.0458 68.8323 26.4091 69.2804 26.4091Z" fill="white"/>
<path d="M17.518 65.9636V66.9287H12.192V65.9754H13.0587V38.9085C13.0574 38.5388 13.1703 38.1778 13.3818 37.8747C13.5933 37.5715 13.8931 37.341 14.2405 37.2146V31.1323C14.2577 30.5718 14.1621 30.0136 13.9595 29.4908C13.7569 28.968 13.4514 28.4912 13.061 28.0886C12.6706 27.6861 12.2034 27.3661 11.6871 27.1476C11.1707 26.929 10.6157 26.8164 10.055 26.8164C9.49424 26.8164 8.93924 26.929 8.42286 27.1476C7.90649 27.3661 7.43927 27.6861 7.04891 28.0886C6.65855 28.4912 6.353 28.968 6.1504 29.4908C5.9478 30.0136 5.85226 30.5718 5.86945 31.1323C5.87119 31.1572 5.87119 31.1822 5.86945 31.2071C6.38419 31.3384 6.84056 31.6374 7.16654 32.0568C7.49252 32.4762 7.66956 32.9922 7.66971 33.5234V34.5792C9.10756 35.1543 10.2027 36.2376 10.5454 37.5573C10.5666 37.6458 10.5677 37.7379 10.5486 37.8269C10.5296 37.9159 10.4909 37.9996 10.4354 38.0717C10.3799 38.1438 10.309 38.2026 10.2278 38.2438C10.1467 38.285 10.0573 38.3075 9.96632 38.3097H0.598678C0.506646 38.3083 0.416098 38.2863 0.333637 38.2454C0.251175 38.2045 0.178879 38.1457 0.122023 38.0733C0.0670501 38.0007 0.0292714 37.9165 0.0115312 37.8271C-0.00620905 37.7377 -0.00344972 37.6455 0.0196008 37.5573C0.36232 36.2376 1.45744 35.1543 2.89529 34.5792V33.5234C2.89407 32.9919 3.0706 32.4752 3.39679 32.0555C3.72299 31.6358 4.18014 31.3372 4.69555 31.2071C4.69381 31.1822 4.69381 31.1572 4.69555 31.1323C4.69555 29.7051 5.26248 28.3365 6.27163 27.3273C7.28077 26.3182 8.64947 25.7512 10.0766 25.7512C11.5038 25.7512 12.8725 26.3182 13.8816 27.3273C14.8908 28.3365 15.4577 29.7051 15.4577 31.1323V37.2146C15.805 37.341 16.1049 37.5715 16.3164 37.8747C16.5279 38.1778 16.6407 38.5388 16.6395 38.9085V65.9636H17.518Z" fill="#F37651"/>
<path d="M7.76034 38.282C7.73526 38.8999 7.47216 39.4841 7.02611 39.9124C6.58005 40.3408 5.98562 40.58 5.36721 40.58C4.74881 40.58 4.15437 40.3408 3.70832 39.9124C3.26226 39.4841 2.99917 38.8999 2.97409 38.282" fill="#373064"/>
<path d="M79.4674 82.3745C79.5254 82.3956 79.5732 82.4378 79.6013 82.4927C79.6275 82.5482 79.631 82.6118 79.6112 82.6698C79.5913 82.7279 79.5497 82.776 79.495 82.8039L77.4465 83.8005C77.7248 84.5065 77.727 85.2914 77.4525 85.9988C77.1779 86.7062 76.647 87.2843 75.9654 87.6177C75.1145 88.0353 73.8224 88.1259 72.1206 87.9013C71.3525 87.7969 70.592 87.643 69.8437 87.4405C69.825 87.4329 69.8077 87.4222 69.7925 87.4089C69.7835 87.4115 69.7739 87.4115 69.7649 87.4089C69.7432 87.3881 69.7246 87.3642 69.7098 87.338C69.6972 87.3081 69.6907 87.276 69.6907 87.2435C69.6907 87.211 69.6972 87.1789 69.7098 87.1489C70.0133 86.4335 70.3633 85.7387 70.7576 85.069C71.6243 83.5878 72.4949 82.6266 73.3379 82.2169C74.0222 81.8793 74.8091 81.8135 75.54 82.0328C76.271 82.2521 76.8917 82.7401 77.2772 83.3987L79.3256 82.3982C79.3692 82.3755 79.4188 82.3672 79.4674 82.3745Z" fill="#F37651"/>
<path d="M47.0352 75.8511C46.9748 75.8453 46.9186 75.8172 46.8777 75.7723C46.8383 75.7246 46.8188 75.6637 46.8232 75.6021C46.8276 75.5405 46.8556 75.4829 46.9013 75.4414L48.6267 73.9563C48.1799 73.3432 47.9797 72.5847 48.0658 71.831C48.1519 71.0773 48.518 70.3835 49.0916 69.887C49.8085 69.2685 51.0336 68.8509 52.7354 68.6382C53.5065 68.5441 54.2828 68.4994 55.0596 68.5043H55.1187H55.1502C55.1772 68.5179 55.2013 68.5366 55.2211 68.5594C55.2416 68.5845 55.2567 68.6135 55.2655 68.6447C55.2743 68.6759 55.2766 68.7085 55.2723 68.7406C55.1615 69.5092 55.001 70.2698 54.7917 71.0175C54.3269 72.6681 53.7281 73.8184 53.0151 74.4329C52.4383 74.9256 51.6975 75.1837 50.9395 75.156C50.1814 75.1282 49.4614 74.8167 48.9222 74.2832L47.1928 75.7683C47.1526 75.8147 47.0963 75.8443 47.0352 75.8511Z" fill="#F37651"/>
<path d="M26.6376 43.541L28.8199 46.0385V48.5676H31.9044V50.9981H34.8234V61.5515H31.9044V63.986H28.8199V66.4835H69.0874V63.986H66.003V61.5515H63.0839V50.9981H66.003V48.5676H69.0874V46.0503L71.2737 43.5528L26.6376 43.541ZM59.897 61.0197L59.1368 60.2594L60.5628 58.8334V61.0197H59.897ZM47.5789 51.2148L47.9728 51.6087L46.3498 53.2317L44.6914 51.5732L45.0656 51.199L47.5789 51.2148ZM55.8514 61.0197H54.1299L53.3696 60.2594L55.0123 58.6561L56.6353 60.2751L55.8514 61.0197ZM48.3667 61.0197L47.6064 60.2594L49.2609 58.6561L50.88 60.2751L50.1197 61.0197H48.3667ZM42.5641 61.0197L41.8393 60.2988L43.5017 58.6403L45.1207 60.2594L44.3605 61.0197H42.5641ZM50.8761 54.5041L49.2609 56.1271L47.638 54.5041L49.2609 52.8811L50.8761 54.5041ZM56.6353 54.5041L55.0123 56.1271L53.3933 54.5041L55.0123 52.8811L56.6353 54.5041ZM53.7557 57.3837L52.1366 59.0028L50.5136 57.3837L52.1366 55.7607L53.7557 57.3837ZM48.0004 57.3837L46.3774 59.0028L44.7583 57.3837L46.3774 55.7607L48.0004 57.3837ZM43.5017 56.1271L41.8393 54.4647L43.4623 52.8456L45.1207 54.5041L43.5017 56.1271ZM42.2411 57.3837L40.5945 59.05L38.936 57.3916L40.5945 55.7331L42.2411 57.3837ZM56.269 57.3837L57.8919 55.7607L59.511 57.3837L57.8919 59.0028L56.269 57.3837ZM59.1486 54.5041L60.5746 53.078V55.9301L59.1486 54.5041ZM57.8919 53.2474L55.8593 51.2148H59.9246L57.8919 53.2474ZM53.7557 51.6244L52.1366 53.2474L50.104 51.2148H53.346L53.7557 51.6244ZM42.2057 51.589L40.5945 53.208L38.6012 51.2148H41.8433L42.2057 51.589ZM39.326 54.4647L37.6676 56.1271L37.3328 55.7922V52.4714L39.326 54.4647ZM37.3328 61.0197V58.9752L37.6676 58.6403L39.326 60.2988L38.6248 61.0197H37.3328Z" fill="#F37651"/>
<path d="M66.003 48.5676H31.9044V51.1951H66.003V48.5676Z" fill="#373064"/>
<path d="M27.9612 92.7823C17.1203 87.6218 8.03231 77.2733 4.67997 68.075C4.66841 68.0451 4.66435 68.0127 4.66814 67.9809C4.67193 67.949 4.68344 67.9185 4.7017 67.8921C4.71995 67.8657 4.74438 67.8442 4.77286 67.8293C4.80135 67.8145 4.83302 67.8069 4.86512 67.8071C6.5078 67.8071 14.6858 68.1499 15.3436 73.1291C16.0764 78.6441 18.4478 84.7619 23.4034 84.3246C27.8745 83.9307 28.2803 91.1199 28.2054 92.6444C28.2042 92.6724 28.1958 92.6996 28.1811 92.7235C28.1664 92.7474 28.1459 92.7672 28.1215 92.781C28.0971 92.7947 28.0696 92.8021 28.0415 92.8023C28.0135 92.8026 27.9858 92.7957 27.9612 92.7823Z" fill="#F37651"/>
<path d="M54.9728 3.56519L57.4427 11.6171L62.7293 5.96028L54.9728 3.56519Z" fill="#F37651"/>
<path d="M67.0665 6.99609L67.6417 14.1223L74.4054 11.1481L67.0665 6.99609Z" fill="#F37651"/>
<path d="M77.4466 13.6064L76.576 18.9993L82.5519 18.4124L77.4466 13.6064Z" fill="#F37651"/>
<path d="M87.0269 23.4899C86.9025 23.4903 86.7799 23.4612 86.669 23.405C86.5581 23.3489 86.462 23.2673 86.3887 23.1669C82.3841 17.7024 77.2605 13.1542 71.3597 9.82579C65.4588 6.49735 58.9162 4.46505 52.168 3.86437C52.0646 3.85532 51.9639 3.82598 51.8718 3.77802C51.7797 3.73006 51.6979 3.66443 51.6311 3.58487C51.5644 3.50531 51.5139 3.41338 51.4827 3.31432C51.4515 3.21527 51.44 3.11104 51.4491 3.00758C51.4582 2.90411 51.4875 2.80345 51.5355 2.71132C51.5834 2.6192 51.649 2.53743 51.7286 2.47067C51.8082 2.40391 51.9001 2.35348 51.9992 2.32225C52.0982 2.29102 52.2024 2.2796 52.3059 2.28865C59.2768 2.90733 66.0357 5.00479 72.1322 8.44122C78.2286 11.8777 83.5226 16.5741 87.6611 22.2176C87.7479 22.3349 87.8005 22.474 87.8129 22.6195C87.8253 22.765 87.797 22.911 87.7312 23.0413C87.6654 23.1716 87.5648 23.2811 87.4404 23.3576C87.316 23.434 87.1728 23.4744 87.0269 23.4742V23.4899Z" fill="#373064"/>
<path d="M32.2472 56.9268L25.4046 44.7386C25.3484 44.6374 25.2663 44.5529 25.1665 44.494C25.0668 44.4352 24.9531 44.404 24.8373 44.4038C24.7227 44.4046 24.6104 44.4361 24.512 44.495C24.4136 44.5538 24.3328 44.638 24.278 44.7386L17.4354 56.9268C17.3774 57.0296 17.3469 57.1456 17.3469 57.2636C17.3469 57.3816 17.3774 57.4977 17.4354 57.6005C17.4909 57.7014 17.5724 57.7857 17.6715 57.8446C17.7705 57.9035 17.8835 57.9348 17.9987 57.9353H24.278V81.4253H22.0798V82.4653H27.7445V81.4253H25.5622V57.9353H31.6681C31.7837 57.9343 31.897 57.9028 31.9966 57.844C32.0962 57.7852 32.1786 57.7012 32.2353 57.6005C32.2951 57.4987 32.3276 57.3832 32.3297 57.2652C32.3318 57.1472 32.3033 57.0306 32.2472 56.9268ZM19.1254 56.592L24.8373 46.4168L30.5533 56.592H19.1254Z" fill="#F37651"/>
<path d="M24.5694 52.5582H24.1085V55.3157H23.2615V52.5582H22.7967C22.7904 52.5578 22.7844 52.5559 22.7791 52.5524C22.7739 52.549 22.7696 52.5442 22.7668 52.5386C22.764 52.533 22.7628 52.5268 22.7632 52.5205C22.7636 52.5143 22.7656 52.5082 22.7691 52.503L23.6554 51.4473C23.6628 51.4401 23.6727 51.436 23.683 51.436C23.6933 51.436 23.7032 51.4401 23.7106 51.4473L24.6009 52.503C24.6082 52.5072 24.6135 52.5141 24.6158 52.5222C24.618 52.5304 24.6169 52.539 24.6127 52.5464C24.6085 52.5537 24.6016 52.559 24.5935 52.5612C24.5853 52.5635 24.5767 52.5624 24.5694 52.5582Z" fill="#F37651"/>
<path d="M25.109 54.1733H25.5699V51.4158H26.4129V54.1733H26.8778C26.8847 54.1731 26.8916 54.1749 26.8975 54.1785C26.9034 54.1821 26.9081 54.1874 26.9111 54.1937C26.914 54.2 26.915 54.207 26.914 54.2139C26.913 54.2208 26.91 54.2272 26.9053 54.2324L26.019 55.2881C26.0116 55.2953 26.0017 55.2994 25.9914 55.2994C25.9811 55.2994 25.9712 55.2953 25.9638 55.2881L25.0736 54.2324C25.0679 54.2268 25.0643 54.2195 25.0633 54.2116C25.0623 54.2037 25.064 54.1957 25.0681 54.1889C25.0721 54.1821 25.0784 54.1768 25.0858 54.174C25.0933 54.1712 25.1014 54.1709 25.109 54.1733Z" fill="#373064"/>
<path d="M77.9507 71.774C77.9507 71.774 77.0171 69.8634 77.6671 68.6225C78.9198 66.192 77.9074 62.5403 74.6693 62.9342C71.9118 63.269 72.1324 65.4475 72.1678 65.7823C72.2012 66.2161 72.4036 66.6194 72.7315 66.9053C73.0594 67.1912 73.4866 67.3368 73.9208 67.3108C75.3823 67.3108 74.8584 64.6202 73.9208 65.8335C73.9208 65.8335 73.4442 65.0457 74.0902 64.6005C74.5393 64.2814 75.9811 64.7266 76.0126 65.7823C76.0874 68.1183 70.9664 68.2089 71.116 70.994C71.116 70.994 62.2369 70.931 63.2572 73.9957C63.2572 73.9957 64.4862 74.3148 64.4862 74.6339C64.4862 74.953 63.6984 74.8781 63.7456 75.3942C64.1789 75.3752 64.6114 75.4486 65.0141 75.6096C65.4169 75.7705 65.7808 76.0154 66.0816 76.3278C68.0513 78.5338 72.0733 79.6132 77.9665 79.6959H86.239C88.4883 77.1472 91.3365 71.7661 91.3365 71.7661L77.9507 71.774Z" fill="#F37651"/>
<path d="M62.1228 74.76C62.1228 74.76 49.0995 75.666 51.1203 97.8994C51.1203 97.8994 62.6822 97.1588 71.2777 92.282C71.2777 92.282 60.1019 86.2864 63.2297 76.5248L62.1228 74.76Z" fill="#F37651"/>
<path d="M82.0005 55.4378H98.6007L87.7006 47.0865L88.1812 45.4083L92.5145 40.5551L84.5098 35.5404L83.3792 33.3462C82.2329 32.7553 82.3077 31.2505 82.2841 31.1126C82.2841 31.0535 82.1423 30.9984 81.9926 30.959H81.5317C81.3781 30.9984 81.2481 31.0535 81.2363 31.1126C81.2126 31.2505 81.2914 32.7553 80.1451 33.3462L79.0105 35.5443L71.4707 40.5551L75.804 45.4083L76.2806 47.0865L65.3806 55.4378H81.9808" fill="#F37651"/>
<path d="M88.1772 45.4081H75.796L71.4667 40.5549H92.5104L88.1772 45.4081Z" fill="#373064"/>
<path d="M91.7619 60.291H72.2152L65.3765 55.4377H98.6006L91.7619 60.291Z" fill="#373064"/>
<path d="M109.343 36.7733H107.058C106.982 36.7844 106.903 36.7775 106.83 36.7532C106.756 36.7288 106.689 36.6877 106.634 36.6331C106.579 36.5785 106.538 36.5118 106.513 36.4384C106.488 36.365 106.481 36.2867 106.491 36.2099V20.051C106.48 19.9739 106.487 19.8952 106.511 19.8212C106.536 19.7473 106.577 19.6801 106.632 19.625C106.687 19.5699 106.755 19.5284 106.829 19.5039C106.903 19.4794 106.981 19.4724 107.058 19.4837H109.343C109.421 19.4696 109.502 19.4745 109.578 19.4977C109.654 19.521 109.723 19.5621 109.78 19.6175C109.837 19.673 109.88 19.7412 109.906 19.8166C109.931 19.892 109.938 19.9723 109.926 20.051V27.7168H109.981C110.199 27.1316 110.479 26.5716 110.816 26.0466L114.886 20.051C114.992 19.8694 115.145 19.7205 115.33 19.6205C115.515 19.5204 115.724 19.4731 115.934 19.4837H118.569C118.766 19.4837 118.888 19.5428 118.931 19.661C118.975 19.7791 118.931 19.9249 118.782 20.1022L113.661 27.1929L119.38 36.1036C119.503 36.3163 119.526 36.4975 119.447 36.5999C119.384 36.6668 119.305 36.7174 119.218 36.7476C119.131 36.7778 119.038 36.7866 118.947 36.7733H116.977C116.351 36.7733 115.93 36.5881 115.713 36.2099L111.6 29.6195L109.903 31.5892V36.2021C109.915 36.2789 109.909 36.3575 109.886 36.4317C109.862 36.5059 109.822 36.5735 109.767 36.6291C109.713 36.6847 109.646 36.7267 109.572 36.7517C109.499 36.7768 109.42 36.7842 109.343 36.7733Z" fill="#373064"/>
<path d="M126.046 36.7733H125.4C123.981 36.7733 122.89 36.399 122.118 35.6466C121.346 34.8942 120.96 33.807 120.96 32.3888V27.4411C120.96 26.0269 121.354 24.9396 122.118 24.1872C122.882 23.4348 123.981 23.0566 125.4 23.0566H131.612C132.006 23.0566 132.203 23.2457 132.203 23.6239V36.2297C132.203 36.6236 132.006 36.793 131.612 36.793H129.351C129.274 36.8042 129.196 36.7974 129.123 36.7731C129.049 36.7488 128.982 36.7076 128.928 36.6529C128.873 36.5981 128.832 36.5314 128.807 36.4579C128.783 36.3844 128.776 36.3062 128.787 36.2297V35.3433H128.681C128.484 35.8268 128.109 36.2161 127.633 36.4306C127.137 36.6646 126.594 36.7818 126.046 36.7733ZM128.803 31.7704V26.3144C128.803 26.1135 128.697 26.0151 128.48 26.0151H125.955C125.739 25.9923 125.52 26.013 125.311 26.0759C125.103 26.1388 124.909 26.2427 124.742 26.3814C124.476 26.73 124.352 27.1663 124.395 27.6026V32.2313C124.352 32.6675 124.476 33.1039 124.742 33.4524C124.91 33.5903 125.104 33.6934 125.312 33.7556C125.52 33.8178 125.739 33.8379 125.955 33.8149H126.948C128.174 33.8149 128.787 33.1334 128.787 31.7704H128.803Z" fill="#373064"/>
<path d="M135.457 26.0152H134.381C134.226 26.0312 134.071 25.9936 133.94 25.9088C133.891 25.8495 133.855 25.7807 133.834 25.7068C133.813 25.633 133.808 25.5555 133.818 25.4794V23.624C133.807 23.5473 133.814 23.469 133.838 23.3954C133.862 23.3218 133.903 23.2549 133.958 23.1999C134.013 23.1448 134.079 23.1033 134.153 23.0785C134.226 23.0536 134.304 23.0462 134.381 23.0568H135.457C135.497 23.0627 135.538 23.0592 135.576 23.0465C135.615 23.0338 135.65 23.0122 135.679 22.9834C135.708 22.9547 135.729 22.9197 135.742 22.8811C135.755 22.8425 135.758 22.8015 135.752 22.7613V20.2086C135.752 19.8147 135.949 19.6414 136.347 19.6414H138.604C138.681 19.6308 138.759 19.6382 138.833 19.6631C138.906 19.6879 138.973 19.7295 139.027 19.7845C139.082 19.8395 139.123 19.9064 139.147 19.9801C139.172 20.0537 139.179 20.1319 139.168 20.2086V22.7613C139.168 22.9622 139.278 23.0568 139.491 23.0568H141.59C141.667 23.0462 141.745 23.0536 141.819 23.0785C141.892 23.1033 141.959 23.1448 142.013 23.1999C142.068 23.2549 142.109 23.3218 142.133 23.3954C142.158 23.469 142.165 23.5473 142.153 23.624V25.4794C142.168 25.6285 142.126 25.7776 142.035 25.897C141.907 25.9901 141.748 26.0322 141.59 26.0152H139.491C139.278 26.0152 139.168 26.1137 139.168 26.3146V32.2629C139.151 32.4762 139.177 32.6906 139.245 32.8936C139.313 33.0966 139.42 33.2839 139.561 33.4447C139.912 33.72 140.355 33.8498 140.798 33.8071H141.874C141.951 33.7958 142.03 33.8028 142.104 33.8273C142.177 33.8518 142.245 33.8933 142.3 33.9484C142.355 34.0035 142.396 34.0707 142.421 34.1446C142.445 34.2186 142.452 34.2973 142.441 34.3744V36.2298C142.455 36.3794 142.411 36.5286 142.319 36.6473C142.19 36.7404 142.032 36.7825 141.874 36.7655H140.219C138.801 36.7655 137.702 36.39 136.922 35.6389C136.142 34.8878 135.748 33.811 135.74 32.4086V26.3146C135.746 26.2753 135.742 26.2354 135.73 26.1976C135.718 26.1599 135.698 26.1254 135.67 26.0966C135.643 26.0679 135.61 26.0456 135.573 26.0315C135.536 26.0174 135.496 26.0118 135.457 26.0152Z" fill="#373064"/>
<path d="M147.507 36.7734H145.222C145.145 36.7845 145.067 36.7776 144.994 36.7533C144.92 36.7289 144.853 36.6878 144.798 36.6332C144.743 36.5786 144.701 36.5119 144.677 36.4385C144.652 36.3651 144.644 36.2868 144.655 36.21V18.432C144.644 18.3552 144.652 18.277 144.677 18.2036C144.701 18.1301 144.743 18.0635 144.798 18.0088C144.853 17.9542 144.92 17.9131 144.994 17.8888C145.067 17.8645 145.145 17.8576 145.222 17.8687H147.507C147.583 17.8583 147.661 17.8656 147.734 17.8903C147.807 17.9149 147.874 17.9561 147.928 18.0106C147.983 18.0652 148.024 18.1316 148.049 18.2047C148.073 18.2778 148.081 18.3556 148.07 18.432V24.5103H148.181C148.575 23.5413 149.453 23.0567 150.816 23.0567H151.683C154.498 23.0567 155.906 24.5182 155.906 27.4412V36.2022C155.906 36.5961 155.709 36.7655 155.315 36.7655H153.054C152.975 36.7803 152.895 36.7761 152.819 36.7534C152.743 36.7306 152.673 36.69 152.616 36.6348C152.559 36.5796 152.516 36.5115 152.491 36.4362C152.465 36.3609 152.458 36.2807 152.47 36.2022V27.6027C152.514 27.3865 152.503 27.163 152.439 26.9521C152.375 26.7411 152.26 26.5492 152.104 26.3933C151.948 26.2375 151.756 26.1225 151.545 26.0586C151.334 25.9946 151.111 25.9838 150.895 26.027H149.926C148.689 26.027 148.07 26.7085 148.07 28.0715V36.2022C148.083 36.2793 148.077 36.3584 148.053 36.4329C148.03 36.5075 147.989 36.5753 147.934 36.631C147.879 36.6867 147.812 36.7286 147.737 36.7534C147.663 36.7781 147.584 36.7849 147.507 36.7734Z" fill="#373064"/>
<path d="M161.574 36.7732H159.285C159.209 36.7845 159.131 36.7777 159.057 36.7534C158.984 36.729 158.917 36.6879 158.862 36.6331C158.808 36.5784 158.766 36.5116 158.742 36.4381C158.718 36.3646 158.711 36.2865 158.722 36.2099V23.6042C158.711 23.5274 158.718 23.4492 158.742 23.3756C158.767 23.302 158.808 23.235 158.862 23.18C158.917 23.125 158.984 23.0834 159.057 23.0586C159.13 23.0338 159.209 23.0263 159.285 23.0369H161.574C161.651 23.0263 161.729 23.0338 161.803 23.0586C161.876 23.0834 161.943 23.125 161.997 23.18C162.052 23.235 162.093 23.302 162.117 23.3756C162.142 23.4492 162.149 23.5274 162.138 23.6042V24.4905H162.244C162.487 24.034 162.869 23.667 163.335 23.4426C163.881 23.1689 164.486 23.0336 165.096 23.0487H165.864C167.424 23.0487 168.545 23.6225 169.228 24.7702C169.835 23.6252 170.885 23.0513 172.38 23.0487H173.168C174.552 23.0487 175.602 23.4256 176.319 24.1793C177.024 24.9317 177.379 26.0189 177.379 27.4331V36.202C177.39 36.2786 177.383 36.3568 177.359 36.4303C177.335 36.5037 177.293 36.5705 177.239 36.6252C177.184 36.68 177.117 36.7212 177.044 36.7455C176.97 36.7698 176.892 36.7766 176.815 36.7653H174.531C174.454 36.7764 174.376 36.7696 174.302 36.7452C174.228 36.7209 174.161 36.6798 174.106 36.6252C174.051 36.5706 174.01 36.5039 173.985 36.4305C173.96 36.357 173.953 36.2788 173.963 36.202V27.6025C174.006 27.1663 173.882 26.7299 173.617 26.3814C173.449 26.243 173.255 26.1393 173.047 26.0765C172.838 26.0136 172.62 25.9927 172.403 26.015H171.734C170.497 26.015 169.874 26.7083 169.874 28.0871V36.202C169.874 36.596 169.677 36.7653 169.283 36.7653H167.026C166.946 36.7854 166.863 36.7853 166.783 36.765C166.703 36.7446 166.629 36.7047 166.569 36.6488C166.508 36.5929 166.462 36.5228 166.436 36.4448C166.409 36.3668 166.402 36.2833 166.416 36.202V27.6025C166.458 27.3865 166.446 27.1635 166.382 26.953C166.318 26.7425 166.203 26.551 166.047 26.3954C165.891 26.2398 165.7 26.1248 165.489 26.0605C165.279 25.9962 165.056 25.9847 164.84 26.0268H164.005C162.768 26.0268 162.149 26.7083 162.149 28.0713V36.202C162.163 36.2803 162.157 36.3607 162.132 36.4363C162.108 36.5119 162.066 36.5805 162.01 36.6365C161.953 36.6925 161.884 36.7341 161.809 36.7579C161.733 36.7817 161.652 36.7869 161.574 36.7732Z" fill="#373064"/>
<path d="M184.997 36.7733H184.351C182.938 36.7733 181.844 36.3977 181.07 35.6466C180.282 34.8903 179.915 33.807 179.915 32.3888V27.4411C179.915 26.0269 180.309 24.9396 181.07 24.1872C181.83 23.4348 182.937 23.0566 184.351 23.0566H190.563C190.957 23.0566 191.154 23.2457 191.154 23.6239V36.2297C191.154 36.6236 190.957 36.793 190.563 36.793H188.318C188.241 36.8041 188.163 36.7972 188.089 36.7729C188.016 36.7485 187.949 36.7075 187.894 36.6528C187.839 36.5982 187.797 36.5315 187.772 36.4581C187.748 36.3847 187.74 36.3065 187.751 36.2297V35.3433H187.644C187.448 35.8268 187.072 36.2161 186.596 36.4306C186.097 36.6664 185.549 36.7837 184.997 36.7733ZM187.755 31.7704V26.3144C187.755 26.1135 187.648 26.0151 187.432 26.0151H184.891C184.675 25.9924 184.457 26.0131 184.249 26.076C184.041 26.1389 183.848 26.2428 183.681 26.3814C183.412 26.7285 183.287 27.1656 183.331 27.6026V32.2313C183.287 32.6682 183.412 33.1053 183.681 33.4524C183.849 33.5904 184.042 33.6935 184.249 33.7557C184.457 33.818 184.675 33.8381 184.891 33.8149H185.883C187.12 33.8149 187.739 33.1334 187.739 31.7704H187.755Z" fill="#373064"/>
<path d="M196.985 36.7733H194.7C194.623 36.7844 194.545 36.7775 194.471 36.7532C194.398 36.7289 194.331 36.6878 194.276 36.6332C194.221 36.5785 194.179 36.5119 194.154 36.4384C194.129 36.365 194.122 36.2868 194.132 36.21V23.6042C194.121 23.5271 194.128 23.4485 194.153 23.3745C194.177 23.3006 194.219 23.2334 194.274 23.1783C194.329 23.1232 194.396 23.0817 194.47 23.0572C194.544 23.0326 194.623 23.0257 194.7 23.037H196.985C197.061 23.0264 197.14 23.0338 197.213 23.0587C197.286 23.0835 197.353 23.1251 197.408 23.1801C197.462 23.2351 197.503 23.302 197.528 23.3756C197.552 23.4493 197.559 23.5275 197.548 23.6042V24.4906H197.658C198.052 23.5215 198.931 23.037 200.294 23.037H201.152C203.968 23.037 205.375 24.4985 205.375 27.4214V36.2021C205.375 36.596 205.178 36.7654 204.784 36.7654H202.5C202.423 36.7767 202.345 36.7699 202.271 36.7456C202.198 36.7212 202.131 36.6801 202.076 36.6253C202.022 36.5706 201.98 36.5038 201.956 36.4303C201.932 36.3568 201.925 36.2787 201.936 36.2021V27.6026C201.979 27.3865 201.969 27.163 201.905 26.952C201.841 26.7411 201.726 26.5491 201.57 26.3933C201.414 26.2374 201.222 26.1224 201.011 26.0585C200.8 25.9946 200.577 25.9837 200.361 26.0269H199.388C198.145 26.0269 197.526 26.7084 197.528 28.0714V36.2021C197.54 36.2774 197.535 36.3545 197.512 36.4273C197.489 36.5001 197.45 36.5668 197.397 36.622C197.345 36.6773 197.28 36.7197 197.209 36.7459C197.137 36.7721 197.06 36.7815 196.985 36.7733Z" fill="#373064"/>
<path d="M213.21 36.7734H212.107C210.726 36.7734 209.682 36.3978 208.976 35.6467C208.267 34.8904 207.912 33.8071 207.912 32.3889V27.4412C207.912 26.027 208.267 24.9397 208.976 24.1873C209.685 23.4349 210.725 23.0567 212.107 23.0567H213.21C213.757 23.0575 214.296 23.1828 214.786 23.4231C215.262 23.6375 215.637 24.0268 215.834 24.5103H215.94V18.432C215.93 18.3552 215.937 18.277 215.962 18.2036C215.987 18.1301 216.028 18.0635 216.084 18.0088C216.139 17.9542 216.205 17.9131 216.279 17.8888C216.353 17.8645 216.431 17.8576 216.508 17.8687H218.792C218.869 17.8583 218.947 17.8656 219.02 17.8903C219.093 17.9149 219.159 17.9561 219.214 18.0106C219.268 18.0652 219.31 18.1316 219.334 18.2047C219.359 18.2778 219.366 18.3556 219.356 18.432V36.2022C219.367 36.2787 219.36 36.3569 219.336 36.4304C219.312 36.5039 219.27 36.5707 219.216 36.6254C219.161 36.6801 219.094 36.7213 219.021 36.7456C218.947 36.77 218.869 36.7768 218.792 36.7655H216.508C216.431 36.7766 216.353 36.7697 216.279 36.7454C216.205 36.7211 216.139 36.68 216.084 36.6253C216.028 36.5707 215.987 36.504 215.962 36.4306C215.937 36.3572 215.93 36.279 215.94 36.2022V35.3158H215.834C215.637 35.7993 215.262 36.1886 214.786 36.4031C214.296 36.6449 213.757 36.7715 213.21 36.7734ZM215.968 31.7705V28.0596C215.968 26.6966 215.349 26.0151 214.113 26.0151H212.903C212.687 25.9925 212.469 26.0132 212.261 26.0761C212.054 26.139 211.861 26.2429 211.694 26.3815C211.425 26.7286 211.299 27.1657 211.343 27.6027V32.2314C211.299 32.6683 211.425 33.1054 211.694 33.4525C211.861 33.5905 212.054 33.6936 212.262 33.7558C212.47 33.8181 212.688 33.8382 212.903 33.815H214.113C215.339 33.815 215.952 33.1335 215.952 31.7705H215.968Z" fill="#373064"/>
<path d="M227.274 36.7733H226.387C225.006 36.7733 223.962 36.3978 223.256 35.6467C222.547 34.8903 222.192 33.807 222.192 32.3889V23.6239C222.181 23.5472 222.188 23.4689 222.212 23.3953C222.236 23.3217 222.278 23.2548 222.332 23.1998C222.387 23.1448 222.453 23.1032 222.527 23.0784C222.6 23.0535 222.679 23.0461 222.755 23.0567H225.044C225.121 23.0461 225.199 23.0535 225.273 23.0784C225.346 23.1032 225.413 23.1448 225.467 23.1998C225.522 23.2548 225.563 23.3217 225.587 23.3953C225.612 23.4689 225.619 23.5472 225.607 23.6239V32.2313C225.565 32.67 225.695 33.1081 225.97 33.4525C226.302 33.7225 226.726 33.8526 227.152 33.8149H228.148C229.385 33.8149 230.004 33.1334 230.004 31.7704V23.6239C229.993 23.5472 229.999 23.4689 230.024 23.3953C230.048 23.3217 230.089 23.2548 230.144 23.1998C230.198 23.1448 230.265 23.1032 230.339 23.0784C230.412 23.0535 230.49 23.0461 230.567 23.0567H232.832C233.226 23.0567 233.427 23.2458 233.427 23.6239V36.2297C233.427 36.6236 233.23 36.793 232.832 36.793H230.575C230.498 36.8043 230.42 36.7975 230.347 36.7731C230.273 36.7488 230.206 36.7076 230.152 36.6529C230.097 36.5982 230.056 36.5314 230.031 36.4579C230.007 36.3844 230 36.3063 230.012 36.2297V35.3433H229.901C229.705 35.8269 229.329 36.2162 228.853 36.4306C228.36 36.6639 227.82 36.7811 227.274 36.7733Z" fill="#373064"/>
<path d="M254.061 19.4798H258.044C258.121 19.4691 258.199 19.4766 258.273 19.5016C258.347 19.5267 258.414 19.5686 258.469 19.6241C258.523 19.6796 258.564 19.7471 258.588 19.8212C258.612 19.8953 258.619 19.974 258.607 20.051V36.2022C258.618 36.2787 258.611 36.3569 258.587 36.4304C258.563 36.5039 258.521 36.5707 258.467 36.6254C258.412 36.6801 258.345 36.7213 258.272 36.7456C258.198 36.7699 258.12 36.7767 258.044 36.7655H255.838C255.762 36.7739 255.686 36.7651 255.614 36.7396C255.542 36.714 255.478 36.6726 255.424 36.6183C255.371 36.564 255.331 36.4983 255.307 36.4262C255.283 36.3541 255.276 36.2775 255.286 36.2022V23.4625H255.18L252.422 32.4716C252.392 32.6266 252.308 32.7657 252.184 32.864C252.061 32.9622 251.906 33.0131 251.749 33.0074H249.487C249.33 33.0138 249.175 32.9631 249.052 32.8646C248.929 32.7662 248.846 32.6266 248.818 32.4716L246.021 23.4349H245.91V36.2022C245.926 36.3583 245.889 36.5152 245.804 36.6473C245.673 36.7444 245.509 36.7868 245.347 36.7655H243.141C243.065 36.7767 242.986 36.7699 242.913 36.7456C242.839 36.7213 242.773 36.6801 242.718 36.6254C242.663 36.5707 242.622 36.5039 242.598 36.4304C242.573 36.3569 242.567 36.2787 242.578 36.2022V20.051C242.567 19.9743 242.574 19.8961 242.598 19.8225C242.622 19.7488 242.663 19.6819 242.718 19.6269C242.773 19.5719 242.839 19.5303 242.913 19.5055C242.986 19.4806 243.064 19.4732 243.141 19.4838H247.151C247.268 19.4808 247.383 19.5184 247.476 19.5902C247.568 19.662 247.633 19.7635 247.66 19.8777L250.512 29.3714H250.673L253.549 19.8777C253.565 19.7573 253.627 19.648 253.723 19.5735C253.819 19.499 253.94 19.4653 254.061 19.4798Z" fill="#373064"/>
<path d="M271.945 36.7733H266.001C264.588 36.7733 263.494 36.3977 262.72 35.6466C261.932 34.8903 261.565 33.807 261.565 32.3888V27.4411C261.565 26.0269 261.959 24.9396 262.72 24.1872C263.48 23.4348 264.587 23.0566 266.001 23.0566H268.128C269.544 23.0566 270.638 23.4335 271.41 24.1872C272.198 24.9396 272.564 26.0269 272.564 27.4411V30.8564C272.575 30.9332 272.568 31.0114 272.544 31.085C272.519 31.1586 272.478 31.2256 272.424 31.2806C272.369 31.3356 272.302 31.3772 272.229 31.402C272.156 31.4268 272.077 31.4343 272.001 31.4237H265.249C265.036 31.4237 264.926 31.5222 264.926 31.7192V32.3101C264.889 32.7367 265.021 33.1607 265.292 33.4918C265.636 33.7677 266.074 33.8978 266.513 33.8542H271.945C272.324 33.8542 272.513 34.0512 272.513 34.4451V36.2218C272.526 36.3714 272.483 36.5206 272.391 36.6393C272.264 36.738 272.105 36.7858 271.945 36.7733ZM265.249 29.135H268.908C268.948 29.141 268.989 29.1374 269.028 29.1247C269.067 29.112 269.102 29.0904 269.13 29.0617C269.159 29.0329 269.181 28.9979 269.193 28.9593C269.206 28.9207 269.21 28.8797 269.204 28.8395V27.5356C269.257 27.3181 269.253 27.0906 269.192 26.875C269.132 26.6594 269.017 26.463 268.859 26.3047C268.701 26.1464 268.504 26.0315 268.289 25.9711C268.073 25.9107 267.845 25.9069 267.628 25.9599H266.513C266.296 25.9069 266.068 25.9107 265.853 25.9711C265.637 26.0315 265.441 26.1464 265.282 26.3047C265.124 26.463 265.009 26.6594 264.949 26.875C264.888 27.0906 264.884 27.3181 264.937 27.5356V28.8238C264.928 28.8666 264.929 28.9113 264.941 28.9535C264.953 28.9958 264.976 29.0342 265.007 29.0653C265.038 29.0964 265.077 29.1191 265.119 29.1313C265.161 29.1435 265.206 29.1447 265.249 29.135Z" fill="#373064"/>
<path d="M275.416 26.0152H274.341C274.184 26.0311 274.027 25.9936 273.895 25.9088C273.847 25.849 273.812 25.7802 273.791 25.7064C273.77 25.6327 273.764 25.5555 273.773 25.4794V23.624C273.762 23.5469 273.769 23.4683 273.793 23.3943C273.818 23.3203 273.859 23.2531 273.915 23.1981C273.97 23.143 274.037 23.1015 274.111 23.077C274.185 23.0524 274.263 23.0455 274.341 23.0568H275.416C275.456 23.0627 275.497 23.0592 275.536 23.0465C275.574 23.0338 275.609 23.0122 275.638 22.9834C275.667 22.9547 275.688 22.9197 275.701 22.8811C275.714 22.8425 275.717 22.8015 275.711 22.7613V20.2086C275.711 19.8305 275.908 19.6414 276.302 19.6414H278.563C278.64 19.6308 278.718 19.6382 278.792 19.6631C278.865 19.6879 278.932 19.7295 278.987 19.7845C279.041 19.8395 279.082 19.9064 279.107 19.9801C279.131 20.0537 279.138 20.1319 279.127 20.2086V22.7613C279.127 22.9622 279.233 23.0568 279.45 23.0568H281.545C281.623 23.0455 281.701 23.0524 281.775 23.077C281.849 23.1015 281.916 23.143 281.971 23.1981C282.027 23.2531 282.068 23.3203 282.093 23.3943C282.117 23.4683 282.124 23.5469 282.113 23.624V25.4794C282.128 25.6292 282.084 25.7792 281.991 25.897C281.862 25.9908 281.703 26.0329 281.545 26.0152H279.45C279.233 26.0152 279.127 26.1137 279.127 26.3146V32.2629C279.11 32.4762 279.137 32.6906 279.204 32.8936C279.272 33.0966 279.38 33.2839 279.521 33.4447C279.871 33.7207 280.314 33.8506 280.758 33.8071H281.833C281.91 33.7965 281.988 33.804 282.061 33.8288C282.135 33.8536 282.202 33.8952 282.256 33.9502C282.311 34.0052 282.352 34.0722 282.376 34.1458C282.401 34.2194 282.407 34.2976 282.396 34.3744V36.2298C282.412 36.3796 282.368 36.5295 282.274 36.6473C282.147 36.7405 281.99 36.7827 281.833 36.7655H280.19C278.777 36.7655 277.68 36.39 276.897 35.6389C276.114 34.8878 275.721 33.811 275.715 32.4086V26.3146C275.721 26.2739 275.718 26.2323 275.705 26.1933C275.692 26.1542 275.67 26.1188 275.641 26.0897C275.612 26.0606 275.576 26.0387 275.537 26.0258C275.498 26.0128 275.457 26.0092 275.416 26.0152Z" fill="#373064"/>
<path d="M287.466 36.7733H285.177C285.101 36.7846 285.023 36.7778 284.949 36.7535C284.876 36.7291 284.809 36.688 284.754 36.6332C284.699 36.5785 284.658 36.5117 284.634 36.4382C284.61 36.3647 284.603 36.2866 284.614 36.21V23.6043C284.603 23.5275 284.61 23.4493 284.634 23.3757C284.658 23.3021 284.7 23.2351 284.754 23.1801C284.809 23.1251 284.875 23.0835 284.949 23.0587C285.022 23.0339 285.101 23.0264 285.177 23.037H287.466C287.543 23.0264 287.621 23.0339 287.695 23.0587C287.768 23.0835 287.835 23.1251 287.889 23.1801C287.944 23.2351 287.985 23.3021 288.009 23.3757C288.034 23.4493 288.041 23.5275 288.029 23.6043V24.5182H288.136C288.335 24.0324 288.709 23.6389 289.184 23.4152C289.671 23.1622 290.21 23.0273 290.759 23.0212H291.728C292.087 23.0212 292.268 23.2103 292.268 23.5885V25.4439C292.284 25.6023 292.241 25.7611 292.146 25.889C292.087 25.9331 292.019 25.964 291.947 25.9796C291.875 25.9952 291.8 25.9952 291.728 25.9797H289.873C288.636 25.9797 288.018 26.6795 288.018 28.0793V36.2021C288.03 36.2782 288.024 36.356 288.001 36.4295C287.978 36.503 287.938 36.5701 287.885 36.6255C287.831 36.681 287.765 36.7232 287.693 36.7488C287.62 36.7745 287.543 36.7829 287.466 36.7733Z" fill="#373064"/>
<path d="M300.56 36.7733H298.169C296.751 36.7733 295.657 36.3977 294.888 35.6466C294.1 34.8903 293.729 33.807 293.729 32.3888V27.4411C293.729 26.0269 294.123 24.9396 294.888 24.1872C295.652 23.4348 296.751 23.0566 298.169 23.0566H300.56C301.96 23.0566 303.05 23.4388 303.83 24.203C304.61 24.9672 305.004 26.0466 305.012 27.4411V32.3888C305.012 33.7912 304.618 34.8719 303.83 35.6309C303.05 36.3951 301.959 36.7733 300.56 36.7733ZM298.677 33.8385H300.052C300.489 33.8824 300.926 33.7569 301.273 33.4879C301.411 33.3206 301.514 33.1275 301.577 32.9198C301.639 32.7121 301.659 32.4941 301.636 32.2785V27.5356C301.659 27.3195 301.638 27.1009 301.576 26.8926C301.514 26.6844 301.411 26.4905 301.273 26.3223C300.925 26.0565 300.488 25.9326 300.052 25.9757H298.677C298.46 25.9226 298.232 25.9265 298.017 25.9869C297.801 26.0472 297.605 26.1621 297.446 26.3204C297.288 26.4788 297.173 26.6752 297.113 26.8908C297.052 27.1064 297.048 27.3339 297.102 27.5514V32.2785C297.048 32.496 297.052 32.7236 297.113 32.9392C297.173 33.1547 297.288 33.3512 297.446 33.5095C297.605 33.6678 297.801 33.7827 298.017 33.8431C298.232 33.9034 298.46 33.9073 298.677 33.8542V33.8385Z" fill="#373064"/>
<path d="M110.044 42.4578V58.6089C110.055 58.686 110.049 58.7646 110.024 58.8386C109.999 58.9125 109.958 58.9798 109.903 59.0348C109.848 59.0899 109.781 59.1314 109.707 59.1559C109.633 59.1805 109.554 59.1874 109.477 59.1761H107.192C107.115 59.1867 107.037 59.1793 106.964 59.1544C106.89 59.1296 106.824 59.0881 106.769 59.033C106.714 58.978 106.673 58.9111 106.649 58.8375C106.625 58.7639 106.618 58.6856 106.629 58.6089V42.4578C106.618 42.3812 106.624 42.303 106.649 42.2295C106.673 42.1561 106.714 42.0893 106.769 42.0345C106.824 41.9798 106.89 41.9386 106.964 41.9143C107.037 41.89 107.116 41.8832 107.192 41.8944H109.477C109.554 41.8833 109.632 41.8902 109.706 41.9146C109.779 41.9389 109.846 41.98 109.901 42.0346C109.956 42.0892 109.998 42.1559 110.023 42.2293C110.047 42.3028 110.055 42.381 110.044 42.4578Z" fill="#373064"/>
<path d="M118.435 59.1879H117.332C115.951 59.1879 114.9 58.811 114.181 58.0573C113.475 57.3049 113.121 56.2176 113.121 54.8034V49.8557C113.121 48.4375 113.474 47.3529 114.181 46.6018C114.89 45.8455 115.934 45.4712 117.332 45.4712H118.435C118.981 45.4716 119.52 45.5955 120.011 45.8337C120.488 46.0476 120.864 46.4369 121.063 46.9209H121.169V40.8426C121.158 40.7661 121.166 40.6883 121.19 40.6152C121.215 40.5421 121.256 40.4757 121.311 40.4212C121.365 40.3666 121.432 40.3255 121.505 40.3008C121.578 40.2762 121.656 40.2688 121.732 40.2792H124.021C124.097 40.2688 124.175 40.2762 124.248 40.3008C124.321 40.3255 124.388 40.3666 124.442 40.4212C124.497 40.4757 124.538 40.5421 124.563 40.6152C124.587 40.6883 124.595 40.7661 124.584 40.8426V58.6206C124.595 58.6973 124.588 58.7756 124.564 58.8492C124.54 58.9228 124.499 58.9898 124.444 59.0448C124.389 59.0998 124.323 59.1413 124.249 59.1662C124.176 59.191 124.098 59.1984 124.021 59.1879H121.744C121.667 59.1984 121.589 59.191 121.516 59.1662C121.442 59.1413 121.375 59.0998 121.321 59.0448C121.266 58.9898 121.225 58.9228 121.201 58.8492C121.176 58.7756 121.17 58.6973 121.181 58.6206V57.7343H121.074C120.876 58.2193 120.5 58.6099 120.023 58.8254C119.528 59.0654 118.985 59.1893 118.435 59.1879ZM121.193 54.185V50.4741C121.193 49.1111 120.574 48.4296 119.337 48.4296H118.128C117.912 48.4064 117.694 48.4265 117.486 48.4888C117.279 48.551 117.086 48.6541 116.918 48.7921C116.649 49.1404 116.523 49.579 116.568 50.0172V54.6419C116.524 55.0801 116.649 55.5184 116.918 55.867C117.086 56.0042 117.279 56.1069 117.487 56.1691C117.694 56.2313 117.912 56.2518 118.128 56.2295H119.337C120.564 56.2295 121.177 55.548 121.177 54.185H121.193Z" fill="#373064"/>
<path d="M137.663 59.1881H131.718C130.305 59.1881 129.211 58.8112 128.437 58.0575C127.669 57.3051 127.283 56.2178 127.283 54.8036V49.8559C127.283 48.4377 127.667 47.3531 128.437 46.602C129.225 45.8457 130.304 45.4714 131.718 45.4714H133.845C135.26 45.4714 136.355 45.8457 137.127 46.602C137.899 47.3584 138.281 48.4377 138.281 49.8559V53.2712C138.291 53.3477 138.284 53.4255 138.259 53.4986C138.235 53.5717 138.194 53.6381 138.139 53.6926C138.085 53.7472 138.018 53.7884 137.945 53.813C137.872 53.8376 137.794 53.845 137.718 53.8346H130.966C130.753 53.8346 130.643 53.933 130.643 54.13V54.717C130.606 55.143 130.736 55.5666 131.005 55.8988C131.35 56.1756 131.79 56.3058 132.23 56.2612H137.663C138.057 56.2612 138.23 56.4581 138.23 56.856V58.6563C138.244 58.806 138.2 58.9554 138.108 59.0738C137.979 59.1659 137.82 59.2066 137.663 59.1881ZM130.966 51.5498H134.625C134.666 51.5558 134.707 51.5522 134.745 51.5395C134.784 51.5268 134.819 51.5052 134.848 51.4765C134.876 51.4477 134.898 51.4127 134.911 51.3741C134.923 51.3355 134.927 51.2945 134.921 51.2543V49.9622C134.974 49.7447 134.97 49.5172 134.91 49.3016C134.849 49.086 134.734 48.8896 134.576 48.7313C134.418 48.573 134.221 48.4581 134.006 48.3977C133.79 48.3373 133.563 48.3335 133.345 48.3865H132.215C131.997 48.3335 131.77 48.3373 131.554 48.3977C131.338 48.4581 131.142 48.573 130.984 48.7313C130.825 48.8896 130.71 49.086 130.65 49.3016C130.59 49.5172 130.586 49.7447 130.639 49.9622V51.2543C130.628 51.2988 130.629 51.3454 130.642 51.3894C130.655 51.4334 130.679 51.4732 130.712 51.5048C130.745 51.5363 130.786 51.5586 130.831 51.5693C130.875 51.5799 130.922 51.5787 130.966 51.5655V51.5498Z" fill="#373064"/>
<path d="M145.652 59.1881H145.006C143.587 59.1881 142.496 58.7941 141.724 58.0575C140.952 57.3208 140.566 56.2178 140.566 54.8036V49.8559C140.566 48.4377 140.952 47.3531 141.724 46.602C142.512 45.8457 143.587 45.4714 145.006 45.4714H151.218C151.612 45.4714 151.809 45.6605 151.809 46.0348V58.6208C151.809 58.999 151.612 59.1881 151.218 59.1881H148.957C148.88 59.1986 148.802 59.1912 148.728 59.1664C148.655 59.1415 148.588 59.1 148.533 59.045C148.479 58.99 148.438 58.923 148.413 58.8494C148.389 58.7758 148.382 58.6975 148.393 58.6208V57.7345H148.287C148.089 58.2184 147.715 58.6086 147.239 58.8256C146.744 59.0647 146.201 59.1886 145.652 59.1881ZM148.409 54.1852V48.7253C148.409 48.5283 148.303 48.4298 148.086 48.4298H145.557C145.341 48.4068 145.123 48.4271 144.916 48.4893C144.708 48.5515 144.515 48.6545 144.348 48.7923C144.08 49.1415 143.955 49.5793 143.997 50.0174V54.6421C143.955 55.0801 144.081 55.5177 144.348 55.8672C144.687 56.1435 145.122 56.2739 145.557 56.2297H146.554C147.78 56.2297 148.393 55.5482 148.393 54.1852H148.409Z" fill="#373064"/>
<path d="M166.305 59.1879H164.682C163.268 59.1879 162.173 58.7939 161.405 58.0573C160.636 57.3206 160.246 56.2295 160.246 54.831V53.2553C160.231 52.4062 160.481 51.5733 160.96 50.872C161.186 50.5391 161.483 50.2604 161.829 50.056C162.176 49.8517 162.564 49.7267 162.965 49.6902C162.268 48.789 161.897 47.678 161.913 46.5388V46.2433C161.913 44.862 162.33 43.7905 163.166 43.0289C164.001 42.2673 165.134 41.8865 166.565 41.8865H167.44C168.853 41.8865 169.946 42.262 170.721 43.0131C171.496 43.7642 171.881 44.841 171.875 46.2433V47.1573C171.875 47.5512 171.686 47.7481 171.312 47.7481H169.015C168.637 47.7481 168.448 47.5512 168.448 47.1573V46.2945C168.485 45.8747 168.37 45.4555 168.125 45.1128C167.992 44.9812 167.832 44.8803 167.655 44.817C167.479 44.7538 167.291 44.7297 167.105 44.7464H166.888C166.685 44.728 166.48 44.7509 166.285 44.8139C166.091 44.8769 165.912 44.9785 165.758 45.1128C165.497 45.4487 165.373 45.871 165.411 46.2945V46.6451C165.411 47.3463 165.805 48.1421 166.593 49.0402L167.857 50.4938H173.829C174.223 50.4938 174.393 50.6908 174.393 51.0847V52.9126C174.403 52.989 174.396 53.0668 174.371 53.1399C174.346 53.213 174.305 53.2794 174.251 53.3339C174.196 53.3885 174.13 53.4297 174.057 53.4543C173.983 53.4789 173.906 53.4863 173.829 53.4759H170.331L174.716 58.6955C174.757 58.7369 174.786 58.7889 174.8 58.8459C174.814 58.9029 174.812 58.9626 174.794 59.0185C174.779 59.069 174.747 59.1127 174.703 59.1422C174.659 59.1716 174.607 59.185 174.554 59.18H171.674C171.498 59.1934 171.32 59.1647 171.156 59.0962C170.993 59.0277 170.848 58.9214 170.733 58.7861L169.551 57.3876C169.473 57.6734 169.338 57.9407 169.156 58.174C168.973 58.4073 168.746 58.602 168.488 58.7467C167.807 59.0691 167.058 59.2206 166.305 59.1879ZM165.175 56.2019H166.305C166.463 56.2204 166.622 56.2064 166.774 56.1608C166.926 56.1151 167.067 56.0388 167.188 55.9365C167.309 55.8342 167.408 55.7081 167.478 55.5661C167.549 55.424 167.589 55.269 167.597 55.1107L164.682 51.6835C164.508 51.6732 164.335 51.7071 164.178 51.7822C164.021 51.8573 163.885 51.9711 163.784 52.1129C163.578 52.5389 163.49 53.0122 163.528 53.4838V54.6419C163.51 54.8553 163.535 55.0702 163.603 55.2734C163.671 55.4766 163.779 55.6638 163.922 55.8237C164.279 56.098 164.725 56.2325 165.175 56.2019Z" fill="#373064"/>
<path d="M187.042 42.4578V58.6089C187.053 58.686 187.046 58.7646 187.021 58.8386C186.997 58.9125 186.955 58.9798 186.9 59.0348C186.845 59.0899 186.778 59.1314 186.704 59.1559C186.63 59.1805 186.552 59.1874 186.474 59.1761H184.19C184.113 59.1867 184.035 59.1793 183.961 59.1544C183.888 59.1296 183.821 59.0881 183.766 59.033C183.712 58.978 183.671 58.9111 183.646 58.8375C183.622 58.7639 183.615 58.6856 183.626 58.6089V42.4578C183.615 42.3812 183.622 42.303 183.646 42.2295C183.67 42.1561 183.712 42.0893 183.766 42.0345C183.821 41.9798 183.888 41.9386 183.961 41.9143C184.035 41.89 184.113 41.8832 184.19 41.8944H186.474C186.551 41.8833 186.629 41.8902 186.703 41.9146C186.777 41.9389 186.844 41.98 186.899 42.0346C186.954 42.0892 186.995 42.1559 187.02 42.2293C187.045 42.3028 187.052 42.381 187.042 42.4578Z" fill="#373064"/>
<path d="M193.254 59.1879H190.965C190.889 59.1985 190.81 59.191 190.737 59.1662C190.663 59.1414 190.597 59.0998 190.542 59.0448C190.488 58.9898 190.446 58.9228 190.422 58.8492C190.398 58.7756 190.391 58.6974 190.402 58.6206V46.0504C190.392 45.9739 190.399 45.8961 190.424 45.823C190.448 45.7499 190.489 45.6835 190.544 45.629C190.599 45.5744 190.665 45.5332 190.738 45.5086C190.811 45.484 190.889 45.4766 190.965 45.487H193.254C193.332 45.4739 193.411 45.4792 193.486 45.5026C193.562 45.526 193.63 45.5668 193.687 45.6217C193.743 45.6766 193.786 45.744 193.811 45.8185C193.837 45.893 193.844 45.9724 193.833 46.0504V46.9367H193.94C194.333 45.9703 195.212 45.487 196.575 45.487H197.438C200.25 45.487 201.658 46.9485 201.661 49.8715V58.6364C201.661 59.0146 201.464 59.2037 201.07 59.2037H198.809C198.732 59.2142 198.654 59.2068 198.58 59.182C198.507 59.1571 198.44 59.1156 198.385 59.0606C198.331 59.0056 198.29 58.9386 198.265 58.865C198.241 58.7914 198.234 58.7131 198.245 58.6364V50.0172C198.288 49.8011 198.278 49.5776 198.214 49.3666C198.15 49.1557 198.035 48.9637 197.879 48.8079C197.723 48.652 197.531 48.537 197.32 48.4731C197.109 48.4092 196.886 48.3983 196.669 48.4415H195.7C194.463 48.4415 193.845 49.123 193.845 50.486V58.6325C193.855 58.711 193.847 58.7908 193.82 58.8653C193.793 58.9398 193.749 59.007 193.691 59.0612C193.634 59.1154 193.564 59.1552 193.488 59.1772C193.412 59.1992 193.332 59.2029 193.254 59.1879Z" fill="#373064"/>
<path d="M207.317 59.188H205.033C204.956 59.1985 204.878 59.1911 204.804 59.1663C204.731 59.1414 204.664 59.0999 204.609 59.0449C204.555 58.9899 204.514 58.9229 204.489 58.8493C204.465 58.7757 204.458 58.6974 204.469 58.6207V46.0504C204.459 45.974 204.466 45.8962 204.491 45.8231C204.515 45.75 204.557 45.6836 204.611 45.629C204.666 45.5745 204.732 45.5333 204.805 45.5087C204.878 45.484 204.956 45.4767 205.033 45.4871H207.317C207.394 45.476 207.472 45.4829 207.546 45.5072C207.62 45.5315 207.687 45.5726 207.742 45.6272C207.797 45.6819 207.838 45.7485 207.863 45.822C207.888 45.8954 207.895 45.9736 207.885 46.0504V46.9367H207.991C208.385 45.9703 209.263 45.4871 210.626 45.4871H211.489C214.302 45.4871 215.708 46.9486 215.708 49.8715V58.6365C215.708 59.0146 215.511 59.2037 215.117 59.2037H212.86C212.783 59.215 212.704 59.208 212.63 59.1835C212.556 59.159 212.489 59.1175 212.434 59.0624C212.379 59.0073 212.337 58.9401 212.313 58.8662C212.288 58.7922 212.281 58.7136 212.293 58.6365V50.0173C212.337 49.801 212.327 49.5771 212.263 49.3656C212.2 49.1542 212.085 48.9618 211.929 48.8057C211.772 48.6495 211.58 48.5346 211.369 48.471C211.157 48.4075 210.933 48.3974 210.717 48.4416H209.748C208.511 48.4416 207.892 49.1231 207.892 50.4861V58.6325C207.902 58.7095 207.893 58.7876 207.868 58.8607C207.842 58.9338 207.799 58.9999 207.744 59.0537C207.688 59.1076 207.62 59.1478 207.546 59.1711C207.472 59.1944 207.394 59.2001 207.317 59.188Z" fill="#373064"/>
<path d="M225.095 59.1881H222.7C221.286 59.1881 220.191 58.7941 219.423 58.0575C218.655 57.3208 218.265 56.2178 218.265 54.8036V49.8559C218.265 48.4377 218.651 47.3531 219.423 46.602C220.191 45.8457 221.286 45.4714 222.7 45.4714H225.095C226.492 45.4714 227.582 45.8522 228.365 46.6138C229.153 47.3741 229.547 48.4574 229.547 49.8559V54.8036C229.547 56.2034 229.153 57.2841 228.365 58.0457C227.577 58.8073 226.487 59.1881 225.095 59.1881ZM223.212 56.2572H224.583C225.021 56.2998 225.459 56.1745 225.808 55.9066C226.085 55.5675 226.215 55.1325 226.171 54.6973V49.9701C226.193 49.7546 226.172 49.5368 226.11 49.3292C226.048 49.1217 225.945 48.9285 225.808 48.7608C225.459 48.4929 225.021 48.3676 224.583 48.4102H223.212C222.995 48.3571 222.767 48.361 222.552 48.4213C222.336 48.4817 222.14 48.5966 221.981 48.7549C221.823 48.9132 221.708 49.1097 221.648 49.3253C221.587 49.5408 221.584 49.7684 221.637 49.9859V54.713C221.584 54.9305 221.587 55.158 221.648 55.3736C221.708 55.5892 221.823 55.7857 221.981 55.944C222.14 56.1023 222.336 56.2172 222.552 56.2775C222.767 56.3379 222.995 56.3418 223.212 56.2887V56.2572Z" fill="#373064"/>
<path d="M231.65 45.4713H234.014C234.174 45.4659 234.33 45.5236 234.447 45.6319C234.565 45.7402 234.636 45.8905 234.644 46.0504L236.956 56.1625H237.165L239.403 46.0504C239.418 45.8865 239.497 45.7352 239.623 45.6297C239.75 45.5241 239.912 45.4728 240.076 45.4871H242.44C242.834 45.4871 242.948 45.6761 242.834 46.0504L239.446 58.6088C239.438 58.6958 239.413 58.7802 239.372 58.8573C239.332 58.9345 239.276 59.0027 239.208 59.0581C239.141 59.1134 239.063 59.1548 238.979 59.1798C238.896 59.2048 238.808 59.2129 238.721 59.2037H235.314C235.141 59.2115 234.971 59.1551 234.837 59.0452C234.704 58.9354 234.615 58.78 234.589 58.6088L231.229 46.0504C231.118 45.6564 231.256 45.4713 231.65 45.4713Z" fill="#373064"/>
<path d="M249.621 59.1881H248.983C247.569 59.1881 246.474 58.7941 245.706 58.0575C244.938 57.3208 244.548 56.2178 244.548 54.8036V49.8559C244.548 48.4377 244.934 47.3531 245.706 46.602C246.494 45.8457 247.569 45.4714 248.983 45.4714H255.199C255.593 45.4714 255.79 45.6605 255.79 46.0348V58.6208C255.79 58.999 255.593 59.1881 255.199 59.1881H252.923C252.846 59.1986 252.768 59.1912 252.694 59.1664C252.621 59.1415 252.554 59.1 252.499 59.045C252.445 58.99 252.404 58.923 252.379 58.8494C252.355 58.7758 252.348 58.6975 252.359 58.6208V57.7345H252.249C252.053 58.2192 251.677 58.6099 251.201 58.8256C250.709 59.0639 250.169 59.1878 249.621 59.1881ZM252.379 54.1852V48.7253C252.379 48.5283 252.269 48.4298 252.056 48.4298H249.527C249.311 48.4066 249.093 48.4267 248.886 48.489C248.678 48.5512 248.485 48.6543 248.317 48.7923C248.05 49.1415 247.924 49.5793 247.967 50.0174V54.6421C247.925 55.0801 248.05 55.5177 248.317 55.8672C248.485 56.0044 248.678 56.1071 248.886 56.1693C249.094 56.2315 249.311 56.252 249.527 56.2297H250.523C251.753 56.2297 252.367 55.5482 252.367 54.1852H252.379Z" fill="#373064"/>
<path d="M259.036 48.414H257.961C257.804 48.4311 257.646 48.392 257.516 48.3037C257.468 48.2436 257.434 48.1746 257.413 48.1009C257.393 48.0272 257.388 47.9502 257.397 47.8743V46.0504C257.386 45.9738 257.393 45.8957 257.417 45.8222C257.442 45.7487 257.483 45.6819 257.538 45.6272C257.592 45.5725 257.659 45.5313 257.733 45.507C257.806 45.4826 257.884 45.4758 257.961 45.4871H259.036C259.076 45.4931 259.117 45.4896 259.156 45.4768C259.195 45.4641 259.23 45.4425 259.258 45.4138C259.287 45.3851 259.309 45.35 259.321 45.3114C259.334 45.2729 259.338 45.2318 259.332 45.1917V42.6351C259.332 42.2608 259.529 42.0717 259.923 42.0717H262.184C262.26 42.0613 262.338 42.0687 262.411 42.0933C262.484 42.1179 262.551 42.1591 262.605 42.2137C262.66 42.2682 262.701 42.3346 262.725 42.4077C262.75 42.4808 262.757 42.5586 262.747 42.6351V45.1917C262.747 45.3886 262.853 45.4871 263.07 45.4871H265.17C265.246 45.4767 265.324 45.4841 265.397 45.5087C265.47 45.5333 265.537 45.5745 265.591 45.629C265.646 45.6836 265.687 45.75 265.711 45.8231C265.736 45.8962 265.743 45.974 265.733 46.0504V47.9058C265.741 47.98 265.735 48.0551 265.714 48.1268C265.693 48.1984 265.658 48.2653 265.611 48.3234C265.485 48.4198 265.327 48.4636 265.17 48.4455H263.07C262.853 48.4455 262.747 48.544 262.747 48.741V54.6854C262.731 54.8986 262.758 55.113 262.825 55.3159C262.893 55.5188 263 55.7062 263.141 55.8671C263.492 56.1414 263.934 56.271 264.378 56.2296H265.453C265.53 56.2183 265.608 56.2251 265.682 56.2494C265.755 56.2737 265.822 56.3149 265.877 56.3696C265.931 56.4244 265.972 56.4912 265.997 56.5647C266.021 56.6381 266.028 56.7163 266.017 56.7929V58.6562C266.032 58.8053 265.99 58.9548 265.899 59.0737C265.77 59.1679 265.612 59.2113 265.453 59.1959H263.795C262.379 59.1959 261.282 58.819 260.502 58.0653C259.722 57.3116 259.328 56.2361 259.32 54.839V48.7331C259.33 48.6923 259.33 48.6498 259.319 48.6091C259.309 48.5684 259.289 48.5308 259.261 48.4994C259.234 48.4681 259.199 48.4439 259.159 48.4291C259.12 48.4142 259.078 48.409 259.036 48.414Z" fill="#373064"/>
<path d="M268.368 43.1588V40.8189C268.358 40.7459 268.365 40.6716 268.388 40.6016C268.411 40.5317 268.45 40.468 268.502 40.4157C268.554 40.3634 268.617 40.3239 268.687 40.3002C268.757 40.2765 268.831 40.2693 268.904 40.2792H271.244C271.603 40.2792 271.784 40.4486 271.784 40.7913V43.1549C271.794 43.2279 271.786 43.3022 271.763 43.372C271.739 43.4418 271.7 43.5051 271.647 43.557C271.595 43.6089 271.531 43.648 271.461 43.6712C271.391 43.6944 271.317 43.701 271.244 43.6906H268.904C268.832 43.7011 268.758 43.6945 268.688 43.6716C268.619 43.6486 268.556 43.6098 268.504 43.5582C268.452 43.5067 268.413 43.4438 268.389 43.3745C268.366 43.3051 268.359 43.2313 268.368 43.1588ZM268.368 58.6206V46.0503C268.368 45.6563 268.546 45.487 268.904 45.487H271.22C271.297 45.4765 271.375 45.4839 271.448 45.5085C271.521 45.5332 271.587 45.5743 271.642 45.6289C271.696 45.6834 271.738 45.7498 271.762 45.8229C271.787 45.896 271.794 45.9738 271.784 46.0503V58.6363C271.807 58.7125 271.81 58.7936 271.792 58.8712C271.773 58.9487 271.735 59.0201 271.68 59.0778C271.625 59.1356 271.556 59.1777 271.479 59.1998C271.402 59.2219 271.321 59.2232 271.244 59.2036H268.932C268.853 59.2148 268.774 59.2072 268.699 59.1816C268.624 59.1559 268.556 59.1129 268.501 59.056C268.446 58.999 268.406 58.9299 268.382 58.8542C268.359 58.7785 268.355 58.6985 268.368 58.6206Z" fill="#373064"/>
<path d="M281.439 59.1881H279.044C277.631 59.1881 276.537 58.8112 275.763 58.0575C274.975 57.3051 274.608 56.2178 274.608 54.8036V49.8559C274.608 48.4377 274.993 47.3531 275.763 46.602C276.55 45.8457 277.63 45.4714 279.044 45.4714H281.439C282.838 45.4714 283.925 45.8654 284.709 46.6138C285.493 47.3623 285.891 48.4574 285.891 49.8559V54.8036C285.891 56.2034 285.497 57.2841 284.709 58.0457C283.925 58.806 282.838 59.1881 281.439 59.1881ZM279.556 56.2572H280.927C281.365 56.299 281.803 56.1738 282.152 55.9066C282.428 55.5675 282.559 55.1325 282.515 54.6973V49.9701C282.537 49.7546 282.516 49.5368 282.454 49.3292C282.392 49.1217 282.289 48.9285 282.152 48.7608C281.803 48.4936 281.365 48.3684 280.927 48.4102H279.556C279.339 48.3571 279.111 48.361 278.896 48.4213C278.68 48.4817 278.484 48.5966 278.325 48.7549C278.167 48.9132 278.052 49.1097 277.992 49.3253C277.931 49.5408 277.927 49.7684 277.98 49.9859V54.713C277.927 54.9305 277.931 55.158 277.992 55.3736C278.052 55.5892 278.167 55.7857 278.325 55.944C278.484 56.1023 278.68 56.2172 278.896 56.2775C279.111 56.3379 279.339 56.3418 279.556 56.2887V56.2572Z" fill="#373064"/>
<path d="M291.417 59.1879H289.129C289.052 59.1985 288.974 59.191 288.9 59.1662C288.827 59.1414 288.76 59.0998 288.705 59.0448C288.651 58.9898 288.61 58.9228 288.585 58.8492C288.561 58.7756 288.554 58.6974 288.565 58.6206V46.0503C288.555 45.9739 288.562 45.8961 288.587 45.823C288.612 45.7499 288.653 45.6835 288.707 45.6289C288.762 45.5744 288.828 45.5332 288.901 45.5086C288.974 45.484 289.052 45.4766 289.129 45.487H291.417C291.494 45.4766 291.572 45.484 291.645 45.5086C291.718 45.5332 291.784 45.5744 291.839 45.6289C291.893 45.6835 291.935 45.7499 291.959 45.823C291.984 45.8961 291.991 45.9739 291.981 46.0503V46.9367H292.091C292.485 45.9702 293.363 45.487 294.726 45.487H295.585C298.403 45.487 299.811 46.9485 299.808 49.8714V58.6364C299.808 59.0146 299.611 59.2036 299.217 59.2036H296.956C296.879 59.2142 296.801 59.2068 296.728 59.1819C296.654 59.1571 296.587 59.1156 296.533 59.0605C296.478 59.0055 296.437 58.9386 296.413 58.865C296.388 58.7914 296.382 58.7131 296.393 58.6364V50.0172C296.436 49.801 296.425 49.5776 296.361 49.3666C296.297 49.1556 296.182 48.9637 296.026 48.8078C295.87 48.652 295.679 48.537 295.468 48.4731C295.257 48.4092 295.033 48.3983 294.817 48.4415H293.848C292.611 48.4415 291.993 49.123 291.993 50.486V58.6324C292.002 58.7094 291.994 58.7875 291.968 58.8606C291.942 58.9337 291.899 58.9998 291.844 59.0537C291.788 59.1075 291.72 59.1477 291.646 59.171C291.572 59.1943 291.494 59.2001 291.417 59.1879Z" fill="#373064"/>
<path d="M106.01 81.0354V78.4788C106.012 77.9717 106.131 77.4719 106.36 77.0191C106.588 76.5664 106.919 76.1732 107.326 75.8709L112.29 71.6756C113.097 71.0138 113.499 70.2929 113.499 69.5247V68.7172C113.517 68.5038 113.491 68.2889 113.424 68.0857C113.356 67.8825 113.248 67.6953 113.105 67.5354C112.739 67.2611 112.284 67.132 111.829 67.173H110.887C110.452 67.1288 110.017 67.2591 109.678 67.5354C109.417 67.8715 109.292 68.2932 109.327 68.7172V69.576C109.327 69.9699 109.142 70.1708 108.764 70.1708H106.479C106.085 70.1708 105.912 69.9699 105.912 69.576V68.662C105.912 67.2623 106.298 66.1869 107.07 65.4358C107.842 64.6847 108.936 64.3078 110.351 64.3052H112.396C113.81 64.3052 114.905 64.6991 115.673 65.4358C116.442 66.1724 116.832 67.2636 116.832 68.662V69.7375C116.846 70.401 116.708 71.059 116.428 71.6607C116.148 72.2625 115.733 72.7918 115.216 73.208L110.162 77.5097C110.065 77.588 109.986 77.6862 109.931 77.7976C109.875 77.9091 109.844 78.0312 109.839 78.1557V78.5851H116.268C116.343 78.5769 116.419 78.5857 116.49 78.6107C116.561 78.6358 116.625 78.6766 116.678 78.7299C116.731 78.7833 116.771 78.8479 116.796 78.919C116.82 78.9901 116.829 79.0659 116.82 79.1406V81.0236C116.83 81.1 116.823 81.1778 116.798 81.2509C116.774 81.324 116.732 81.3904 116.678 81.4449C116.623 81.4995 116.557 81.5407 116.484 81.5653C116.411 81.5899 116.333 81.5973 116.256 81.5869H106.574C106.498 81.5977 106.421 81.591 106.349 81.5673C106.276 81.5436 106.21 81.5036 106.156 81.4502C106.101 81.3969 106.06 81.3317 106.035 81.2598C106.009 81.1878 106.001 81.111 106.01 81.0354Z" fill="#373064"/>
<path d="M126.53 81.5987H123.84C122.422 81.5987 121.33 81.2048 120.558 80.4681C119.786 79.7315 119.4 78.6324 119.4 77.2143V68.6896C119.4 67.2754 119.794 66.1882 120.558 65.4358C121.322 64.6834 122.422 64.3052 123.84 64.3052H126.53C127.93 64.3052 129.015 64.686 129.784 65.4476C130.554 66.2092 130.938 67.2899 130.938 68.6896V77.2143C130.938 78.6127 130.544 79.696 129.784 80.4563C129.024 81.2166 127.929 81.5987 126.53 81.5987ZM124.403 78.6403H125.979C126.194 78.6626 126.412 78.6421 126.62 78.5799C126.827 78.5177 127.02 78.415 127.188 78.2779C127.456 77.9286 127.581 77.4908 127.539 77.0527V68.8511C127.58 68.4132 127.455 67.9756 127.188 67.626C127.02 67.4888 126.827 67.3862 126.62 67.324C126.412 67.2618 126.194 67.2413 125.979 67.2636H124.403C123.968 67.2194 123.533 67.3497 123.194 67.626C122.927 67.9756 122.801 68.4132 122.843 68.8511V77.0527C122.801 77.4908 122.926 77.9286 123.194 78.2779C123.533 78.5542 123.968 78.6845 124.403 78.6403Z" fill="#373064"/>
<path d="M141.078 81.5986H138.23C136.792 81.5986 135.697 81.244 134.933 80.5389C134.168 79.8338 133.79 78.7859 133.79 77.3875V76.1505C133.79 74.5013 134.382 73.4167 135.567 72.8967C134.382 72.4134 133.79 71.3196 133.79 69.6152V68.4571C133.79 67.0783 134.171 66.0397 134.933 65.3411C135.697 64.6399 136.792 64.2893 138.23 64.2893H141.078C142.496 64.2893 143.583 64.6399 144.348 65.3411C145.112 66.0423 145.49 67.0783 145.49 68.4571V69.6152C145.512 70.3616 145.346 71.1015 145.005 71.7661C144.88 72.0288 144.703 72.264 144.486 72.458C144.269 72.6521 144.016 72.8012 143.741 72.8967C144.907 73.3615 145.49 74.4553 145.49 76.1781V77.3875C145.49 78.7688 145.109 79.8193 144.348 80.5389C143.583 81.244 142.496 81.5986 141.078 81.5986ZM138.738 71.5691H140.57C140.788 71.5934 141.008 71.5708 141.217 71.5028C141.426 71.4349 141.617 71.3232 141.779 71.1752C142.042 70.8086 142.167 70.3604 142.13 69.9107V68.784C142.171 68.3595 142.045 67.9355 141.779 67.6023C141.436 67.3336 141.003 67.208 140.57 67.2517H138.738C138.305 67.208 137.871 67.3336 137.529 67.6023C137.262 67.9355 137.137 68.3595 137.178 68.784V69.9107C137.141 70.3604 137.266 70.8086 137.529 71.1752C137.691 71.3232 137.882 71.4349 138.091 71.5028C138.299 71.5708 138.52 71.5934 138.738 71.5691ZM138.738 78.6599H140.57C141.003 78.7036 141.436 78.5779 141.779 78.3093C142.046 77.9762 142.172 77.5521 142.13 77.1275V75.8905C142.167 75.4408 142.042 74.9926 141.779 74.626C141.617 74.478 141.426 74.3663 141.217 74.2984C141.008 74.2305 140.788 74.2078 140.57 74.2321H138.738C138.52 74.2078 138.299 74.2305 138.091 74.2984C137.882 74.3663 137.691 74.478 137.529 74.626C137.266 74.9926 137.141 75.4408 137.178 75.8905V77.1275C137.136 77.5521 137.262 77.9762 137.529 78.3093C137.87 78.5807 138.304 78.7092 138.738 78.6677V78.6599Z" fill="#373064"/>
<path d="M155.468 81.5987H152.778C151.363 81.5987 150.268 81.2048 149.496 80.4681C148.724 79.7315 148.342 78.6324 148.342 77.2143V68.6896C148.342 67.2754 148.736 66.1882 149.496 65.4358C150.257 64.6834 151.363 64.3052 152.778 64.3052H155.468C156.868 64.3052 157.953 64.686 158.722 65.4476C159.492 66.2092 159.878 67.2899 159.88 68.6896V77.2143C159.88 78.6127 159.486 79.696 158.722 80.4563C157.958 81.2166 156.867 81.5987 155.468 81.5987ZM153.345 78.6403H154.921C155.357 78.6847 155.793 78.5544 156.134 78.2779C156.4 77.9281 156.524 77.4903 156.481 77.0527V68.8511C156.523 68.4137 156.4 67.9761 156.134 67.626C155.793 67.3495 155.357 67.2192 154.921 67.2636H153.345C152.908 67.2187 152.472 67.3491 152.132 67.626C151.866 67.9761 151.742 68.4137 151.785 68.8511V77.0527C151.741 77.4903 151.865 77.9281 152.132 78.2779C152.472 78.5548 152.908 78.6851 153.345 78.6403Z" fill="#373064"/>
<path d="M85.1085 66.7278C85.0577 66.8182 84.9895 66.8977 84.9079 66.9617C84.8263 67.0257 84.7328 67.073 84.6329 67.1008C84.533 67.1286 84.4286 67.1364 84.3257 67.1238C84.2227 67.1112 84.1233 67.0783 84.033 67.0272C83.9131 66.96 83.7715 66.943 83.6391 66.9799C83.5713 66.9985 83.5078 67.0303 83.4524 67.0736C83.3969 67.1169 83.3506 67.1707 83.3161 67.232C83.2813 67.2908 83.2589 67.356 83.2501 67.4237C83.2413 67.4914 83.2463 67.5602 83.2649 67.6259C83.2841 67.694 83.3167 67.7576 83.3606 67.8131C83.4046 67.8685 83.459 67.9147 83.5209 67.949C83.7032 68.0509 83.8375 68.221 83.8944 68.4219C83.9512 68.6228 83.926 68.8381 83.8243 69.0204C83.7735 69.1109 83.7053 69.1904 83.6237 69.2544C83.5421 69.3184 83.4486 69.3657 83.3487 69.3935C83.2488 69.4213 83.1444 69.4291 83.0414 69.4165C82.9385 69.4038 82.8391 69.371 82.7488 69.3198C82.2617 69.0464 81.9028 68.5911 81.7507 68.0535C81.5986 67.516 81.6657 66.9402 81.9373 66.452C82.2163 65.9663 82.6762 65.6108 83.2166 65.4631C83.7569 65.3155 84.3337 65.3878 84.8209 65.6642C84.9983 65.7687 85.1278 65.9386 85.1815 66.1373C85.2353 66.3361 85.2091 66.5481 85.1085 66.7278Z" fill="#F37651"/>
<path d="M30.0135 70.0563C30.1157 70.0735 30.2136 70.1107 30.3014 70.1657C30.3893 70.2208 30.4654 70.2927 30.5254 70.3772C30.5854 70.4617 30.6282 70.5573 30.6512 70.6584C30.6742 70.7595 30.677 70.8641 30.6595 70.9663C30.6477 71.0349 30.6499 71.1053 30.6662 71.173C30.6825 71.2407 30.7124 71.3044 30.7541 71.3602C30.794 71.4185 30.8453 71.468 30.9049 71.5059C30.9645 71.5438 31.0311 71.5693 31.1007 71.5808C31.1694 71.5934 31.2399 71.5915 31.3077 71.5752C31.3755 71.5589 31.4392 71.5286 31.4947 71.4863C31.6099 71.4039 31.6878 71.2793 31.7113 71.1396C31.7452 70.934 31.8591 70.7502 32.0282 70.6284C32.1972 70.5065 32.4077 70.4567 32.6134 70.4896C32.7157 70.5068 32.8135 70.544 32.9014 70.5991C32.9892 70.6541 33.0653 70.726 33.1253 70.8105C33.1854 70.8951 33.2281 70.9906 33.2511 71.0917C33.2741 71.1928 33.277 71.2974 33.2595 71.3996C33.2146 71.6743 33.1155 71.9372 32.9681 72.1732C32.8207 72.4093 32.6278 72.6136 32.4007 72.7744C31.9444 73.0997 31.378 73.2314 30.825 73.1408C30.5507 73.095 30.2882 72.9955 30.0524 72.8481C29.8166 72.7007 29.6122 72.5082 29.4508 72.2818C29.2895 72.0553 29.1743 71.7992 29.112 71.5282C29.0497 71.2572 29.0415 70.9766 29.0878 70.7024C29.1048 70.5985 29.1425 70.4992 29.1986 70.4101C29.2547 70.3211 29.328 70.2442 29.4143 70.184C29.5006 70.1238 29.5981 70.0815 29.701 70.0595C29.8039 70.0376 29.9102 70.0365 30.0135 70.0563Z" fill="#F37651"/>
<path d="M34.7564 28.69H34.4137C34.3694 28.6904 34.3256 28.6813 34.2852 28.6632C34.2448 28.6451 34.2087 28.6185 34.1796 28.5852C34.1504 28.5519 34.1287 28.5127 34.1161 28.4703C34.1035 28.4279 34.1002 28.3832 34.1065 28.3394L34.1734 27.8351C34.1806 27.7694 34.2088 27.7077 34.2538 27.6593C34.2989 27.6109 34.3583 27.5783 34.4234 27.5663C34.4884 27.5544 34.5555 27.5637 34.6148 27.593C34.6741 27.6223 34.7224 27.6699 34.7525 27.7288L35.0243 28.2291C35.0514 28.2759 35.0656 28.3291 35.0655 28.3831C35.0654 28.4372 35.051 28.4903 35.0239 28.5371C34.9967 28.5839 34.9576 28.6226 34.9107 28.6495C34.8637 28.6763 34.8105 28.6903 34.7564 28.69Z" fill="#F37651"/>
<path d="M30.0686 31.5577C32.3378 31.5577 34.1773 29.7182 34.1773 27.449C34.1773 25.1799 32.3378 23.3403 30.0686 23.3403C27.7995 23.3403 25.9599 25.1799 25.9599 27.449C25.9599 29.7182 27.7995 31.5577 30.0686 31.5577Z" fill="#F37651"/>
<path d="M25.4991 27.449C25.4991 26.5452 25.7671 25.6617 26.2692 24.9103C26.7713 24.1588 27.485 23.5731 28.3199 23.2272C29.1549 22.8814 30.0737 22.7909 30.9601 22.9672C31.8465 23.1435 32.6608 23.5787 33.2998 24.2178C33.9389 24.8569 34.3741 25.6711 34.5504 26.5575C34.7267 27.4439 34.6362 28.3627 34.2904 29.1977C33.9445 30.0327 33.3588 30.7463 32.6074 31.2484C31.8559 31.7506 30.9724 32.0186 30.0686 32.0186C28.857 32.0175 27.6953 31.5357 26.8386 30.679C25.9819 29.8223 25.5001 28.6606 25.4991 27.449ZM26.4209 27.449C26.4209 28.1704 26.6348 28.8757 27.0356 29.4756C27.4364 30.0755 28.0061 30.543 28.6727 30.8191C29.3392 31.0952 30.0727 31.1674 30.7803 31.0267C31.4879 30.8859 32.1379 30.5385 32.648 30.0284C33.1582 29.5182 33.5056 28.8682 33.6463 28.1606C33.7871 27.453 33.7149 26.7196 33.4388 26.053C33.1627 25.3865 32.6951 24.8168 32.0952 24.416C31.4954 24.0151 30.7901 23.8012 30.0686 23.8012C29.5891 23.8007 29.1141 23.8946 28.6709 24.0777C28.2276 24.2607 27.8248 24.5292 27.4853 24.868C27.1459 25.2067 26.8764 25.609 26.6924 26.0518C26.5085 26.4947 26.4135 26.9694 26.413 27.449H26.4209Z" fill="#F37651"/>
<path d="M33.815 26.4406C34.4216 26.5194 35.1937 26.3145 35.308 25.7197C35.4577 24.9594 34.4453 24.4709 34.2877 23.7146C34.2286 23.431 34.2877 23.1355 34.2641 22.848C34.1981 22.5628 34.0738 22.2945 33.8989 22.0599C33.7239 21.8252 33.5022 21.6295 33.2477 21.485C31.7393 20.4253 29.9032 19.9366 28.0675 20.1062C27.8381 20.1067 27.6142 20.1768 27.4254 20.3071C27.2605 20.5015 27.1276 20.7209 27.0315 20.9571C26.5627 21.7174 25.5109 21.804 24.7546 22.2768C23.8683 22.8283 23.4349 23.9116 23.3955 24.9515C23.4107 25.9951 23.597 27.0291 23.947 28.0124C24.1442 28.8784 24.5037 29.6991 25.0067 30.4311C25.5621 31.1284 26.4643 31.6129 27.327 31.4041C26.933 31.1205 27.2206 30.4626 27.646 30.2223C28.0715 29.982 28.6072 29.9505 28.9696 29.6314C29.2883 29.2609 29.4947 28.8072 29.5645 28.3236C29.6757 27.7131 29.9477 27.1434 30.3523 26.673C31.2111 25.8103 32.7632 26.2988 33.815 26.4406Z" fill="#373064"/>
<path opacity="0.05" d="M29.3663 21.5883L27.8469 21.885L27.8574 21.9391L29.3769 21.6424L29.3663 21.5883Z" fill="black"/>
<path d="M83.2413 22.5879C83.2413 22.5879 83.2925 37.246 91.7462 34.2482C94.5431 33.2594 89.1778 32.2155 88.2639 30.2774C89.6978 30.884 92.8098 32.2746 91.4587 29.2965C90.1075 26.3184 87.4012 27.6775 83.2413 22.5879Z" fill="#F37651"/>
<path d="M26.8699 7.46484C26.8699 7.46484 9.35186 14.6974 14.7566 23.7775C20.1613 32.8575 19.7516 12.0226 26.8699 7.46484Z" fill="#F37651"/>
<path d="M91.3325 68.788H91.3128C90.6076 68.7854 89.9323 68.5028 89.4355 68.0023C88.9386 67.5018 88.661 66.8244 88.6636 66.1192C88.6662 65.414 88.9489 64.7387 89.4494 64.2418C89.9499 63.745 90.6273 63.4674 91.3325 63.47C92.0374 63.4752 92.7115 63.7597 93.2069 64.2611C93.7024 64.7625 93.9789 65.4399 93.9758 66.1448C93.9706 66.8442 93.6905 67.5135 93.1959 68.0081C92.7013 68.5027 92.0319 68.7829 91.3325 68.788ZM91.3325 65.0496C91.0462 65.0496 90.7717 65.1634 90.5693 65.3658C90.3668 65.5682 90.2531 65.8427 90.2531 66.129C90.2531 66.4153 90.3668 66.6898 90.5693 66.8922C90.7717 67.0947 91.0462 67.2084 91.3325 67.2084C91.4745 67.2123 91.6158 67.1867 91.7473 67.1331C91.8789 67.0796 91.9979 66.9992 92.0967 66.8972C92.1985 66.7984 92.2796 66.6802 92.335 66.5497C92.3905 66.4191 92.4193 66.2788 92.4197 66.1369C92.4228 65.9915 92.3968 65.8469 92.3434 65.7117C92.29 65.5764 92.2101 65.4531 92.1085 65.349C92.0087 65.2478 91.8897 65.1675 91.7585 65.1127C91.6273 65.0579 91.4865 65.0298 91.3443 65.0299L91.3325 65.0496Z" fill="#F37651"/>
<path d="M93.9916 48.0673C93.2864 48.0673 92.6101 47.7872 92.1114 47.2885C91.6128 46.7898 91.3326 46.1135 91.3326 45.4083C91.3326 44.7031 91.6128 44.0267 92.1114 43.5281C92.6101 43.0294 93.2864 42.7493 93.9916 42.7493C94.6965 42.7545 95.3706 43.039 95.8661 43.5404C96.3616 44.0417 96.6381 44.7191 96.6349 45.4241C96.6298 46.1235 96.3496 46.7928 95.855 47.2874C95.3604 47.782 94.6911 48.0622 93.9916 48.0673ZM93.9916 44.3289C93.7161 44.3456 93.4574 44.4667 93.2682 44.6677C93.079 44.8687 92.9736 45.1343 92.9736 45.4103C92.9736 45.6863 93.079 45.9519 93.2682 46.1528C93.4574 46.3538 93.7161 46.475 93.9916 46.4916C94.2671 46.475 94.5259 46.3538 94.7151 46.1528C94.9043 45.9519 95.0097 45.6863 95.0097 45.4103C95.0097 45.1343 94.9043 44.8687 94.7151 44.6677C94.5259 44.4667 94.2671 44.3456 93.9916 44.3289Z" fill="#F37651"/>
<path d="M23.3521 39.4638C22.6468 39.4638 21.9705 39.1837 21.4718 38.685C20.9732 38.1863 20.693 37.51 20.693 36.8048C20.693 36.0996 20.9732 35.4232 21.4718 34.9246C21.9705 34.4259 22.6468 34.1458 23.3521 34.1458C24.057 34.151 24.731 34.4354 25.2265 34.9368C25.722 35.4382 25.9985 36.1156 25.9953 36.8205C25.9912 37.5203 25.7114 38.1902 25.2166 38.685C24.7218 39.1799 24.0518 39.4597 23.3521 39.4638ZM23.3521 35.7254C23.0658 35.7254 22.7913 35.8391 22.5888 36.0416C22.3864 36.244 22.2727 36.5185 22.2727 36.8048C22.2727 37.091 22.3864 37.3656 22.5888 37.568C22.7913 37.7704 23.0658 37.8841 23.3521 37.8841C23.4947 37.8882 23.6365 37.8626 23.7688 37.809C23.901 37.7555 24.0206 37.6751 24.1202 37.5729C24.2722 37.4229 24.3763 37.2311 24.4193 37.0219C24.4622 36.8127 24.4422 36.5955 24.3616 36.3977C24.2811 36.1998 24.1436 36.0304 23.9667 35.9107C23.7898 35.7911 23.5814 35.7266 23.3678 35.7254H23.3521Z" fill="#F37651"/>
<path d="M9.75375 52.0934C9.22344 52.0702 8.72255 51.8432 8.3555 51.4597C7.98845 51.0762 7.78357 50.5659 7.78357 50.0351C7.78357 49.5043 7.98845 48.9939 8.3555 48.6105C8.72255 48.227 9.22344 48 9.75375 47.9768C10.0245 47.9778 10.2923 48.0323 10.5419 48.1371C10.7915 48.2419 11.018 48.3949 11.2083 48.5874C11.3986 48.7799 11.549 49.0082 11.651 49.2589C11.7529 49.5097 11.8043 49.7782 11.8022 50.0489C11.7981 50.5905 11.5808 51.1087 11.1974 51.4914C10.814 51.874 10.2954 52.0903 9.75375 52.0934ZM9.75375 49.198C9.54166 49.2125 9.343 49.3071 9.19792 49.4625C9.05283 49.6178 8.97214 49.8225 8.97214 50.0351C8.97214 50.2477 9.05283 50.4523 9.19792 50.6077C9.343 50.7631 9.54166 50.8576 9.75375 50.8722C9.86337 50.8741 9.97224 50.8538 10.0738 50.8125C10.1754 50.7712 10.2675 50.7098 10.3446 50.6319C10.4996 50.4742 10.5864 50.262 10.5864 50.041C10.5864 49.82 10.4996 49.6078 10.3446 49.4501C10.2675 49.3717 10.1755 49.3094 10.0741 49.2668C9.97265 49.2242 9.86377 49.2021 9.75375 49.2019V49.198Z" fill="#F37651"/>
<path d="M27.2008 16.0724C26.7045 16.0724 26.2286 15.8753 25.8776 15.5244C25.5267 15.1734 25.3296 14.6975 25.3296 14.2012C25.3296 13.705 25.5267 13.229 25.8776 12.8781C26.2286 12.5272 26.7045 12.3301 27.2008 12.3301C27.6967 12.3342 28.1708 12.5347 28.5193 12.8876C28.8677 13.2405 29.0622 13.7171 29.0601 14.2131C29.057 14.7052 28.8601 15.1764 28.5121 15.5244C28.1641 15.8724 27.6929 16.0693 27.2008 16.0724ZM27.2008 13.441C26.9991 13.441 26.8057 13.5211 26.6632 13.6636C26.5206 13.8062 26.4405 13.9996 26.4405 14.2012C26.4405 14.4029 26.5206 14.5963 26.6632 14.7388C26.8057 14.8814 26.9991 14.9615 27.2008 14.9615C27.3011 14.9644 27.401 14.9462 27.4939 14.9082C27.5868 14.8702 27.6708 14.8132 27.7404 14.7409C27.8819 14.5985 27.9613 14.4059 27.9613 14.2052C27.9613 14.0045 27.8819 13.8119 27.7404 13.6694C27.5976 13.5276 27.4059 13.4459 27.2047 13.441H27.2008Z" fill="#F37651"/>
<path d="M4.56569 65.9242C4.40071 65.9235 4.2401 65.871 4.10652 65.7742C3.97294 65.6774 3.87313 65.5411 3.82116 65.3845C2.14422 60.3764 1.29143 55.1293 1.29607 49.8479C1.29671 47.5867 1.45202 45.3281 1.76091 43.0881C1.78964 42.8791 1.9002 42.6901 2.06827 42.5627C2.23634 42.4353 2.44814 42.3798 2.6571 42.4085C2.86605 42.4373 3.05503 42.5478 3.18247 42.7159C3.30991 42.884 3.36536 43.0958 3.33663 43.3047C3.03873 45.4731 2.88869 47.6592 2.88755 49.8479C2.88294 54.9591 3.70778 60.0372 5.32991 64.8842C5.37 65.0029 5.38121 65.1294 5.3626 65.2533C5.344 65.3772 5.29612 65.4949 5.22294 65.5965C5.14977 65.6982 5.0534 65.781 4.94183 65.838C4.83026 65.8949 4.70672 65.9245 4.58144 65.9242H4.56569Z" fill="#F37651"/>
<path d="M6.46829 58.2622C6.80779 59.4523 7.23981 60.614 7.76038 61.7367" stroke="#F37651" stroke-width="1.57572" stroke-miterlimit="10" stroke-linecap="round"/>
<path d="M5.36925 42.4104C4.94214 46.2522 4.99773 50.1324 5.5347 53.9604" stroke="#F37651" stroke-width="1.57572" stroke-miterlimit="10" stroke-linecap="round"/>
<path d="M46.1489 88.2954C46.0558 88.2272 45.9769 88.1416 45.9164 88.0433C45.7275 87.7294 45.6031 87.381 45.5503 87.0185C45.4976 86.6559 45.5176 86.2865 45.6092 85.9318C45.7258 85.5756 45.9198 85.2496 46.1772 84.9772C46.4347 84.7047 46.7492 84.4926 47.0982 84.3561C47.2265 84.3119 47.3407 84.2344 47.4291 84.1315C47.3743 83.9196 47.2594 83.7281 47.0982 83.58C46.9308 83.4098 46.837 83.1806 46.837 82.9419C46.837 82.7031 46.9308 82.4739 47.0982 82.3037C47.1798 82.2185 47.2774 82.1503 47.3854 82.103C47.4934 82.0557 47.6097 82.0302 47.7275 82.028C47.8454 82.0258 47.9626 82.0469 48.0723 82.0902C48.182 82.1335 48.282 82.198 48.3667 82.2801C48.4731 82.3825 49.4106 83.3161 49.2215 84.4388C49.1507 84.7966 48.9882 85.1299 48.75 85.4061C48.5118 85.6823 48.206 85.8919 47.8625 86.0145C47.751 86.0505 47.6481 86.1089 47.56 86.1861C47.4719 86.2633 47.4006 86.3578 47.3504 86.4636C47.3159 86.6831 47.3562 86.9078 47.4646 87.1018C47.5741 87.2798 47.6184 87.4903 47.5899 87.6973C47.5615 87.9043 47.462 88.0951 47.3085 88.2369C47.1551 88.3788 46.9571 88.4629 46.7485 88.475C46.5398 88.4871 46.3335 88.4264 46.1646 88.3033L46.1489 88.2954Z" fill="#F37651"/>
<path d="M38.0417 78.6521C37.9348 78.6063 37.8383 78.5393 37.7581 78.4551C37.5053 78.19 37.3079 77.8772 37.1774 77.535C37.0468 77.1927 36.9858 76.8279 36.9978 76.4618C37.0369 76.0905 37.157 75.7322 37.3496 75.4123C37.5422 75.0924 37.8027 74.8186 38.1126 74.6104C38.2275 74.5391 38.3214 74.4385 38.3844 74.3189C38.2848 74.1239 38.1318 73.9613 37.9432 73.8501C37.7406 73.7247 37.5958 73.5243 37.5405 73.2925C37.4851 73.0608 37.5237 72.8165 37.6478 72.6131C37.7081 72.5115 37.7881 72.4229 37.883 72.3525C37.9779 72.2821 38.0859 72.2313 38.2007 72.203C38.3155 72.1748 38.4347 72.1697 38.5515 72.188C38.6682 72.2064 38.7802 72.2478 38.8808 72.3098C39.0068 72.3847 40.1256 73.0977 40.1847 74.2283C40.1904 74.5912 40.1029 74.9495 39.9305 75.2688C39.758 75.5882 39.5065 75.8579 39.1999 76.0521C39.1002 76.1116 39.0138 76.1908 38.946 76.285C38.8783 76.3792 38.8306 76.4863 38.8059 76.5997C38.821 76.8218 38.9097 77.0325 39.058 77.1985C39.2028 77.3487 39.291 77.5443 39.3077 77.7522C39.3244 77.9601 39.2685 78.1673 39.1497 78.3387C39.0308 78.51 38.8562 78.6349 38.6556 78.692C38.4551 78.7492 38.2409 78.735 38.0496 78.6521H38.0417Z" fill="#F37651"/>
<path d="M43.2969 83.2058C43.2156 83.1763 43.1397 83.1337 43.0723 83.0797C42.9384 82.9773 41.7448 82.0397 41.8039 80.791C41.834 80.4199 41.9583 80.0627 42.1651 79.7532C42.372 79.4436 42.6544 79.192 42.9857 79.0222C43.1235 78.9395 43.289 78.8095 43.3008 78.6834C43.3244 78.388 42.9069 77.868 42.6666 77.6592C42.4853 77.5025 42.3737 77.2802 42.3563 77.0412C42.339 76.8022 42.4173 76.5661 42.574 76.3849C42.7307 76.2036 42.953 76.092 43.192 76.0746C43.431 76.0573 43.6671 76.1356 43.8484 76.2923C43.9902 76.4144 45.2074 77.5095 45.1011 78.8252C45.0658 79.1877 44.9412 79.5358 44.7384 79.8383C44.5356 80.1408 44.2609 80.3883 43.939 80.5585C43.7184 80.6925 43.6159 80.8185 43.6159 80.8737C43.6159 81.0588 43.9074 81.4409 44.1753 81.6615C44.3679 81.7853 44.5062 81.9776 44.5623 82.1995C44.6183 82.4214 44.5879 82.6564 44.4772 82.8567C44.3666 83.0571 44.1838 83.2078 43.9661 83.2785C43.7484 83.3492 43.512 83.3344 43.3047 83.2373L43.2969 83.2058Z" fill="#F37651"/>
<path d="M41.8984 89.2052C41.2209 89.2328 38.0419 89.5479 36.931 92.8018C36.9291 92.8241 36.9291 92.8465 36.931 92.8688C36.8719 93.2351 36.5371 96.3668 41.9575 97.3477H42.0166C42.4696 97.5171 48.5519 99.7428 49.2374 95.2757C49.2188 94.262 48.943 93.2697 48.4359 92.3919C47.9287 91.514 47.2069 90.7794 46.338 90.257C46.2616 90.2092 46.2055 90.1348 46.1805 90.0482L45.9796 89.3746C45.9614 89.3238 45.933 89.2773 45.8961 89.238C45.8592 89.1987 45.8147 89.1673 45.7652 89.1459C45.7157 89.1245 45.6623 89.1134 45.6084 89.1135C45.5545 89.1135 45.5011 89.1246 45.4517 89.1461L45.2429 89.2485C45.1614 89.2853 45.0698 89.2932 44.9832 89.2711C44.8965 89.2489 44.82 89.1979 44.7662 89.1264L44.6087 88.8979C44.5504 88.8203 44.4655 88.7669 44.3703 88.7479C44.275 88.729 44.1762 88.746 44.0926 88.7955L43.9193 88.9098C43.8345 88.9596 43.7341 88.9759 43.6379 88.9555C43.5417 88.9351 43.4566 88.8794 43.3993 88.7995L43.2969 88.6419C43.2655 88.5985 43.2256 88.562 43.1796 88.5346C43.1336 88.5072 43.0825 88.4894 43.0294 88.4824C42.9763 88.4754 42.9223 88.4793 42.8708 88.4938C42.8192 88.5084 42.7712 88.5333 42.7296 88.567L42.1466 89.091C42.0802 89.1574 41.9921 89.1979 41.8984 89.2052Z" fill="#F37651"/>
<path d="M44.1122 90.1704C44.8195 90.4295 45.3949 90.959 45.7119 91.6423C46.0288 92.3257 46.0613 93.107 45.8022 93.8143" stroke="#373064" stroke-width="0.902099" stroke-linecap="round" stroke-linejoin="round"/>
<path d="M44.1791 90.1704C44.6039 90.7897 44.7658 91.5522 44.6292 92.2907C44.4926 93.0292 44.0686 93.6834 43.4504 94.1097" stroke="#373064" stroke-width="0.902099" stroke-linecap="round" stroke-linejoin="round"/>
<path d="M43.9113 90.0876C43.847 90.4548 43.7111 90.8056 43.5112 91.1201C43.3113 91.4347 43.0513 91.7067 42.7462 91.9208C42.4411 92.1348 42.0968 92.2866 41.733 92.3675C41.3692 92.4483 40.993 92.4567 40.6259 92.3921" stroke="#373064" stroke-width="0.902099" stroke-linecap="round" stroke-linejoin="round"/>
<path d="M33.8071 80.2868C33.1295 80.2553 29.9387 80.2868 28.5442 83.4382C28.5328 83.4592 28.5249 83.4818 28.5205 83.5052C28.4299 83.8636 27.8154 86.956 33.1334 88.4096L33.1925 88.4332C33.6259 88.6459 39.4954 91.3956 40.5669 87.0072C40.6374 85.9958 40.4499 84.9831 40.022 84.0639C39.5941 83.1448 38.9399 82.3494 38.1206 81.7522C38.0487 81.696 37.9986 81.6166 37.9788 81.5276L37.837 80.8343C37.8235 80.7822 37.7995 80.7333 37.7664 80.6908C37.7333 80.6483 37.6918 80.6131 37.6446 80.5872C37.5973 80.5614 37.5453 80.5455 37.4916 80.5406C37.438 80.5357 37.3839 80.5418 37.3327 80.5586L37.1121 80.6452C37.0279 80.6737 36.9365 80.6729 36.8528 80.6428C36.7692 80.6128 36.6981 80.5553 36.6512 80.4798L36.5134 80.2395C36.4619 80.1575 36.3821 80.0973 36.2891 80.0704C36.196 80.0435 36.0964 80.0518 36.0091 80.0937L35.8279 80.1883C35.7389 80.2318 35.6367 80.2401 35.5418 80.2116C35.4469 80.1832 35.3662 80.12 35.3158 80.0347L35.2291 79.8692C35.2018 79.823 35.1653 79.7828 35.1219 79.7512C35.0785 79.7196 35.0291 79.6972 34.9767 79.6854C34.9243 79.6736 34.87 79.6726 34.8172 79.6826C34.7645 79.6925 34.7143 79.7131 34.6698 79.7431L34.0434 80.2119C33.9756 80.2633 33.8921 80.2897 33.8071 80.2868Z" fill="#F37651"/>
<path d="M35.9303 81.4253C36.2678 81.5838 36.5708 81.8074 36.8218 82.0831C37.0728 82.3589 37.267 82.6815 37.3932 83.0323C37.5195 83.3832 37.5753 83.7556 37.5575 84.1281C37.5396 84.5005 37.4485 84.8659 37.2894 85.2031" stroke="#373064" stroke-width="0.902099" stroke-linecap="round" stroke-linejoin="round"/>
<path d="M35.9933 81.4568C36.3637 82.112 36.4589 82.8874 36.258 83.6127C36.0571 84.338 35.5765 84.9539 34.9218 85.3252" stroke="#373064" stroke-width="0.902099" stroke-linecap="round" stroke-linejoin="round"/>
<path d="M35.7373 81.3425C35.5417 82.0695 35.0654 82.6891 34.4132 83.065C33.7609 83.441 32.9861 83.5427 32.2589 83.3476" stroke="#373064" stroke-width="0.902099" stroke-linecap="round" stroke-linejoin="round"/>
</g>
<defs>
<clipPath id="clip0_183_14364">
<rect width="305" height="98.0688" fill="white"/>
</clipPath>
</defs>
</svg>
