<?xml version="1.0" encoding="UTF-8"?> <svg xmlns="http://www.w3.org/2000/svg" height="54" viewBox="0 0 88 54" width="88"><g fill="none" fill-rule="evenodd"><path d="m14.667 6.353h60.923v42.353h-60.923z" fill="#fff"></path><g fill="#fd655b"><path d="m54.628 43.664a10.194 10.194 0 0 0 -.227-.612c-.044.12-.155.4-.238.638l-.138.389c-.05.14-.022.156.116.156h.52c.127 0 .155-.016.11-.15zm-28.388-1.183c-.226 0-.237.016-.237.265v1.011c0 .182.017.197.343.197.199 0 .315-.046.42-.145.094-.088.199-.254.199-.56 0-.467-.293-.768-.724-.768m12.139 1.183a10.194 10.194 0 0 0 -.226-.612c-.045.12-.155.4-.238.638l-.138.389c-.05.14-.022.156.116.156h.52c.127 0 .154-.016.11-.15zm3.467-1.183c-.15 0-.255.026-.288.067-.033.042-.039.14-.039.301v1.894c0 .285.011.472.111.581.1.104.26.15.459.15.956 0 1.282-.798 1.282-1.504 0-.934-.525-1.489-1.525-1.489m-7.242 0c-.227 0-.238.016-.238.265v1.011c0 .182.017.197.343.197.199 0 .315-.046.42-.145.094-.088.199-.254.199-.56 0-.467-.293-.768-.724-.768m9.468-31.878c-.95 0-1.635.331-1.88.581-.197.228-.264.54-.264 1.223v3.571c0 .663.22.913.663 1.245.442.311 1.128.456 1.592.456 1.814 0 2.874-1.577 2.874-3.736 0-1.66-.995-3.34-2.985-3.34m-11.742 1.536h1.57c1.637 0 2.124-.084 2.3-.208.067-.043.132-.126.132-.395 0-.582-.418-1.308-1.701-1.308-1.306 0-2.433 1.121-2.455 1.807 0 .04 0 .104.154.104"></path><path d="m71.262 45.765c-.509 0-.824-.135-.94-.197-.105-.114-.177-.488-.177-.84.039-.068.166-.073.21-.016.11.337.481.815.951.815.41 0 .597-.265.597-.524 0-.42-.42-.67-.752-.825-.398-.187-.835-.498-.835-1.012-.005-.586.481-.991 1.283-.991.182 0 .41.02.63.083.072.02.122.031.188.042.044.114.1.394.1.741-.028.063-.166.068-.216.016-.094-.265-.332-.643-.73-.643-.365 0-.564.223-.564.482 0 .239.227.457.504.592l.364.181c.343.171.78.472.78 1.043 0 .638-.558 1.053-1.393 1.053m-1.272-2.708c-.027.047-.177.057-.204.016-.094-.332-.172-.577-.586-.577h-.332c-.133 0-.15.016-.15.151v2.288c0 .483.034.524.283.555l.22.026c.04.031.04.15 0 .182-.358-.01-.635-.016-.884-.016-.265 0-.552.005-.94.016-.044-.031-.044-.15 0-.182l.25-.026c.248-.026.281-.072.281-.555v-2.288c0-.124 0-.15-.132-.15h-.343c-.404 0-.52.207-.686.586-.066.03-.171.02-.204-.047.116-.358.144-.68.182-.882a.138.138 0 0 1 .078-.026c.027 0 .055.005.077.02.028.09.044.11.464.11h2.057c.365 0 .448-.005.497-.114a.144.144 0 0 1 .072-.016c.033 0 .072.02.083.036-.055.177-.094.597-.083.893m-3.715 2.64c-.293-.01-.823-.015-1.277-.015h-.718c-.266 0-.537.005-.951.016-.044-.031-.044-.156 0-.182l.26-.036c.248-.036.282-.068.282-.545v-1.935c0-.472-.034-.504-.282-.55l-.138-.026c-.05-.031-.045-.15.01-.182.26.01.531.016.797.016h1.171c.354 0 .67-.005.741-.016.006.083.045.457.072.805-.022.057-.15.067-.204.02-.061-.181-.139-.337-.21-.41-.106-.098-.271-.16-.542-.16h-.442c-.183 0-.183.01-.183.202v.908c0 .145.006.155.155.155h.381c.288 0 .354-.036.41-.285l.027-.13c.039-.041.177-.041.205.006a8.414 8.414 0 0 0 -.017.55c0 .197.006.384.017.55-.028.046-.166.051-.205.005l-.028-.13c-.055-.25-.121-.29-.409-.29h-.38c-.15 0-.156.005-.156.16v.618c0 .238.022.404.089.493.071.093.177.135.58.135.481 0 .67-.016.973-.602.044-.057.183-.037.204.026-.021.27-.154.69-.232.83m-4.273-1.448c-.066 0-.116 0-.177-.005-.044-.026-.055-.109-.016-.14.458-.135.552-.441.552-.825s-.21-.8-.707-.8c-.205 0-.216.058-.216.266v2.19c0 .482.033.523.282.56l.177.025c.06.026.06.146 0 .177a23.492 23.492 0 0 0 -1.675 0c-.019-.01-.031-.03-.04-.051-.003.007-.005.014-.01.02-.088.036-.265.046-.436.046-.509 0-.83-.17-1.073-.545a6.31 6.31 0 0 1 -.431-.804c-.066-.14-.155-.181-.293-.181-.194 0-.205.01-.205.114v.638c0 .477.034.514.282.555l.15.026c.038.026.038.15 0 .182a22.354 22.354 0 0 0 -1.62 0c-.014-.01-.022-.03-.027-.052-.005.022-.013.042-.028.052-.266-.01-.564-.016-.852-.016-.276 0-.492.005-.746.016-.06-.031-.072-.14-.011-.182l.177-.026c.127-.02.149-.057.149-.088 0-.036-.039-.16-.105-.353l-.15-.446c-.027-.083-.071-.093-.265-.093h-.657c-.133 0-.15.005-.183.103l-.216.602a.571.571 0 0 0 -.038.187c0 .031.072.062.226.088l.166.026c.033.037.045.156-.01.182-.194-.01-.393-.01-.625-.016-.188 0-.316.016-.57.016-.06-.031-.055-.14-.016-.182l.149-.016c.133-.015.243-.056.337-.259.094-.207.2-.456.348-.83l.503-1.266c.128-.327.222-.508.205-.659.265-.057.47-.311.48-.311.073 0 .106.026.128.104.044.15.11.342.249.71l.752 2.034c.116.312.165.43.37.462l.21.031c.01.008.018.028.023.05.005-.022.013-.042.027-.05l.15-.026c.248-.041.281-.078.281-.555v-1.837c0-.518-.011-.575-.243-.607l-.15-.02c-.055-.026-.055-.156.012-.182.414-.026.845-.047 1.37-.047.47 0 .874.068 1.084.187.32.177.487.436.487.768 0 .462-.332.659-.586.778-.056.026-.056.057-.028.114.365.696.592 1.085.857 1.298.144.108.287.14.37.145a.068.068 0 0 1 .028.027.063.063 0 0 1 .033-.038l.155-.026c.248-.041.282-.077.282-.56v-1.837c0-.524-.011-.586-.244-.612l-.171-.02c-.05-.026-.05-.14.011-.177.365-.026.796-.047 1.277-.047.47 0 .78.052 1.012.135.337.12.674.395.674.898 0 .85-.912.975-1.205.975m-10.503 1.515c-.542 0-1.095-.12-1.487-.394-.398-.285-.703-.716-.703-1.36 0-.632.288-1.079.67-1.374.392-.306.956-.462 1.53-.462.565 0 .974.125 1.14.135 0 .093.016.508.066.81-.022.062-.172.082-.21.036-.15-.483-.503-.742-1.04-.742-.613 0-1.271.493-1.271 1.525s.636 1.588 1.3 1.588c.668 0 .978-.452 1.127-.805.044-.041.177-.026.21.037-.039.384-.133.695-.21.814-.299.078-.691.192-1.122.192m-8.044-27.4c-.399 0-1.017-.043-1.216-.084-.2.04-.31.145-.31.58v2.18c0 1.474.043 1.66.84 1.763l.862.104c.156.106.11.458-.044.519a60.628 60.628 0 0 0 -2.475-.061c-.798 0-1.462.02-2.08.06-.156-.06-.2-.412-.045-.518l.466-.061c.817-.104.84-.312.84-1.807v-8.922c0-.81 0-.913-.597-1.288l-.2-.124c-.088-.083-.088-.311.022-.374.575-.228 1.615-.726 2.19-1.121.132 0 .22.043.264.146-.043.375-.087.686-.087.955 0 .146.044.27.198.27.288-.124 1.682-.976 3.096-.976 2.234 0 3.672 1.703 3.672 3.798 0 2.885-2.257 4.96-5.396 4.96m4.063 27.334c-.293-.01-.823-.016-1.277-.016h-.718c-.266 0-.537.005-.951.016-.044-.031-.044-.156 0-.182l.26-.036c.249-.036.282-.068.282-.545v-1.935c0-.472-.033-.504-.282-.55l-.138-.026c-.05-.031-.045-.15.01-.182.26.01.531.016.797.016h1.172c.353 0 .669-.005.74-.016.006.083.045.457.072.805-.022.057-.15.067-.204.02-.061-.181-.139-.337-.21-.41-.106-.098-.271-.16-.542-.16h-.442c-.183 0-.183.01-.183.202v.908c0 .145.006.155.155.155h.381c.288 0 .354-.036.41-.285l.027-.13c.039-.041.177-.041.205.006a8.414 8.414 0 0 0 -.017.55c0 .197.006.384.017.55-.028.046-.166.051-.205.005l-.027-.13c-.056-.25-.122-.29-.41-.29h-.38c-.15 0-.156.005-.156.16v.618c0 .238.022.404.089.493.071.093.177.135.58.135.481 0 .67-.016.973-.602.044-.057.183-.037.204.026-.021.27-.154.69-.232.83m-4.245-.229c-.376.177-.83.244-1.399.244-.26 0-.536-.03-.735-.03-.265 0-.547.004-.862.015-.008-.005-.012-.016-.017-.025-.005.01-.009.02-.017.025-.265-.01-.563-.016-.851-.016-.276 0-.492.005-.746.016-.061-.031-.072-.14-.011-.182l.177-.026c.127-.02.149-.057.149-.088 0-.036-.039-.16-.105-.353l-.15-.446c-.027-.083-.071-.093-.265-.093h-.658c-.132 0-.149.005-.182.103l-.216.602a.571.571 0 0 0 -.038.187c0 .031.071.062.226.088l.166.026c.033.037.044.156-.011.182-.193-.01-.392-.01-.625-.016-.15 0-.261.01-.43.014a2.344 2.344 0 0 1 -.305.017c-.508 0-.83-.17-1.072-.545a6.31 6.31 0 0 1 -.432-.804c-.066-.14-.154-.181-.293-.181-.193 0-.204.01-.204.114v.638c0 .477.033.514.282.555l.15.026c.038.026.038.15 0 .182a22.344 22.344 0 0 0 -1.62 0c-.045-.031-.045-.156 0-.182l.149-.026c.248-.041.282-.078.282-.555v-1.837c0-.518-.011-.575-.244-.607l-.149-.02c-.055-.026-.055-.156.011-.182.415-.026.846-.047 1.371-.047.47 0 .874.068 1.084.187.32.177.486.436.486.768 0 .462-.331.659-.586.778-.055.026-.055.057-.028.114.366.696.592 1.085.857 1.298.08.06.158.095.228.116l.027-.003c.132-.015.243-.056.337-.259.094-.207.199-.456.348-.83l.503-1.266c.127-.327.221-.508.205-.659.265-.057.47-.311.48-.311.073 0 .106.026.128.104.044.15.11.342.249.71l.751 2.034c.117.312.166.43.37.462l.21.031c.006.004.01.014.013.022.005-.008.009-.018.016-.022l.17-.026c.25-.036.283-.078.283-.555v-1.837c0-.492-.011-.591-.265-.617l-.106-.01c-.055-.026-.055-.177.012-.182.464-.026.895-.047 1.481-.047.453 0 .907.042 1.288.172.724.244 1.122.856 1.122 1.504 0 .695-.353 1.256-.99 1.551m-10.387-2.412c-.027.047-.177.057-.204.016-.094-.332-.172-.577-.586-.577h-.332c-.133 0-.149.016-.149.151v2.288c0 .483.033.524.282.555l.22.026c.04.031.04.15 0 .182-.358-.01-.635-.016-.884-.016-.265 0-.552.005-.94.016-.044-.031-.044-.15 0-.182l.25-.026c.248-.026.282-.072.282-.555v-2.288c0-.124 0-.15-.133-.15h-.343c-.404 0-.52.207-.686.586-.066.03-.17.02-.204-.047.116-.358.144-.68.182-.882a.138.138 0 0 1 .078-.026c.028 0 .055.005.077.02.028.09.044.11.465.11h2.056c.365 0 .448-.005.497-.114a.144.144 0 0 1 .072-.016c.034 0 .072.02.083.036-.055.177-.094.597-.083.893m-3.45-25.649c-.397.438-1.194.957-2.322.957-1.901 0-2.3-.997-2.3-2.243v-4.752c0-.56-.022-.6-.464-.6h-.618c-.134-.084-.156-.312-.067-.438.642-.187 1.194-.456 1.416-.643.286-.248.706-.81.928-1.225.11-.04.377-.04.464.104v.934c0 .374.021.395.398.395h2.454c.267.187.222.746.022.872h-2.496c-.377 0-.4.061-.4.497v3.882c0 1.202.155 2.303 1.616 2.303.221 0 .42-.043.596-.104.2-.063.488-.29.553-.29.178 0 .266.227.22.351m-.993 28.259c-.089.036-.265.046-.437.046-.508 0-.83-.17-1.072-.545a6.31 6.31 0 0 1 -.432-.804c-.066-.14-.154-.181-.293-.181-.193 0-.204.01-.204.114v.638c0 .477.033.514.282.555l.15.026c.038.026.038.15 0 .182a22.354 22.354 0 0 0 -1.62 0c-.045-.031-.045-.156 0-.182l.149-.026c.248-.041.282-.078.282-.555v-1.837c0-.518-.012-.575-.244-.607l-.149-.02c-.055-.026-.055-.156.011-.182.415-.026.846-.047 1.371-.047.47 0 .874.068 1.084.187.32.177.486.436.486.768 0 .462-.332.659-.586.778-.055.026-.055.057-.028.114.365.696.592 1.085.857 1.298.144.108.288.14.37.145.05.026.05.104.023.135m-4.168-.177.155.026c.044.031.038.15-.006.182a23.726 23.726 0 0 0 -1.67 0 .072.072 0 0 1 -.021-.032c-.006.013-.012.025-.023.032-.265-.01-.564-.016-.851-.016-.276 0-.492.005-.746.016-.061-.031-.072-.14-.011-.182l.177-.026c.127-.02.149-.057.149-.088 0-.036-.039-.16-.105-.353l-.15-.446c-.027-.083-.071-.093-.265-.093h-.658c-.132 0-.149.005-.182.103l-.216.602a.571.571 0 0 0 -.038.187c0 .031.071.062.226.088l.166.026c.033.037.044.156-.011.182-.194-.01-.393-.01-.625-.016-.188 0-.315.016-.57.016-.06-.031-.054-.14-.016-.182l.15-.016c.132-.015.243-.056.337-.259.094-.207.199-.456.348-.83l.503-1.266c.127-.327.221-.508.205-.659.265-.057.47-.311.48-.311.072 0 .106.026.128.104.044.15.11.342.249.71l.751 2.034c.116.312.166.43.37.462l.21.031a.073.073 0 0 1 .019.031.073.073 0 0 1 .02-.031l.155-.026c.254-.041.288-.078.288-.565v-1.91c0-.487-.034-.524-.288-.565l-.154-.026c-.045-.031-.045-.15 0-.182a24.085 24.085 0 0 0 1.675 0c.044.032.044.15 0 .182l-.155.026c-.255.041-.288.078-.288.565v1.91c0 .487.033.524.288.565m-5.517-.996-.028-.124c-.055-.25-.116-.291-.41-.291h-.425c-.149 0-.155.015-.155.156v.7c0 .483.034.524.282.555l.205.026c.039.031.039.15 0 .182-.343-.01-.614-.016-.88-.016-.253 0-.53.005-.861.016-.045-.031-.045-.15 0-.182l.182-.026c.249-.036.282-.072.282-.555v-1.93c0-.482-.033-.53-.282-.565l-.11-.016c-.05-.031-.05-.16.01-.182.238.01.515.016.78.016h1.16c.355 0 .67-.005.747-.016 0 .089 0 .462.011.81-.022.057-.143.062-.21.02-.06-.212-.105-.337-.16-.404-.094-.11-.26-.172-.542-.172h-.431c-.183 0-.183.011-.183.213v.94c0 .14.006.155.155.155h.426c.293 0 .354-.036.409-.29l.028-.125c.038-.047.177-.041.21.005a8.57 8.57 0 0 0 0 1.095c-.033.047-.172.052-.21.005m-2.368-28.848c.11-.126.4-.146.51-.022.375 1.141 1.084 2.138 2.344 2.138.795 0 1.48-.435 1.48-1.328 0-.955-.884-1.473-1.702-1.909-1.283-.685-2.19-1.412-2.19-2.553 0-1.514 1.327-2.366 3.008-2.366.93 0 1.747.207 1.946.374.2.456.354 1.121.354 1.68-.089.145-.42.188-.531.064-.375-.914-1.039-1.516-1.945-1.516-.863 0-1.416.519-1.416 1.265 0 .853.928 1.309 1.702 1.724 1.173.622 2.257 1.328 2.257 2.801 0 1.577-1.548 2.367-3.185 2.367-1.038 0-1.812-.208-2.365-.623-.178-.395-.31-1.412-.267-2.096m18.487-6.04c1.9 0 3.14 1.224 3.14 2.47 0 .29-.045.455-.088.539-.067.124-.377.146-1.305.146h-4.093c-.575 0-.596.041-.596.56 0 2.095 1.303 3.88 3.67 3.88.728 0 1.348-.208 2.034-1.016.22-.063.377.061.398.249-.73 1.412-2.322 1.93-3.473 1.93-1.437 0-2.564-.581-3.206-1.37-.663-.809-.928-1.785-.928-2.697 0-2.553 1.79-4.691 4.445-4.691m51.308 41.454c-1.565-.073-3.137-.058-4.703-.132-.845-.043-1.617-.434-1.708-1.254-.114-1.053.776-1.464 1.714-1.533a41.835 41.835 0 0 1 2.158-.087c.847-.016 1.696-.026 2.543-.068.533-.028 1.02-.175 1.301-.51.152-.202.235-.48.215-.863a1.484 1.484 0 0 0 -.09-.471c0-.006-.004-.011-.007-.015-.353-.914-1.597-.73-2.529-.787-.892-.056-1.79-.019-2.689-.04-1.155-.027-2.622-.133-2.623-1.393-.003-1.504 1.551-1.508 2.819-1.51 1.009-.002 2.018-.002 3.026-.024 1.067-.022 2.17-.182 2.113-1.458-.051-1.082-1.096-1.184-2.016-1.212-1.23-.043-2.466-.032-3.698-.069-1.072-.031-2.247-.315-2.264-1.42-.018-1.094 1.082-1.46 2.205-1.47 1.455-.013 2.912-.023 4.367-.098.893-.05 1.5-.547 1.42-1.423-.065-.708-.666-1.083-1.4-1.116-1.566-.076-3.137-.067-4.703-.154-.96-.055-1.919-.48-1.901-1.428.016-.92.904-1.4 1.915-1.425 1.457-.035 2.914-.034 4.37-.078.844-.026 1.63-.298 1.707-1.182.1-1.112-.794-1.403-1.757-1.442-1.457-.061-2.916-.024-4.368-.107-.96-.056-1.905-.497-1.863-1.457.041-.919.934-1.375 1.942-1.399 1.345-.03 2.69-.031 4.034-.065.932-.02 1.949-.148 2.006-1.222.067-1.309-1.078-1.403-2.116-1.435-1.124-.035-2.243-.022-3.365-.039-1.177-.02-2.535-.22-2.472-1.523.065-1.262 1.432-1.413 2.616-1.408 1.01.006 2.018.006 3.027-.028 1.005-.031 2.27.015 2.3-1.258.034-1.512-1.372-1.375-2.47-1.421-.896-.039-1.794-.01-2.69-.026-1.253-.022-2.806-.02-2.765-1.545.032-1.257 1.46-1.377 2.632-1.383 1.12-.005 2.243-.009 3.362-.042.936-.028 1.912-.18 1.95-1.279s-.901-1.338-1.853-1.373c-1.455-.05-2.916-.013-4.367-.098-.97-.056-1.83-.513-1.757-1.516.059-.793.839-1.234 1.692-1.276 1.565-.08 3.135-.076 4.702-.145.855-.035 1.58-.365 1.592-1.277.012-.91-.7-1.273-1.554-1.315-1.565-.074-3.137-.058-4.703-.132-.845-.042-1.617-.433-1.708-1.254-.114-1.055.776-1.464 1.714-1.533 1.562-.114 3.135-.076 4.7-.155.846-.045 1.579-.386 1.549-1.31-.028-.897-.74-1.251-1.597-1.287-1.458-.057-2.914-.051-4.37-.09h-75.79c-1.455.039-2.912.033-4.368.09-.859.037-1.571.39-1.599 1.288-.03.924.703 1.265 1.55 1.31 1.566.08 3.137.04 4.699.155.938.069 1.83.478 1.714 1.533-.089.82-.86 1.212-1.708 1.254-1.566.074-3.135.058-4.701.132-.855.042-1.568.406-1.556 1.315.012.912.737 1.242 1.593 1.277 1.566.069 3.136.065 4.701.145.855.042 1.633.483 1.692 1.276.076 1.003-.787 1.46-1.757 1.516-1.45.085-2.91.048-4.367.098-.952.035-1.891.274-1.852 1.373.04 1.099 1.015 1.251 1.95 1.279 1.12.033 2.242.037 3.361.042 1.173.006 2.6.126 2.632 1.383.039 1.524-1.514 1.522-2.763 1.544-.899.017-1.797-.013-2.691.026-1.098.046-2.506-.09-2.47 1.421.03 1.273 1.293 1.227 2.3 1.258 1.007.034 2.016.034 3.025.028 1.186-.005 2.552.146 2.616 1.408.065 1.303-1.295 1.503-2.472 1.523-1.122.017-2.241.004-3.363.04-1.04.03-2.185.125-2.116 1.434.057 1.074 1.072 1.202 2.004 1.222 1.345.034 2.689.036 4.033.065 1.01.024 1.902.48 1.943 1.4.044.96-.902 1.4-1.862 1.456-1.453.083-2.912.046-4.367.107-.963.04-1.86.33-1.759 1.442.077.884.863 1.156 1.708 1.182 1.455.044 2.914.043 4.37.078 1.012.026 1.899.506 1.914 1.425.018.948-.941 1.373-1.901 1.428-1.566.087-3.137.078-4.7.154-.738.033-1.336.408-1.403 1.116-.08.876.527 1.373 1.422 1.423 1.453.075 2.91.085 4.367.098 1.123.01 2.221.376 2.204 1.47-.018 1.105-1.193 1.389-2.265 1.42-1.232.037-2.466.026-3.698.069-.92.028-1.963.13-2.014 1.212-.06 1.276 1.044 1.436 2.112 1.458 1.01.022 2.016.022 3.025.024 1.268.002 2.822.006 2.82 1.51-.002 1.26-1.47 1.366-2.624 1.394-.897.02-1.797-.017-2.69.039-.931.057-2.175-.127-2.529.787a1.532 1.532 0 0 0 -.095.485c-.019.384.062.662.216.864.278.335.768.482 1.301.51.845.042 1.694.052 2.543.068.72.015 1.44.035 2.156.087.938.069 1.83.48 1.714 1.533-.089.82-.86 1.211-1.708 1.254-1.566.074-3.135.06-4.701.132-.855.042-1.568.405-1.556 1.315.012.914.737 1.242 1.593 1.279 1.442.06 2.885.063 4.324.126h75.896c1.441-.063 2.882-.065 4.325-.126.855-.037 1.58-.365 1.592-1.279.012-.91-.7-1.273-1.554-1.315"></path><path d="m20.845 43.664a10.194 10.194 0 0 0 -.226-.612c-.045.12-.155.4-.238.638l-.138.389c-.05.14-.022.156.116.156h.52c.127 0 .154-.016.11-.15zm37.127-1.183c-.227 0-.238.016-.238.265v1.011c0 .182.017.197.343.197.2 0 .315-.046.42-.145.094-.088.2-.254.2-.56 0-.467-.294-.768-.725-.768"></path></g></g></svg> 