<svg xmlns="http://www.w3.org/2000/svg" width="273" height="80" viewBox="0 0 273 80" fill="none"><path d="M52.867 34.6569C52.7634 34.8667 52.6466 35.0712 52.5191 35.2677C52.4421 35.35 52.3385 35.4058 52.227 35.427C52.0145 35.4828 51.8233 35.5943 51.6666 35.7484C51.4754 35.9316 51.2603 36.0883 51.024 36.2104C50.0839 36.6645 49.1784 37.1877 48.3153 37.7746C47.9329 38.0401 47.1468 35.9157 46.791 35.0765C46.7352 34.8933 46.5653 34.7711 46.3741 34.7711C46.0262 34.7711 45.6783 34.7472 45.3331 34.7233C45.1472 34.71 44.9639 34.6808 44.786 34.633C44.4408 34.5401 44.0823 34.5002 43.7238 34.5162C43.4343 34.5348 43.1475 34.4392 42.9271 34.2506C42.5739 33.9904 42.2048 33.7514 41.8197 33.5416C41.4187 33.3504 41.0974 33.0264 40.9088 32.6254C40.6831 32.0783 40.306 31.603 39.8254 31.2578C39.5811 31.0772 39.4005 30.8222 39.3155 30.5301C39.2518 30.3336 39.1615 30.1424 39.1163 29.9406C39.0685 29.6618 38.8109 29.4679 38.5294 29.5024C38.1842 29.4998 37.839 29.5343 37.4991 29.606C37.3211 29.6618 37.1273 29.6246 36.9839 29.5077C36.9281 29.4679 36.875 29.4201 36.8299 29.3696C36.5882 29.0908 36.312 28.8412 36.0093 28.6287C35.8606 28.5013 35.749 28.334 35.688 28.1454C35.5685 27.8055 33.9406 28.1932 34.5487 27.5293L35.587 26.5441C36.1872 26.013 35.8871 27.4178 36.4129 27.5187C36.867 27.6063 37.3371 27.4709 37.6743 27.1549C38.078 26.8389 37.8921 27.455 37.9558 27.6196C38.1895 28.2437 38.6622 28.7482 39.2703 29.0218C39.6528 29.2209 40.0113 29.4652 40.3326 29.752C40.553 29.9565 40.7469 30.1876 40.9115 30.4372C41.2116 30.8461 41.4798 31.2817 41.7985 31.6747C41.9578 31.8579 42.1543 32.0013 42.3747 32.0996C42.6748 32.2324 43.0254 32.1421 43.2219 31.8792C43.4874 31.5578 43.259 31.1887 43.121 30.7718C43.0971 30.7001 43.4502 30.3788 43.7556 31.1037C43.9893 31.6163 44.4089 32.0226 44.9321 32.235C45.1206 32.3227 45.3039 32.4262 45.4844 32.5298C45.7048 32.636 45.8828 32.8139 45.989 33.0344C46.0129 33.1007 46.0527 33.1618 46.1032 33.2096C46.5573 33.6 46.9981 34.0063 47.4841 34.3595C47.8293 34.6065 48.2648 34.5427 48.6685 34.4763C49.0801 34.394 49.5023 34.402 49.9086 34.5056C50.5168 34.649 51.1488 34.6729 51.7676 34.5773C51.988 34.556 53.0954 33.6956 52.8776 34.6543L52.867 34.6569ZM36.8272 31.5738C36.5882 31.8234 36.4315 32.1394 36.3758 32.4793C36.3253 32.6652 36.2111 32.8272 36.0518 32.9388C35.8553 33.0556 35.672 33.1937 35.5021 33.3451C35.2631 33.608 34.947 33.7939 34.6018 33.8762C34.4239 33.9452 34.2593 34.0488 34.1185 34.1789C33.9592 34.3011 33.7627 34.3675 33.5608 34.3648C33.2422 34.3648 32.9235 34.394 32.6048 34.4179C32.2782 34.4551 32.0259 34.726 32.0126 35.0553C32.0126 35.3447 32.2994 35.7085 32.1029 35.921C31.0088 37.0948 28.0239 36.792 27.3892 36.6167C27.2299 36.5796 27.0679 36.5583 26.9033 36.5504C26.7917 36.5371 26.6802 36.5318 26.566 36.5238C26.0614 36.2582 27.036 35.9316 27.1768 35.5943C27.2246 35.4934 27.3308 35.4324 27.4424 35.443C27.5433 35.4483 27.6415 35.4589 27.7398 35.4802C28.0213 35.5094 28.3001 35.5439 28.5816 35.5625C29.1924 35.605 29.5509 35.1748 29.3278 34.4843C29.2561 34.325 29.1685 34.1736 29.0623 34.0329C28.9799 33.8948 28.887 33.7673 28.7808 33.6053C28.8445 33.2202 29.126 33.5628 29.2747 33.5442C29.6199 33.4938 29.9439 33.353 30.2174 33.1353C30.6476 32.8139 31.1044 32.243 31.5293 31.9137C31.686 31.7942 31.8214 31.5313 31.9754 31.7517C31.9754 31.8128 31.9754 31.8526 31.994 31.8925C32.0126 32.1846 32.2649 32.4076 32.557 32.389C32.573 32.389 32.5889 32.3864 32.6048 32.3837C32.812 32.3572 33.0138 32.2961 33.1997 32.2032C33.4652 32.073 33.529 31.449 33.9963 31.7517C33.9963 31.9456 34.007 32.1394 34.0282 32.3333C34.0681 32.6838 34.3841 32.9361 34.7373 32.8963C34.878 32.8803 35.0081 32.8193 35.109 32.721C35.3188 32.5457 35.4808 32.3173 35.5764 32.0598C35.6561 31.8659 35.7304 31.6694 35.8154 31.449C36.1394 31.0055 37.0131 31.1489 36.8192 31.5844L36.8272 31.5738ZM39.2093 24.2311C39.6368 24.6029 39.9953 25.0463 40.2715 25.5403C40.3645 25.7129 40.4308 25.8961 40.468 26.0873C40.5742 26.6105 40.6061 27.1469 40.5689 27.6807C40.4255 28.3021 39.4642 27.439 39.2783 26.9212C39.1721 26.6184 39.103 26.3024 39.0765 25.9811C39.042 25.612 38.9065 25.2614 38.6861 24.964C38.4259 24.6294 38.2426 24.239 38.155 23.8221C38.5401 23.8195 38.9145 23.9629 39.1987 24.2231L39.2093 24.2311ZM42.8926 29.5343C42.5022 29.6432 42.0879 29.4759 41.8861 29.1253C41.6683 28.7642 41.5595 28.3446 41.5754 27.9223C42.226 27.9648 42.7651 28.6898 42.9032 29.5343H42.8926ZM63.0512 35.5704C62.8546 35.6103 62.6714 35.7032 62.52 35.836C62.3846 35.9475 62.2306 36.0378 62.0659 36.1016C61.657 36.2689 61.3038 36.545 61.0382 36.8982C60.9347 37.0363 60.8125 37.1585 60.6771 37.2647C60.5044 37.3975 60.3053 37.4957 60.1327 37.6285C59.8007 37.8941 59.4767 38.1411 59.1554 38.4093C58.9828 38.542 58.8235 38.6934 58.6827 38.8607C58.5552 39.0201 58.3508 39.0918 58.1516 39.0466C57.9657 39.0227 57.7931 38.9271 57.6762 38.7811C57.5116 38.5978 57.2832 38.4863 57.0362 38.4703C56.5821 38.4438 56.1387 38.3243 55.735 38.1172C55.1826 37.8038 54.5984 37.5462 53.9929 37.3497C53.8442 37.2939 53.7194 37.1824 53.6451 37.0416C53.5017 36.7734 53.4671 36.4627 53.5441 36.1679C53.584 35.6767 53.8522 36.1228 54.0009 36.1042C54.463 36.083 54.8188 35.6926 54.7976 35.2305C54.7949 35.1721 54.787 35.1137 54.771 35.0553C54.7365 34.8667 54.6861 34.6782 54.6409 34.4896C54.1098 34.1497 56.7654 33.8868 56.2714 34.5295C56.205 34.641 56.1387 34.7578 56.0696 34.872C55.8784 35.188 55.6633 35.4934 55.5013 35.8227C55.2968 36.2343 55.1906 36.6884 55.1906 37.1505C55.3048 37.193 55.4163 37.2435 55.5199 37.3072C55.7297 37.4931 56.0457 37.4931 56.2555 37.3072C56.46 37.1372 56.6459 36.9487 56.8132 36.7442C57.0123 36.4441 57.2726 36.1892 57.5753 35.998C58.1808 35.6926 58.5818 35.0951 58.6376 34.4206C58.6482 34.1922 58.6349 33.9612 58.5951 33.7354C58.5579 33.2256 58.7358 33.0901 59.2059 33.2627L59.3041 33.2973C59.6839 33.4592 60.1194 33.4274 60.4726 33.2123C60.6585 33.1193 60.8523 33.0423 61.0515 32.9839C61.2135 32.9255 61.3861 32.8936 61.5454 32.8246C61.811 32.7236 62.0102 32.4979 62.0766 32.2191C62.0978 32.1235 62.1084 32.0279 62.1137 31.9296C62.0022 31.6056 61.8827 31.2843 61.7579 30.9683C61.6331 30.8807 61.4844 30.8302 61.333 30.8302C61.0781 30.8355 60.8258 30.8568 60.5735 30.8913C60.3531 30.9152 60.138 30.9736 59.9202 30.9789C59.3519 30.9922 58.781 30.9789 58.2153 30.9949C57.9949 30.9949 57.7798 31.0559 57.5913 31.1701C57.0814 31.4941 56.537 31.7623 55.9687 31.9668C55.7642 32.0757 55.5358 32.1288 55.3048 32.1261C55.0419 32.0969 54.7763 32.1208 54.5214 32.1952C54.1841 32.2775 53.8495 32.389 53.507 32.4422C52.774 32.5537 52.0358 32.636 51.3134 32.3625C51.2391 32.3333 51.1568 32.3173 51.0771 32.32C50.6947 32.3306 50.3149 32.3625 49.9379 32.4156C49.4306 32.4926 48.9128 32.4342 48.4348 32.2456C48.0736 32.1102 47.7789 31.8393 47.6116 31.4888C47.5956 31.4596 47.5717 31.433 47.5558 31.4038C47.4044 31.1515 47.1548 30.971 46.868 30.9099C46.7458 30.8754 46.621 30.8488 46.4962 30.8276C46.1324 30.7771 45.827 30.5328 45.6995 30.1902C45.5747 29.8901 45.4632 29.5847 45.3118 29.3006C45.1976 29.0881 45.0569 28.8916 44.8949 28.7137C44.6824 28.472 44.4249 28.2702 44.2151 28.0259C43.676 27.3886 43.0413 26.8389 42.3349 26.3954C41.9127 26.1298 41.6312 25.8483 41.6046 25.3331C41.6046 25.2641 41.5913 25.1951 41.5674 25.1287C41.5037 24.9826 41.4293 24.8419 41.3417 24.7064C41.2435 24.5657 41.1186 24.4409 41.0124 24.3107C40.8398 24.093 40.6778 23.8673 40.5025 23.6548C39.9953 23.0546 39.5784 22.3828 39.2677 21.6605C38.9862 20.9859 38.4338 20.4601 37.7434 20.2158C37.677 20.3008 37.6053 20.3778 37.5256 20.4495C37.207 20.6779 36.875 20.8877 36.5616 21.1214C36.4554 21.209 36.3651 21.3179 36.2961 21.4374C36.1368 21.7587 35.9535 22.0668 35.749 22.3615C35.3746 22.805 35.1117 23.3308 34.9842 23.8965C34.9417 24.0638 34.8568 24.2151 34.7346 24.3373C34.4239 24.6347 34.0919 24.8843 33.7945 25.1658C33.7255 25.2269 33.6671 25.2986 33.6139 25.373C32.8385 26.5122 31.8931 27.5267 30.807 28.3764C30.3263 28.6925 29.9758 29.1705 29.8244 29.7255C29.7926 29.8211 29.7288 29.9008 29.6438 29.9565C28.8737 30.5115 28.162 31.1462 27.5194 31.8447C27.4105 31.9801 27.2352 32.0438 27.0653 32.0066C26.6696 31.9482 26.3164 31.7251 26.096 31.3905C25.8304 31.0108 25.4586 30.9736 25.055 31.0081C24.6513 31.0427 24.3539 31.3481 24.091 31.6402C23.8281 31.9323 23.6528 32.1713 23.4324 32.4368C23.2837 32.6095 23.1031 32.7529 22.9013 32.8564C22.5773 33.029 22.2454 32.9653 21.9134 32.9839C21.5629 33.0264 21.2097 32.9175 20.9468 32.6838C20.8671 32.6174 20.7768 32.5617 20.6812 32.5192C20.1103 32.2271 19.6535 32.389 19.4225 32.9812C19.1702 33.5177 18.7825 33.9744 18.2938 34.309C17.93 34.6065 17.4972 34.8109 17.1732 35.1801C17.0829 35.2677 16.9793 35.3447 16.8704 35.4085C16.3632 35.7138 15.8852 36.0697 15.4471 36.4707C15.3222 36.5902 15.1762 36.6858 15.0168 36.7548C14.9239 36.8026 14.8363 36.8584 14.7513 36.9195C14.661 37.663 14.6052 38.4146 14.584 39.1767C14.6557 39.182 14.7274 39.182 14.7991 39.1767C15.0779 39.1555 15.3461 39.0572 15.5719 38.8899C15.9436 38.6058 16.35 38.3668 16.7802 38.1782C17.2343 37.995 17.6379 37.7108 17.9646 37.347C18.1451 37.1505 18.347 36.9752 18.57 36.8292C19.0401 36.5318 19.4543 36.152 19.7863 35.7059C20.0864 35.2996 20.575 35.0765 21.0796 35.119L21.6372 35.1376C22.2879 35.1615 23.8653 33.8098 23.8095 34.7685C23.7059 35.1216 23.6024 35.427 23.5439 35.7377C23.5041 35.9316 23.3687 36.0962 23.1854 36.1706C23.0792 36.2211 22.9703 36.2609 22.8694 36.314C22.5322 36.4707 22.3197 36.8079 22.3197 37.1771C22.3091 37.3258 22.3091 37.4772 22.3197 37.6259C22.3649 37.8516 22.2162 38.072 21.9904 38.1145C21.9878 38.1145 21.9851 38.1145 21.9825 38.1172C21.6744 38.2207 21.3929 38.396 21.1645 38.627C20.9547 38.8289 20.7343 39.0121 20.498 39.182C20.3333 39.3069 20.1448 39.3971 19.943 39.4476C19.218 39.5671 18.5222 39.822 17.8929 40.2018C17.7123 40.3 17.5184 40.3717 17.3166 40.4169C17.0749 40.4912 16.8253 40.5417 16.589 40.632C16.2358 40.802 15.8613 40.9215 15.4763 40.9878C15.1629 41.0144 14.8602 41.1259 14.6052 41.3092C15.4046 54.1888 26.0907 64.2189 38.9942 64.203C52.4952 64.203 63.4415 53.3018 63.4415 39.8539C63.4415 38.4172 63.3114 36.9832 63.0565 35.5678" fill="#283583"></path><path d="M51.8966 56.0929C51.8515 56.0956 51.809 56.077 51.7798 56.0451C51.7586 56.0186 51.7293 56.0026 51.6975 56C51.6656 56.0026 51.6391 55.9814 51.6337 55.9495C51.6337 55.8911 51.5036 55.7955 51.4293 55.7982C51.3788 55.7982 51.3735 55.8141 51.3761 55.846C51.3788 55.8778 51.3443 55.9177 51.2407 55.9256H51.2088C51.0867 55.9256 51.015 55.8831 51.007 55.8035C51.007 55.7849 51.007 55.7743 50.9911 55.7743C50.9752 55.7743 50.9459 55.7477 50.9433 55.7079C50.9406 55.668 50.93 55.668 50.9247 55.668C50.9194 55.668 50.8822 55.6415 50.8796 55.6016C50.8796 55.5857 50.8716 55.5698 50.861 55.5592C50.8318 55.5592 50.8158 55.514 50.8105 55.4662C50.8132 55.4423 50.8052 55.4158 50.7893 55.3972C50.7521 55.3972 50.7415 55.283 50.7388 55.2485C50.7362 55.206 50.7282 55.1661 50.7176 55.1263C50.7043 55.1422 50.6565 55.1927 50.5927 55.2697C50.4918 55.3892 50.444 55.4264 50.3697 55.4317C50.3298 55.4317 50.29 55.4476 50.2581 55.4742C50.2342 55.5007 50.221 55.5353 50.2263 55.5698C50.2157 55.6734 50.1466 55.7583 50.0484 55.7929C50.0298 55.7929 50.0191 55.7928 50.0191 55.8114C50.0218 55.8167 50.0218 55.8247 50.0191 55.83C49.9899 55.8619 49.8651 55.8646 49.8518 55.8646C49.7961 55.8646 49.7244 55.8646 49.7111 55.8353C49.6978 55.8061 49.6819 55.8486 49.642 55.9017C49.6022 55.9548 49.5385 56.0026 49.488 56.0026C49.4376 56.0026 49.3845 55.9761 49.3048 55.907C49.2623 55.8645 49.2118 55.8327 49.1561 55.8114C49.1242 55.8114 49.1003 55.7955 49.1003 55.7743C49.087 55.7689 49.0738 55.7689 49.0605 55.7743H49.0472C49.01 55.7743 48.9861 55.7743 48.9835 55.7397C48.9649 55.7344 48.9436 55.7344 48.925 55.7397H48.8932C48.856 55.7397 48.8135 55.7397 48.8108 55.7079C48.8082 55.676 48.7976 55.6946 48.7763 55.6946C48.7365 55.6919 48.6993 55.6733 48.6728 55.6415C48.6435 55.6123 48.6064 55.599 48.5665 55.599H48.5453C48.5108 55.599 48.4683 55.599 48.4656 55.5645C48.463 55.5299 48.4656 55.5645 48.4284 55.5645H48.4152C48.378 55.5645 48.3514 55.5512 48.3488 55.5299C48.3302 55.5246 48.3089 55.5246 48.2904 55.5299H48.2611C48.2213 55.5299 48.1788 55.5299 48.1762 55.4954C48.1735 55.4609 48.1762 55.4954 48.139 55.4954H48.1257C48.0885 55.4954 48.062 55.4821 48.0593 55.4609C48.0434 55.4556 48.0221 55.4556 48.0062 55.4609H47.985C47.9372 55.4636 47.892 55.445 47.8601 55.4104C47.8469 55.3865 47.8203 55.3706 47.7938 55.368C47.7672 55.368 47.7327 55.3945 47.6875 55.4529C47.6424 55.5114 47.5946 55.5485 47.5627 55.5512C47.5441 55.5538 47.5309 55.5645 47.5229 55.5804C47.5202 55.5937 47.5096 55.6043 47.4963 55.6043C47.4565 55.6043 47.3901 55.5406 47.3848 55.4848C47.3848 55.4848 47.3848 55.4609 47.3104 55.4609H47.2387H47.167C47.098 55.4689 47.0316 55.4423 46.9865 55.3892C46.9546 55.3547 46.9121 55.3308 46.867 55.3202C46.8431 55.3228 46.8192 55.3069 46.8112 55.283C46.7926 55.2777 46.7714 55.2777 46.7528 55.283H46.7368C46.7129 55.283 46.6864 55.2909 46.6678 55.3069C46.6678 55.3069 46.6678 55.3281 46.6386 55.3387C46.6173 55.3467 46.5961 55.352 46.5748 55.3547C46.5324 55.3547 46.5164 55.3547 46.5111 55.3733C46.5084 55.3786 46.5084 55.3839 46.5111 55.3892C46.5111 55.4636 46.3916 55.5937 46.3066 55.599C46.288 55.599 46.2721 55.6043 46.2588 55.6149C46.2588 55.6149 46.2588 55.6149 46.2588 55.6468C46.2641 55.668 46.2562 55.6919 46.2376 55.7052C46.211 55.7185 46.1818 55.7265 46.1526 55.7265H46.134C46.0517 55.7265 45.988 55.6813 45.7569 55.4875L45.4675 55.2405L45.4462 54.9749C45.425 54.7094 45.3878 54.6589 45.3214 54.6616C45.2842 54.6563 45.2524 54.6377 45.2285 54.6085C45.2072 54.5846 45.1807 54.5686 45.1488 54.5633C45.1196 54.566 45.0904 54.5527 45.0744 54.5261C45.0585 54.5553 45.0293 54.5739 44.9974 54.5739C44.9815 54.5739 44.9682 54.5792 44.9576 54.5899C44.9602 54.5978 44.9602 54.6058 44.9576 54.6138C44.9417 54.627 44.9204 54.635 44.8992 54.6377C44.8726 54.6377 44.8567 54.6377 44.8567 54.6563C44.8567 54.6748 44.8301 54.6987 44.7929 54.7014C44.7558 54.7041 44.7478 54.7147 44.7505 54.72C44.7531 54.728 44.7531 54.7359 44.7505 54.7439C44.7398 54.7572 44.7239 54.7651 44.7053 54.7651C44.6628 54.7837 44.6256 54.8156 44.5991 54.8554C44.5646 54.9059 44.5114 54.9404 44.453 54.9537C44.4344 54.9563 44.4158 54.9431 44.4132 54.9245C44.4132 54.9218 44.4132 54.9218 44.4132 54.9192C44.4132 54.9032 44.4132 54.9032 44.3999 54.9032C44.3866 54.9032 44.307 54.951 44.2193 55.0573C44.1317 55.1635 44.068 55.2139 44.0149 55.2166H43.9139C43.8821 55.2166 43.8422 55.2166 43.8396 55.1821C43.8263 55.1768 43.813 55.1768 43.7997 55.1821C43.7626 55.1821 43.736 55.1688 43.736 55.1475C43.7121 55.1422 43.6909 55.1422 43.667 55.1475H43.6271C43.5554 55.1475 43.4864 55.1157 43.4359 55.0626C43.351 55.0095 43.3032 54.9112 43.3138 54.8103C43.3005 54.6775 43.2925 54.6722 43.266 54.6722C43.2394 54.6722 43.2235 54.6881 43.2235 54.6934C43.2235 54.6987 43.1943 54.7253 43.1837 54.728C43.1571 54.7359 43.1305 54.7412 43.1013 54.7412C43.0668 54.7412 43.0323 54.7519 43.0031 54.7678C43.0031 54.7678 43.0031 54.7678 43.0031 54.7864C43.0031 54.805 42.9207 54.8156 42.8942 54.8156C42.8437 54.8182 42.7959 54.8076 42.7508 54.7837C42.7242 54.7625 42.7056 54.7306 42.7003 54.6961C42.695 54.6775 42.6764 54.6642 42.6578 54.6669C42.6233 54.6669 42.5968 54.6536 42.5941 54.6324C42.5915 54.6111 42.5808 54.6324 42.5543 54.6324C42.5198 54.635 42.4905 54.6111 42.4879 54.5766C42.4879 54.55 42.4879 54.5341 42.4693 54.5341C42.4507 54.5341 42.4268 54.5129 42.4242 54.481C42.4215 54.4491 42.3578 54.3827 42.2569 54.3827H42.1958C42.1294 54.388 42.0656 54.3615 42.0205 54.311C41.9727 54.2685 41.9116 54.2446 41.8479 54.242C41.8373 54.2367 41.8266 54.2367 41.816 54.242C41.816 54.242 41.7682 54.2871 41.7231 54.2898H41.7071C41.6673 54.2898 41.6248 54.2898 41.6222 54.2553C41.6036 54.25 41.5823 54.25 41.5637 54.2553H41.5345C41.4947 54.2553 41.4522 54.2553 41.4496 54.2234C41.4469 54.1915 41.4363 54.2101 41.415 54.2101C41.3752 54.2075 41.338 54.1889 41.3115 54.157C41.2902 54.1331 41.261 54.1172 41.2291 54.1145C41.176 54.1145 41.1681 54.0667 41.1627 53.995C41.1627 53.995 41.1627 53.8702 41.192 53.8675C41.2026 53.8543 41.2079 53.8383 41.2052 53.8224C41.2052 53.7826 41.2052 53.7534 41.2398 53.7507C41.2451 53.7374 41.2451 53.7188 41.2398 53.7056C41.2398 53.671 41.2398 53.6392 41.2716 53.6365C41.2876 53.4958 41.2743 53.3524 41.2371 53.2143C41.2159 53.2143 41.1973 53.1851 41.1946 53.1479C41.192 53.1107 41.1813 53.1054 41.176 53.1054C41.1495 53.1027 41.1309 53.0815 41.1309 53.0549C41.0645 52.954 40.9715 52.8717 40.8653 52.8133C40.8414 52.8558 40.6582 52.869 40.5998 52.8717C40.5042 52.8717 40.4882 52.8558 40.4882 52.8398C40.4696 52.8345 40.4484 52.8345 40.4298 52.8398H40.4006C40.3634 52.8398 40.3236 52.8398 40.3156 52.8106C40.2784 52.8027 40.2413 52.8027 40.2041 52.8106H40.0872H39.9438C39.8801 52.8212 39.8137 52.8 39.7659 52.7549C39.734 52.7283 39.6862 52.6778 39.6836 52.6539C39.6252 52.5769 39.5535 52.5132 39.4738 52.4601C39.4738 52.4734 39.4738 52.4866 39.4738 52.4999C39.4818 52.5318 39.4605 52.5663 39.4286 52.5743H39.426C39.3569 52.569 39.2985 52.5159 39.2852 52.4468C39.2852 52.4282 39.272 52.4176 39.2667 52.4176C39.2613 52.4176 39.2242 52.3963 39.2215 52.3645C39.187 52.2928 39.1259 52.2397 39.0516 52.2105C38.9958 52.2529 38.9453 52.3034 38.9055 52.3592C38.778 52.5132 38.7754 52.5132 38.5868 52.5291C38.5284 52.5291 38.47 52.5398 38.4169 52.561C38.4169 52.5955 38.3027 52.6088 38.2682 52.6115C38.223 52.6115 38.1805 52.6221 38.1407 52.6407C38.146 52.6433 38.1513 52.6433 38.1566 52.6407C38.1938 52.6407 38.2097 52.7628 38.2124 52.8159C38.2204 52.8637 38.2204 52.9142 38.2124 52.962C38.2071 52.9859 38.1832 53.0045 38.1566 53.0018C38.1194 53.0018 38.0955 53.0018 38.0929 52.9673C38.0743 52.962 38.0531 52.962 38.0345 52.9673H38.0052C37.9654 52.9673 37.9229 52.9673 37.9203 52.9328C37.9176 52.8983 37.907 52.9195 37.8804 52.9195H37.8061C37.7716 52.9195 37.745 52.9062 37.7423 52.8823C37.7397 52.8584 37.7291 52.8823 37.7025 52.8823H37.6892C37.6547 52.8823 37.6282 52.869 37.6255 52.8478C37.6069 52.8425 37.5857 52.8425 37.5671 52.8478H37.5379C37.498 52.8478 37.4555 52.8478 37.4529 52.8133C37.437 52.8053 37.4184 52.8053 37.4024 52.8133H37.3865C37.3254 52.808 37.2697 52.7814 37.2245 52.7389C37.1926 52.7044 37.1501 52.6805 37.105 52.6672C37.0811 52.6725 37.0599 52.6593 37.0492 52.638C37.0094 52.6327 36.9722 52.6327 36.9324 52.638C36.8607 52.638 36.7598 52.638 36.6403 52.6539L36.2313 52.6885V52.7841C36.2313 52.8239 36.2446 52.8637 36.2685 52.8956C36.2844 52.8956 36.2977 52.8956 36.3004 52.9222C36.303 52.9487 36.3004 52.9434 36.2738 52.9514C36.2579 52.962 36.2499 52.9806 36.2499 52.9992C36.234 53.0576 36.2021 53.1107 36.1596 53.1532C36.1065 53.2329 36.0162 53.278 35.9206 53.2727H35.8622C35.7719 53.2727 35.7321 53.2461 35.5966 53.1373C35.5966 53.1373 35.4267 52.9939 35.424 52.9567C35.4214 52.9195 35.3497 52.8664 35.3072 52.869C35.2833 52.8717 35.262 52.8584 35.2541 52.8372C35.2142 52.8319 35.177 52.8319 35.1372 52.8372H34.9566C34.8956 52.8398 34.8345 52.8398 34.7734 52.8372C34.6459 52.8372 34.6327 52.8372 34.6327 52.8133C34.6141 52.808 34.5955 52.808 34.5769 52.8133H34.5556C34.5078 52.8133 34.4627 52.7947 34.4308 52.7602C34.4043 52.7336 34.3671 52.7177 34.3273 52.7177H34.306C34.2741 52.7177 34.2343 52.7177 34.2263 52.6885C34.1892 52.6832 34.1493 52.6832 34.1122 52.6885H33.9581C33.8652 52.6885 33.8094 52.7017 33.7669 52.7017C33.6846 52.7017 33.6634 52.7017 33.658 52.6433C33.6527 52.5849 33.6448 52.6035 33.6395 52.6035C33.6395 52.6035 33.5996 52.6035 33.581 52.3698C33.581 52.2981 33.5678 52.2264 33.5439 52.16C33.5093 52.16 33.4987 52.0458 33.4961 52.0246C33.4961 51.9688 33.4775 51.913 33.4456 51.8679C33.4005 51.8466 33.35 51.8387 33.2995 51.844C33.2172 51.844 33.1721 51.8626 33.1694 51.8705C33.1668 51.8785 33.1243 51.913 33.0765 51.9183C33.0526 51.9183 33.026 51.9237 33.0074 51.9396C33.0074 51.9768 32.8826 51.99 32.8295 51.9927C32.7764 51.9954 32.7259 52.006 32.6755 52.0246C32.6755 52.0458 32.6463 52.0538 32.6356 52.0564C32.6091 52.0671 32.5825 52.0724 32.5533 52.0724H32.5268C32.4896 52.0724 32.4285 52.0724 32.4259 52.0405C32.4232 52.0086 32.4259 52.0405 32.3966 52.0405C32.3223 52.0113 32.2532 51.9688 32.1975 51.913C32.1444 51.8626 32.0833 51.8201 32.0169 51.7909C31.993 51.7935 31.9691 51.7776 31.9611 51.7537C31.9611 51.7537 31.9611 51.7537 31.9319 51.7537C31.8788 51.7431 31.831 51.7165 31.7938 51.6767C31.762 51.6448 31.7248 51.6209 31.6849 51.605C31.6531 51.605 31.5469 51.5227 31.4937 51.4775C31.4433 51.4244 31.3822 51.3819 31.3132 51.3554C31.2893 51.358 31.2654 51.3421 31.2574 51.3182C31.2415 51.3129 31.2229 51.3129 31.2069 51.3182H31.1671C31.0874 51.3182 31.0078 51.2651 31.0025 51.2066C30.9971 51.1482 30.9361 51.1217 30.8113 51.1243H30.7555C30.5962 51.1243 30.5191 51.1748 30.5218 51.2412C30.5112 51.2837 30.4899 51.3235 30.4607 51.3554C30.4209 51.4058 30.3625 51.4377 30.2987 51.443C30.2191 51.435 30.142 51.4005 30.0863 51.3421C30.0438 51.2996 29.9907 51.2677 29.9349 51.2465C29.911 51.2491 29.8871 51.2332 29.8791 51.2093C29.8791 51.2093 29.8791 51.2093 29.842 51.2093C29.8048 51.2093 29.7782 51.2093 29.7782 51.1721C29.7782 51.1349 29.7782 51.1721 29.7464 51.1721C29.6826 51.1509 29.6269 51.1164 29.5791 51.0686C29.5339 51.0181 29.4702 50.9862 29.4038 50.9756H29.3879C29.3533 50.9756 29.3135 50.9756 29.3108 50.9411C29.3082 50.9066 29.3108 50.9278 29.2816 50.9278C29.2285 50.9145 29.1807 50.888 29.1435 50.8508C29.1117 50.8189 29.0692 50.795 29.024 50.7818C28.9922 50.7818 28.9683 50.7658 28.9683 50.7446C28.955 50.7393 28.9417 50.7393 28.9284 50.7446H28.9152C28.878 50.7446 28.8541 50.7313 28.8514 50.7074C28.8488 50.6835 28.8514 50.7074 28.8222 50.7074C28.7293 50.6835 28.6523 50.6171 28.6151 50.5295C28.6151 50.5109 28.6151 50.5003 28.5991 50.5003C28.5832 50.5003 28.554 50.4578 28.5487 50.4206C28.5407 50.3701 28.5142 50.3276 28.4743 50.2958C28.4345 50.2613 28.3867 50.2427 28.3336 50.24C28.3177 50.24 28.3017 50.2453 28.2884 50.2559C28.2831 50.2613 28.2831 50.2692 28.2884 50.2745H28.2619V50.3037C28.2645 50.3091 28.2645 50.317 28.2619 50.3223V50.3356C28.2619 50.3356 28.2619 50.3489 28.2619 50.3542H28.246C28.2141 50.4047 28.1689 50.4418 28.1132 50.4631C28.0787 50.4631 28.0521 50.4365 28.0521 50.402V50.3993C28.0521 50.3701 28.0362 50.3569 28.0309 50.3569C28.0255 50.3569 27.9831 50.248 27.9804 50.2347C27.9804 50.2002 27.9724 50.1657 27.9538 50.1364C27.9326 50.1364 27.914 50.1125 27.9114 50.078C27.9034 50.0462 27.8821 50.0196 27.8556 50.0037C27.8211 49.9851 27.7945 49.9532 27.7865 49.9134C27.7759 49.8842 27.7547 49.8603 27.7281 49.8443C27.6909 49.8231 27.667 49.7886 27.6591 49.7487C27.6591 49.7275 27.6591 49.7142 27.6405 49.7142C27.6219 49.7142 27.59 49.6 27.59 49.5761C27.59 49.4566 27.5343 49.3902 27.4679 49.3902C27.444 49.3929 27.4201 49.3769 27.4121 49.353C27.4121 49.353 27.4121 49.3398 27.3749 49.3398C27.3404 49.3398 27.3138 49.3398 27.3085 49.3079C27.2767 49.3026 27.2421 49.3026 27.2103 49.3079H27.1519H27.0961C26.9713 49.3079 26.9686 49.2867 26.9686 49.2787C26.9527 49.2734 26.9341 49.2734 26.9182 49.2787H26.8969C26.8199 49.2867 26.7482 49.2335 26.7323 49.1565C26.7323 49.1433 26.7323 49.13 26.6632 49.13H26.5942C26.4667 49.1433 26.3525 49.0556 26.3286 48.9308C26.3286 48.883 26.3286 48.875 26.2702 48.8777H26.1958C26.1613 48.8777 26.0976 48.8777 26.0949 48.8458C26.0923 48.814 26.0949 48.8458 26.0657 48.8458C25.9993 48.8432 25.9436 48.798 25.925 48.7343C25.925 48.6785 25.7869 48.5935 25.7046 48.5962H25.5904C25.508 48.6095 25.431 48.5564 25.4151 48.474C25.4124 48.4555 25.3965 48.4422 25.3779 48.4448C25.3381 48.4422 25.3009 48.4236 25.2744 48.3917C25.2505 48.3652 25.2159 48.3492 25.1788 48.3492C25.1203 48.3439 25.0646 48.3174 25.0221 48.2749C24.9849 48.243 24.9344 48.2005 24.9079 48.2005C24.8893 48.2802 24.8893 48.3599 24.9079 48.4395C24.9132 48.5112 24.9132 48.5856 24.9079 48.6573C24.9079 48.6838 24.884 48.7077 24.8574 48.7104C24.8202 48.7104 24.7937 48.6971 24.7937 48.6732C24.7857 48.6679 24.7724 48.6679 24.7645 48.6732C24.6715 48.6493 24.5972 48.5829 24.56 48.4953C24.56 48.4953 24.56 48.4714 24.483 48.4714H24.4139H24.3635C24.228 48.4714 24.1617 48.4342 24.1537 48.3519C24.1537 48.3333 24.1537 48.3227 24.1351 48.3227C24.1165 48.3227 24.09 48.2749 24.0873 48.2297C24.0846 48.1846 24.0607 48.1607 24.0528 48.1607C23.9997 48.1474 23.9519 48.1209 23.9147 48.0837C23.8828 48.0491 23.8403 48.0252 23.7952 48.012C23.7607 48.0146 23.7341 47.9881 23.7315 47.9535V47.9509C23.7315 47.9243 23.7315 47.9137 23.673 47.9137H23.6199C23.5403 47.9137 23.4924 47.8845 23.3836 47.7889C23.3305 47.7384 23.2694 47.696 23.2003 47.6667C23.1711 47.6667 23.1472 47.6508 23.1472 47.6296C23.1472 47.6083 23.1313 47.6163 23.1074 47.6163C23.0543 47.6163 23.0437 47.5844 23.0383 47.526C23.0383 47.4941 23.0251 47.4649 23.0038 47.4437C22.9879 47.4437 22.9746 47.4304 22.9746 47.4171C22.9746 47.4038 22.9746 47.3932 22.9985 47.3879C23.0224 47.3826 23.0251 47.364 23.0118 47.1861C23.0038 47.1277 23.0038 47.0719 23.0118 47.0135C23.0118 46.9789 23.0516 46.9763 23.0835 46.9736C23.1764 46.9736 23.2189 46.9072 23.211 46.7957C23.211 46.7957 23.211 46.6842 23.2402 46.6815C23.2481 46.6497 23.2481 46.6178 23.2402 46.5859C23.2295 46.5275 23.2481 46.4664 23.2906 46.4266C23.3119 46.408 23.3278 46.3814 23.3358 46.3549C23.3331 46.3124 23.3544 46.2726 23.3889 46.2513C23.4367 46.2248 23.4898 46.2088 23.5456 46.2062H23.6598V46.084C23.6598 45.9778 23.6598 45.9326 23.7076 45.8955C23.7315 45.8742 23.7474 45.845 23.7527 45.8131C23.7474 45.7972 23.7474 45.7813 23.7527 45.7653C23.766 45.7521 23.7846 45.7441 23.8032 45.7441C23.8271 45.7441 23.8324 45.7441 23.835 45.7255C23.8403 45.6883 23.8403 45.6512 23.835 45.614C23.8483 45.5131 23.8085 45.4148 23.7315 45.3484C23.7102 45.3484 23.6916 45.3219 23.689 45.2847C23.6863 45.2475 23.689 45.2422 23.6704 45.2422C23.6518 45.2422 23.6199 45.1413 23.6199 45.128C23.6199 45.059 23.596 45.0191 23.5588 44.9979C23.4925 44.9448 23.4686 44.8545 23.4925 44.7748C23.5084 44.7084 23.5456 44.6659 23.5934 44.6633C23.7819 44.48 23.9519 44.2782 24.0953 44.0578C24.0953 44.0286 24.0953 44.002 24.1324 44.002C24.1404 43.9702 24.1404 43.9383 24.1324 43.9064C24.1324 43.8374 24.1085 43.7975 24.0714 43.7763C24.0368 43.7551 24.0103 43.7205 23.9997 43.6807C23.9997 43.6568 23.9997 43.6435 23.9837 43.6435C23.9678 43.6435 23.9386 43.5984 23.9333 43.5506C23.928 43.5028 23.9333 43.455 23.9678 43.4523C24.0023 43.4497 23.9678 43.4523 23.9678 43.4205C23.989 43.3249 24.0554 43.2478 24.1457 43.2133C24.1617 43.2133 24.1749 43.2133 24.1749 43.1947C24.1749 43.1761 24.2201 43.1496 24.2679 43.1469C24.2918 43.1469 24.3183 43.139 24.3369 43.123C24.3369 43.1018 24.3582 43.0832 24.39 43.0805C24.4219 43.0779 24.5494 42.9478 24.5441 42.9053C24.5494 42.8681 24.5706 42.8336 24.5998 42.8123C24.6317 42.7778 24.6476 42.73 24.6397 42.6849C24.6397 42.6052 24.6689 42.5282 24.7246 42.4724C24.7804 42.4113 24.8548 42.3715 24.9371 42.3609C25.038 42.3609 25.0592 42.3343 25.2717 42.0953C25.3514 41.9997 25.4417 41.9094 25.5373 41.8298C25.6036 41.7899 25.6541 41.7288 25.678 41.6545C25.6833 41.6173 25.7046 41.5854 25.7338 41.5615C25.7444 41.5536 25.7524 41.543 25.7577 41.5323C25.6992 41.4819 25.4921 41.2933 25.4178 41.2402C25.3673 41.1898 25.3275 41.1313 25.3009 41.0649C25.2611 40.9932 25.2186 40.9083 25.1814 40.903C25.1442 40.8923 25.1097 40.8737 25.0778 40.8498C25.0327 40.8127 24.9796 40.7914 24.9212 40.7835H24.8866H24.8999C24.8149 40.7835 24.7061 40.5949 24.6105 40.425L24.5733 40.3612C24.5706 40.3506 24.5653 40.3426 24.5573 40.3347C24.4803 40.4037 24.39 40.4542 24.2918 40.4834C24.2838 40.486 24.2732 40.486 24.2652 40.4834C24.2573 40.4701 24.2573 40.4542 24.2652 40.4409C24.3104 40.3718 24.3688 40.3134 24.4352 40.2656L24.4803 40.2258H24.4963C24.637 40.2603 24.7698 40.324 24.884 40.4117C24.8973 40.409 24.9132 40.409 24.9265 40.4117C24.9982 40.4117 25.0646 40.4409 25.1124 40.494C25.1761 40.5551 25.2372 40.6082 25.2929 40.6533C25.3354 40.6879 25.3753 40.7224 25.4124 40.7596C25.4682 40.7967 25.5346 40.8233 25.601 40.8339C25.6568 40.8472 25.7099 40.8631 25.763 40.887C25.7789 40.8897 25.7975 40.8897 25.8134 40.887C25.8241 40.8897 25.8373 40.8897 25.848 40.887H25.8772C25.9143 40.887 25.9409 40.9136 25.9754 40.9853C26.0259 40.9747 26.0763 40.9667 26.1295 40.9667C26.2012 40.9534 26.2755 40.98 26.326 41.0331C26.3578 41.0835 26.3817 41.142 26.3924 41.2004C26.3977 41.2323 26.4083 41.2641 26.4189 41.296C26.4269 41.3066 26.4322 41.3199 26.4348 41.3332C26.4428 41.3518 26.4561 41.3703 26.4694 41.3863C26.4906 41.4102 26.5012 41.442 26.5012 41.4739C26.5012 41.5005 26.5092 41.5244 26.5251 41.5456C26.5464 41.5456 26.565 41.5695 26.5676 41.604C26.5756 41.6359 26.5968 41.6625 26.626 41.6784C26.6685 41.7076 26.6951 41.7527 26.6977 41.8032C26.6977 41.8271 26.7057 41.8483 26.719 41.8669C26.7482 41.8669 26.7641 41.9121 26.7668 41.9599C26.7694 42.0077 26.7668 42.0263 26.8226 42.0263H26.8916C26.9421 42.021 26.9925 42.0395 27.027 42.0767C27.0616 42.1086 27.1094 42.1245 27.1572 42.1192C27.189 42.1219 27.2236 42.1112 27.2475 42.09C27.2501 42.082 27.2501 42.0767 27.2475 42.0688C27.2448 42.0475 27.2342 42.0289 27.2156 42.0156C27.1997 42.0156 27.189 42.0024 27.1917 41.9864V41.9838C27.2103 41.9307 27.2581 41.8908 27.3138 41.8829C27.3245 41.8802 27.3324 41.8722 27.3324 41.8616C27.3351 41.8298 27.3351 41.7979 27.3324 41.766C27.3112 41.6359 27.3909 41.5084 27.5183 41.4713C27.5555 41.4713 27.59 41.45 27.6086 41.4181C27.6299 41.3703 27.6378 41.3172 27.6299 41.2668C27.6272 41.2349 27.6272 41.2057 27.6299 41.1738C27.6299 41.1552 27.6299 41.1287 27.6564 41.1234C27.667 41.0517 27.667 40.9826 27.6564 40.9109C27.6378 40.6772 27.6697 40.6746 27.6777 40.6719C27.6856 40.6693 27.6777 40.656 27.6777 40.6507C27.6777 40.6454 27.6777 40.5843 27.6458 40.579C27.6325 40.5763 27.6219 40.563 27.6245 40.5471C27.6405 40.494 27.6856 40.4515 27.7414 40.4435C27.76 40.4409 27.7759 40.4276 27.7865 40.4117C27.7865 40.3957 27.7865 40.3798 27.8104 40.3798C27.8343 40.3798 27.8317 40.3798 27.8397 40.4064C27.8556 40.4223 27.8768 40.4303 27.8981 40.4303C27.9299 40.4276 27.9592 40.4515 27.9645 40.4834C27.9777 40.5391 28.0255 40.579 28.0813 40.5843C28.1052 40.5816 28.1291 40.5976 28.1371 40.6215C28.1371 40.6215 28.1371 40.6215 28.1769 40.6215C28.1982 40.6215 28.2061 40.6215 28.2088 40.6082C28.2141 40.5923 28.2141 40.5763 28.2088 40.5604C28.1982 40.4728 28.2592 40.3957 28.3442 40.3825H28.3601C28.3761 40.3825 28.392 40.3771 28.4079 40.3692C28.4106 40.3612 28.4106 40.3532 28.4079 40.3453C28.4026 40.3108 28.4159 40.2762 28.4398 40.2523C28.4717 40.2205 28.5168 40.2019 28.562 40.1992C28.6071 40.1966 28.6496 40.2152 28.6762 40.2497C28.7027 40.2762 28.7399 40.2922 28.7797 40.2922H28.801C28.8382 40.2922 28.8806 40.2922 28.8806 40.3267C28.8992 40.332 28.9205 40.332 28.9391 40.3267H29.0426C29.0798 40.3267 29.125 40.3267 29.125 40.3612C29.125 40.3957 29.125 40.3745 29.1648 40.3612C29.202 40.3612 29.2285 40.3745 29.2285 40.3957C29.2471 40.4011 29.2684 40.4011 29.2869 40.3957H29.3082C29.3321 40.3957 29.356 40.3878 29.3772 40.3745C29.3772 40.3745 29.3772 40.3532 29.4064 40.34C29.4277 40.332 29.4489 40.3293 29.4702 40.3267H29.4861C29.526 40.3267 29.5684 40.3267 29.5711 40.3586C29.5738 40.3904 29.5711 40.3718 29.6083 40.3718C29.6375 40.3692 29.6667 40.3825 29.6826 40.409C29.6826 40.409 29.6826 40.409 29.7278 40.3665L29.7889 40.2842L29.9269 40.4064C30.0013 40.4701 30.0358 40.486 30.0464 40.486C30.0571 40.486 30.0783 40.4435 30.2562 40.4276L30.4634 40.4117L30.4873 40.7038C30.5085 40.9481 30.5138 40.9693 30.5457 40.9693C30.5829 40.9693 30.6094 40.9853 30.6121 41.0065C30.6147 41.0278 30.6121 41.0065 30.6493 41.0065H30.6652C30.7183 41.0065 30.7289 41.0437 30.7342 41.126C30.7369 41.1526 30.7369 41.1818 30.7342 41.2083C30.7342 41.2083 30.7342 41.2508 30.7077 41.2535C30.6811 41.2562 30.7077 41.2535 30.7077 41.2535C30.705 41.2641 30.705 41.2774 30.7077 41.288C30.7103 41.3199 30.6997 41.3518 30.6732 41.373C30.7024 41.373 30.721 41.4367 30.7236 41.4792C30.7263 41.5217 30.7236 41.543 30.782 41.543H30.8458H30.9015C30.9706 41.5376 31.0343 41.5669 31.0795 41.6173C31.1193 41.6651 31.183 41.689 31.2441 41.681H31.3132H31.3928C31.4619 41.681 31.4831 41.681 31.4884 41.7395C31.4937 41.7979 31.4884 41.7793 31.5469 41.7793H31.5893C31.6876 41.7793 31.8363 41.859 31.8549 41.9386C31.8735 41.9891 31.9186 42.0236 31.9718 42.0289C31.9957 42.0263 32.0196 42.0422 32.0275 42.0661C32.0275 42.0661 32.0435 42.0661 32.0753 42.0661C32.1072 42.0661 32.1736 42.0449 32.1762 42.0316C32.1789 42.0183 32.1922 42.0077 32.2054 42.0077C32.2612 42.021 32.3037 42.0661 32.3143 42.1219C32.3249 42.1484 32.3462 42.1723 32.3701 42.1856C32.4046 42.2015 32.4285 42.2307 32.4391 42.2679C32.4763 42.3396 32.5427 42.3927 32.6197 42.414C32.6436 42.4113 32.6675 42.4273 32.6755 42.4512C32.6994 42.4565 32.7259 42.4565 32.7498 42.4512H32.7764H32.8242C32.8932 42.4512 32.9039 42.4751 32.9065 42.5388C32.9092 42.6025 32.9065 42.6371 32.872 42.6477C32.8375 42.6583 32.872 42.6477 32.872 42.6477C32.9012 42.6849 32.9464 42.7088 32.9942 42.7114C33.103 42.7273 33.1907 42.8097 33.2146 42.9159C33.2146 42.9398 33.2146 42.9717 33.2491 42.9717C33.3208 42.977 33.3792 43.0274 33.3925 43.0965C33.3898 43.1098 33.4005 43.1204 33.4137 43.123C33.4164 43.123 33.4164 43.123 33.419 43.123C33.4536 43.1177 33.4828 43.0965 33.5014 43.0673C33.5306 43.0248 33.5784 42.9982 33.6288 42.9982C33.674 42.9956 33.7165 43.0142 33.7457 43.046C33.7776 43.0779 33.8227 43.0938 33.8678 43.0885H33.9316C34.0484 43.0885 34.1228 43.131 34.1281 43.2107C34.1281 43.2266 34.1467 43.2372 34.1706 43.2372C34.2024 43.2346 34.2317 43.2558 34.2396 43.2877C34.2396 43.3249 34.306 43.3939 34.3299 43.3912C34.3299 43.3806 34.3299 43.3727 34.3299 43.362C34.3246 43.3169 34.3485 43.2691 34.3883 43.2478C34.4547 43.2186 34.5238 43.2027 34.5955 43.2027H34.699C34.7734 43.2027 34.7946 43.216 34.7973 43.2638C34.8 43.3116 34.8132 43.3063 34.8159 43.3036C34.8185 43.301 34.8584 43.3275 34.861 43.3594C34.877 43.4231 34.938 43.4656 35.0018 43.4576H35.031C35.0947 43.4576 35.0974 43.4948 35.108 43.6037C35.108 43.6382 35.108 43.7551 35.0788 43.7577C35.0496 43.7604 35.0788 43.7577 35.0788 43.7577C35.0761 43.7683 35.0761 43.7816 35.0788 43.7922C35.0788 43.8082 35.0841 43.8241 35.0947 43.8347C35.0947 43.8347 35.1107 43.8347 35.1107 43.8161C35.1107 43.8029 35.1186 43.7896 35.1319 43.7843C35.1452 43.7763 35.1611 43.771 35.177 43.771C35.193 43.771 35.2063 43.7657 35.2169 43.7551C35.2116 43.7444 35.2116 43.7312 35.2169 43.7205C35.2275 43.7179 35.2381 43.7179 35.2487 43.7205C35.3125 43.7338 35.3709 43.763 35.416 43.8082C35.4904 43.856 35.5329 43.9383 35.5356 44.0259C35.5356 44.1109 35.5595 44.1481 35.5993 44.172C35.6312 44.1906 35.6577 44.2198 35.6683 44.257C35.6816 44.3101 35.7294 44.3499 35.7852 44.3526C35.833 44.3526 35.8436 44.403 35.8489 44.4588C35.8542 44.5146 35.9047 44.6181 35.9658 44.6181H35.979C36.0029 44.6128 36.0268 44.6288 36.0321 44.6527C36.0321 44.6527 36.0454 44.6527 36.072 44.6527C36.1304 44.6527 36.1357 44.6925 36.1463 44.8253C36.157 44.958 36.1676 44.9793 36.1968 44.9793H36.2101C36.2473 44.9793 36.2738 44.9952 36.2738 45.0165C36.2871 45.0218 36.3004 45.0218 36.3136 45.0165C36.3508 45.0165 36.3774 45.0297 36.3774 45.051C36.3774 45.0722 36.3933 45.0643 36.4172 45.0643C36.4544 45.0643 36.4809 45.0775 36.4809 45.0988C36.5022 45.1041 36.5208 45.1041 36.542 45.0988H36.5553C36.5898 45.0988 36.6084 45.0988 36.6137 45.0988C36.6217 45.0749 36.6217 45.0457 36.6137 45.0218C36.6111 44.9607 36.6297 44.9023 36.6615 44.8518C36.6881 44.804 36.7332 44.7695 36.7863 44.7562C36.8049 44.7562 36.8155 44.7562 36.8155 44.7403C36.8155 44.7244 36.9244 44.6898 37.0147 44.6819C37.1767 44.6819 37.2059 44.6553 37.2325 44.6128C37.259 44.5756 37.3015 44.5491 37.3493 44.5438C37.3892 44.5385 37.4237 44.5172 37.4449 44.4853C37.4794 44.4375 37.5352 44.4083 37.5963 44.411H37.6202C37.6494 44.411 37.7184 44.411 37.7184 44.4455C37.737 44.4508 37.7556 44.4508 37.7742 44.4455H37.7955C37.8433 44.4455 37.8857 44.4641 37.9203 44.496C37.9442 44.5252 37.9681 44.5385 38.0477 44.5358H38.1327H38.2018C38.3478 44.5358 38.4062 44.5703 38.4142 44.6819C38.4142 44.7297 38.4142 44.7376 38.4647 44.735H38.4886C38.5682 44.735 38.6506 44.7881 38.6532 44.8465C38.6559 44.9049 38.6081 44.9395 38.5735 44.9766L38.5018 45.0536L38.5842 45.12C38.6479 45.1599 38.6877 45.2289 38.6931 45.3033C38.6931 45.3856 38.693 45.3882 38.7435 45.3882H38.7993C38.8789 45.3882 38.9745 45.4281 38.9852 45.4679C38.9958 45.5077 38.9852 45.4945 38.9586 45.5051C38.94 45.529 38.9347 45.5582 38.94 45.5874C38.9453 45.6166 38.94 45.6485 38.9241 45.6751C38.9188 45.6777 38.9135 45.6777 38.9082 45.6751C38.9082 45.6751 38.8922 45.6936 38.8949 45.7202C38.8975 45.7468 38.8949 45.7892 38.8603 45.7919C38.8258 45.7946 38.8603 45.7919 38.8603 45.7919C38.8603 45.7919 38.8816 45.8689 38.9506 45.9247C38.9958 45.9565 39.0303 45.999 39.0489 46.0495C39.0489 46.0681 39.0675 46.0787 39.0914 46.0787C39.1259 46.0787 39.1525 46.0787 39.1551 46.1106C39.187 46.1185 39.2215 46.1185 39.2534 46.1106H39.3463C39.5163 46.1106 39.5561 46.1663 39.5588 46.2168C39.6013 46.2726 39.6517 46.323 39.7075 46.3655C39.75 46.4 39.8881 46.5169 39.8695 46.5753C39.8642 46.5912 39.8482 46.6019 39.8323 46.6019C39.8217 46.6151 39.8164 46.6311 39.819 46.647C39.819 46.6709 39.819 46.6842 39.8854 46.6815H39.9916C40.0447 46.6736 40.0979 46.6921 40.135 46.732C40.1589 46.7585 40.1828 46.7718 40.2598 46.7692H40.3289H40.4059C40.4564 46.7692 40.5042 46.7692 40.5095 46.817C40.5148 46.8648 40.5785 46.9152 40.6688 46.9152H40.7193C40.7777 46.9152 40.8016 46.9285 40.8042 46.9763C40.8069 46.9975 40.8016 47.0188 40.7883 47.0347C40.7883 47.0347 40.7883 47.0347 40.7697 47.0347C40.7511 47.0347 40.7697 47.0347 40.7697 47.0347C40.7644 47.0905 40.783 47.1462 40.8202 47.1887C40.8441 47.21 40.8547 47.2126 40.8574 47.2126C40.8574 47.1834 40.9291 47.1648 40.9875 47.1595H41.0326C41.099 47.1595 41.1123 47.1781 41.1149 47.2365C41.1176 47.295 41.176 47.3693 41.2344 47.3667C41.2637 47.3667 41.2876 47.3667 41.2876 47.4012C41.2876 47.4357 41.2876 47.4171 41.3088 47.4171C41.346 47.4118 41.3805 47.3906 41.4018 47.3587C41.4416 47.3109 41.4974 47.2843 41.5584 47.2817C41.6115 47.2817 41.6195 47.3082 41.6195 47.3189C41.6195 47.3295 41.6195 47.3321 41.6593 47.3321C41.6779 47.3348 41.6965 47.3215 41.6992 47.3029C41.6992 47.3003 41.6992 47.3003 41.6992 47.2976C41.6939 47.2657 41.7151 47.2312 41.747 47.2259C41.747 47.2259 41.747 47.2259 41.7496 47.2259H41.7629C41.7895 47.2259 41.8054 47.2126 41.8054 47.2073C41.8054 47.202 41.8054 47.1914 41.8054 47.1834C41.816 47.1701 41.8346 47.1622 41.8505 47.1622C41.8771 47.1569 41.901 47.1436 41.9196 47.1223C41.9382 47.1038 41.9515 47.0825 41.9541 47.056C41.9515 47.0294 41.9621 47.0055 41.978 46.9869C42.0338 46.9365 42.1081 46.9072 42.1852 46.9099C42.2409 46.9019 42.294 46.9205 42.3339 46.9604C42.3551 46.9843 42.3843 47.0002 42.4162 47.0055C42.4507 47.0055 42.4746 47.0188 42.4773 47.04C42.4959 47.0453 42.5171 47.0453 42.5357 47.04H42.5808C42.6472 47.04 42.6499 47.0719 42.6578 47.1861C42.6578 47.2206 42.6578 47.3374 42.6313 47.3428C42.626 47.3534 42.626 47.3667 42.6313 47.3773C42.6286 47.4171 42.61 47.4543 42.5782 47.4809C42.5516 47.5074 42.5357 47.5446 42.5357 47.5818C42.5304 47.6428 42.5012 47.7013 42.4587 47.7438C42.4003 47.8075 42.3817 47.8686 42.3923 47.8872C42.4029 47.9057 42.3923 47.8872 42.3923 47.8872C42.3923 47.8872 42.4427 47.9934 42.4454 48.0067C42.4507 48.0465 42.4454 48.089 42.4295 48.1262H42.4135C42.4135 48.1262 42.4003 48.1421 42.4003 48.1686C42.4056 48.2005 42.3923 48.2324 42.3657 48.2483C42.3657 48.2483 42.3657 48.2643 42.4188 48.3121L42.4932 48.3758L42.5304 48.3227C42.5543 48.2882 42.5888 48.2642 42.6286 48.251C42.6472 48.251 42.6632 48.2377 42.6711 48.2218C42.6738 48.2085 42.6844 48.2005 42.6977 48.2005C42.7508 48.2111 42.7933 48.2536 42.8066 48.3067C42.8066 48.3625 42.9048 48.3944 42.9924 48.3944C43.0535 48.397 43.1119 48.3731 43.1518 48.328C43.1943 48.2483 43.2925 48.2191 43.3722 48.2616C43.3749 48.2643 43.3802 48.2669 43.3828 48.2696C43.4067 48.2669 43.4253 48.2828 43.4306 48.3041C43.4572 48.3094 43.4811 48.3094 43.5076 48.3041H43.5315C43.5661 48.3041 43.6006 48.2961 43.6298 48.2775C43.6351 48.2722 43.6404 48.2696 43.6484 48.2696C43.6617 48.2616 43.6749 48.2563 43.6909 48.2563C43.7148 48.2536 43.7334 48.2404 43.7466 48.2218C43.7466 48.2218 43.7466 48.1926 43.7732 48.1926C43.7997 48.1926 43.7944 48.1926 43.8024 48.2191C43.8157 48.235 43.8369 48.243 43.8582 48.243C43.8927 48.243 43.9192 48.2589 43.9219 48.2802C43.9405 48.2855 43.9617 48.2855 43.9803 48.2802H43.9936C44.0202 48.2802 44.0441 48.2749 44.0653 48.2589C44.06 48.2536 44.06 48.243 44.0653 48.2377C44.0786 48.2218 44.0998 48.2138 44.1211 48.2138C44.1583 48.2138 44.1848 48.2271 44.1848 48.2483C44.1848 48.2696 44.1848 48.2616 44.2193 48.2616C44.2618 48.2643 44.299 48.2828 44.3256 48.3147C44.3548 48.3439 44.3946 48.3572 44.4344 48.3572C44.4557 48.3572 44.4769 48.3519 44.4929 48.3386C44.4955 48.3333 44.4955 48.3253 44.4929 48.32C44.5035 48.2669 44.53 48.2165 44.5699 48.1793C44.6044 48.1474 44.6283 48.1049 44.6416 48.0598C44.6416 48.0014 44.708 47.996 44.7345 47.9934H44.7664C44.8301 47.9934 44.8328 48.0199 44.8461 48.166C44.8461 48.2191 44.8567 48.2722 44.8779 48.32C44.8992 48.32 44.9178 48.3492 44.9204 48.3864C44.9231 48.4236 44.9204 48.4262 44.9602 48.4262C44.9974 48.4262 45.024 48.4422 45.024 48.4634C45.0346 48.4687 45.0452 48.4687 45.0558 48.4634C45.1196 48.482 45.178 48.5165 45.2258 48.5643C45.2709 48.6095 45.3267 48.644 45.3904 48.6599H45.4037C45.486 48.6573 45.5551 48.7237 45.5604 48.806C45.5657 48.8432 45.587 48.875 45.6188 48.8963C45.6693 48.9282 45.6852 48.9706 45.6958 49.0901C45.7091 49.2654 45.7569 49.2999 45.8366 49.2973H45.8738C45.9375 49.2973 45.9402 49.3291 45.9561 49.515C45.9747 49.754 45.9959 49.7806 46.1393 49.7806H46.2296L46.3996 49.7673V49.6983C46.3996 49.6505 46.3996 49.6 46.4341 49.5974C46.4394 49.5841 46.4394 49.5655 46.4341 49.5522C46.4341 49.5257 46.4208 49.5124 46.4155 49.5124C46.4102 49.5124 46.365 49.4115 46.365 49.3902C46.365 49.3557 46.3571 49.3212 46.3385 49.292C46.3013 49.292 46.2907 49.1831 46.2907 49.1725C46.2907 49.1379 46.2827 49.1034 46.2641 49.0742C46.2376 49.0742 46.2216 49.0317 46.219 48.9919C46.219 48.9122 46.2694 48.8246 46.3305 48.8193C46.3863 48.7768 46.4367 48.7263 46.4792 48.6706C46.5244 48.6174 46.6147 48.5139 46.6439 48.5112C46.7421 48.5112 46.7714 48.6281 46.7873 48.8352C46.7873 48.9122 46.8006 48.9866 46.8271 49.0583C46.851 49.0583 46.867 49.1087 46.8696 49.1512C46.8723 49.1937 46.8882 49.2203 46.9121 49.2203H46.928C46.9626 49.2203 46.9891 49.2335 46.9918 49.2548C47.0104 49.2601 47.0263 49.2601 47.0449 49.2548H47.0661C47.1139 49.2548 47.1591 49.2734 47.1909 49.3079C47.2122 49.3318 47.2414 49.3477 47.2733 49.353C47.3051 49.353 47.3317 49.369 47.3343 49.3902C47.3582 49.3955 47.3795 49.3955 47.4034 49.3902H47.4432C47.5096 49.3902 47.5733 49.4168 47.6185 49.4646C47.661 49.5071 47.7167 49.531 47.7778 49.5336C47.7911 49.5389 47.8044 49.5389 47.8177 49.5336C47.8203 49.5257 47.8203 49.5177 47.8177 49.5097C47.8283 49.4566 47.8575 49.4088 47.8973 49.3716C47.9611 49.2999 47.969 49.2734 47.9584 49.1379C47.9584 49.1008 47.9584 48.9786 47.9823 48.968C47.9929 48.9202 47.9929 48.8697 47.9823 48.8219C47.969 48.7529 47.9796 48.6785 48.0089 48.6148C48.0354 48.5856 48.0699 48.567 48.1098 48.5643C48.139 48.5643 48.1576 48.5643 48.1602 48.5989C48.1629 48.6334 48.1735 48.6121 48.1948 48.6121C48.2372 48.6148 48.2744 48.6334 48.301 48.6652C48.3382 48.7077 48.3514 48.7104 48.3541 48.7104C48.3567 48.7104 48.3541 48.7104 48.3541 48.6679C48.3541 48.6254 48.3886 48.5962 48.5161 48.5856H48.5851C48.6621 48.5803 48.7338 48.6095 48.7843 48.6679C48.8507 48.713 48.8958 48.7847 48.9038 48.8644V48.9494L49.103 48.9335H49.2225C49.2862 48.9255 49.3499 48.9467 49.3977 48.9892C49.4376 49.0184 49.4641 49.0609 49.4801 49.1061C49.4801 49.122 49.4986 49.1326 49.5225 49.1326C49.5597 49.1326 49.5863 49.1459 49.5889 49.1672C49.6128 49.1725 49.6367 49.1725 49.6606 49.1672H49.6819C49.7323 49.1698 49.7828 49.1486 49.8147 49.1061C49.8306 49.0715 49.8598 49.0477 49.897 49.037C49.9634 49.045 50.0191 49.0955 50.0351 49.1618C50.0324 49.1751 50.043 49.1884 50.059 49.1911C50.0616 49.1911 50.0616 49.1911 50.0643 49.1911C50.1732 49.215 50.2555 49.3026 50.2714 49.4115C50.2714 49.5071 50.3298 49.5575 50.4122 49.5549H50.4387C50.4865 49.5549 50.5104 49.5735 50.5131 49.6186C50.5131 49.6398 50.5317 49.6584 50.5529 49.6584C50.6166 49.6478 50.6724 49.6133 50.7069 49.5602L50.7919 49.4566L50.8583 49.5203C50.8822 49.5442 50.9114 49.5602 50.9459 49.5681C50.9752 49.5655 51.0017 49.5814 51.0123 49.608C51.0415 49.592 51.0654 49.5681 51.084 49.5416C51.1239 49.4752 51.1956 49.4327 51.2726 49.4301H51.3151C51.3815 49.4301 51.3894 49.454 51.3947 49.5203C51.4 49.5867 51.3947 49.5867 51.4452 49.5867H51.4717C51.4956 49.5894 51.5222 49.5814 51.5408 49.5655C51.5408 49.5257 51.6444 49.5177 51.6576 49.515C51.7267 49.515 51.7665 49.4911 51.7878 49.454C51.817 49.4115 51.8648 49.3849 51.9152 49.3849C51.9896 49.3796 52.056 49.4327 52.0693 49.5071C52.0693 49.5257 52.0693 49.5389 52.0878 49.5389C52.0905 49.5336 52.0905 49.5257 52.0878 49.5203C52.0878 49.4964 52.1144 49.4779 52.1542 49.4752C52.1702 49.4752 52.1834 49.4699 52.1941 49.4593C52.1941 49.4274 52.2419 49.4115 52.2897 49.4088H52.3056C52.3454 49.4088 52.3879 49.4088 52.3906 49.4433C52.3932 49.4779 52.3906 49.4566 52.4278 49.4566H52.441C52.4782 49.4566 52.5048 49.4566 52.5074 49.4938C52.5313 49.4964 52.5579 49.4964 52.5818 49.4938H52.6057C52.6986 49.4938 52.7039 49.4725 52.7039 49.454C52.7225 49.3902 52.7571 49.3318 52.8049 49.2867C52.8527 49.2415 52.8845 49.1831 52.9005 49.1194C52.8978 49.0795 52.9111 49.0423 52.935 49.0105C52.9562 48.9813 52.9881 48.96 53.0253 48.9547C53.0332 48.9574 53.0412 48.9574 53.0492 48.9547C53.0465 48.9335 53.0624 48.9122 53.0837 48.9096H53.0863C53.1102 48.9096 53.1288 48.9308 53.1315 48.9627C53.1395 49.0078 53.1713 49.045 53.2138 49.0583C53.2271 49.0291 53.2563 49.0078 53.2882 49.0078C53.3147 49.0078 53.328 48.9945 53.328 48.9892C53.3254 48.9813 53.3254 48.976 53.328 48.968C53.3413 48.9521 53.3625 48.9441 53.3838 48.9441C53.4156 48.9388 53.4449 48.9627 53.4502 48.9945V48.9972C53.4502 49.0238 53.4502 49.037 53.5166 49.0344H53.5829C53.6281 49.0344 53.6706 49.0238 53.7104 49.0052C53.7051 48.9972 53.7051 48.9892 53.7104 48.9813C53.729 48.9653 53.7502 48.9574 53.7741 48.96C53.8273 48.9574 53.8804 48.9759 53.9202 49.0105C53.9494 49.0397 53.9866 49.053 54.0264 49.053H54.0477C54.0822 49.053 54.1247 49.053 54.1273 49.0848C54.1512 49.0875 54.1778 49.0875 54.2017 49.0848H54.2283H54.3504L54.3743 49.3504C54.377 49.4115 54.377 49.4725 54.3743 49.5336C54.3743 49.6 54.3743 49.6159 54.3478 49.6159C54.3398 49.6398 54.3398 49.6637 54.3478 49.6876C54.3478 49.7354 54.3478 49.7859 54.3132 49.7886C54.3079 49.8018 54.3079 49.8204 54.3132 49.8337C54.3132 49.8709 54.3132 49.9028 54.2787 49.9054C54.2707 49.9479 54.2707 49.9904 54.2787 50.0329C54.2867 50.0833 54.2814 50.1338 54.2628 50.1789C54.2575 50.1816 54.2548 50.1816 54.2495 50.1789C54.2415 50.2028 54.2415 50.2294 54.2495 50.2533C54.2495 50.3144 54.2495 50.3489 54.1884 50.3542C54.1273 50.3595 54.1459 50.3542 54.1486 50.4232C54.1539 50.4737 54.1353 50.5215 54.0981 50.556C54.0609 50.5879 54.053 50.6198 54.0663 50.7791C54.0663 50.8402 54.0769 50.8986 54.0981 50.9544C54.1141 50.9544 54.13 50.965 54.1353 50.9809C54.1459 51.0314 54.1273 51.0845 54.0875 51.119C54.0503 51.1642 54.0371 51.2226 54.053 51.2783C54.053 51.2783 54.053 51.2943 54.0663 51.2943C54.0795 51.2943 54.1167 51.4058 54.1194 51.443C54.122 51.4802 54.1194 51.5944 54.0902 51.597C54.0849 51.6315 54.0849 51.6634 54.0902 51.6979C54.0902 51.6979 54.0902 51.8227 54.0583 51.8254C54.053 51.8387 54.053 51.8573 54.0583 51.8705C54.0583 51.9051 54.0583 51.9369 54.0264 51.9396C54.0158 52.0086 54.0158 52.0803 54.0264 52.1494C54.0424 52.3273 54.0264 52.3778 54.0131 52.3937C54.0928 52.492 54.1804 52.5796 54.2787 52.6593C54.5443 52.8876 54.5921 52.9248 54.6 53.0204C54.6 53.0682 54.6239 53.1107 54.6611 53.1373C54.6956 53.1558 54.7195 53.1904 54.7302 53.2275C54.7381 53.2568 54.7594 53.2807 54.7859 53.2966C54.8417 53.3285 54.855 53.3789 54.8656 53.5037C54.8656 53.5542 54.8762 53.6046 54.8948 53.6498C54.9081 53.6498 54.9346 53.671 54.9506 53.8835C54.9665 54.0959 54.9506 54.1198 54.9293 54.1225C54.9214 54.1464 54.9214 54.1703 54.9293 54.1942C54.9293 54.242 54.9293 54.2924 54.8948 54.2924C54.8868 54.3163 54.8868 54.3429 54.8948 54.3668C54.9001 54.3987 54.8948 54.4305 54.8789 54.4571C54.8736 54.4597 54.8656 54.4597 54.8603 54.4571C54.8603 54.4571 54.847 54.473 54.8603 54.4969C54.8576 54.5368 54.839 54.5739 54.8072 54.6005C54.77 54.6324 54.7594 54.6642 54.7726 54.8236C54.7726 54.9138 54.7726 55.0174 54.7541 55.028C54.7408 55.0838 54.7408 55.1449 54.7541 55.2007C54.7541 55.3202 54.7541 55.4662 54.6505 55.4875C54.6 55.506 54.5655 55.5512 54.5602 55.6043C54.5629 55.6282 54.5496 55.6494 54.5257 55.6548C54.4885 55.668 54.4513 55.6733 54.4115 55.676H54.3717C54.2973 55.676 54.2575 55.676 54.2575 55.6468C54.2575 55.6176 54.2415 55.6468 54.2176 55.6468C54.1858 55.6521 54.1539 55.6282 54.1486 55.5963C54.13 55.5538 54.1008 55.5167 54.0609 55.4901C54.0211 55.4582 53.9653 55.4051 53.9627 55.3759C53.9547 55.352 53.9388 55.3281 53.9175 55.3122C53.9175 55.3122 53.8963 55.2963 53.8883 55.2963C53.8804 55.2963 53.8512 55.3228 53.8087 55.3733C53.7662 55.4237 53.7237 55.4503 53.7157 55.4503C53.7051 55.4503 53.6971 55.445 53.6918 55.437C53.6706 55.4211 53.6467 55.4131 53.6201 55.4158C53.5537 55.4158 53.5511 55.4158 53.5564 55.4928C53.5617 55.5698 53.5564 55.5618 53.5378 55.5777C53.5192 55.5937 53.4847 55.5963 53.413 55.6016H53.3705C53.2961 55.6016 53.259 55.6016 53.2563 55.5724C53.2377 55.5671 53.2165 55.5671 53.1979 55.5724H53.1819C53.1129 55.5724 53.1129 55.599 53.1156 55.6096C53.1129 55.6813 53.0598 55.7424 52.9881 55.7557C52.9695 55.7557 52.9589 55.7689 52.9589 55.7743C52.9589 55.7796 52.9589 55.7982 52.927 55.8088C52.9084 55.8168 52.8872 55.8221 52.8659 55.8221H52.9429C52.9031 55.8221 52.8606 55.8221 52.858 55.7902C52.842 55.7849 52.8234 55.7849 52.8075 55.7902H52.7889C52.7278 55.7849 52.6721 55.7583 52.6296 55.7158C52.5898 55.668 52.5287 55.6441 52.4676 55.6494H52.4118C52.372 55.6494 52.3322 55.6574 52.295 55.676C52.295 55.676 52.295 55.6972 52.2658 55.7079C52.2445 55.7158 52.2233 55.7211 52.202 55.7211C52.1383 55.7211 52.133 55.7397 52.1356 55.7716C52.1383 55.7929 52.133 55.8141 52.1197 55.83C52.1144 55.8353 52.1091 55.8407 52.1011 55.8433C52.1011 55.8433 52.0852 55.8592 52.0878 55.8858C52.0905 55.907 52.0852 55.9283 52.0746 55.9469C52.0693 55.9548 52.0613 55.9575 52.0533 55.9602C52.0533 55.9602 52.04 55.9602 52.04 55.992C52.0427 56.0265 52.0321 56.0611 52.0082 56.085C51.9763 56.1168 51.9338 56.1354 51.8887 56.1354" fill="white"></path><path d="M39.0013 15.9749C25.7844 15.9749 15.0319 26.6849 15.0319 39.8486C15.0319 53.0124 25.7844 63.7197 39.0013 63.7197C52.2181 63.7197 62.9706 53.0097 62.9706 39.8486C62.9706 26.6875 52.2181 15.9749 39.0013 15.9749ZM39.0013 64.8935C25.1364 64.8935 13.8555 53.6577 13.8555 39.8486C13.8555 26.0396 25.1364 14.8091 39.0013 14.8091C52.8661 14.8091 64.147 26.0422 64.147 39.854C64.147 53.6657 52.8661 64.8935 39.0013 64.8935Z" fill="#283583"></path><path d="M14.9329 64.2084L13.8839 62.9682L15.857 59.2424L11.8471 60.5596L10.8008 59.3247L15.1294 55.6919L16.019 56.7409L13.4218 58.9211L16.8343 57.7048L17.5513 58.5546L15.772 61.7068L18.3719 59.5239L19.2615 60.5729L14.9329 64.2084Z" fill="#E52321"></path><path d="M9.81352 57.7102L9.17352 56.5019L12.177 54.9324C12.7692 54.6244 12.9577 54.1517 12.655 53.5754C12.3523 52.9992 11.8583 52.8717 11.2555 53.1824L8.25203 54.7492L7.60938 53.533L10.6075 51.9688C11.9938 51.2438 13.1888 51.852 13.7942 53.0071C14.3997 54.1623 14.1952 55.429 12.8064 56.154L9.81352 57.7102Z" fill="#E52321"></path><path d="M5.49023 47.0162L10.9289 45.4255L11.3166 46.7454L8.61321 49.9347L11.9699 48.9522L12.3576 50.272L6.91894 51.8627L6.52857 50.5429L9.24789 47.3508L5.88061 48.3361L5.49023 47.0162Z" fill="#E52321"></path><path d="M10.6947 43.2687L5.08984 44.0884L5.28889 45.4495L10.8938 44.6299L10.6947 43.2687Z" fill="#E52321"></path><path d="M4.76412 39.992C4.74287 38.6483 5.48378 37.6233 6.70535 37.2833L6.72925 38.7917C6.27249 39.0095 5.99366 39.4822 6.02287 39.9867C6.03614 40.8312 6.67614 41.3995 7.6773 41.3836C8.67846 41.3676 9.29721 40.7781 9.28393 39.9336C9.29721 39.4291 9.00244 38.9643 8.53771 38.7625L8.51381 37.2515C9.746 37.5542 10.5135 38.5554 10.5347 39.9071C10.5613 41.5721 9.39547 42.7645 7.7012 42.791C6.00693 42.8176 4.78005 41.6651 4.76412 40.0027" fill="#E52321"></path><path d="M5.05664 35.8306L5.24519 34.4683L10.8591 35.2384L10.6706 36.6007L5.05664 35.8306Z" fill="#E52321"></path><path d="M8.47152 31.5579C8.61492 31.0268 8.41044 30.7346 7.99086 30.6204C7.57127 30.5063 7.24198 30.6629 7.10124 31.1914L6.90472 31.9137L8.27766 32.2802L8.47152 31.5579ZM9.56031 31.7411L9.33724 32.5643L11.3024 33.0955L10.9439 34.4233L5.4707 32.9574L6.05228 30.8063C6.41078 29.4785 7.34821 29.0058 8.35467 29.2741C9.25757 29.5157 9.93475 30.3575 9.56031 31.7464" fill="#E52321"></path><path d="M9.25067 26.4459L10.844 27.9277L11.4203 26.661L9.25067 26.4459ZM12.5463 26.7778L11.6752 28.6952L12.4453 29.4148L11.8505 30.724L7.53516 26.5388L8.19374 25.0889L14.2007 25.5563L13.5979 26.884L12.5463 26.7778Z" fill="#E52321"></path><path d="M10.5468 21.0046L14.3682 23.5487L15.372 22.0509L16.2563 22.6405L14.4877 25.2775L9.7793 22.1465L10.5468 21.0046Z" fill="#E52321"></path><path d="M17.2459 15.6058L18.1116 17.6055L19.1499 16.6787L17.2459 15.6058ZM20.1245 17.2337L18.5497 18.6358L18.9534 19.6051L17.8912 20.5638L15.6445 14.987L16.8342 13.9248L22.1401 16.7849L21.0513 17.7515L20.1245 17.2337Z" fill="#E52321"></path><path d="M24.2649 15.6058C23.2266 16.2378 22.098 16.2192 21.4659 15.2659L22.7194 14.5037C22.9079 14.8091 23.3089 14.9047 23.6143 14.7162C23.6276 14.7082 23.6409 14.7002 23.6541 14.6896C23.9994 14.4798 24.1162 14.1744 23.9436 13.8929C23.3965 13.0006 21.288 14.9552 20.2417 13.2343C19.6814 12.3235 20.1222 11.3595 21.134 10.7434C22.1962 10.1034 23.216 10.1937 23.8267 11.0833L22.5547 11.8561C22.3635 11.5746 21.9811 11.5002 21.6996 11.6888C21.697 11.6914 21.6916 11.6941 21.689 11.6967C21.4341 11.8003 21.3092 12.0924 21.4155 12.3474C21.4287 12.3792 21.4447 12.4084 21.4606 12.435C21.9758 13.2715 24.1321 11.4418 25.12 13.0537C25.6166 13.8504 25.3856 14.9127 24.2649 15.6058Z" fill="#E52321"></path><path d="M28.4694 13.5184C27.3381 13.9698 26.2307 13.7627 25.766 12.7217L27.1283 12.1746C27.2638 12.5066 27.6435 12.6686 27.9755 12.5331C27.9914 12.5278 28.0047 12.5199 28.0206 12.5119C28.395 12.3605 28.5517 12.079 28.4349 11.7736C28.0445 10.8043 25.6279 12.3765 24.895 10.5149C24.494 9.52435 25.0888 8.65597 26.1882 8.20717C27.3328 7.74776 28.334 8.00535 28.7881 8.98526L27.4019 9.53762C27.2638 9.22958 26.9026 9.09149 26.5946 9.22958C26.5892 9.23223 26.5839 9.23489 26.5786 9.23754C26.3104 9.29597 26.1378 9.56418 26.1989 9.83239C26.2068 9.86692 26.2175 9.89878 26.2307 9.93065C26.5972 10.8389 29.0297 9.39953 29.7361 11.1416C30.0893 12.0206 29.6963 13.0271 28.4694 13.5316" fill="#E52321"></path><path d="M33.2935 10.8071C34.1778 10.6345 34.6213 9.88299 34.4407 8.9137C34.2601 7.94441 33.5484 7.41861 32.6615 7.58591C31.7745 7.75321 31.3124 8.49412 31.5036 9.47935C31.6948 10.4646 32.3906 10.9771 33.2935 10.8071ZM33.5325 12.0367C31.9976 12.3739 30.4786 11.402 30.1413 9.86706C30.1334 9.83254 30.128 9.79802 30.1201 9.76349C29.8094 8.19138 30.8318 6.66442 32.4039 6.35372C33.976 6.04301 35.503 7.06541 35.8137 8.63752C36.1244 10.2096 35.102 11.7366 33.5325 12.0473" fill="#E52321"></path><path d="M39.5481 5.75627C40.8945 5.77752 41.9009 6.55295 42.2037 7.77718L40.6847 7.75062C40.4802 7.28855 40.0155 6.99644 39.5109 7.00971C38.6638 6.99378 38.0716 7.61253 38.0556 8.60307C38.0397 9.5936 38.6107 10.2363 39.4578 10.2522C39.9624 10.2787 40.4351 10.0026 40.6555 9.54846L42.1718 9.57236C41.8292 10.7886 40.8015 11.5189 39.4525 11.4977C37.7821 11.4711 36.6243 10.2681 36.6508 8.57651C36.6774 6.8849 37.8777 5.71644 39.5481 5.74565" fill="#E52321"></path><path d="M43.6355 6.12105L42.7676 11.697L44.1321 11.9094L45 6.33343L43.6355 6.12105Z" fill="#E52321"></path><path d="M48.5102 8.73565L47.2408 10.5096L48.5686 10.9159L48.5102 8.73565ZM48.6085 12.0339L46.5849 11.4204L45.9688 12.2755L44.5879 11.8586L48.1968 7.052L49.7265 7.51407L50.0398 13.5077L48.6403 13.0855L48.6085 12.0339Z" fill="#E52321"></path><path d="M52.6565 8.57104L56.5496 10.5654L56.045 11.5453L54.7119 10.8602L52.6273 14.8967L51.4004 14.2699L53.485 10.2334L52.1493 9.55096L52.6565 8.57104Z" fill="#E52321"></path><path d="M57.5334 11.2505L58.6779 12.018L55.5071 16.6891L54.3652 15.9217L57.5334 11.2505Z" fill="#E52321"></path><path d="M58.9941 17.969C59.6633 18.5745 60.537 18.5002 61.2062 17.7592C61.8754 17.0183 61.8807 16.1659 61.2062 15.5471C60.5317 14.9284 59.6686 15.016 58.9888 15.7516C58.309 16.4872 58.309 17.345 58.9888 17.969H58.9941ZM58.1417 18.8958C56.9626 17.8177 56.8776 15.988 57.9558 14.8062C59.034 13.6271 60.8637 13.5422 62.0454 14.6203C63.2218 15.6959 63.3095 17.5202 62.2393 18.702C61.2169 19.8837 59.4296 20.0138 58.2452 18.9914C58.2107 18.9596 58.1762 18.9277 58.1417 18.8958Z" fill="#E52321"></path><path d="M68.1835 21.9607L63.5947 25.2669L62.7847 24.1542L64.2639 20.2532L61.433 22.29L60.623 21.1773L65.2119 17.8711L66.0219 18.9838L64.5294 22.8955L67.3736 20.8454L68.1835 21.9607Z" fill="#E52321"></path><path d="M67.1266 30.299C67.4187 31.1541 68.2286 31.4993 69.1661 31.178C70.1035 30.8566 70.5363 30.0918 70.2442 29.2394C69.9521 28.3869 69.1528 28.0311 68.1994 28.3551C67.2461 28.679 66.8292 29.4332 67.1372 30.299H67.1266ZM65.9448 30.7053C65.4217 29.1916 66.2263 27.5398 67.74 27.0193C69.2537 26.4961 70.9055 27.3008 71.426 28.8145C71.9491 30.3282 71.1445 31.9773 69.6308 32.5004C68.1649 33.0475 66.5317 32.3013 65.9873 30.8327C65.974 30.7902 65.9581 30.7477 65.9448 30.7053Z" fill="#E52321"></path><path d="M72.5355 33.0928L73.0825 36.723L71.9884 36.8876L71.6485 34.6144L70.4668 34.7924L70.7244 36.4919L69.6621 36.6513L69.4072 34.949L67.142 35.2889L66.9375 33.9293L72.5355 33.0928Z" fill="#E52321"></path><path d="M72.6492 46.278L67.0273 45.6327L67.184 44.2677L70.9178 42.3849L67.4496 41.9866L67.6063 40.6216L73.2281 41.2669L73.0715 42.6319L69.3244 44.5147L72.8086 44.913L72.6492 46.278Z" fill="#E52321"></path><path d="M70.1875 50.9544L70.7824 48.9601L69.6829 48.6361L69.1571 50.3994L68.1347 50.0966L68.6632 48.3333L67.4708 47.9801L66.876 49.9745L65.8164 49.6611L66.8043 46.3496L72.235 47.9562L71.2471 51.2678L70.1875 50.9544Z" fill="#E52321"></path><path d="M67.4977 53.5462C67.2613 54.0402 67.4074 54.3668 67.8004 54.5553C68.1934 54.7439 68.5413 54.6483 68.7803 54.157L69.1043 53.4825L67.8216 52.8717L67.4977 53.5462ZM66.462 53.1691L66.8311 52.399L64.9961 51.5253L65.5936 50.2852L70.703 52.7203L69.739 54.7306C69.1388 55.9761 68.1323 56.2629 67.1949 55.8168C66.3504 55.4131 65.8379 54.4677 66.462 53.1612" fill="#E52321"></path><path d="M65.8168 58.3898L64.5102 56.6398L63.7136 57.7817L65.8168 58.3898ZM62.6301 57.4657L63.8357 55.7396L63.209 54.8924L64.0349 53.7107L67.5111 58.6103L66.5975 59.9168L60.7871 58.3606L61.6236 57.1656L62.6301 57.4657Z" fill="#E52321"></path><path d="M63.5693 63.4992L60.2657 60.3099L59.007 61.6031L58.2422 60.8649L60.4623 58.5837L64.5306 62.5114L63.5693 63.4992Z" fill="#E52321"></path><path d="M39 2.17643C18.1563 2.17643 1.17643 19.0766 1.17643 39.8486C1.17643 60.6207 18.1563 77.5182 39 77.5182C59.8437 77.5182 76.8236 60.618 76.8236 39.8486C76.8236 19.0793 59.849 2.17643 39 2.17643ZM39 78.6893C17.4897 78.6893 0 61.266 0 39.8486C0 18.4313 17.495 1 39 1C60.505 1 78 18.4313 78 39.8486C78 61.266 60.505 78.6893 39 78.6893Z" fill="#283583"></path><path d="M28.7792 71.4769C30.2318 70.7971 31.7615 70.1491 32.0058 69.1984C32.1093 68.7895 32.0058 68.4814 31.5888 68.3779C31.1719 68.2743 30.8825 68.5266 30.747 69.0577L29.4697 68.7311C29.8601 67.3767 30.901 67.0182 31.9288 67.2811C33.2141 67.6104 33.5938 68.5053 33.3495 69.4507C33.0308 70.6856 31.6712 71.3867 30.5957 71.8408L32.6856 72.3719L32.42 73.4341L28.5137 72.4542L28.7792 71.4769Z" fill="#E52321"></path><path d="M36.1921 69.3151C35.3954 69.2407 35.2201 70.0082 35.1298 70.8951C35.0395 71.7821 35.0687 72.5814 35.8707 72.6584C36.6727 72.7355 36.84 71.9813 36.933 71.0651C37.0259 70.1489 36.9941 69.3921 36.1894 69.3177L36.1921 69.3151ZM36.3089 68.051C37.9633 68.205 38.4334 69.493 38.2687 71.1899C38.1041 72.8868 37.411 74.0792 35.7565 73.9278C34.1021 73.7764 33.6321 72.4832 33.7994 70.773C33.9667 69.0628 34.6545 67.897 36.3089 68.051Z" fill="#E52321"></path><path d="M43.0001 68.0723L43.0877 69.262L40.6047 69.4426L40.6844 70.5367C40.9526 70.2445 41.3271 70.0746 41.7227 70.0613C42.9895 69.971 43.5445 70.8925 43.6135 71.8299C43.7038 73.0515 43.0479 73.896 41.7546 73.9916C40.4613 74.0872 39.6301 73.4206 39.516 72.4248L40.8437 72.3265C40.9234 72.6797 41.2607 72.9107 41.6192 72.8576C42.137 72.8205 42.3309 72.4301 42.2937 71.9308C42.2565 71.4316 41.9724 71.1501 41.497 71.1846C41.1837 71.182 40.9128 71.405 40.857 71.7157L39.5292 71.814L39.2637 68.3617L43.0001 68.0723Z" fill="#E52321"></path><path d="M46.1636 68.5847C45.3828 68.7786 45.4758 69.5567 45.6909 70.4224C45.906 71.2881 46.1901 72.0343 46.9735 71.8405C47.7569 71.6466 47.664 70.8844 47.4435 69.9815C47.2231 69.0786 46.947 68.3882 46.1636 68.5767V68.5847ZM45.8582 67.3419C47.4701 66.9462 48.3332 68.0084 48.7448 69.6602C49.1564 71.312 48.8908 72.6717 47.2789 73.0673C45.667 73.463 44.8039 72.4008 44.3896 70.7331C43.9753 69.0654 44.2462 67.7402 45.8582 67.3419Z" fill="#E52321"></path><path fill-rule="evenodd" clip-rule="evenodd" d="M92.7398 47.0752L92.0684 52.5C94.36 52.4642 95.9714 52.4463 96.9024 52.4463C97.5827 52.4463 99.1582 52.4642 101.628 52.5L101.709 49.0625L102.595 33.8086L103.267 26.3696C103.464 27.4976 103.607 28.2853 103.696 28.7329C103.786 29.1805 103.866 29.5565 103.938 29.8608L105.872 37.7295L109.175 52.5C111.466 52.4642 113.167 52.4463 114.277 52.4463C115.155 52.4463 116.757 52.4642 119.084 52.5L124.133 37.2461L127.651 26.3159C127.687 27.6229 127.705 28.6434 127.705 29.3774C127.705 31.0604 127.598 34.9365 127.383 41.0059C127.168 47.0573 126.989 50.8887 126.846 52.5C128.851 52.4642 130.543 52.4463 131.921 52.4463C132.87 52.4463 134.526 52.4642 136.89 52.5C136.854 50.7633 136.836 49.5638 136.836 48.9014C136.836 45.7145 136.952 39.8779 137.185 31.3916C137.292 27.0589 137.516 21.8758 137.856 15.8423C134.741 15.8781 132.306 15.896 130.552 15.896C127.974 15.896 125.342 15.8781 122.656 15.8423C122.209 17.4894 121.851 18.7158 121.582 19.5215C121.331 20.3092 120.723 21.9922 119.756 24.5703C118.789 27.1484 117.983 29.4491 117.339 31.4722C116.694 33.4953 115.978 35.9123 115.19 38.7231C114.421 34.6232 113.839 31.7318 113.445 30.0488C113.069 28.348 112.559 26.3428 111.914 24.0332C111.287 21.7057 110.894 20.1481 110.732 19.3604C110.571 18.5547 110.374 17.382 110.142 15.8423C106.937 15.8781 104.556 15.896 102.998 15.896C101.118 15.896 98.5316 15.8781 95.2373 15.8423L94.4048 28.2495L92.7398 47.0752ZM167.962 52.4463C169.323 52.4463 171.024 52.4642 173.065 52.5C173.19 46.9678 173.369 42.1517 173.602 38.0518C173.835 33.9518 174.157 29.6281 174.569 25.0806C172.886 25.1164 171.212 25.1343 169.547 25.1343C168.061 25.1343 166.163 25.1164 163.854 25.0806L163.639 30.6934C163.513 33.2894 163.415 35.1156 163.343 36.1719C163.236 37.6221 163.084 38.8216 162.887 39.7705C162.744 40.4508 162.529 41.0864 162.242 41.6772C162.009 42.1606 161.741 42.5724 161.437 42.9126C161.15 43.2349 160.837 43.5034 160.497 43.7183C160.103 43.951 159.691 44.13 159.261 44.2554C158.832 44.3807 158.402 44.4434 157.972 44.4434C156.916 44.4434 156.003 44.1121 155.233 43.4497C154.481 42.7873 154.105 41.5161 154.105 39.6362V38.5083C154.123 37.9354 154.195 36.8701 154.32 35.3125L155.152 25.0806C153.255 25.1164 151.518 25.1343 149.942 25.1343C148.385 25.1343 146.496 25.1164 144.276 25.0806C144.276 26.5666 144.24 28.1421 144.168 29.8071C144.061 32.5285 143.945 35.0081 143.819 37.2461L143.39 43.3423C143.336 44.0226 143.309 44.5239 143.309 44.8462C143.309 46.1711 143.479 47.3348 143.819 48.3374C144.177 49.34 144.831 50.2352 145.78 51.0229C146.747 51.8107 147.857 52.3657 149.11 52.688C150.381 53.0282 151.724 53.1982 153.138 53.1982C154.015 53.1982 154.875 53.1356 155.716 53.0103C156.576 52.8849 157.328 52.7148 157.972 52.5C158.635 52.2673 159.225 51.9987 159.745 51.6943C160.282 51.39 160.774 51.0409 161.222 50.647C161.669 50.2352 162.215 49.6265 162.86 48.8208L162.887 52.5C164.588 52.4642 166.279 52.4463 167.962 52.4463ZM174.676 52.5L176.905 48.6328L190.79 22.4756L192.267 19.5483C192.696 18.689 193.296 17.4536 194.066 15.8423C197.217 15.8781 199.518 15.896 200.968 15.896C203.492 15.896 205.829 15.8781 207.977 15.8423L211.898 27.041L219.874 48.5791L221.432 52.5C218.334 52.4642 216.454 52.4463 215.792 52.4463C214.288 52.4463 212.077 52.4642 209.159 52.5C208.371 49.5459 207.234 46.0726 205.748 42.0801H192.213C190.655 45.2311 189.044 48.7044 187.379 52.5C184.049 52.4642 182.008 52.4463 181.256 52.4463C179.895 52.4463 177.702 52.4642 174.676 52.5ZM195.462 34.2651H203.814C201.738 27.9451 200.601 24.4629 200.404 23.8184C199.222 26.4502 198.22 28.6076 197.396 30.2905L195.462 34.2651ZM224.842 46.8604L224.305 52.5C227.009 52.4642 228.853 52.4463 229.837 52.4463C231.001 52.4463 232.693 52.4642 234.913 52.5L235.182 41.7847L235.746 29.0552C236.623 30.7918 237.473 32.3853 238.297 33.8354C239.55 36.1271 240.92 38.5262 242.406 41.0327L246.918 48.6865C247.365 49.4743 248.054 50.7454 248.985 52.5C251.957 52.4642 254.285 52.4463 255.968 52.4463C257.991 52.4463 260.166 52.4642 262.494 52.5L262.655 46.0815L263.863 23.8452L264.508 15.8423C261.607 15.8781 259.853 15.896 259.244 15.896C257.919 15.896 256.156 15.8781 253.954 15.8423C253.954 17.9191 253.846 21.6699 253.631 27.0947C253.434 32.5195 253.237 36.7358 253.041 39.7437L251.456 36.6821L239.962 15.8423C237.205 15.8781 235.065 15.896 233.543 15.896C231.413 15.896 228.96 15.8781 226.185 15.8423V20.0317L225.89 27.7393L224.842 46.8604Z" fill="#002480"></path><path fill-rule="evenodd" clip-rule="evenodd" d="M227.953 66.532H227.053V65.188H227.953V64.468C227.953 63.972 228.085 63.56 228.349 63.232C228.613 62.896 229.049 62.728 229.657 62.728C229.825 62.728 230.009 62.748 230.209 62.788C230.409 62.828 230.577 62.872 230.713 62.92V64.072H230.113C229.769 64.072 229.597 64.244 229.597 64.588V65.188H230.713V66.532H229.597V71.5H227.953V66.532ZM115.52 62.824H117.164V64.312H115.52V62.824ZM115.52 65.188H117.164V71.5H115.52V65.188ZM90.8047 63.2681H93.5167L94.6687 67.8041C94.7327 68.0281 94.8047 68.3601 94.8847 68.8001C94.9727 69.2321 95.0287 69.5201 95.0527 69.6641H95.1127C95.1367 69.5121 95.1847 69.2161 95.2567 68.7761C95.3367 68.3281 95.4007 68.0041 95.4487 67.8041L96.6007 63.2681H99.1927V71.5001H97.4527V66.2561C97.4527 66.1041 97.4607 65.8721 97.4767 65.5601L97.5247 64.9361H97.4647L97.2127 65.9081L95.7967 71.5001H94.1407L92.7247 65.9081L92.4727 64.9361H92.4127C92.4207 65.0401 92.4327 65.2521 92.4487 65.5721C92.4727 65.8921 92.4847 66.1201 92.4847 66.2561V71.5001H90.8047V63.2681ZM102.901 71.644C102.253 71.644 101.741 71.468 101.365 71.116C100.997 70.764 100.812 70.2 100.812 69.424V65.188H102.457V69.076C102.457 69.468 102.549 69.752 102.733 69.928C102.917 70.104 103.188 70.192 103.549 70.192C103.916 70.192 104.221 70.064 104.461 69.808C104.709 69.544 104.833 69.22 104.833 68.836V65.188H106.477V71.5H105.073L104.953 70.672H104.868C104.356 71.32 103.701 71.644 102.901 71.644ZM109.588 65.188H108.184V71.4999H109.828V67.8519C109.828 67.4679 109.948 67.1479 110.188 66.8919C110.436 66.6279 110.744 66.4959 111.112 66.4959C111.472 66.4959 111.744 66.5839 111.928 66.7599C112.112 66.936 112.204 67.2199 112.204 67.6119V71.4999H113.848V67.2639C113.848 66.4879 113.66 65.9239 113.284 65.5719C112.916 65.2199 112.408 65.0439 111.76 65.0439C110.96 65.0439 110.304 65.3679 109.792 66.0159H109.708L109.588 65.188ZM119.209 70.8399C119.713 71.3759 120.469 71.6439 121.477 71.6439C122.325 71.6439 122.997 71.432 123.493 71.0079C123.989 70.576 124.237 69.9479 124.237 69.1239H122.653C122.653 69.4999 122.549 69.7959 122.341 70.0119C122.141 70.2199 121.869 70.3239 121.525 70.3239C121.037 70.3239 120.681 70.1679 120.457 69.8559C120.241 69.5359 120.133 69.0639 120.133 68.4399V68.2479C120.133 67.6239 120.237 67.1559 120.445 66.8439C120.661 66.5239 120.993 66.3639 121.441 66.3639C121.801 66.3639 122.081 66.4679 122.281 66.6759C122.481 66.8839 122.581 67.1799 122.581 67.5639H124.237C124.237 66.74 123.985 66.116 123.481 65.6919C122.985 65.2599 122.317 65.0439 121.477 65.0439C120.469 65.0439 119.713 65.3159 119.209 65.8599C118.713 66.396 118.465 67.2239 118.465 68.3439C118.465 69.4719 118.713 70.3039 119.209 70.8399ZM125.527 62.824H127.171V64.312H125.527V62.824ZM125.527 65.188H127.171V71.5H125.527V65.188ZM130.271 65.188H128.867V73.5759H130.511V70.7679H130.583C130.767 71.0479 131.019 71.2639 131.339 71.4159C131.667 71.5679 132.043 71.6439 132.467 71.6439C133.203 71.6439 133.791 71.368 134.231 70.8159C134.679 70.2639 134.903 69.4439 134.903 68.3559C134.903 67.2439 134.683 66.4159 134.243 65.8719C133.803 65.3199 133.183 65.0439 132.383 65.0439C131.975 65.0439 131.603 65.1279 131.267 65.2959C130.931 65.4559 130.663 65.6959 130.463 66.0159H130.379L130.271 65.188ZM132.899 69.7839C132.691 70.0719 132.343 70.216 131.855 70.216C130.959 70.216 130.511 69.6199 130.511 68.4279V68.2359C130.511 67.0599 130.959 66.4719 131.855 66.4719C132.343 66.4719 132.691 66.6199 132.899 66.9159C133.107 67.2039 133.211 67.6439 133.211 68.2359V68.452C133.211 69.044 133.107 69.4879 132.899 69.7839ZM137.655 71.6439C137.167 71.6439 136.719 71.5159 136.311 71.2599C135.903 71.004 135.699 70.5399 135.699 69.8679C135.699 69.0599 136.031 68.4879 136.695 68.1519C137.359 67.8079 138.299 67.6359 139.515 67.6359V67.1919C139.515 66.9119 139.451 66.6959 139.323 66.5439C139.203 66.3919 138.971 66.3159 138.627 66.3159C138.259 66.3159 137.995 66.3719 137.835 66.4839C137.683 66.5959 137.607 66.7279 137.607 66.8799V67.0599H136.023C136.015 67.0119 136.011 66.9239 136.011 66.7959C136.011 66.2679 136.243 65.8439 136.707 65.5239C137.179 65.2039 137.803 65.0439 138.579 65.0439C139.443 65.0439 140.087 65.2199 140.511 65.5719C140.943 65.9239 141.159 66.4319 141.159 67.0959V69.8799C141.159 70.0239 141.199 70.132 141.279 70.2039C141.359 70.268 141.459 70.2999 141.579 70.2999H141.915V71.452C141.659 71.5799 141.343 71.6439 140.967 71.6439C140.639 71.6439 140.363 71.5719 140.139 71.4279C139.923 71.284 139.775 71.0799 139.695 70.8159H139.623C139.391 71.088 139.123 71.296 138.819 71.4399C138.523 71.576 138.135 71.6439 137.655 71.6439ZM138.171 70.3479C138.635 70.3479 138.975 70.2199 139.191 69.9639C139.407 69.6999 139.515 69.3519 139.515 68.9199V68.7279C138.083 68.7279 137.367 69.048 137.367 69.688C137.367 69.8879 137.431 70.0479 137.559 70.1679C137.695 70.2879 137.899 70.3479 138.171 70.3479ZM144.515 62.824H142.871V71.5H144.515V62.824ZM151.493 63.2681H153.677L156.893 71.5001H154.997L154.409 69.9281H150.665L150.077 71.5001H148.277L151.493 63.2681ZM153.857 68.4761L153.077 66.3881C153.013 66.2201 152.921 65.9401 152.801 65.5481C152.681 65.1561 152.601 64.8961 152.561 64.7681H152.501C152.461 64.8961 152.381 65.1561 152.261 65.5481C152.141 65.9401 152.049 66.2201 151.985 66.3881L151.205 68.4761H153.857ZM158.211 71.1039C158.715 71.4639 159.407 71.6439 160.287 71.6439C162.215 71.6439 163.179 70.9639 163.179 69.6039C163.179 69.1399 163.055 68.7719 162.807 68.4999C162.559 68.2279 162.267 68.032 161.931 67.9119C161.595 67.7919 161.159 67.672 160.623 67.5519C160.135 67.4559 159.779 67.3599 159.555 67.2639C159.339 67.1679 159.231 67.0199 159.231 66.8199C159.231 66.6599 159.327 66.5359 159.519 66.4479C159.711 66.3599 159.971 66.3159 160.299 66.3159C160.627 66.3159 160.887 66.3759 161.079 66.4959C161.271 66.6079 161.371 66.7799 161.379 67.0119V67.0359H162.975L162.987 66.7599C162.987 66.2319 162.739 65.8159 162.243 65.5119C161.747 65.2 161.119 65.0439 160.359 65.0439C159.543 65.0439 158.875 65.2119 158.355 65.5479C157.843 65.8759 157.587 66.3479 157.587 66.9639C157.587 67.4039 157.707 67.7559 157.947 68.0199C158.187 68.2839 158.471 68.4799 158.799 68.6079C159.127 68.728 159.551 68.8479 160.071 68.9679C160.575 69.0799 160.943 69.1919 161.175 69.3039C161.415 69.4159 161.535 69.5839 161.535 69.8079C161.535 70.0079 161.419 70.1519 161.187 70.2399C160.955 70.3279 160.675 70.3719 160.347 70.3719C159.995 70.3719 159.695 70.312 159.447 70.1919C159.207 70.0639 159.083 69.8599 159.075 69.5799V69.4959H157.479L157.467 69.6399C157.467 70.2479 157.715 70.7359 158.211 71.1039ZM166.955 71.6439C166.075 71.6439 165.383 71.4639 164.879 71.1039C164.383 70.7359 164.135 70.2479 164.135 69.6399L164.147 69.4959H165.743V69.5799C165.751 69.8599 165.875 70.0639 166.115 70.1919C166.363 70.312 166.663 70.3719 167.015 70.3719C167.343 70.3719 167.623 70.3279 167.855 70.2399C168.087 70.1519 168.203 70.0079 168.203 69.8079C168.203 69.5839 168.083 69.4159 167.843 69.3039C167.611 69.1919 167.243 69.0799 166.739 68.9679C166.219 68.8479 165.795 68.728 165.467 68.6079C165.139 68.4799 164.855 68.2839 164.615 68.0199C164.375 67.7559 164.255 67.4039 164.255 66.9639C164.255 66.3479 164.511 65.8759 165.023 65.5479C165.543 65.2119 166.211 65.0439 167.027 65.0439C167.787 65.0439 168.415 65.2 168.911 65.5119C169.407 65.8159 169.655 66.2319 169.655 66.7599L169.643 67.0359H168.047V67.0119C168.039 66.7799 167.939 66.6079 167.747 66.4959C167.555 66.3759 167.295 66.3159 166.967 66.3159C166.639 66.3159 166.379 66.3599 166.187 66.4479C165.995 66.5359 165.899 66.6599 165.899 66.8199C165.899 67.0199 166.007 67.1679 166.223 67.2639C166.447 67.3599 166.803 67.4559 167.291 67.5519C167.827 67.672 168.263 67.7919 168.599 67.9119C168.935 68.032 169.227 68.2279 169.475 68.4999C169.723 68.7719 169.847 69.1399 169.847 69.6039C169.847 70.9639 168.883 71.6439 166.955 71.6439ZM171.497 70.8399C172.025 71.3759 172.829 71.6439 173.909 71.6439C174.989 71.6439 175.793 71.3759 176.321 70.8399C176.857 70.3039 177.125 69.4719 177.125 68.3439C177.125 67.216 176.857 66.3839 176.321 65.8479C175.793 65.3119 174.989 65.0439 173.909 65.0439C172.829 65.0439 172.025 65.3119 171.497 65.8479C170.969 66.3839 170.705 67.216 170.705 68.3439C170.705 69.4719 170.969 70.3039 171.497 70.8399ZM175.073 69.8439C174.833 70.1479 174.445 70.2999 173.909 70.2999C173.373 70.2999 172.985 70.1479 172.745 69.8439C172.513 69.532 172.397 69.0639 172.397 68.4399V68.2479C172.397 67.6239 172.513 67.16 172.745 66.8559C172.985 66.544 173.373 66.3879 173.909 66.3879C174.445 66.3879 174.833 66.544 175.073 66.8559C175.313 67.16 175.433 67.6239 175.433 68.2479V68.4399C175.433 69.0639 175.313 69.532 175.073 69.8439ZM181.055 71.6439C180.047 71.6439 179.291 71.3759 178.787 70.8399C178.291 70.3039 178.043 69.4719 178.043 68.3439C178.043 67.2239 178.291 66.396 178.787 65.8599C179.291 65.3159 180.047 65.0439 181.055 65.0439C181.895 65.0439 182.563 65.2599 183.059 65.6919C183.563 66.116 183.815 66.74 183.815 67.5639H182.159C182.159 67.1799 182.059 66.8839 181.859 66.6759C181.659 66.4679 181.379 66.3639 181.019 66.3639C180.571 66.3639 180.239 66.5239 180.023 66.8439C179.815 67.1559 179.711 67.6239 179.711 68.2479V68.4399C179.711 69.0639 179.819 69.5359 180.035 69.8559C180.259 70.1679 180.615 70.3239 181.103 70.3239C181.447 70.3239 181.719 70.2199 181.919 70.0119C182.127 69.7959 182.231 69.4999 182.231 69.1239H183.815C183.815 69.9479 183.567 70.576 183.071 71.0079C182.575 71.432 181.903 71.6439 181.055 71.6439ZM186.749 62.824H185.105V64.312H186.749V62.824ZM186.749 65.188H185.105V71.5H186.749V65.188ZM189.897 71.6439C189.409 71.6439 188.961 71.5159 188.553 71.2599C188.145 71.004 187.941 70.5399 187.941 69.8679C187.941 69.0599 188.273 68.4879 188.937 68.1519C189.601 67.8079 190.541 67.6359 191.757 67.6359V67.1919C191.757 66.9119 191.693 66.6959 191.565 66.5439C191.445 66.3919 191.213 66.3159 190.869 66.3159C190.501 66.3159 190.237 66.3719 190.077 66.4839C189.925 66.5959 189.849 66.7279 189.849 66.8799V67.0599H188.265C188.257 67.0119 188.253 66.9239 188.253 66.7959C188.253 66.2679 188.485 65.8439 188.949 65.5239C189.421 65.2039 190.045 65.0439 190.821 65.0439C191.685 65.0439 192.329 65.2199 192.753 65.5719C193.185 65.9239 193.401 66.4319 193.401 67.0959V69.8799C193.401 70.0239 193.441 70.132 193.521 70.2039C193.601 70.268 193.701 70.2999 193.821 70.2999H194.157V71.452C193.901 71.5799 193.585 71.6439 193.209 71.6439C192.881 71.6439 192.605 71.5719 192.381 71.4279C192.165 71.284 192.017 71.0799 191.937 70.8159H191.865C191.633 71.088 191.365 71.296 191.061 71.4399C190.765 71.576 190.377 71.6439 189.897 71.6439ZM190.413 70.3479C190.877 70.3479 191.217 70.2199 191.433 69.9639C191.649 69.6999 191.757 69.3519 191.757 68.9199V68.7279C190.325 68.7279 189.609 69.048 189.609 69.688C189.609 69.8879 189.673 70.0479 189.801 70.1679C189.937 70.2879 190.141 70.3479 190.413 70.3479ZM195.535 71.1641C195.791 71.4841 196.215 71.6441 196.807 71.6441C196.983 71.6441 197.171 71.6241 197.371 71.5841C197.579 71.5441 197.751 71.5001 197.887 71.4521V70.3001H197.311C196.967 70.3001 196.795 70.1281 196.795 69.7841V66.5321H197.887V65.1881H196.795V63.4121H195.463L195.187 65.1881H194.395V66.5321H195.151V69.9521C195.151 70.4401 195.279 70.8441 195.535 71.1641ZM199.109 62.824H200.753V64.312H199.109V62.824ZM199.109 65.188H200.753V71.5H199.109V65.188ZM202.847 70.8399C203.375 71.3759 204.179 71.6439 205.259 71.6439C206.339 71.6439 207.143 71.3759 207.671 70.8399C208.207 70.3039 208.475 69.4719 208.475 68.3439C208.475 67.216 208.207 66.3839 207.671 65.8479C207.143 65.3119 206.339 65.0439 205.259 65.0439C204.179 65.0439 203.375 65.3119 202.847 65.8479C202.319 66.3839 202.055 67.216 202.055 68.3439C202.055 69.4719 202.319 70.3039 202.847 70.8399ZM206.423 69.8439C206.183 70.1479 205.795 70.2999 205.259 70.2999C204.723 70.2999 204.335 70.1479 204.095 69.8439C203.863 69.532 203.747 69.0639 203.747 68.4399V68.2479C203.747 67.6239 203.863 67.16 204.095 66.8559C204.335 66.544 204.723 66.3879 205.259 66.3879C205.795 66.3879 206.183 66.544 206.423 66.8559C206.663 67.16 206.783 67.6239 206.783 68.2479V68.4399C206.783 69.0639 206.663 69.532 206.423 69.8439ZM209.785 65.188H211.189L211.309 66.0159H211.393C211.905 65.3679 212.561 65.0439 213.361 65.0439C214.009 65.0439 214.517 65.2199 214.885 65.5719C215.261 65.9239 215.449 66.4879 215.449 67.2639V71.4999H213.805V67.6119C213.805 67.2199 213.713 66.936 213.529 66.7599C213.345 66.5839 213.073 66.4959 212.713 66.4959C212.345 66.4959 212.037 66.6279 211.789 66.8919C211.549 67.1479 211.429 67.4679 211.429 67.8519V71.4999H209.785V65.188ZM220.856 70.8399C221.384 71.3759 222.188 71.6439 223.268 71.6439C224.348 71.6439 225.152 71.3759 225.68 70.8399C226.216 70.3039 226.484 69.4719 226.484 68.3439C226.484 67.216 226.216 66.3839 225.68 65.8479C225.152 65.3119 224.348 65.0439 223.268 65.0439C222.188 65.0439 221.384 65.3119 220.856 65.8479C220.328 66.3839 220.064 67.216 220.064 68.3439C220.064 69.4719 220.328 70.3039 220.856 70.8399ZM224.432 69.8439C224.192 70.1479 223.804 70.2999 223.268 70.2999C222.732 70.2999 222.344 70.1479 222.104 69.8439C221.872 69.532 221.756 69.0639 221.756 68.4399V68.2479C221.756 67.6239 221.872 67.16 222.104 66.8559C222.344 66.544 222.732 66.3879 223.268 66.3879C223.804 66.3879 224.192 66.544 224.432 66.8559C224.672 67.16 224.792 67.6239 224.792 68.2479V68.4399C224.792 69.0639 224.672 69.532 224.432 69.8439ZM236.778 63.2681H235.086V71.5001H236.778V66.9521C236.778 66.8161 236.77 66.6761 236.754 66.5321C236.746 66.3881 236.742 66.2881 236.742 66.2321L236.802 66.1961C236.826 66.2441 236.886 66.3561 236.982 66.5321C237.078 66.7001 237.174 66.8521 237.27 66.9881L240.45 71.5001H242.142V63.2681H240.45V67.8161C240.45 67.9281 240.454 68.0561 240.462 68.2001C240.478 68.3441 240.486 68.4481 240.486 68.5121L240.426 68.5481C240.394 68.4841 240.322 68.3561 240.21 68.1641C240.098 67.9721 240.01 67.8321 239.946 67.7441L236.778 63.2681ZM244.117 70.8399C243.621 70.3039 243.373 69.4719 243.373 68.3439C243.373 67.216 243.621 66.3839 244.117 65.8479C244.621 65.3119 245.381 65.0439 246.397 65.0439C247.333 65.0439 248.033 65.3159 248.497 65.8599C248.961 66.396 249.193 67.2239 249.193 68.3439V68.7279H245.041C245.057 69.2879 245.169 69.7039 245.377 69.9759C245.585 70.2399 245.933 70.3719 246.421 70.3719C246.765 70.3719 247.041 70.2759 247.249 70.0839C247.465 69.8919 247.573 69.6199 247.573 69.2679H249.193C249.193 70.0599 248.937 70.6559 248.425 71.0559C247.913 71.4479 247.237 71.6439 246.397 71.6439C245.381 71.6439 244.621 71.3759 244.117 70.8399ZM247.489 67.6359C247.489 66.7639 247.125 66.3279 246.397 66.3279C245.981 66.3279 245.665 66.4359 245.449 66.6519C245.241 66.868 245.113 67.1959 245.065 67.6359H247.489ZM251.865 65.188H250.461V73.5759H252.105V70.7679H252.177C252.361 71.0479 252.613 71.2639 252.933 71.4159C253.261 71.5679 253.637 71.6439 254.061 71.6439C254.797 71.6439 255.385 71.368 255.825 70.8159C256.273 70.2639 256.497 69.4439 256.497 68.3559C256.497 67.2439 256.277 66.4159 255.837 65.8719C255.397 65.3199 254.777 65.0439 253.977 65.0439C253.569 65.0439 253.197 65.1279 252.861 65.2959C252.525 65.4559 252.257 65.6959 252.057 66.0159H251.973L251.865 65.188ZM254.493 69.7839C254.285 70.0719 253.937 70.216 253.449 70.216C252.553 70.216 252.105 69.6199 252.105 68.4279V68.2359C252.105 67.0599 252.553 66.4719 253.449 66.4719C253.937 66.4719 254.285 66.6199 254.493 66.9159C254.701 67.2039 254.805 67.6439 254.805 68.2359V68.452C254.805 69.044 254.701 69.4879 254.493 69.7839ZM259.249 71.6439C258.761 71.6439 258.313 71.5159 257.905 71.2599C257.497 71.004 257.293 70.5399 257.293 69.8679C257.293 69.0599 257.625 68.4879 258.289 68.1519C258.953 67.8079 259.893 67.6359 261.109 67.6359V67.1919C261.109 66.9119 261.045 66.6959 260.917 66.5439C260.797 66.3919 260.565 66.3159 260.221 66.3159C259.853 66.3159 259.589 66.3719 259.429 66.4839C259.277 66.5959 259.201 66.7279 259.201 66.8799V67.0599H257.617C257.609 67.0119 257.605 66.9239 257.605 66.7959C257.605 66.2679 257.837 65.8439 258.301 65.5239C258.773 65.2039 259.397 65.0439 260.173 65.0439C261.037 65.0439 261.681 65.2199 262.105 65.5719C262.537 65.9239 262.753 66.4319 262.753 67.0959V69.8799C262.753 70.0239 262.793 70.132 262.873 70.2039C262.953 70.268 263.053 70.2999 263.173 70.2999H263.509V71.452C263.253 71.5799 262.937 71.6439 262.561 71.6439C262.233 71.6439 261.957 71.5719 261.733 71.4279C261.517 71.284 261.369 71.0799 261.289 70.8159H261.217C260.985 71.088 260.717 71.296 260.413 71.4399C260.117 71.576 259.729 71.6439 259.249 71.6439ZM259.765 70.3479C260.229 70.3479 260.569 70.2199 260.785 69.9639C261.001 69.6999 261.109 69.3519 261.109 68.9199V68.7279C259.677 68.7279 258.961 69.048 258.961 69.688C258.961 69.8879 259.025 70.0479 259.153 70.1679C259.289 70.2879 259.493 70.3479 259.765 70.3479ZM266.109 62.824H264.465V71.5H266.109V62.824Z" fill="#EC2824"></path></svg>