<?xml version="1.0" encoding="UTF-8"?> <svg xmlns="http://www.w3.org/2000/svg" width="198" height="48" viewBox="0 0 198 48" fill="none"><path d="M198 40.1847H158.54L158.481 40.1429V39.8091L158.54 39.7674H197.585V0.417287H0.414623V39.7674H39.4602L39.5194 39.827V40.1251L39.4602 40.1847H0V0H198V40.1847Z" fill="white"></path><path d="M28.2003 19.9343C28.2003 23.666 25.7007 26.6705 21.7321 26.6705C17.9532 26.6705 15.264 23.9998 15.264 19.9343C15.264 16.0177 17.7458 12.9716 21.6611 12.9716C25.4341 12.9716 28.2003 15.4872 28.2003 19.9343ZM25.3394 20.2562C25.3394 15.8449 24.3265 13.7048 21.5426 13.7048C19.1378 13.7048 18.119 15.976 18.119 19.4395C18.119 23.6958 19.434 25.9492 21.8625 25.9492C24.362 25.9551 25.3394 23.8329 25.3394 20.2562Z" fill="white"></path><path d="M30.8658 19.8391C30.8658 18.9509 30.7888 18.0567 30.6585 17.699L29.4739 17.6036L29.3969 17.5261V17.0731L29.4739 16.9777C30.1313 17.0313 31.0731 17.0313 31.5647 17.0313C31.9201 17.0313 32.4473 17.0313 32.9567 16.9777L33.1048 17.0731C33.1995 17.2817 33.2528 17.4725 33.2943 17.6394C33.8748 17.2638 34.6685 16.8048 35.8709 16.8048C38.2579 16.8048 40.177 18.2057 40.177 21.6871C40.177 24.6796 38.3705 26.5693 35.8294 26.5693C34.7218 26.5693 33.9873 26.2474 33.5135 25.9434V30.5812L34.9824 30.6766L35.0357 30.7541V31.2071L34.9824 31.3025C34.3249 31.2489 32.5954 31.2489 32.1037 31.2489C31.5588 31.2489 30.2972 31.3025 29.6397 31.3025L29.5627 31.2071V30.7541L29.6397 30.6766L30.8599 30.5812V19.8391H30.8658ZM33.5194 25.234C33.8985 25.5201 34.5322 25.8182 35.3082 25.8182C36.6231 25.8182 37.4168 24.7988 37.4168 21.6751C37.4168 18.5157 36.4928 17.6453 35.3496 17.6453C34.6152 17.6453 33.9399 17.9672 33.4128 18.3249C33.472 18.6468 33.5253 19.2549 33.5253 20.1014V25.234H33.5194Z" fill="white"></path><path d="M50.3352 25.0429V25.1383C49.5652 25.8596 48.5879 26.5749 46.7458 26.5749C43.6065 26.5749 42.0605 24.4945 42.0605 21.7106C42.0605 18.9267 43.6776 16.8462 46.7221 16.8462C49.2809 16.8462 50.5781 18.6286 50.5781 20.876C50.5781 20.9535 50.5781 21.1621 50.5248 21.2515L50.353 21.4006H44.8267V21.6092C44.8267 24.2798 45.6145 25.6629 47.344 25.6629C48.5464 25.6629 49.2809 25.1502 49.9028 24.566L49.9976 24.5839L50.3352 25.0429ZM48.1733 20.727C48.12 18.8134 47.8179 17.49 46.6095 17.49C45.3657 17.49 44.8622 19.0042 44.8622 20.7091L48.1733 20.727Z" fill="white"></path><path d="M51.9522 16.9836C52.592 17.0372 53.7944 17.0372 54.0609 17.0372C54.5111 17.0372 55.3758 16.9836 55.5654 16.9836L55.6602 17.0789L55.8852 18.0625H55.903C56.8093 17.4008 57.7273 16.8524 59.1371 16.8524C60.7185 16.8524 62.0868 17.4783 62.0868 19.7675V25.7287L63.307 25.8241L63.384 25.9016V26.3546L63.307 26.45C62.6495 26.3904 61.2161 26.3904 60.7304 26.3904C60.1855 26.3904 59.0364 26.3904 58.3789 26.45L58.3019 26.3546V25.8956L58.3789 25.8181L59.4332 25.7227V19.69C59.4332 18.462 59.0601 17.8718 58.059 17.8718C57.289 17.8718 56.6493 18.2295 55.9504 18.7779V25.7227L57.0047 25.8181L57.058 25.8956V26.3487L57.0047 26.444C56.365 26.3844 55.1271 26.3844 54.6354 26.3844C54.0905 26.3844 52.7933 26.3844 52.0944 26.444L52.0174 26.3487V25.8956L52.0944 25.8181L53.2968 25.7227V20.0655C53.2968 19.1773 53.2613 18.2116 53.054 17.6989L51.9522 17.6095L51.8752 17.532V17.0789L51.9522 16.9836Z" fill="white"></path><path d="M68.9755 25.824L68.8985 25.675L68.6734 22.742L68.786 22.6467H69.6685L69.781 22.742L70.2904 25.3173L70.3674 25.4127C70.7228 25.6213 71.7594 25.9611 72.7722 25.9611C74.561 25.9611 75.6095 25.055 75.6095 23.5945C75.6095 22.0207 74.407 21.5677 72.6597 21.061C70.6458 20.4529 68.6556 19.6243 68.6556 16.8762C68.6556 14.3784 70.7821 12.9775 73.0921 12.9775C74.4485 12.9775 75.5561 13.2219 76.7052 13.7525L76.7822 13.9015L77.0073 16.7212L76.8948 16.8166H76.0655L75.953 16.7212L75.4436 14.2592L75.3666 14.1638C74.9697 13.9552 74.182 13.7108 73.2757 13.7108C71.9193 13.7108 70.6044 14.295 70.6044 15.9999C70.6044 17.4008 71.9015 18.0267 73.5186 18.5334C75.568 19.1951 77.5226 19.8747 77.5226 22.7003C77.5226 25.1206 75.7161 26.6765 72.8374 26.6765C71.3625 26.6765 70.1009 26.3545 68.9755 25.824Z" fill="white"></path><path d="M79.8623 19.8391C79.8623 18.9509 79.7853 18.0567 79.6549 17.699L78.4703 17.6036L78.3933 17.5261V17.0731L78.4703 16.9777C79.1278 17.0313 80.0696 17.0313 80.5553 17.0313C80.9107 17.0313 81.4378 17.0313 81.9472 16.9777L82.0953 17.0731C82.1901 17.2817 82.2434 17.4725 82.2848 17.6394C82.8653 17.2638 83.659 16.8048 84.8614 16.8048C87.2485 16.8048 89.1676 18.2057 89.1676 21.6871C89.1676 24.6796 87.361 26.5693 84.8259 26.5693C83.7182 26.5693 82.9838 26.2474 82.5099 25.9434V30.5812L83.9789 30.6766L84.0381 30.7541V31.2071L83.9789 31.3025C83.3214 31.2489 81.5918 31.2489 81.1002 31.2489C80.5553 31.2489 79.2936 31.3025 78.6362 31.3025L78.5592 31.2071V30.7541L78.6362 30.6766L79.8563 30.5812V19.8391H79.8623ZM82.5158 25.234C82.889 25.5201 83.5287 25.8182 84.3046 25.8182C85.6196 25.8182 86.4133 24.7988 86.4133 21.6751C86.4133 18.5157 85.4893 17.6453 84.3461 17.6453C83.6116 17.6453 82.9364 17.9672 82.4092 18.3249C82.4685 18.6468 82.5218 19.2549 82.5218 20.1014V25.234H82.5158Z" fill="white"></path><path d="M99.3317 25.0429V25.1383C98.5617 25.8596 97.5844 26.5749 95.7422 26.5749C92.603 26.5749 91.057 24.4945 91.057 21.7106C91.057 18.9267 92.674 16.8462 95.7245 16.8462C98.2833 16.8462 99.5805 18.6286 99.5805 20.876C99.5805 20.9535 99.5805 21.1621 99.5212 21.2515L99.3495 21.4006H93.8231V21.6092C93.8231 24.2798 94.6109 25.6629 96.3405 25.6629C97.5429 25.6629 98.2774 25.1502 98.8993 24.566L98.9941 24.5839L99.3317 25.0429ZM97.1697 20.727C97.1105 18.8134 96.8143 17.49 95.606 17.49C94.3621 17.49 93.8587 19.0042 93.8587 20.7091L97.1697 20.727Z" fill="white"></path><path d="M100.949 16.9836C101.589 17.0372 102.791 17.0372 103.057 17.0372C103.508 17.0372 104.372 16.9836 104.562 16.9836L104.657 17.0789L104.882 18.0625H104.9C105.806 17.4008 106.724 16.8524 108.134 16.8524C109.715 16.8524 111.083 17.4783 111.083 19.7675V25.7287L112.304 25.8241L112.381 25.9016V26.3546L112.304 26.45C111.646 26.3904 110.213 26.3904 109.727 26.3904C109.182 26.3904 108.033 26.3904 107.375 26.45L107.298 26.3546V25.8956L107.375 25.8181L108.43 25.7227V19.69C108.43 18.462 108.057 17.8718 107.056 17.8718C106.286 17.8718 105.646 18.2295 104.947 18.7779V25.7227L106.001 25.8181L106.055 25.8956V26.3487L106.001 26.444C105.362 26.3844 104.124 26.3844 103.632 26.3844C103.087 26.3844 101.79 26.3844 101.091 26.444L101.02 26.3546V25.8956L101.097 25.8181L102.299 25.7227V20.0655C102.299 19.1773 102.264 18.2116 102.056 17.6989L100.949 17.6095L100.872 17.532V17.0789L100.949 16.9836Z" fill="white"></path><path d="M123.066 12.5364V23.5707C123.066 24.4589 123.161 25.216 123.326 25.7286L124.434 25.824L124.511 25.9015V26.3546L124.434 26.4499C123.777 26.3903 122.669 26.3903 122.462 26.3903C122.089 26.3903 121.561 26.3903 121.129 26.4499L121.016 26.3724C120.886 26.2413 120.791 25.9552 120.774 25.8061H120.714C120.282 26.0923 119.322 26.599 118.061 26.599C115.561 26.599 113.755 25.0669 113.755 21.7346C113.755 18.7063 115.615 16.8345 118.096 16.8345C119.228 16.8345 119.938 17.1743 120.412 17.4962V13.1802L119.038 13.1027L118.961 13.0074V12.5364L119.038 12.441C119.696 12.5007 120.809 12.5007 121.372 12.5007C121.881 12.5007 122.616 12.5007 122.971 12.441L123.066 12.5364ZM120.566 25.1981C120.472 24.7987 120.418 23.9701 120.418 23.1891V18.2473C120.045 17.9611 119.441 17.6631 118.629 17.6631C117.125 17.6631 116.521 19.0044 116.521 21.7525C116.521 24.9119 117.368 25.824 118.588 25.824C119.245 25.824 120.039 25.5975 120.566 25.1981Z" fill="white"></path><path d="M125.323 17.6094L125.246 17.5319V17.0788L125.323 16.9835C125.98 17.0371 127.094 17.0371 127.751 17.0371C128.13 17.0371 128.882 17.0371 129.238 16.9835L129.333 17.0788V25.7286L130.553 25.824L130.63 25.9015V26.3545L130.553 26.4499C129.895 26.3903 128.426 26.3903 127.958 26.3903C127.413 26.3903 126.116 26.4499 125.477 26.4499L125.4 26.3545V25.8955L125.477 25.818L126.679 25.7226V17.6988L125.323 17.6094ZM127.804 12.5721C128.687 12.5721 129.327 13.1385 129.327 14.0505C129.327 14.9388 128.687 15.4693 127.804 15.4693C126.922 15.4693 126.282 14.9388 126.282 14.0505C126.282 13.1385 126.922 12.5721 127.804 12.5721Z" fill="white"></path><path d="M131.607 16.9836C132.247 17.0372 133.449 17.0372 133.716 17.0372C134.166 17.0372 135.031 16.9836 135.22 16.9836L135.315 17.0789L135.54 18.0625H135.558C136.458 17.4008 137.382 16.8524 138.792 16.8524C140.373 16.8524 141.748 17.4783 141.748 19.7675V25.7287L142.968 25.8241L143.045 25.9016V26.3546L142.968 26.45C142.31 26.3904 140.883 26.3904 140.391 26.3904C139.846 26.3904 138.697 26.3904 138.04 26.45L137.963 26.3546V25.8956L138.04 25.8181L139.094 25.7227V19.69C139.094 18.462 138.721 17.8718 137.72 17.8718C136.95 17.8718 136.31 18.2295 135.611 18.7779V25.7227L136.666 25.8181L136.719 25.8956V26.3487L136.666 26.444C136.026 26.3844 134.782 26.3844 134.296 26.3844C133.751 26.3844 132.454 26.3844 131.755 26.444L131.678 26.3487V25.8956L131.755 25.8181L132.958 25.7227V20.0655C132.958 19.1773 132.922 18.2116 132.715 17.6989L131.607 17.6095L131.53 17.532V17.0789L131.607 16.9836Z" fill="white"></path><path d="M150.715 16.9836C150.923 17.0014 151.45 17.0193 151.693 17.0193C151.953 17.0193 152.895 17.0372 153.594 16.9836L153.689 17.0789V17.7049L153.594 17.8003L151.527 17.9314C152.131 18.5156 152.486 19.3859 152.486 20.3755C152.486 22.4381 150.852 23.7436 148.536 23.7436C147.653 23.7436 147.049 23.5946 146.522 23.3084L146.374 23.4575C146.072 23.7436 145.604 24.2145 145.604 24.7272C145.604 25.2399 145.941 25.5975 146.848 25.5975C147.807 25.5975 149.252 25.3889 150.443 25.3889C152.475 25.3889 153.807 26.1817 153.807 28.1549C153.807 30.1042 152.155 31.6184 148.844 31.6184C147.511 31.6184 146.208 31.3919 145.456 31.1057L145.379 30.9567L145.189 29.1385L145.319 29.0431H146.314L146.445 29.1385L146.913 30.599L146.99 30.6944C147.345 30.8255 147.949 30.9805 148.909 30.9805C151.112 30.9805 152.255 30.146 152.255 28.918C152.255 27.9522 151.633 27.4574 150.034 27.4574C149.223 27.4574 147.742 27.6482 146.688 27.6482C144.733 27.6482 144.206 26.7004 144.206 25.6214C144.206 24.6378 144.976 23.7496 145.58 23.2905L145.977 22.9865C145.225 22.5156 144.508 21.532 144.508 20.298C144.508 18.4798 145.977 16.8524 148.571 16.8524C149.246 16.8524 149.999 16.9836 150.508 17.2101L150.715 16.9836ZM150.052 20.8226C150.052 18.6289 149.732 17.4545 148.547 17.4545C147.416 17.4545 146.984 18.3606 146.984 19.8986C146.984 22.0208 147.546 23.1177 148.619 23.1177C149.661 23.1177 150.052 22.3189 150.052 20.8226Z" fill="white"></path><path d="M162.562 20.0298V25.687H166.72L166.815 25.6095L167.419 23.4337L167.531 23.3383H168.378L168.491 23.4337L168.207 26.3487L168.112 26.4441C166.098 26.3845 163.219 26.3845 161.152 26.3845C160.607 26.3845 159.103 26.3845 158.445 26.4441L158.35 26.3308V25.8599L158.445 25.7645L159.837 25.6513V13.9911L158.445 13.8778L158.35 13.7824V13.3115L158.445 13.1982C159.103 13.2519 162.017 13.2757 162.508 13.2757C164.013 13.2757 166.779 13.1982 167.756 13.1982L167.851 13.2936L168.041 16.1312L167.928 16.2265H167.099L166.986 16.1312L166.441 14.0328L166.347 13.9553H162.568V19.0879H165.239L165.334 19.0104L165.671 17.6692L165.784 17.5738H166.595L166.708 17.6692C166.655 18.1222 166.613 18.921 166.613 19.5827C166.613 20.0358 166.649 20.9478 166.708 21.4724L166.595 21.5678H165.784L165.671 21.4724L165.334 20.1073L165.239 20.0298H162.562Z" fill="white"></path><path d="M180.503 21.4486V13.9911L179.241 13.8778L179.147 13.7824V13.3115L179.241 13.1982C179.863 13.2519 180.503 13.2757 180.953 13.2757C181.421 13.2757 182.025 13.2579 182.647 13.1982L182.742 13.3115V13.7824L182.647 13.8778L181.427 13.9911V21.3532C181.427 24.9121 180.183 26.5574 176.44 26.5574C172.696 26.5574 171.156 24.775 171.156 21.5976V13.9911L169.764 13.8778L169.669 13.7824V13.3115L169.764 13.1982C170.422 13.2519 171.701 13.2757 172.489 13.2757C173.389 13.2757 174.615 13.1982 175.291 13.1982L175.385 13.3115V13.7824L175.291 13.8778L173.881 13.9911V21.7347C173.881 24.5365 174.935 25.6334 176.967 25.6334C179.395 25.6334 180.503 24.4769 180.503 21.4486Z" fill="white"></path><path d="M48.037 39.6483C48.9551 39.6483 49.7014 39.7973 50.4773 40.1669L50.5247 40.2623L50.6373 42.0388L50.5662 42.0984H50.039L49.9561 42.0388L49.6244 40.5127L49.577 40.4531C49.3046 40.3041 48.807 40.0954 48.1318 40.0954C46.5384 40.0954 45.7092 41.4784 45.7092 43.8212C45.7092 46.1639 46.728 47.5589 48.1495 47.5589C48.6885 47.5589 49.1565 47.4456 49.5237 47.225L49.5711 47.1654L49.9857 45.5022L50.0568 45.4426H50.6077L50.6787 45.5022L50.507 47.3264L50.4596 47.4158C49.6777 47.8212 48.7952 47.994 47.9245 47.994C45.49 47.994 43.9678 46.4024 43.9678 43.8152C43.9737 41.2757 45.7743 39.6483 48.037 39.6483Z" fill="white"></path><path d="M65.3268 43.8927C65.3268 46.1639 63.7986 48 61.3819 48C59.0778 48 57.4371 46.3726 57.4371 43.8927C57.4371 41.5022 58.9534 39.6423 61.3345 39.6423C63.6386 39.6483 65.3268 41.1803 65.3268 43.8927ZM63.5794 44.0894C63.5794 41.4009 62.9634 40.0954 61.2634 40.0954C59.7945 40.0954 59.1785 41.4784 59.1785 43.5946C59.1785 46.1937 59.984 47.5648 61.4589 47.5648C62.9871 47.5648 63.5794 46.2712 63.5794 44.0894Z" fill="white"></path><path d="M74.6557 39.8511L74.7268 39.7796C74.8749 39.7796 75.6449 39.7557 75.8404 39.6842L75.9115 39.7438L78.571 47.3742L79.2817 47.4577L79.341 47.5173V47.7915L79.2817 47.863C78.879 47.8272 77.9846 47.8273 77.5936 47.8273C77.1494 47.8273 76.4682 47.8272 76.0655 47.863L76.0062 47.7915V47.5173L76.0655 47.4577L76.7762 47.3742L76.0892 45.1924H73.3586L72.6596 47.3742L73.3941 47.4577L73.4533 47.5292V47.7855L73.3941 47.869C72.9913 47.8571 72.6596 47.8332 72.3279 47.8332C72.0199 47.8332 71.7652 47.8332 71.3624 47.869L71.3032 47.7974V47.5232L71.3624 47.4636L72.0732 47.3802L74.6557 39.8511ZM73.5303 44.7036H75.9292L74.7801 41.2162H74.7209L73.5303 44.7036Z" fill="white"></path><path d="M86.2474 47.38V40.2682L85.4004 40.1967L85.3412 40.1371V39.851L85.4004 39.7794C85.7914 39.8152 86.7628 39.8271 87.0648 39.8271C87.3965 39.8271 88.5338 39.7794 88.9366 39.7794L88.9958 39.851V40.1371L88.9366 40.1967L87.9178 40.2682V47.4038H90.1212L90.1804 47.3561L90.5595 45.9254L90.6306 45.8658H91.1578L91.2288 45.9254L91.0334 47.8092L90.9741 47.8688C89.748 47.833 87.9948 47.8211 87.053 47.8211C86.4014 47.8211 85.815 47.8569 85.4123 47.8688L85.353 47.7973V47.5111L85.4123 47.4515L86.2474 47.38Z" fill="white"></path><path d="M97.7324 47.8628L97.6732 47.7913V47.5052L97.7324 47.4456L98.5795 47.374V40.2682L97.7324 40.1967L97.6732 40.1371V39.851L97.7324 39.7794C98.1234 39.8152 99.0948 39.8271 99.3969 39.8271C99.7286 39.8271 100.682 39.7794 101.097 39.7794L101.156 39.851V40.1371L101.097 40.1967L100.25 40.2682V47.38L101.097 47.4515L101.156 47.5111V47.7973L101.097 47.8688C100.682 47.833 99.6871 47.833 99.3909 47.833C99.0533 47.8271 98.1352 47.8628 97.7324 47.8628Z" fill="white"></path><path d="M114.465 39.7854L114.525 39.845L114.625 41.6095L114.554 41.6692H114.015L113.944 41.6095L113.624 40.2921L113.565 40.2444H111.924V47.38L112.955 47.4515L113.014 47.5112V47.7973L112.955 47.8688C112.54 47.8331 111.362 47.8331 111.06 47.8331C110.763 47.8331 109.591 47.8331 109.188 47.8688L109.129 47.7973V47.5112L109.188 47.4515L110.23 47.38V40.2444H108.59L108.53 40.2921L108.211 41.6095L108.14 41.6692H107.6L107.529 41.6095L107.63 39.845L107.689 39.7854C108.288 39.7854 110.118 39.8331 111.036 39.8331C111.99 39.8331 113.855 39.7854 114.465 39.7854Z" fill="white"></path><path d="M121.076 47.8628L121.016 47.7913V47.5052L121.076 47.4456L121.923 47.374V40.2682L121.076 40.1967L121.016 40.1371V39.851L121.076 39.7794C121.467 39.8152 122.438 39.8271 122.74 39.8271C123.072 39.8271 124.025 39.7794 124.44 39.7794L124.499 39.851V40.1371L124.44 40.1967L123.593 40.2682V47.38L124.44 47.4515L124.499 47.5111V47.7973L124.44 47.8688C124.025 47.833 123.03 47.833 122.734 47.833C122.397 47.8271 121.478 47.8628 121.076 47.8628Z" fill="white"></path><path d="M139.106 43.8927C139.106 46.1639 137.578 48 135.161 48C132.857 48 131.216 46.3726 131.216 43.8927C131.216 41.5022 132.733 39.6423 135.114 39.6423C137.418 39.6483 139.106 41.1803 139.106 43.8927ZM137.359 44.0894C137.359 41.4009 136.737 40.0954 135.043 40.0954C133.574 40.0954 132.958 41.4784 132.958 43.5946C132.958 46.1937 133.763 47.5648 135.238 47.5648C136.766 47.5648 137.359 46.2712 137.359 44.0894Z" fill="white"></path><path d="M146.646 40.2682L145.876 40.1967L145.817 40.1371V39.8509L145.876 39.7794C146.255 39.8152 146.622 39.8032 146.853 39.8032C147.002 39.8032 147.576 39.7794 147.843 39.7794L147.943 39.8509L152.255 45.2041V40.2623L151.432 40.1907L151.373 40.1311V39.845L151.432 39.7734C151.835 39.8092 152.249 39.8092 152.51 39.8092C152.818 39.8092 153.173 39.7973 153.576 39.7734L153.635 39.845V40.1311L153.576 40.1907L152.794 40.2623V47.7853L152.711 47.8569C152.634 47.833 152.563 47.8211 152.516 47.8211C152.457 47.8211 152.403 47.833 152.321 47.8569L152.22 47.7853L147.185 41.4962V47.374L147.979 47.4455L148.038 47.5052V47.7913L147.979 47.8628C147.576 47.839 147.233 47.8271 146.948 47.8271C146.664 47.8271 146.249 47.8509 145.882 47.8628L145.823 47.7913V47.5052L145.882 47.4455L146.652 47.374V40.2682H146.646Z" fill="white"></path></svg> 