<?xml version="1.0" encoding="UTF-8"?> <svg xmlns="http://www.w3.org/2000/svg" width="128" height="69" viewBox="0 0 128 69" fill="none"><path d="M73.6901 16.9019H60.0875V34.6718C60.0884 35.0792 60.0567 35.486 59.9929 35.8884C59.9722 36.1459 59.9002 36.3966 59.781 36.6258C59.6619 36.8551 59.498 37.0582 59.2991 37.2233C59.1002 37.3883 58.8702 37.512 58.6227 37.5871C58.3752 37.6621 58.1152 37.6869 57.8579 37.6601C55.4252 37.6601 54.2108 35.1561 54.2148 30.1481V16.9019H40.4821V36.3195C40.4268 37.7123 40.6778 39.1002 41.2173 40.3858C41.7567 41.6713 42.5717 42.8232 43.6048 43.7606C46.3647 46.2528 49.9881 47.0165 54.475 46.052C58.1418 45.2645 60.9451 43.548 62.8849 40.9023L73.7138 52.9025V45.3669L73.6901 16.9019Z" fill="#E6BE66"></path><path d="M124.794 18.5081C123.925 17.6359 122.881 16.9558 121.731 16.512C120.651 16.0687 119.497 15.8342 118.33 15.8211C114.324 15.8211 111.022 17.4786 108.424 20.7936C108.031 20.0103 107.52 19.2914 106.91 18.6617C106.014 17.7306 104.933 16.9968 103.736 16.5076C102.539 16.0184 101.253 15.7846 99.9608 15.8211C97.7607 15.8328 95.5923 16.3458 93.6209 17.3211C91.6908 18.2019 90.0384 19.5925 88.8422 21.3428L85.5599 16.8959H78.043V45.361H91.6455V27.5969C91.6455 25.6283 92.2566 24.6441 93.4789 24.6441C94.2418 24.6441 94.9515 25.1815 95.5962 26.2563C96.3139 27.6206 96.6509 29.1524 96.572 30.6914V45.3669H109.583V27.2544C109.578 26.9085 109.616 26.5634 109.696 26.2268C109.956 25.1598 110.494 24.6283 111.31 24.6323C112.132 24.6323 112.836 25.1815 113.433 26.2563C114.098 27.6349 114.409 29.157 114.338 30.6855V45.361H127.639V25.961C127.639 22.8822 126.691 20.3979 124.794 18.5081Z" fill="#E6BE66"></path><path d="M29.5767 32.3804C34.4066 29.5142 36.8215 25.6382 36.8215 20.7523C36.8219 18.6273 36.2784 16.5375 35.2425 14.6813C33.3736 11.4332 30.2706 9.3131 25.9336 8.32096C23.665 7.89385 21.3572 7.70973 19.0495 7.77173C16.0372 7.77173 9.68739 8.11426 0 8.79931V45.3669H11.6686V33.2249C11.6686 30.715 13.2004 28.5004 14.7322 28.1993V22.5417C14.7352 22.456 14.7569 22.372 14.7957 22.2955C14.8345 22.219 14.8895 22.1519 14.9569 22.0987C15.1098 21.9775 15.2999 21.9128 15.4951 21.9157H16.9914C17.1885 21.912 17.3808 21.9767 17.5355 22.0987C17.6029 22.1519 17.6579 22.219 17.6967 22.2955C17.7355 22.372 17.7572 22.456 17.7602 22.5417V28.1993C19.292 28.5122 20.8238 30.715 20.8238 33.2249V45.3669H39.5125L29.5767 32.3804Z" fill="#E6BE66"></path><path d="M15.0633 68.8003C13.905 68.7981 12.7519 68.6452 11.6331 68.3455C10.5616 68.0776 9.55558 67.5955 8.67602 66.9282C6.93725 65.5699 6.06787 63.564 6.06787 60.9104V58.932L13.3068 57.9458V59.9478C13.3068 61.1289 13.6616 61.932 14.3832 62.2805C14.5896 62.3876 14.8197 62.4411 15.0523 62.4359C15.2849 62.4308 15.5124 62.3672 15.7139 62.251C15.9449 62.1205 16.1463 61.9435 16.3053 61.7313C16.7079 61.196 16.9164 60.5401 16.8967 59.871V47.5046H25.1765V57.5442C25.1765 62.7766 23.5698 66.1821 20.3565 67.7609C18.6911 68.4949 16.883 68.8499 15.0633 68.8003Z" fill="#E6BE66"></path><path d="M39.9975 47.5046H48.1177V68.2924H39.9975V60.6151L35.6684 60.9931V68.2924H27.5601V47.5046H35.6684V55.0166L39.9975 54.6622V47.5046Z" fill="#E6BE66"></path><path d="M49.6138 68.2924L59.9635 48.5617C60.1654 48.1951 60.4472 47.8785 60.7881 47.6352C61.129 47.3919 61.5202 47.2282 61.933 47.1562C62.2703 47.0788 62.6159 47.0431 62.962 47.0499C63.428 47.0649 63.8847 47.184 64.2986 47.3983C64.7853 47.6299 65.1852 48.0106 65.4401 48.485L76.5468 68.2924H65.9723L65.1503 66.2372H59.52L58.8162 68.2924H49.6138ZM60.1646 62.1092H64.3755L62.3824 56.4871L60.1646 62.1092Z" fill="#E6BE66"></path><path d="M77.9902 47.5046H80.9769L91.0309 56.9536L101.363 47.5046H104.243V68.2924H95.6913V61.5482L90.3686 67.3829L85.1937 61.7076V68.2924H77.9902V47.5046Z" fill="#E6BE66"></path><path d="M90.5636 14.2443C94.5028 14.2443 97.6961 11.0556 97.6961 7.12217C97.6961 3.1887 94.5028 0 90.5636 0C86.6245 0 83.4312 3.1887 83.4312 7.12217C83.4312 11.0556 86.6245 14.2443 90.5636 14.2443Z" fill="#E6BE66"></path><path d="M77.4931 14.0257C79.5835 14.0257 81.2781 12.3336 81.2781 10.2461C81.2781 8.15873 79.5835 6.46655 77.4931 6.46655C75.4026 6.46655 73.708 8.15873 73.708 10.2461C73.708 12.3336 75.4026 14.0257 77.4931 14.0257Z" fill="#E6BE66"></path></svg> 