<?xml version="1.0" encoding="UTF-8"?> <svg xmlns="http://www.w3.org/2000/svg" width="509" height="316" viewBox="0 0 509 316" fill="none"><g clip-path="url(#clip0_543_1838)"><path d="M223.69 169.952C217.398 176.661 210.136 182.386 202.146 186.934C197.153 189.777 191.924 192.182 186.518 194.122C180.166 196.382 173.622 198.395 167.013 199.574C160.843 200.672 154.459 200.732 148.161 200.902C134.076 201.305 120.709 198.04 107.805 192.54C107.063 192.221 105.705 192.75 104.903 193.286C98.8582 197.322 92.9019 201.358 85.652 203.024C81.8357 203.896 77.9951 203.702 74.2715 203.238C69.5564 202.645 64.926 201.285 60.2996 200.115C58.4861 199.655 56.7654 198.823 55.0164 198.121C50.9864 196.507 46.9565 196.535 42.7895 197.6C38.2437 198.767 33.8067 197.923 29.3496 196.793C22.5511 195.066 17.4814 191.063 13.4918 185.449C12.6278 184.182 11.6203 183.018 10.4895 181.983C7.74507 179.561 6.01622 176.458 4.06572 173.472C3.31212 172.317 2.26031 171.349 1.30521 170.328C0.237276 169.186 -0.246318 167.947 0.958637 166.676C1.83314 165.755 3.5781 166.175 4.54529 167.563C7.82164 172.253 12.7583 174.258 17.8965 175.889C20.124 176.633 22.4184 177.159 24.7474 177.459C27.6772 177.786 30.2362 176.502 32.6219 174.88C35.2575 173.088 37.8165 171.212 41.105 170.639C44.9005 170.008 48.787 170.2 52.5017 171.204C55.7941 172.011 59.1632 172.87 62.5282 173.003C67.9243 173.213 72.9496 171.547 77.6042 168.544C75.8633 165.925 74.082 163.378 72.4459 160.743C67.8044 153.241 64.4978 144.99 62.6733 136.356C61.5015 130.672 61.1379 124.85 61.5932 119.063C62.3106 108.494 65.7602 98.9217 74.0619 91.8554C78.7501 87.8439 84.6889 85.596 90.8547 85.4993C95.5778 85.3661 100.325 85.3823 104.843 86.7826C109.86 88.3565 114.51 90.8586 118.323 94.6157C125.633 101.839 129.707 110.758 131.219 120.827C131.872 125.226 132.025 129.705 132.327 132.934C133.282 131.166 134.773 128.394 136.296 125.637C136.553 125.248 136.852 124.888 137.187 124.564C138.17 123.458 139.605 122.901 140.709 123.668C141.326 124.072 141.205 125.686 141.269 126.767C141.326 127.659 140.995 128.592 141.132 129.455C141.588 132.316 143.953 133.002 146.254 133.467C148.777 133.979 150.824 133.063 152.549 131.005C154.274 128.947 153.831 126.695 153.786 124.39C153.746 121.905 153.601 119.398 153.847 116.937C154.028 115.165 153.327 114.693 151.832 114.564C148.036 114.229 144.336 113.563 140.903 111.759C136.973 109.697 133.826 106.888 132.403 102.586C131.848 100.905 131.602 99.137 131.678 97.368C131.761 96.3143 131.631 95.2546 131.295 94.2526C130.959 93.2505 130.425 92.3267 129.724 91.5366C126.612 88.0095 126.346 84.0384 127.604 79.7849C127.777 79.2078 128.547 78.2796 128.793 78.3522C129.556 78.5894 130.227 79.0591 130.711 79.6961C131.482 80.8101 132.149 81.9936 132.702 83.2313C133.576 85.0917 135.281 85.4832 136.973 85.459C140.197 85.4146 143.018 86.1813 145.577 88.2516C146.191 88.774 146.924 89.1367 147.712 89.3078C148.499 89.4788 149.316 89.4529 150.091 89.2322C153.045 88.5543 156.136 88.4695 159.223 88.1265C158.788 87.1135 158.127 85.6769 157.554 84.2079C155.515 78.9616 154.504 73.4934 155.04 67.9081C155.846 59.7198 158.872 52.4315 165.175 46.9229C169.386 43.2081 174.643 40.8916 180.223 40.2924C192.917 38.8557 202.742 43.9245 210.73 53.4808C214.175 57.6011 216.323 62.3147 217.859 67.3835C218.008 67.8758 218.189 68.356 218.261 68.574L225.286 68.8968C228.86 59.5463 236.195 54.4009 245.472 52.1208C254.043 50.0142 262.663 50.5873 270.687 54.6955C276.676 57.7626 281.37 62.1977 283.736 68.8686L290.51 68.5619C291.997 65.1962 293.279 61.4471 295.213 58.0693C300.686 48.5331 308.883 42.3304 319.715 40.3933C329.819 38.5854 338.829 41.4668 345.995 48.9972C350.452 53.6785 352.737 59.4898 353.724 65.8782C354.933 73.8081 353.188 81.1449 349.718 88.1991C349.67 88.3 349.718 88.4534 349.771 88.756C353.337 87.8278 356.755 88.5744 360.249 89.3977C361.337 89.6519 362.759 88.3283 364.069 87.84C366.294 87.0127 368.534 85.6971 370.803 85.6244C375.119 85.4832 376.473 83.873 378.311 80.1763C378.69 79.4136 379.463 78.4652 380.181 78.3442C381.309 78.1545 381.281 79.3329 381.583 80.2449C383.094 84.8334 381.817 88.7197 378.927 92.2791C377.891 93.5698 377.366 95.1976 377.453 96.8515C377.505 104.87 373.511 109.765 366.269 112.481C363.376 113.563 360.192 113.87 357.154 114.576C356.512 114.767 355.887 115.01 355.284 115.302C355.284 119.253 355.566 123.01 355.159 126.695C354.965 128.454 355.852 129.298 356.465 130.517C358.725 135.012 364.484 133.975 366.942 131.57C367.861 130.67 367.801 128.709 368.067 127.207C368.284 125.997 367.893 124.027 368.518 123.652C369.929 122.813 371.512 123.725 372.419 125.089C373.922 127.353 375.24 129.726 376.679 132.062C377.009 123.934 378.117 115.92 381.478 108.329C385.762 98.6433 392.206 91.1814 402.378 87.5373C409.813 84.803 417.928 84.5299 425.53 86.7584C433.09 88.9498 438.575 93.8934 442.371 100.774C447.243 109.612 448.372 119.217 447.521 128.995C446.671 139.397 443.406 149.456 437.986 158.37C435.915 161.772 433.779 165.134 431.579 168.669C434.4 169.735 437.011 171.232 440.106 172.164C447.058 174.263 453.244 171.575 459.74 170.55C464.507 169.791 469.15 170.082 473.442 172.85C476.129 174.648 479.043 176.081 482.106 177.112C483.94 177.681 486.233 177.112 488.24 176.68C492.673 175.727 496.932 174.226 500.596 171.466C502.022 170.392 503.118 168.887 504.468 167.697C505.17 167.045 506.017 166.572 506.939 166.316C507.374 166.215 508.377 166.906 508.474 167.378C508.639 168.165 508.579 169.291 508.115 169.88C502.421 177.096 497.126 184.65 490.545 191.123C486.958 194.65 482.34 196.063 477.625 197.342C473.281 198.525 469.009 198.246 464.729 197.29C461.033 196.459 457.17 196.805 453.679 198.278C446.445 201.235 438.777 202.988 430.978 203.468C423.523 203.92 417.184 201.45 411.103 197.681C408.604 196.131 406.186 194.453 403.712 192.859C402.753 192.237 401.902 192.173 400.681 192.701C393.734 195.684 386.493 197.925 379.077 199.388C370.376 201.148 361.595 201.277 352.842 200.821C346.849 200.51 340.857 199.312 334.965 198.052C327.065 196.331 319.427 193.572 312.248 189.848C302.512 184.852 293.65 178.585 286.086 170.59C285.735 170.219 285.34 169.888 285.304 169.856C284.852 174.363 284.437 179.041 283.905 183.706C283.454 187.628 282.527 191.523 282.422 195.445C282.261 201.604 282.801 207.778 282.676 213.937C282.6 217.847 281.902 221.713 279.452 225.067C276.438 229.195 272.275 231.794 267.854 233.977C264.286 235.789 260.36 236.783 256.361 236.887C251.102 236.988 245.988 236.423 241.232 234.018C236.142 231.443 231.21 228.493 228.494 223.275C227.215 220.692 226.509 217.863 226.426 214.982C226.273 210.543 226.994 206.103 227.055 201.64C227.091 198.884 226.616 196.115 226.305 193.359C225.951 190.215 225.451 187.084 225.133 183.936C224.677 179.396 224.327 174.844 223.924 170.296C224.016 170.061 224.109 169.827 224.198 169.593L223.69 169.952ZM421.589 179.234C420.633 180.042 419.574 180.76 418.768 181.688C418.312 182.205 418.252 183.068 417.933 184.008C421.057 183.532 421.818 181.817 421.871 179.569C421.959 179.335 422.052 179.101 422.145 178.867L421.589 179.234ZM304.579 92.2065C304.635 92.1056 304.784 92.0491 304.579 92.2065C301.101 100.31 294.601 104.196 286.178 105.254C284.119 105.512 281.963 105.06 279.92 105.383C278.908 105.544 277.474 106.561 277.224 107.465C276.015 111.82 278.102 114.83 282.551 115.714C283.869 115.976 286.702 113.995 286.71 112.675C286.71 112.235 286.158 111.791 285.856 111.347C285.497 111.719 284.945 112.029 284.816 112.465C284.542 113.389 284.413 114.394 283.132 114.132C282.588 114.019 281.653 113.498 281.681 113.252C281.83 111.933 281.939 110.468 282.6 109.382C283.736 107.497 286.908 107.647 288.645 109.079C290.466 110.573 290.474 113.922 288.818 115.912C286.585 118.595 283.797 119.713 280.399 118.559C277.143 117.449 274.491 115.609 273.951 111.888C273.754 110.573 273.887 109.2 273.911 107.853C273.955 105.379 275.559 102.978 278.01 102.497C280.262 102.053 282.628 102.15 284.945 102.057C291.127 101.811 296.011 99.1033 299.67 94.188C302.806 89.9788 304.204 85.3621 301.685 80.3902C299.57 76.1972 296.273 73.0616 291.49 72.2746C289.107 71.893 286.673 71.9821 284.324 72.5369C282.225 73.0414 281.677 73.2472 281.052 71.0841C279.573 65.975 276.273 62.2058 272.021 59.3808C263.925 53.9772 254.91 53.0288 245.726 55.5067C237.126 57.8312 230.468 62.7344 227.825 71.8872C227.667 72.428 225.943 73.1302 225.407 72.8557C222.404 71.2819 219.446 71.98 216.452 72.6055C212.72 73.3804 210.455 76.0883 208.243 78.8728C206.095 81.5848 205.861 84.6922 206.506 87.8884C207.437 92.5172 210.133 96.0565 213.949 98.6715C217.761 101.357 222.416 102.567 227.051 102.078C230.504 101.743 233.354 102.078 234.538 105.661C236.255 110.875 235.538 116.134 229.054 118.454C224.387 120.129 220.143 117.243 219.205 113.611C218.975 112.778 218.995 111.895 219.259 111.072C219.524 110.249 220.023 109.521 220.696 108.978C221.384 108.395 222.238 108.045 223.136 107.976C224.035 107.907 224.932 108.124 225.701 108.595C227.313 109.519 227.837 111.101 227.514 112.881C227.454 113.146 227.334 113.393 227.162 113.604C226.989 113.814 226.771 113.981 226.523 114.092C225.915 114.191 225.292 114.046 224.79 113.688C224.46 113.43 224.56 112.667 224.294 112.243C224.028 111.82 223.577 111.654 223.206 111.372C222.928 111.828 222.4 112.3 222.4 112.736C222.509 114.285 225.189 115.964 226.741 115.585C230.396 114.701 232.382 113.353 231.979 108.619C231.798 106.444 230.855 105.318 228.715 105.306C226.7 105.306 224.637 105.524 222.646 105.27C214.139 104.172 207.836 99.9024 204.342 92.3114L193.594 96.5084C193.887 96.844 194.209 97.152 194.557 97.4286C197.447 99.4518 199.779 102.172 201.34 105.338C204.116 110.988 204.781 117.001 203.875 123.22C203.855 123.499 203.901 123.779 204.01 124.037C204.118 124.295 204.286 124.524 204.499 124.705C206.917 126.106 209.283 127.671 211.87 128.648C217.576 130.803 223.492 131.069 229.578 130.391C234.088 129.949 238.411 128.363 242.139 125.783C245.867 123.168 249.236 120.032 252.673 117.017C253.81 116.025 254.89 115.762 256.01 116.658C257.566 117.905 258.956 119.35 260.443 120.662C264.163 123.91 267.979 126.997 272.698 128.753C278.425 130.884 284.276 131.098 290.265 130.335C295.346 129.689 300.033 128.107 304.156 125.028C304.664 124.649 305.236 123.951 305.252 123.382C305.365 120.024 305.127 116.65 305.377 113.293C305.76 108.131 307.968 103.72 311.631 100.064C312.965 98.7321 314.36 97.4528 315.379 96.4802L304.579 92.2065ZM227.615 167.858C227.502 168.415 227.111 169.323 227.188 170.195C227.698 176.114 228.271 182.032 228.905 187.951C229.332 191.947 230.186 195.918 230.303 199.917C230.464 205.462 229.827 211.039 230.106 216.572C230.319 219.107 231.252 221.528 232.793 223.549C235.925 227.666 240.45 230.123 245.206 232.024C248.037 233.183 251.114 233.608 254.152 233.259C256.57 232.969 259.153 233.352 261.483 232.747C267.264 231.3 272.467 228.119 276.393 223.63C278.969 220.692 279.368 216.907 279.468 213.263C279.569 209.618 278.739 205.845 278.815 202.145C278.904 197.927 279.493 193.714 279.968 189.513C280.371 185.857 280.955 182.221 281.459 178.573C281.971 174.86 282.463 171.143 281.387 167.539C278.537 167.785 275.845 168.145 273.149 168.205C270.826 168.269 268.502 168.134 266.202 167.801C263.244 167.366 260.326 166.667 257.404 166.022C256.276 165.772 254.914 164.767 254.116 165.122C250.15 166.898 246.096 167.927 241.744 167.87C237.138 167.814 232.528 167.858 227.615 167.858ZM351.842 123.87C352.128 123.595 352.374 123.466 352.394 123.329C353.007 119.076 351.991 115.036 349.404 111.811C344.762 106.032 338.765 104.455 331.543 106.836C326.244 108.579 322.46 112.296 318.527 115.811C314.593 119.326 311.273 123.446 307.291 126.864C301.794 131.586 295.064 133.551 287.947 133.915C284.836 134.072 281.693 133.757 278.574 133.543C273.947 133.228 269.708 131.489 265.992 128.935C261.962 126.194 258.335 122.938 254.479 119.879C251.706 122.207 248.917 124.629 246.048 126.949C241.091 131.014 234.997 133.441 228.606 133.894C223.589 134.266 218.532 134.161 213.583 132.756C207.973 131.134 202.823 128.676 198.922 124.346C193.84 118.696 188.525 113.337 182.266 109.011C178.353 106.315 173.662 104.846 169.169 105.839C160.782 107.691 156.043 114.37 156.644 122.97C156.644 123.232 156.934 123.478 157.151 123.83C157.385 123.491 157.534 123.289 157.667 123.075C163.184 114.285 173.787 112.324 182.069 118.523C187.469 122.558 192.647 126.941 197.741 131.376C202.631 135.702 208.394 138.923 214.639 140.819C221.832 142.991 229.175 143.184 236.477 141.925C242.61 140.868 248.401 138.697 253.241 134.496C254.213 133.652 255.103 134.072 256.224 134.782C259.347 136.764 262.49 138.935 265.94 140.125C271.832 142.143 277.993 143.269 284.308 142.409C287.613 141.957 290.99 141.727 294.182 140.848C299.981 139.254 305.292 136.639 309.878 132.546C313.622 129.205 317.725 126.271 321.65 123.131C323.866 121.356 325.873 119.261 328.259 117.768C332.583 115.072 337.298 113.918 342.323 115.791C346.418 117.324 349.88 119.673 351.842 123.87ZM174.081 119.116C178.111 121.666 180.453 125.145 181.021 129.383C181.379 132.054 182.826 133.636 184.418 135.363C188.851 140.206 194.251 143.612 200.296 146.114C207.394 149.06 214.973 150.67 222.654 150.864C227.259 150.984 231.867 150.849 236.457 150.46C240.37 150.134 244.235 149.282 248.144 148.709C250.884 148.305 253.383 146.824 256.405 147.579C261.208 148.849 266.09 149.801 271.018 150.428C275.853 150.973 280.75 150.921 285.622 150.884C290.958 150.848 296.172 149.952 301.375 148.604C310.717 146.183 318.857 141.865 325.369 134.677C326.418 133.538 327.267 132.229 327.88 130.807C328.573 129.14 328.505 127.102 329.387 125.585C330.766 123.212 332.668 121.146 334.663 118.531C332.732 119.431 330.862 119.927 329.464 121.029C324.628 124.834 319.994 128.91 315.198 132.772C311.055 136.106 306.92 139.419 301.972 141.623C293.065 145.581 283.784 147.03 274.225 145.59C267.181 144.528 260.354 142.442 254.616 137.861C247.285 143.309 238.971 145.436 230.255 145.997C226.591 146.231 222.852 145.658 219.172 145.246C213.933 144.661 208.747 143.096 204.495 140.222C196.955 135.133 189.923 129.274 182.806 123.575C180.275 121.533 178.172 118.991 174.081 119.096V119.116ZM338.334 89.1273C338.06 89.1883 337.791 89.2665 337.528 89.3614C334.05 90.9756 330.677 92.8885 327.078 94.1355C323.433 95.3833 320.027 97.2419 317.003 99.632C309.991 105.137 307.078 112.324 307.964 121.291C311.386 118.042 314.888 114.665 318.442 111.351C323.008 107.102 327.985 103.748 334.417 102.776C338.247 102.143 342.178 102.741 345.648 104.483C349.227 106.222 351.991 108.708 353.482 112.187C354.732 111.9 355.9 111.59 357.109 111.38C358.721 111.073 360.39 111 361.945 110.536C370.11 108.115 374.132 104.342 374.216 96.573C374.245 94.0386 374.76 91.7666 376.53 89.8255C377.275 89.0184 377.739 87.957 378.25 87.1822C376.393 87.7229 374.595 88.6713 372.798 88.6794C370.026 88.6305 367.318 89.5191 365.113 91.2016C363.146 92.6706 360.99 93.2961 358.443 92.4607C355.751 91.581 352.963 91.25 350.101 91.9845C345.354 93.1739 341.114 95.8624 338.011 99.6522C337.262 100.556 336.948 101.775 335.372 100.98C333.72 100.153 334.626 99.0307 334.969 98.042C336.053 95.0758 337.177 92.1863 338.334 89.1071V89.1273ZM155.717 112.017C157.812 106.981 162.286 104.277 167.492 102.937C173.682 101.343 179.663 102.937 184.615 106.654C190.523 111.093 195.899 116.275 201.348 121.021C201.602 116.779 201.134 112.11 198.966 107.921C195.525 101.262 189.943 96.916 182.915 94.3938C181.948 94.0467 181.049 93.5221 180.094 93.0903L170.712 88.8004C172.058 92.5172 173.283 95.7215 174.339 98.9863C174.508 99.5109 174.077 100.677 173.65 100.847C173.086 101.069 171.837 100.818 171.599 100.383C169.987 97.4286 167.246 95.7336 164.542 94.1718C160.553 91.8635 156.253 90.6366 151.57 92.2711C148.721 93.2638 146.089 92.8239 143.595 90.9393C142.281 89.9506 140.629 88.9699 139.061 88.8489C136.2 88.6229 133.367 88.6794 130.848 86.8714C130.993 87.4788 131.268 88.0474 131.654 88.5381C133.831 90.8835 135.01 93.9853 134.942 97.1864C134.951 99.3403 135.483 101.46 136.494 103.361C138.787 107.449 142.773 109.439 147.177 110.496C149.95 111.162 152.795 111.509 155.717 112.017ZM214.465 69.6434C213.256 63.3236 210.246 58.0652 205.974 53.7068C199.353 46.9431 191.466 42.968 181.597 43.9003C173.368 44.6791 167.267 48.8237 162.967 55.6035C159.416 61.1969 158.151 67.3915 158.973 74.0906C159.506 78.7091 160.919 83.1821 163.136 87.2669C164.288 89.3816 165.381 91.7061 168.274 92.15C167.67 90.1645 166.924 88.2112 166.533 86.1894C166.376 85.354 166.98 84.3693 167.238 83.4492C168.032 83.6272 168.81 83.8701 169.564 84.1756C170.298 84.5957 170.998 85.0719 171.659 85.6002C164.337 72.9163 170.156 60.2162 178.885 55.6035C183.698 52.983 189.335 52.3224 194.622 53.7592C203.488 56.116 209.226 62.004 211.511 71.1124L214.465 69.6434ZM297.656 71.1568C299.267 64.155 303.168 58.9975 309.306 55.7488C315.444 52.5001 322.013 52.2015 328.545 54.8206C333.941 56.9837 337.492 61.0677 339.474 66.3988C341.937 73.0131 340.752 79.3571 337.375 85.5033C338.139 85.1775 338.849 84.738 339.482 84.1998C340.228 83.5743 341.062 82.5856 341.933 83.5501C342.485 84.1716 342.698 85.4307 342.533 86.3024C342.13 88.3202 341.433 90.2654 340.728 92.6625C342.19 91.6375 343.669 91.0927 344.355 90.0313C347.977 84.6132 350.082 78.3207 350.448 71.8105C350.745 66.9145 349.7 62.0303 347.425 57.6859C341.421 46.4064 330.383 41.3054 318.458 44.5338C305.687 47.9924 298.018 56.9312 294.488 69.5546L297.656 71.1568ZM137.594 129.895L136.788 129.988C136.28 132.369 135.144 134.831 135.398 137.115C135.905 141.764 138.722 145.186 142.954 147.24C147.046 149.2 151.618 149.93 156.116 149.343C163.636 148.491 170.047 145.747 174.799 139.714C176.785 137.187 178.139 134.266 177.922 130.997C177.692 127.554 175.927 124.778 173.275 122.583C170.325 120.137 167.923 119.451 165.566 121.493C162.165 124.443 158.671 127.607 156.297 131.372C152.859 136.865 147.834 137.882 142.724 135.892C140.02 134.831 138.227 132.861 137.594 129.895ZM371.545 129.871C371.142 130.884 370.924 131.921 370.384 132.748C367.353 137.353 358.435 138.551 354.76 133.959C353.422 132.292 352.177 130.549 350.819 128.894C349.138 126.844 347.526 124.709 345.632 122.865C342.497 119.814 340.055 119.673 336.476 122.195C332.188 125.214 330.612 129.161 331.237 132.825C332.116 137.853 335.102 141.61 339.297 144.439C344.947 148.347 351.818 150.075 358.641 149.306C363.348 148.826 367.41 147.252 370.658 143.757C372.395 141.907 373.433 139.508 373.595 136.974C373.757 134.439 373.032 131.928 371.545 129.871ZM182.024 152.188L174.988 145.121C174.944 144.831 174.271 145.242 173.666 145.743C168.246 150.259 161.874 152.458 154.971 152.813C151.674 152.925 148.381 152.516 145.211 151.603C138.444 149.746 133.145 145.246 132.17 138.124C130.9 146.086 129.248 153.935 125.444 161.127C135.39 164.864 145.541 164.944 155.62 163.681C165.771 162.426 175.016 158.524 182.024 152.188ZM334.324 144.924L327.038 152.285C343.645 165.655 363.029 166.764 383.86 161.413C379.746 153.887 378.287 146.05 376.888 138.172C376.688 140.227 376.03 142.211 374.964 143.979C373.898 145.746 372.45 147.252 370.727 148.386C363.553 153.205 355.642 153.955 347.353 151.732C342.552 150.482 338.098 148.156 334.328 144.928L334.324 144.924ZM336.782 73.336C337.105 64.72 330.141 57.5971 321.791 56.8707C312.699 56.0959 304.12 62.0807 301.452 71.1406C301.214 71.9477 301.129 73.223 301.585 73.7759C304.571 77.4321 306.384 81.4193 306.223 86.2661C306.241 86.8022 306.374 87.3281 306.613 87.808C306.852 88.2879 307.192 88.7104 307.609 89.0466C311.615 91.6294 315.887 92.8966 320.832 92.0289C329.621 90.4914 337.218 82.3717 336.782 73.34V73.336ZM172.296 72.5289C172.235 79.345 174.686 83.881 178.994 87.5655C185.51 93.1387 194.013 94.079 201.336 89.2161C202.492 88.4493 203.137 87.5817 202.984 86.1127C202.768 84.2649 202.941 82.3924 203.491 80.6153C204.04 78.8383 204.955 77.1959 206.176 75.7937C208.191 73.449 208.102 71.3908 206.824 68.9856C206.099 67.6095 205.511 66.1203 204.58 64.9016C199.341 58.0773 191.732 55.3291 184.071 57.5083C177.301 59.4333 172.022 65.5876 172.296 72.5168V72.5289ZM408.979 145.033C410.945 142.502 413.15 140.234 414.681 137.575C417.393 132.857 419.835 128.232 418.401 122.118C417.115 116.606 411.691 115.258 407.645 117.042C404.219 118.563 401.624 123.68 402.535 127.433C403.982 133.394 405.062 139.528 408.979 145.02V145.033ZM100.531 144.855C101.453 142.914 102.578 141.11 103.19 139.145C104.738 134.161 107.035 129.358 106.285 123.809C105.451 117.639 99.6762 114.854 94.5985 116.949C91.7493 118.111 89.2669 123.781 90.1938 127.223C90.811 129.596 91.6197 131.915 92.6118 134.157C94.4575 138.212 96.9641 141.857 100.531 144.855ZM252.947 151.284L231.564 154.613V164.63C235.776 164.63 239.624 164.912 243.433 164.537C246.298 164.254 249.074 163.181 251.895 162.329C252.168 162.188 252.402 161.983 252.578 161.733C252.755 161.482 252.869 161.193 252.911 160.889C252.992 157.587 252.947 154.298 252.947 151.284ZM256.171 151.284C256.171 154.137 256.232 157.164 256.143 160.182C256.107 161.437 256.51 162.119 257.678 162.604C264.086 165.283 270.731 165.138 277.619 164.488V154.625L256.171 151.284ZM340.514 182.874C338.277 184.602 336.403 186.216 334.356 187.568C333.171 188.347 332.507 189.755 333.627 190.627C335.956 192.431 338.314 194.432 341.002 195.47C343.69 196.507 346.789 196.454 349.702 196.906C351.314 197.157 352.217 196.228 352.402 194.933C352.66 193.427 352.585 191.883 352.185 190.409C351.125 187.063 348.61 185.009 345.298 184.008C343.569 183.488 341.775 183.193 340.514 182.879V182.874ZM156.607 192.762C156.607 196.043 157.252 197.08 159.428 196.878C161.774 196.66 164.087 196.168 166.424 195.885C169.753 195.482 171.804 192.729 174.678 191.486C175.081 191.317 175.609 190.849 175.621 190.506C175.645 189.557 175.774 188.226 175.218 187.721C173.477 186.107 171.462 184.763 169.523 183.359C169.178 183.092 168.749 182.959 168.314 182.983C166.783 183.262 165.272 183.633 163.756 183.996C160.452 184.808 155.91 189.105 156.607 192.762ZM133.318 167.374C133.169 170.626 132.827 174.097 132.915 177.56C132.976 179.767 135.361 181.252 137.328 179.711C139.3 178.069 141.776 177.157 144.34 177.128H148.245C148.648 173.823 149.051 170.82 149.414 167.846C147.25 167.846 144.578 167.902 141.894 167.846C139.21 167.789 136.53 167.551 133.318 167.374ZM375.897 167.624H358.971C360.756 170.873 360.825 173.887 360.277 177.136C362.223 177.136 364.246 176.781 366.072 177.233C368.159 177.741 370.102 178.948 372.056 179.892C374.011 180.837 375.683 180.231 375.828 178.145C376.082 174.517 375.897 170.856 375.897 167.624ZM210.089 160.638L228.26 164.468V154.432L211.08 153.221C210.786 155.424 210.464 157.825 210.089 160.638ZM298.957 160.658C298.635 157.999 298.324 155.489 298.046 153.225L280.843 154.436V164.476L298.957 160.658ZM152.577 170.582C152.577 173.06 152.501 175.203 152.598 177.338C152.735 180.36 154.637 182.225 157.03 181.506C159.808 180.682 162.521 179.653 165.147 178.427C168.165 176.995 168.181 175.284 165.683 173.04C164.679 172.136 163.628 170.965 163.285 169.726C162.838 168.112 161.862 168.032 160.774 168.294C158.058 168.952 155.398 169.787 152.577 170.582ZM346.249 167.757C345.846 170.34 345.269 171.918 343.488 173.165C340.667 175.138 340.861 176.974 343.98 178.456C346.613 179.665 349.326 180.692 352.1 181.531C353.897 182.104 355.82 180.99 356.049 179.214C356.384 176.664 356.408 174.069 356.489 171.49C356.451 171.289 356.364 171.1 356.237 170.94C356.11 170.78 355.946 170.653 355.759 170.57C352.676 169.597 349.565 168.71 346.257 167.741L346.249 167.757ZM301.919 159.524C308.823 157.168 315.516 154.702 321.69 150.545C320.405 149.153 319.3 147.833 318.063 146.675C317.818 146.476 317.531 146.337 317.223 146.267C316.916 146.197 316.597 146.198 316.29 146.272C311.2 148.37 306.147 150.565 301.053 152.729C301.303 154.674 301.597 156.962 301.927 159.508L301.919 159.524ZM187.529 150.646C193.683 154.645 200.324 157.285 207.227 159.456C207.518 156.901 207.78 154.613 208.033 152.595C203.665 150.828 199.236 149.145 194.904 147.236C191.543 145.751 191.587 145.622 189.262 148.33C188.653 149.012 188.158 149.791 187.537 150.642L187.529 150.646ZM102.759 169.505C101.187 168.003 99.4425 166.341 97.7016 164.662C95.332 162.39 93.0712 159.948 89.6981 159.177C89.0775 159.032 88.1546 159.008 87.7516 159.363C86.7683 160.223 87.0101 165.041 87.9975 165.981C89.9721 167.866 91.9428 169.767 94.0424 171.518C96.0574 173.213 98.2376 174.747 100.341 176.333C101.179 173.956 101.917 171.869 102.759 169.505ZM421.375 158.83C414.189 159.718 411.111 165.985 406.355 169.432C407.185 171.853 407.927 174.041 408.733 176.409C410.853 174.795 412.92 173.387 414.826 171.777C417.059 169.884 419.219 167.89 421.274 165.796C421.802 165.259 421.963 164.182 421.947 163.338C421.883 161.914 421.58 160.493 421.375 158.83ZM353.825 185.276C354.45 186.547 355.034 187.786 355.671 188.997C355.868 189.376 356.162 189.905 356.501 189.989C360.253 190.913 364.033 191.482 367.748 189.896C368.581 189.564 369.297 188.994 369.808 188.257C370.319 187.52 370.602 186.649 370.622 185.752C370.714 183.912 369.872 182.16 368.147 181.64C365.375 180.8 362.449 180.465 359.568 179.912C358.862 183.569 356.851 185.021 353.809 185.276H353.825ZM149.619 180.187C147.387 180.389 145.291 180.59 143.171 180.76C140.907 180.958 138.706 182.963 138.436 185.094C138.174 187.14 139.645 189.202 141.874 190.066C145.452 191.45 149.003 190.833 152.549 189.997C152.896 189.917 153.21 189.42 153.408 189.049C154.048 187.838 154.617 186.587 155.265 185.284C152.247 184.997 150.159 183.557 149.619 180.187ZM181.593 172.208C178.341 172.814 175.548 173.867 173.295 176.006C172.05 177.188 171.788 179.961 172.622 181.228C173.976 183.274 176.785 184.67 178.514 183.968C180.932 182.996 183.302 181.91 185.623 180.74C186.167 180.469 186.909 179.408 186.767 179.154C185.558 176.982 184.172 174.888 182.762 172.826C182.504 172.463 181.879 172.354 181.593 172.208ZM337.093 178.468C336.536 177.717 335.795 176.046 334.517 175.146C332.805 173.936 330.729 173.165 328.702 172.568C327.824 172.309 326.284 172.624 325.736 173.27C324.483 174.799 323.721 176.716 322.649 178.407C321.867 179.65 322.532 180.304 323.496 180.764C325.845 181.886 328.19 183.028 330.616 183.964C333.042 184.9 337.052 181.983 337.085 178.468H337.093ZM78.3981 132.397C78.5472 130.783 78.5835 129.253 78.8535 127.772C79.188 125.96 79.3411 124.015 81.4206 123.063C81.7954 122.893 82.0573 122.001 82.017 121.473C81.9138 119.923 81.4614 118.418 80.6936 117.069C79.9258 115.72 78.8626 114.562 77.5841 113.684C74.8759 116.105 73.0504 118.737 73.4977 122.647C73.808 125.351 73.4493 128.131 73.3849 131.122L78.3981 132.397ZM430.869 132.397L435.951 131.049C435.669 128.366 434.742 125.738 435.29 123.495C436.411 119.055 434.323 116.376 431.514 113.656C428.46 116.109 426.823 119.063 427.081 122.905C430.1 124.237 429.435 124.031 430.869 132.393V132.397ZM379.137 195.704C378.299 192.907 377.182 190.159 379.6 187.818C382.301 185.207 385.645 183.835 389.49 184.432C391.074 184.674 392.392 184.747 393.407 183.222C393.705 182.778 394.322 182.544 394.87 182.164C393.21 180.602 391.582 179.339 389.155 179.928C386.065 180.663 382.881 181.071 379.887 182.035C374.869 183.649 373.983 184.9 373.584 189.598C376.808 190.296 376.997 193.912 379.137 195.704ZM89.4402 140.932C88.9243 141.84 88.481 142.547 88.1103 143.297C86.7441 146.033 87.4131 148.757 88.0781 151.53C88.7793 154.448 90.6854 155.993 93.45 156.498C95.3884 156.853 96.948 155.949 97.0769 153.576C97.2986 149.331 95.9566 146.086 92.644 143.539C91.6687 142.785 90.7217 141.978 89.4402 140.932ZM130.01 195.704C132.061 193.71 132.452 190.159 135.716 189.521C135.293 187.98 135.148 186.628 134.551 185.514C134.056 184.586 133.169 183.581 132.222 183.234C128.955 181.987 125.613 180.948 122.216 180.122C119.395 179.468 116.413 179.315 114.414 182.192C115.22 182.866 115.909 183.565 116.707 184.126C117.134 184.428 117.815 184.771 118.222 184.63C120.991 183.682 123.566 184.404 126.064 185.482C130.989 187.632 132.025 190.558 130.01 195.704ZM420.029 140.714C418.647 141.772 417.885 142.373 417.103 142.946C413.182 145.832 411.381 149.637 412.215 154.504C412.316 154.851 412.486 155.173 412.716 155.45C412.947 155.728 413.231 155.955 413.553 156.118C415.826 157.212 419.162 156.005 420.271 153.35C421.179 151.193 421.671 148.883 421.721 146.542C421.725 144.73 420.698 142.906 420.021 140.723L420.029 140.714ZM110.88 180.227C112.818 178.476 115.276 176.999 115.816 173.843C116.195 171.627 115.369 168.968 113.64 168.278C111.283 167.337 107.66 168.471 106.314 170.998C105.141 173.201 104.496 175.687 103.638 177.995L110.88 180.227ZM398.191 180.267L404.937 178.112C404.719 174.949 404.099 171.922 401.624 169.638C399.662 167.814 395.781 167.172 394.249 168.831C392.891 170.32 393.165 172.487 393.548 174.581C394.088 177.543 396.76 178.439 398.191 180.267ZM112.209 158.742L102.606 152.47C98.7252 157.531 102.038 163.048 105.314 165.937C105.439 166.034 105.584 166.103 105.739 166.14C105.893 166.176 106.053 166.178 106.209 166.147C108.224 165.509 110.202 164.815 112.209 164.129V158.742ZM397.191 164.391C398.4 164.69 400.04 164.726 401.249 165.465C403.333 166.744 404.312 165.546 405.485 164.234C408.366 161.006 409.394 155.634 406.456 152.531C403.345 154.516 400.21 156.486 397.127 158.532C396.861 158.705 396.833 159.379 396.853 159.811C396.921 161.296 397.062 162.765 397.195 164.408L397.191 164.391ZM66.4211 137.526C68.2104 142.478 69.9634 147.329 71.7205 152.176L72.5466 152.051C72.6757 151.521 72.7513 150.981 72.7723 150.436C72.3693 144.322 74.481 140.936 78.0112 139.641C78.0596 136.413 77.7856 136.122 74.8316 135.133C71.523 134.019 69.2461 136.065 66.4211 137.526ZM436.689 152.075L437.454 152.135L442.589 137.51C441.801 136.979 440.985 136.49 440.146 136.045C439.251 135.656 438.335 135.316 437.402 135.028C433.892 133.846 430.954 136.082 431.123 138.911C432.763 140.686 434.093 141.869 435.093 143.281C436.632 145.46 436.342 148.059 436.338 150.545C436.391 151.068 436.509 151.581 436.689 152.075ZM323.447 167.006C322.561 166.663 322.154 166.462 321.718 166.341C320.397 165.977 318.938 165.13 317.757 165.408C315.339 165.99 313.598 167.644 312.784 170.211C311.978 172.685 312.663 176.216 314.686 177.313C315.895 177.959 317.406 178.004 319.026 178.371L323.447 167.006ZM185.498 166.672L190.221 178.807C192.204 177.846 194.142 177.313 195.533 176.135C197.306 174.63 196.677 172.261 196.274 170.32C195.871 168.471 194.662 167.031 192.905 165.973C190.298 164.408 188.371 166.768 185.518 166.688L185.498 166.672ZM177.035 160.473C179.647 161.651 182.044 163.81 185.639 163.072C188.573 162.47 191.063 161.53 192.615 158.915C192.833 158.556 192.434 157.434 191.998 157.152C190.235 156.021 188.41 154.987 186.534 154.056C186.29 153.959 186.027 153.918 185.765 153.939C185.503 153.959 185.249 154.039 185.022 154.173C182.314 156.256 179.663 158.403 177.043 160.489L177.035 160.473ZM332.055 160.473C329.436 158.395 326.78 156.252 324.076 154.169C323.878 154.031 323.652 153.939 323.414 153.9C323.177 153.861 322.933 153.876 322.702 153.943C320.735 154.98 318.789 156.074 316.927 157.289C316.72 157.506 316.571 157.773 316.495 158.064C316.419 158.355 316.418 158.66 316.491 158.951C317.7 161.373 320.018 162.438 322.504 162.951C323.999 163.257 325.7 163.487 327.106 163.068C328.936 162.523 330.556 161.296 332.063 160.473H332.055ZM194.179 162.874C197.346 164.145 198.821 166.659 199.712 169.626C200.348 171.756 203.238 172.636 204.785 170.99C206.059 169.638 207.026 167.886 206.526 165.965C206.027 164.044 205.603 162.095 203.016 161.546C200.788 161.07 198.696 159.964 196.496 159.125L194.179 162.874ZM312.566 159.06C311.204 159.633 309.959 160.174 308.702 160.675C307.859 161.014 307.005 161.336 306.135 161.595C304.926 161.958 303.656 162.208 303.338 163.734C303.076 164.997 302.532 166.268 302.584 167.523C302.653 169.666 304.76 171.918 306.59 171.825C308.653 171.72 309.314 170.154 309.842 168.314C310.588 165.715 312.453 163.923 314.871 162.858L312.566 159.06ZM326.836 167.919C330.367 169.456 333.724 170.945 337.105 172.358C337.592 172.559 338.314 172.685 338.737 172.471C340.623 171.514 341.671 168.387 340.869 166.45C339.434 162.999 338.854 162.696 335.525 163.625C335.211 163.709 334.88 163.726 334.562 163.806C331.666 164.461 328.998 165.881 326.836 167.919ZM182.161 167.947C180.678 166.103 177.422 164.577 173.017 163.358C171.079 162.818 170.043 163.294 168.987 164.896C167.375 167.317 167.831 170.84 170.289 172.378C170.537 172.503 170.808 172.576 171.085 172.593C171.362 172.61 171.64 172.569 171.901 172.475C175.335 171.014 178.728 169.472 182.161 167.947ZM443.249 133.555C443.386 131.719 443.596 130.149 443.604 128.579C443.632 124.277 443.656 119.971 443.503 115.665C443.455 114.273 442.049 113.728 440.916 113.858C440.396 113.914 439.917 115.133 439.594 115.9C439.376 116.52 439.272 117.175 439.288 117.833C439.224 121.178 438.853 124.568 439.288 127.853C439.566 130.028 440.416 132.454 443.249 133.555ZM65.6111 133.555C67.7752 132.748 69.3952 130.533 69.9554 127.986C70.8944 123.692 69.8022 119.487 69.2622 115.27C69.1937 114.733 68.2306 113.801 68.1137 113.862C67.211 114.346 66.0463 114.862 65.6756 115.69C65.1638 116.836 65.1235 118.264 65.1517 119.564C65.2403 124.164 65.4459 128.777 65.6111 133.555ZM399.533 131.538C398.408 131.792 397.232 132.05 396.059 132.345C395.656 132.441 395.084 132.45 394.874 132.72C393.665 134.298 392.883 136.001 393.834 138.043C394.241 138.855 394.564 139.707 394.797 140.585C395.293 142.68 396.756 144.145 398.642 144.217C400.069 144.278 401.548 143.007 402.89 142.405C401.628 138.309 400.532 134.766 399.533 131.538ZM106.366 141.804C108.538 144.629 111.669 145.303 113.152 142.801C114.406 140.686 115.034 138.107 115.482 135.65C115.667 134.641 114.647 133.414 114.341 132.684L109.594 131.59C108.586 134.766 107.49 138.241 106.366 141.804ZM93.4177 113.228C93.4742 112.513 93.4742 111.796 93.4177 111.081C92.8979 107.877 90.7539 105.794 88.4408 103.756C85.2853 100.98 84.5881 100.931 81.5898 103.942C80.3003 105.242 79.9779 107.501 80.8806 108.999C81.4448 109.919 82.0049 110.54 83.2703 109.677C84.1582 109.126 85.2002 108.879 86.2404 108.97C89.1218 109.249 91.5075 110.524 93.4177 113.228ZM415.914 113.228C416.454 112.611 416.906 112.041 417.405 111.521C419.989 108.845 422.793 108.397 426.295 109.846C426.747 110.032 427.936 109.414 428.21 108.878C429.374 106.585 428.548 104.329 426.195 102.578C424.913 101.622 423.628 101.206 422.33 102.445C420.525 104.164 418.55 105.778 417.067 107.748C415.951 109.237 414.77 111.081 415.914 113.24V113.228ZM389.905 108.365C390.256 108.938 390.679 110.076 391.469 110.827C392.472 111.779 393.721 111.42 394.668 110.528C396.397 108.914 398.029 107.171 399.746 105.528C400.601 104.721 400.314 104.059 399.613 103.417C398.34 102.255 397.074 101.077 395.732 99.9992C395.438 99.7611 394.624 99.6885 394.411 99.9024C392.222 102.126 390.469 104.616 389.905 108.377V108.365ZM119.286 108.365C118.697 105.144 117.097 102.195 114.72 99.9468C114.482 99.7208 113.511 99.9468 113.108 100.258C111.899 101.178 110.819 102.275 109.666 103.252C108.792 104.007 108.53 104.769 109.429 105.673C110.968 107.247 112.391 108.954 114.067 110.363C114.934 111.089 116.231 112.029 117.436 110.895C118.274 110.125 118.819 109.035 119.286 108.369V108.365ZM221.413 166.623L209.996 163.98C209.686 166.78 209.392 169.436 209.033 172.664C209.944 172.806 211.366 173.306 212.728 173.181C216.895 172.81 218.403 168.915 221.413 166.623ZM299.094 163.972L288.076 166.538C288.076 166.603 288.02 166.793 288.076 166.857C289.716 168.528 291.3 170.263 293.033 171.825C294.766 173.387 298.461 174.347 300.073 172.483C299.719 169.363 299.4 166.647 299.094 163.972ZM432.993 148.531C432.562 147.075 432.328 145.989 431.913 144.976C431.349 143.596 430.676 143.241 429.249 144.379C426.352 146.695 424.893 149.706 424.309 153.225C424.208 153.846 424.442 154.839 424.885 155.186C426.9 156.772 429.455 156.357 430.773 154.052C431.788 152.281 432.328 150.234 432.993 148.531ZM76.4114 148.891C76.5726 149.492 76.8426 150.63 77.1932 151.74C78.4022 155.525 79.9537 156.425 83.6411 155.275C84.165 155.11 84.8984 154.117 84.7936 153.681C84.1448 150.917 84.032 147.862 81.4166 145.953C80.3607 145.182 79.2686 144.46 78.1926 143.717C77.6002 145.053 76.9836 146.389 76.4275 147.732C76.3469 147.906 76.4114 148.136 76.4114 148.891ZM298.51 177.039L314.388 186.959C315.307 181.906 312.01 179.694 309.169 177.677C306.175 175.586 302.572 175.082 298.51 177.043V177.039ZM194.622 187.031L210.286 177.245L210.137 176.438C208.36 176.264 206.575 175.881 204.814 175.961C201.698 176.107 199.369 177.943 197.132 179.965C195.178 181.732 194.32 183.791 194.622 187.031ZM411.03 183.109C407.806 181.736 405.114 181.587 402.442 182.64C400.451 183.387 398.517 184.279 396.655 185.308C393.5 187.12 392.678 188.879 393.484 191.926L411.03 183.109ZM98.3262 183.242L115.715 191.943C116.328 189.065 115.635 187.164 113.33 186.038C112.121 185.457 110.569 185.231 109.755 184.339C107.579 181.914 101.3 181.252 98.3181 183.242H98.3262ZM437.986 100.423C434.839 100.742 433.428 102.441 433.15 105.04C432.824 108.062 433.15 110.863 436.693 111.941C437.821 110.326 439.683 109.794 442.625 110.496C440.989 106.94 439.461 103.623 437.986 100.423ZM72.4701 112.009C75.9801 109.757 76.6935 107.953 75.5651 103.397C75.0573 101.335 73.264 100.774 71.1321 100.371L66.5058 110.653C69.3267 109.745 71.2812 110.29 72.4701 112.009ZM178.284 193.311C182.572 191.696 186.405 190.284 190.197 188.766C190.556 188.625 190.793 187.838 190.85 187.322C191.059 185.453 191.164 183.573 191.325 181.478C190.771 181.649 190.232 181.867 189.713 182.128C187.316 183.548 185.018 185.171 182.528 186.41C180.839 187.253 179.183 187.701 179.469 190.167C179.578 190.962 178.869 191.85 178.284 193.311ZM317.753 181.454C317.934 183.508 318.22 185.26 318.2 187.007C318.2 188.218 318.603 188.871 319.687 189.202C320.247 189.372 320.799 189.557 321.348 189.759L330.479 193.133C330.109 191.41 329.899 190.013 329.484 188.694C329.269 188.084 328.839 187.573 328.275 187.257C325.132 185.679 321.747 184.545 319.171 181.966C318.853 181.636 318.24 181.615 317.753 181.454ZM188.682 143.858L180.461 136.441C179.888 137.651 179.469 139.064 178.631 140.154C177.793 141.243 177.966 142.079 178.728 142.93C180.561 144.984 182.451 146.994 184.233 148.927L188.682 143.858ZM320.566 143.741C321.843 145.376 323.153 147.058 324.725 149.076C326.691 146.95 328.565 145 330.334 142.958C330.737 142.47 331.213 141.53 331.015 141.062C330.293 139.501 329.486 137.981 328.597 136.509L320.566 143.741ZM134.443 196.66L153.456 197.524C153.218 195.91 153.053 194.675 152.876 193.561C148.495 194.219 144.11 194.731 139.831 193.133C136.861 192.031 135.108 192.992 134.443 196.66ZM374.728 196.624C373.971 193.52 372.085 191.737 370.436 192.588C365.786 194.937 361.014 194.154 356.235 193.593C356.066 194.776 355.888 195.978 355.659 197.564L374.728 196.624ZM66.3365 186.018C67.4971 185.792 69.1937 186.704 69.6128 184.339C70.2012 181.018 68.3031 177.624 65.0187 176.765C64.4369 176.595 63.8136 176.639 63.2616 176.89C61.9761 177.64 61.2023 180.417 61.7544 182.027C63.1125 186.111 62.2138 185.853 66.3365 186.018ZM443.382 186.123C444.043 185.95 445.627 186.01 446.32 185.255C448.251 183.149 448.045 179.468 446.062 177.402C445.591 176.914 444.45 176.765 443.713 176.934C442.907 177.124 442.262 177.886 441.517 178.351C439.739 179.452 438.97 182.035 439.57 184.59C440.021 186.575 441.573 185.845 443.366 186.119L443.382 186.123ZM97.6693 112.506C100.672 112.506 103.46 113.345 105.794 115.278C106.777 116.085 107.551 116.436 108.421 115.367C109.292 114.297 109.997 113.196 108.659 111.973C108.075 111.44 107.543 110.718 106.846 110.456C103.384 109.156 99.8777 107.978 96.1581 106.678C96.7263 108.87 97.1736 110.601 97.6693 112.506ZM411.445 112.506C411.941 110.54 412.372 108.821 412.803 107.106C411.803 107.252 410.813 107.465 409.841 107.744C406.928 108.769 403.659 108.954 401.237 111.186C398.964 113.301 399.222 114.798 402.2 116.206C404.678 113.806 407.998 112.474 411.445 112.498V112.506ZM406.037 89.9264C403.123 90.2411 399.932 92.9733 399.694 95.4309C399.561 96.7869 402.708 99.8338 404.127 99.6441C404.449 99.5997 404.763 99.2405 405.025 98.9944C406.073 97.9492 406.915 96.5206 408.165 95.9031C410.228 94.8821 409.861 94.1436 408.499 92.8885C407.552 92.0168 406.867 90.9151 406.037 89.9183V89.9264ZM99.2088 94.3655C101.091 96.1452 102.594 97.594 104.149 99.0105C104.492 99.3213 105.072 99.6603 105.451 99.5715C106.619 99.3264 107.646 98.6381 108.318 97.651C108.989 96.6638 109.253 95.4545 109.054 94.2768C108.816 92.5858 104.399 89.6398 103.138 90.5398C101.603 91.6334 100.394 93.1992 99.2088 94.3736V94.3655ZM98.4028 89.6923C89.4845 88.4493 87.3607 89.4623 84.9871 90.4994L88.9042 95.326C89.3918 95.1727 90.0527 94.7287 90.6169 94.8337C94.1069 95.4632 96.4039 94.1718 97.5766 90.8223C97.6734 90.4873 97.9958 90.225 98.4028 89.7004V89.6923ZM424.276 90.3743C420.94 88.9417 415.548 88.7036 410.978 89.886C411.707 91.0967 412.461 92.3074 413.146 93.5544C413.678 94.5189 414.383 94.8781 415.523 94.8498C417.192 94.8054 418.864 95.0233 420.384 95.1162C421.572 93.6351 422.89 92.037 424.276 90.3743ZM82.8593 126.328C82.4563 130.157 81.9404 133.995 81.751 137.873C81.7027 138.866 82.5852 140 83.2784 140.88C83.496 141.15 84.7735 141.041 85.0959 140.682C85.8996 139.717 86.6336 138.697 87.2922 137.627C86.8006 136.053 86.325 134.952 86.1276 133.801C85.8656 132.308 85.918 130.759 85.6681 129.257C85.4183 127.756 85.3377 126.065 82.8593 126.328ZM421.375 137.099C422.157 138.075 422.773 138.939 423.495 139.714C424.019 140.279 424.849 141.235 425.232 141.106C425.969 140.852 426.844 140.037 427.017 139.306C427.307 138.035 427.17 136.647 427.081 135.315C426.888 132.304 426.614 129.302 426.372 126.291L425.622 125.932C425.038 126.55 424.24 127.074 423.926 127.813C423.555 128.68 423.74 129.77 423.442 130.69C422.733 132.805 424.071 135.545 421.347 137.099H421.375ZM112.451 128.624C114.635 129.027 115.574 127.587 116.175 126.166C117.497 123.022 116.699 119.955 114.966 117.219C114.668 116.755 112.407 116.759 112.145 117.195C111.396 118.415 111.022 119.828 111.069 121.259C111.278 123.712 111.939 126.13 112.423 128.628L112.451 128.624ZM115.675 161.175C115.389 163.423 116.711 165.868 118.899 166.631C122.361 167.842 125.871 168.903 129.425 170.049C129.828 166.587 129.828 166.587 126.798 165.63C126.737 165.61 126.697 165.542 126.637 165.517L115.675 161.175ZM379.713 170.053C383.272 168.907 386.778 167.838 390.244 166.635C392.44 165.872 393.762 163.407 393.468 161.159C389.772 162.644 386.085 164.23 382.325 165.598C379.318 166.704 379.278 166.591 379.697 170.053H379.713ZM392.037 122.893C392.331 125.125 392.968 126.929 394.628 128.265C395.7 129.132 396.571 128.834 396.849 127.486C397.288 125.375 397.828 123.273 398.009 121.138C398.066 119.91 397.805 118.688 397.252 117.59C397.117 117.262 396.886 116.982 396.59 116.788C396.293 116.593 395.945 116.492 395.591 116.499C395.236 116.505 394.892 116.619 394.603 116.824C394.314 117.03 394.094 117.318 393.971 117.651C393.198 119.35 392.658 121.142 392.021 122.893H392.037ZM379.431 178.443L390.179 175.933C390.094 174.359 389.998 172.551 389.901 170.816L380.032 173.282C379.822 174.936 379.637 176.559 379.415 178.443H379.431ZM119.213 170.828C119.137 172.572 119.056 174.347 118.988 175.941L129.687 178.427C129.454 176.462 129.26 174.832 129.075 173.262L119.213 170.828ZM80.6267 91.7303L74.1264 96.8313L79.0308 101.036C80.4615 100.023 82.1701 98.6998 83.9997 97.5617C85.3538 96.7183 85.0596 95.9475 84.1811 95.0677C83.1172 94.0064 81.9969 93.0096 80.6267 91.7263V91.7303ZM430.023 100.98L435.053 96.8595L428.488 91.7464C427.118 93.0298 425.945 94.0669 424.861 95.1767C424.055 95.9838 423.857 96.7465 425.103 97.5214C426.904 98.6594 428.629 99.9871 430.011 100.976L430.023 100.98ZM386.959 159.956L394.056 156.163L390.993 152.075L384.545 154C385.279 155.844 386.065 157.769 386.959 159.956ZM389.889 192.782C389.776 191.458 389.534 190.361 389.623 189.251C389.748 187.758 388.97 187.515 387.818 187.637C387.176 187.717 386.542 187.852 385.923 188.04C381.998 189.162 381.015 191.16 382.744 194.465C382.817 194.576 382.901 194.68 382.994 194.776L389.889 192.782ZM126.177 194.8C128.245 190.994 128.099 190.647 124.323 188.605C123.508 188.214 122.651 187.919 121.768 187.725C120.064 187.265 119.56 187.725 119.52 189.557C119.5 190.591 119.322 191.62 119.205 192.786L126.177 194.8ZM122.119 159.928C122.961 157.866 123.731 155.933 124.537 154.016L118.029 152.046L115.099 156.179L122.119 159.928ZM418.828 98.8007C413.758 96.4479 409.559 99.4302 406.408 104.975C410.812 102.772 416.341 104.14 418.828 98.8047V98.8007ZM102.691 104.761C99.4667 99.4504 95.1788 96.3228 90.0366 99.0549C91.1771 100.177 92.0516 101.654 93.2807 102.126C96.1581 103.224 99.2491 103.833 102.691 104.761ZM73.675 184.041C72.9537 185.518 72.1799 186.789 71.7205 188.165C71.5109 188.783 71.7648 190.155 72.0912 190.256C74.2553 190.917 76.5 191.329 78.8172 191.846C78.6157 185.804 77.9911 184.961 73.667 184.041H73.675ZM435.447 184.073C431.337 184.852 430.305 185.764 430.454 191.838C432.643 191.353 434.803 190.978 436.874 190.32C437.277 190.191 437.704 188.847 437.511 188.274C437.011 186.825 436.173 185.51 435.439 184.073H435.447ZM82.6578 167.987L82.287 168.895C86.0832 172.358 89.9721 175.731 93.6354 179.335C95.199 180.873 96.1742 180.332 97.3147 179.267C93.1236 175.635 89.0211 172.003 84.8219 168.479C84.3302 168.056 83.3953 168.14 82.6578 167.987ZM411.788 179.081C411.788 179.339 411.788 179.598 411.788 179.856C412.815 179.856 414.206 180.316 414.806 179.816C418.949 176.244 422.922 172.479 426.948 168.774L426.404 167.878C425.55 168.185 424.567 168.318 423.861 168.839C422.652 169.735 421.645 170.913 420.48 171.894C417.591 174.315 414.681 176.688 411.788 179.081ZM452.849 187.778C454.058 187.584 455.335 187.532 456.5 187.16C457.854 186.733 459.035 183.932 458.172 183.528C456.318 182.659 454.355 182.043 452.337 181.696C451.821 181.623 450.806 183.209 450.447 184.19C449.214 187.596 449.286 187.632 452.849 187.778ZM55.8586 187.632C59.4856 187.632 59.5057 187.632 58.6796 184.315C58.5144 183.633 58.4096 182.786 57.9582 182.362C57.5069 181.938 56.0803 181.474 55.9432 181.652C54.7987 183.266 52.9047 182.519 51.5546 183.266C51.3208 183.452 51.1368 183.693 51.0193 183.968C50.9018 184.242 50.8545 184.542 50.8816 184.84C51.611 187.632 53.8436 187.762 55.8586 187.632ZM393.649 146.409C393.584 146.623 393.226 147.196 393.278 147.724C393.588 150.763 395.773 152.995 398.674 152.789C399.734 152.716 401.294 151.578 401.548 150.646C401.757 149.883 400.564 148.201 399.617 147.781C397.86 147.002 395.845 146.873 393.633 146.401L393.649 146.409ZM388.132 123.063C387.58 123.365 386.492 123.624 386.012 124.306C384.674 126.194 385.803 131.207 387.886 132.308C388.628 132.712 389.901 132.308 390.848 131.969C391.162 131.856 391.428 130.714 391.251 130.23C390.344 127.905 389.264 125.621 388.132 123.063ZM121.007 123.095C119.858 125.629 118.774 127.958 117.759 130.315C117.68 130.514 117.643 130.728 117.65 130.942C117.656 131.156 117.705 131.367 117.795 131.562C117.997 131.924 118.288 132.228 118.641 132.445C118.993 132.663 119.396 132.785 119.81 132.802C120.224 132.818 120.635 132.728 121.004 132.54C121.373 132.352 121.688 132.072 121.918 131.727C122.498 130.896 122.691 129.806 123.207 128.902C124.114 127.332 124.061 125.738 123.094 124.362C122.591 123.652 121.478 123.361 121.007 123.087V123.095ZM115.365 146.413C113.293 146.841 111.133 146.966 109.32 147.805C108.405 148.209 107.611 149.96 107.627 151.086C107.627 152.377 112.193 153.366 113.31 152.486C114.893 151.227 115.905 147.954 115.385 146.405L115.365 146.413ZM386.25 110.044C385.142 112.566 383.788 114.959 384.751 117.8C384.984 118.498 385.396 119.604 385.851 119.673C386.789 119.781 387.734 119.547 388.515 119.015C390.046 117.877 390.127 116.121 389.901 114.374L389.369 114.689L386.25 110.044ZM119.596 114.753L119 114.499C119.181 115.585 119.169 116.755 119.596 117.728C120.116 118.938 120.999 120.149 122.578 119.745C123.251 119.576 124.126 118.866 124.287 118.244C125.037 115.318 124.368 112.594 122.812 110.173L119.596 114.753ZM83.1897 164.254C83.4033 162.7 83.629 161.062 83.7821 159.94C81.7107 159.605 79.5829 159.682 77.8904 158.859C76.2784 158.072 75.1016 156.352 73.7314 155.041C75.1097 157.761 76.7902 160.231 78.3659 162.769C79.5265 164.63 80.5864 166.478 83.1897 164.254ZM425.211 159.206C425.502 161.195 425.743 162.858 425.989 164.512C426.328 164.593 426.735 164.565 426.952 164.755C428.419 166.03 429.209 165.219 430.007 163.919C431.414 161.635 432.913 159.411 434.367 157.156C434.795 156.498 435.202 155.824 435.617 155.138L435.173 154.609C432.812 158.273 430.096 161.11 425.211 159.206ZM89.7344 114.523C89.1339 114.096 88.1828 113.208 87.0625 112.667C85.8535 112.07 84.8098 112.828 84.2415 113.878C83.9745 114.539 83.9334 115.269 84.1247 115.956C84.572 117.905 85.1402 119.826 85.6923 121.747C85.8799 122.264 86.0979 122.769 86.3452 123.26L89.7344 114.523ZM422.793 123.309C423.043 122.627 423.281 122.098 423.434 121.545C423.934 119.745 424.297 117.913 424.921 116.154C425.268 115.177 425.727 114.479 424.72 113.555C423.797 112.691 422.934 112.126 421.778 112.828C420.762 113.442 419.852 114.225 418.896 114.931L419.569 114.987L422.793 123.309ZM429.495 171.462C425.425 174.807 424.845 175.861 425.776 178.435L430.035 177.878C430.325 175.966 430.599 174.182 430.902 172.208L429.495 171.462ZM83.6653 178.48C84.6163 174.626 81.2473 173.589 79.8328 171.357L77.7251 172.491H78.3014C78.5701 174.285 78.8293 176.08 79.0792 177.874L83.6653 178.48ZM385.911 137.349C386.177 141.703 387.016 145.497 389.538 148.826C389.723 146.781 389.612 144.721 389.208 142.708C388.789 140.682 388.386 138.564 385.883 137.349H385.911ZM123.062 137.668C120.31 138.564 118.532 144.903 119.931 148.83C121.547 147.24 123.352 140.864 123.034 137.668H123.062ZM45.4613 178.754C43.7003 179.085 42.2374 179.303 40.7866 179.666C40.3836 179.771 39.7952 180.3 39.7993 180.623C39.8167 180.908 39.89 181.187 40.0152 181.444C40.1403 181.701 40.3148 181.931 40.5287 182.12C41.786 183.096 45.2639 183.016 46.8799 182.059L45.4613 178.754ZM462.158 182.225C465.479 183.67 468.791 182.725 469.412 179.912L463.661 178.702C463.174 179.88 462.706 180.954 462.166 182.213L462.158 182.225ZM75.3233 198.529C75.7706 196.64 75.0654 195.554 72.9335 194.953C70.6687 194.315 69.8949 194.929 68.5006 198.529H75.3233ZM440.719 198.529C438.917 194.739 438.192 194.295 435.806 195.199C434.142 195.829 433.114 196.713 433.682 198.529H440.719ZM466.716 185.974C465.994 186.135 465.213 186.587 464.757 186.377C462.742 185.409 462.21 187.185 461.348 188.145C460.639 188.932 460.683 189.566 461.993 190.163C464.669 191.373 465.704 188.448 467.981 188.496C467.473 187.443 467.103 186.716 466.724 185.962L466.716 185.974ZM41.2944 188.093C42.5034 188.9 43.5109 189.917 44.6836 190.248C45.6346 190.518 46.8275 190.038 47.8753 189.751C48.0123 189.715 48.1372 188.674 47.9075 188.403C47.162 187.532 46.3681 186.531 45.3687 186.107C44.5627 185.76 43.4222 186.176 42.2334 186.268L41.2944 188.093ZM468.557 175.235V174.832C468.223 174.662 467.893 174.347 467.554 174.339C465.084 174.295 462.613 174.388 460.151 174.283C458.434 174.21 457.834 175.376 457.798 176.583C457.777 177.265 458.821 177.979 459.672 179.033C461.102 175.348 463.238 174.4 466.353 175.473C466.998 175.683 467.824 175.328 468.557 175.235ZM49.3623 178.867C50.257 178.06 51.2685 177.572 51.3088 177.011C51.2879 176.11 50.9179 175.254 50.2771 174.622C49.8056 174.158 48.8344 174.045 48.0889 174.053C45.5903 174.077 43.0877 174.222 40.5891 174.323V175.223C41.3024 175.32 42.1084 175.675 42.717 175.469C45.8039 174.416 47.972 175.292 49.3623 178.867ZM383.493 133.858C382.811 130.153 382.139 126.458 381.478 122.772L381.019 122.833V134.322L383.493 133.858ZM128.172 122.849L127.66 122.804C126.951 126.488 126.243 130.171 125.536 133.854L128.172 134.294V122.849ZM124.275 150.505C125.19 150.707 125.887 150.432 126.105 148.701C126.532 145.359 127.37 142.07 127.962 138.745C128.027 138.398 127.588 137.962 127.382 137.567C127.142 137.876 126.948 138.218 126.806 138.584C125.956 142.522 125.133 146.469 124.275 150.505ZM385.452 150.356C383.529 146.686 382.45 142.632 382.292 138.491C382.292 138.14 381.785 137.813 381.515 137.474L380.761 137.877C381.474 141.51 382.216 145.166 382.889 148.818C383.171 150.372 383.997 150.804 385.452 150.372V150.356ZM79.3008 199.554C85.3458 200.098 85.8293 199.614 85.0838 196.922H79.1356C79.184 197.649 79.2323 198.605 79.3008 199.554ZM429.975 196.914H423.93C423.765 199.638 423.825 199.703 426.291 199.739C427.468 199.739 428.649 199.739 429.814 199.739C429.89 198.529 429.939 197.58 429.975 196.914ZM458.757 192.846C458.425 192.376 458.068 191.923 457.689 191.491C457.427 191.22 457.04 190.857 456.738 190.881C455.194 191.01 453.659 191.256 452.2 191.45C452.329 192.544 452.458 193.633 452.579 194.65L458.757 192.846ZM50.3255 192.846L56.5558 194.654C56.6686 193.589 56.7855 192.491 56.9306 191.164C54.7867 191.979 51.9899 189.561 50.3255 192.851V192.846ZM88.1788 195.449C88.4972 196.361 88.8196 197.29 89.2145 198.416L95.7994 194.897L95.5818 194.089L88.1788 195.449ZM438.704 175.804C436.983 174.363 435.451 175.38 434.412 176.644C433.908 177.257 434.226 178.722 434.492 179.711C434.597 180.114 435.584 180.247 435.822 180.352L438.704 175.804ZM413.569 194.118C413.537 194.424 413.504 194.731 413.468 195.034L419.956 198.383L420.891 195.433L413.569 194.118ZM70.4551 175.784C71.3981 177.313 72.2766 178.734 73.3567 180.477C73.7113 180.247 74.5656 179.997 74.7107 179.537C74.9646 178.613 75.2306 177.225 74.751 176.652C73.6791 175.38 72.1719 174.388 70.4551 175.784ZM86.5991 191.668L87.0827 192.14L93.8086 190.744C92.4747 188.694 91.0481 188.411 87.8242 189.711C87.2479 189.945 86.998 190.998 86.5991 191.668ZM422.016 192.152L422.507 191.708C422.104 191.022 421.899 189.957 421.327 189.691C418.421 188.456 416.599 188.795 415.282 190.704L422.016 192.152ZM37.0629 191.636V194.63L42.3019 193.952C41.4193 190.861 39.0699 191.854 37.0629 191.64V191.636ZM466.938 194.005L472.132 194.594V191.838C468.3 191.365 467.635 191.62 466.938 194.009V194.005ZM424.623 183.363L427.444 184.791L431.168 181.345L425.187 181.668C425.002 182.209 424.845 182.701 424.619 183.367L424.623 183.363ZM84.4954 183.363C84.2738 182.721 84.0924 182.18 83.899 181.648L77.4753 181.353C78.6157 182.059 79.3452 182.378 79.8932 182.891C80.4702 183.51 80.9958 184.175 81.4649 184.88L84.4954 183.363ZM486.257 180.841L484.73 183.774C487.091 185.231 488.002 184.602 489.59 180.292C488.917 180.421 488.381 180.538 487.845 180.623C487.309 180.707 486.66 180.772 486.257 180.841ZM19.5891 180.3C21.0802 184.594 22.3254 185.413 24.3807 183.649L22.9259 180.849L19.5891 180.3ZM442.996 195.595C444.813 195.595 446.417 195.74 447.956 195.502C448.404 195.429 448.674 194.243 449.028 193.569L448.625 193.194C446.824 193.872 444.229 191.89 442.979 195.595H442.996ZM65.8892 195.215C65.1315 193.036 64.4343 192.826 60.3641 193.468C60.4366 195.825 62.5322 196.535 65.873 195.215H65.8892ZM98.3867 192.657L98.9992 192.955L103.263 190.191L99.9382 188.218C99.3821 189.808 98.8662 191.232 98.3705 192.657H98.3867ZM405.872 190.235L410.305 192.968L410.764 192.596C410.26 191.188 409.761 189.771 409.204 188.218L405.872 190.235ZM91.2819 183.944C90.9595 183.072 90.8789 182.225 90.4235 181.753C89.3878 180.683 88.1627 179.799 86.7643 178.633C87.4897 181.034 87.4816 183.536 91.2819 183.944ZM481.578 181.26L476.742 179.606C476.166 182.027 478.274 182.257 479.535 183.335L481.578 181.26ZM32.3398 179.61L27.8827 181.143L29.672 183.282C30.8729 182.229 33.041 181.983 32.3398 179.61ZM59.1188 176.418L55.2299 175.832C55.0204 176.773 54.8632 177.447 54.6899 178.254H58.5063C58.6796 177.729 58.8609 177.192 59.1188 176.418ZM450.628 178.266H454.441L453.856 175.784L450.028 176.45L450.628 178.266ZM425.594 187.741C425.594 189.247 425.643 190.683 425.594 192.112C425.558 192.919 425.163 193.823 426.586 193.609C426.703 191.696 426.811 189.937 426.92 188.161L425.594 187.741ZM82.1742 188.189C82.2749 189.428 82.42 190.478 82.4402 191.527C82.4805 193.5 82.4402 193.5 83.6008 193.44V187.709L82.1742 188.189ZM404.485 148.846C405.948 147.837 406.073 147.014 405.171 146.175C404.933 145.953 404.364 146.102 403.925 146.078C404.094 146.909 404.26 147.736 404.485 148.846ZM104.726 148.911C104.891 147.7 105.004 146.893 105.129 146.058C104.754 146.058 104.246 145.9 104.033 146.086C103.118 146.873 103.061 147.72 104.726 148.911Z" fill="#DA0101"></path><path d="M207.147 31.7087C207.506 30.4092 207.731 29.0573 208.267 27.8386C208.562 27.1687 209.355 26.3373 209.964 26.301C210.572 26.2647 211.644 27.0234 211.802 27.6247C213.131 32.5885 216.263 36.503 219.152 40.5386C222.469 45.1876 223.541 50.3169 222.271 55.8739C221.957 57.0121 221.432 58.0812 220.724 59.0257C219.95 60.1315 218.306 59.9701 217.56 58.6989C215.336 55.0244 212.563 51.7119 209.339 48.8762C203.012 43.1376 195.537 39.7638 187.271 37.8509C181.831 36.5958 176.33 36.4183 170.845 36.7613C166.618 37.0236 162.427 37.9921 158.236 38.7347C155.636 39.1948 154.645 38.767 153.803 36.2488C152.247 31.4948 150.8 26.7005 149.249 21.9425C148.695 20.2742 148.058 18.635 147.339 17.0312C146.835 15.8851 146.698 14.8439 147.846 14.1014C149.136 13.2619 150.063 14.061 150.865 15.0174C151.828 16.1676 152.65 17.467 153.75 18.4679C154.85 19.4687 155.983 19.7351 157.663 19.4284C161.572 18.71 164.679 20.5422 167.065 23.6335C167.444 24.1218 167.811 24.6181 168.355 25.3365C169.91 21.5753 168.734 18.7463 166.545 16.1555C163.994 13.1368 161.447 10.1263 160.537 6.12699C160.303 5.11405 159.831 4.06883 159.932 3.09221C160.017 2.28509 160.653 1.13494 161.298 0.929127C162.056 0.68699 163.503 1.00177 163.93 1.595C166.675 5.39202 170.561 8.21028 175.02 9.63797C178.389 10.78 179.985 13.7381 181.629 16.6115C182.971 18.9643 185.067 20.5059 187.497 21.8901C188.11 17.8303 188.637 14.0005 189.31 10.1868C189.423 9.53708 190.153 8.51607 190.6 8.51607C191.358 8.51607 192.47 8.98824 192.821 9.60972C194.995 13.5601 197.829 17.1089 201.199 20.1023C203.407 22.0152 203.983 24.5738 204.612 27.2171C204.991 28.8313 205.749 30.3124 206.337 31.854L207.147 31.7087ZM211.29 35.9582L210.818 35.1228L210.54 35.2358C210.685 35.595 210.826 35.9582 210.971 36.3174C211.262 37.5281 211.491 38.7387 211.85 39.9494C212.293 41.4063 212.051 42.738 210.488 42.9035C209.795 42.9761 208.803 41.8421 208.231 41.0511C207.203 39.6387 206.47 38.0164 205.471 36.5837C203.395 33.6176 200.957 30.8411 200.57 27.0395C200.503 26.0235 200.194 25.0384 199.668 24.1669C199.142 23.2955 198.415 22.5631 197.548 22.0313C196.363 21.2242 195.488 19.9651 194.525 18.8634C193.768 17.9957 193.091 17.0554 192.192 15.9053C191.994 17.4711 191.789 18.6898 191.692 19.9167C191.426 23.2622 192.176 26.4584 193.167 29.6021C193.626 31.063 193.087 32.4876 191.749 32.9194C190.411 33.3512 189.617 32.197 189.395 30.9016C188.875 27.8265 186.772 26.1517 184.354 24.4769C182.274 23.0322 179.957 21.2968 178.901 19.1257C176.435 14.0529 171.921 12.2974 166.835 10.2958C168.318 12.2409 169.616 13.7785 170.728 15.4331C173.868 20.1225 173.114 24.8845 170.728 29.5577C170.345 30.3164 169.415 31.2809 168.738 31.2809C167.976 31.2809 167.073 30.4133 166.477 29.7151C165.026 28.0202 163.837 26.0831 162.298 24.4688C161.459 23.6412 160.365 23.1208 159.195 22.9918C157.301 22.8425 155.37 23.1573 153.404 23.2783C154.576 26.6642 155.858 30.1389 156.95 33.6781C157.309 34.8403 157.522 35.0825 158.824 34.7758C162.072 34.009 165.377 33.218 168.685 33.0889C173.545 32.8952 178.434 33.1454 183.298 33.44C189.117 33.7951 194.541 35.7241 199.821 38.1011C207.432 41.4735 214.008 46.8173 218.87 53.5817C219.974 50.8859 219.321 48.3354 218.145 46.2046C216.146 42.6533 213.603 39.3683 211.29 35.9582Z" fill="#DA0101"></path><path d="M302.089 31.9145C304.245 30.1832 304.204 27.7497 304.974 25.6391C305.651 23.7908 306.457 21.7972 307.795 20.4211C311.019 17.0634 314.106 13.6614 316.306 9.52493C316.612 8.95187 317.729 8.4797 318.418 8.54024C318.938 8.58867 319.687 9.50878 319.796 10.1545C320.461 13.9641 320.973 17.8221 321.565 21.8335C324.435 20.5957 326.77 18.3734 328.15 15.5662C329.923 12.0068 332.684 9.87199 336.343 8.7057C340.002 7.53941 342.303 4.78309 344.838 2.2003C345.551 1.47389 346.777 1.24789 347.768 0.79187C348.135 1.63935 348.763 2.46665 348.832 3.33834C349.154 7.44255 346.897 10.5782 344.641 13.6655C343.859 14.7349 342.872 15.651 342.066 16.7083C340.115 19.2669 339.289 22.0595 340.671 25.3324C341.61 24.2589 342.481 23.1169 343.492 22.1039C345.95 19.6826 348.796 18.8754 352.281 19.5857C354.534 20.0458 355.973 18.1692 357.307 16.6034C357.807 16.0142 358.089 15.2393 358.592 14.6582C359.269 13.8713 360.1 13.387 361.176 14.0569C362.252 14.7268 362.187 15.4371 361.812 16.5348C359.709 22.7496 357.722 29.0048 355.663 35.2358C354.413 39.0131 353.362 39.7516 349.594 38.6176C342.803 36.5998 335.839 36.1963 328.92 36.7612C317.072 37.7136 306.501 42.0842 297.913 50.5146C295.673 52.714 294.021 55.5066 292.01 57.9563C291.437 58.6585 290.559 59.5463 289.817 59.5705C289.076 59.5947 288.133 58.6463 287.802 57.8917C285.07 51.9715 286.235 46.3741 289.555 41.0793C291.437 38.0849 293.585 35.256 295.431 32.2454C296.164 31.0347 296.297 29.5012 296.974 28.2623C297.438 27.3848 298.198 26.701 299.118 26.3332C299.501 26.2162 300.509 27.3986 300.884 28.1614C301.432 29.2792 301.686 30.5706 302.089 31.9145ZM297.821 35.9501C295.641 39.0575 293.279 42.056 291.337 45.3087C289.874 47.7542 289.023 50.5348 289.725 52.4638C292.546 50.0424 295.588 47.2982 298.748 44.6872C307.211 37.6975 317.096 34.013 327.864 33.1453C335.44 32.536 343.117 32.6934 350.569 34.8685C350.972 34.9856 351.887 34.5417 352.02 34.1663C353.309 30.5101 354.486 26.8135 355.699 23.1007C354.172 23.1734 352.644 23.6052 351.343 23.2299C349.279 22.6366 347.796 23.3751 346.571 24.6948C345.148 26.2243 344.056 28.0564 342.682 29.6384C342.041 30.3769 341.07 31.3172 340.264 31.2809C339.458 31.2446 338.753 30.1186 338.161 29.3438C337.758 28.799 337.6 28.0443 337.355 27.3744C335.481 22.4913 336.061 18.0078 339.478 13.956C340.369 12.8987 341.151 11.7526 342.299 10.2069C340.095 11.1634 338.455 11.9221 336.774 12.588C334.504 13.4334 332.628 15.0911 331.507 17.241C329.734 20.5744 327.074 23.016 323.874 25.0176C321.88 26.2687 320.118 27.9394 319.78 30.5787C319.706 31.2884 319.383 31.949 318.869 32.4431C318.422 32.8023 317.374 32.992 316.979 32.7095C315.899 31.9347 315.557 30.8208 316.008 29.3882C317.358 25.0903 318.067 20.7197 316.878 16.4299C314.525 18.7826 312.042 21.1313 309.758 23.6334C309.105 24.3437 308.919 25.4979 308.549 26.4583C307.622 28.8071 306.876 31.2526 305.728 33.4964C304.289 36.3214 301.464 38.3109 300.694 41.6443C300.561 42.2093 299.147 42.9034 298.429 42.7985C297.269 42.6371 296.668 41.7452 297.196 40.3287C297.668 39.0535 297.821 37.6612 298.111 36.3173L298.514 35.2156L298.26 35.1188L297.821 35.9501Z" fill="#DA0101"></path><path d="M223.017 90.2734C222.417 93.175 223.017 93.9821 225.536 94.4462C226.269 94.5834 226.87 95.4269 227.551 95.9434C226.862 96.5003 226.237 97.3841 225.463 97.5577C223.468 97.9935 221.8 97.1541 220.796 95.3744C219.588 93.1992 218.685 90.8424 220.422 88.5825C221.631 87.0167 223.509 86.8754 225.145 87.7754C227.522 89.0122 229.78 90.4686 231.887 92.1258C236.11 95.6085 241.079 97.5214 246.145 99.1437C248.797 99.9912 251.706 100.266 254.515 100.379C262.551 100.701 269.369 97.1097 275.987 93.1347C278.264 91.7666 280.238 89.9062 282.507 88.5139C283.639 87.8238 285.163 87.3032 286.444 87.4364C288.721 87.6583 289.902 89.2645 289.608 91.5809C289.132 95.322 287.287 98.1509 283.631 97.5617C282.898 97.4447 282.281 96.5972 281.616 96.0847C282.233 95.5237 282.773 94.6077 283.478 94.4704C286.15 93.8933 286.61 93.397 286.182 89.995C284.115 91.3469 282.028 92.3033 280.48 93.8126C277.131 97.0855 272.98 98.837 268.793 100.544C264.078 102.477 259.315 104.261 254.044 104.128C249.087 103.999 244.646 102.15 240.116 100.496C234.744 98.5182 230.142 95.33 225.798 91.6818C225.024 91.016 223.976 90.7375 223.017 90.2734Z" fill="#DA0101"></path><path d="M329.126 74.7928C329.198 81.5323 323.56 87.3032 317.793 87.1216C310.777 86.9037 307.674 82.065 307.436 76.169C307.178 69.8613 313.078 63.481 318.72 63.7675C324.705 64.0742 328.747 67.7749 329.126 74.7928Z" fill="#DA0000"></path><path d="M179.981 74.6879C180.449 67.5005 184.636 63.9814 190.459 63.7918C196.194 63.598 201.936 69.9178 201.666 76.1932C201.416 82.0932 198.285 87.0126 191.132 87.1297C185.595 87.2104 179.888 81.6211 179.981 74.6879Z" fill="#DA0000"></path></g><path d="M19.8039 315.816C17.8652 315.833 15.9404 315.487 14.1295 314.794C12.5403 314.182 10.9868 313.481 9.47638 312.695C8.34149 312.07 7.37683 311.617 6.5824 311.276C5.93549 310.999 5.24278 310.845 4.53959 310.822C4.22144 310.795 3.90276 310.868 3.62806 311.031C3.35337 311.193 3.1364 311.438 3.00748 311.73C2.70452 312.383 2.47611 313.068 2.32654 313.773V314.964H0L0.397214 305.545V295.331H2.1563L3.00748 299.076C3.64257 301.51 4.69883 303.815 6.12844 305.885C7.62498 308.134 9.55389 310.063 11.8029 311.56C14.2012 312.992 16.9544 313.72 19.7472 313.659C21.3722 313.66 22.9783 313.312 24.457 312.638C26.0665 311.856 27.4233 310.637 28.3724 309.12C29.3961 307.408 29.9081 305.439 29.8478 303.445C29.9041 301.854 29.625 300.269 29.0287 298.793C28.4323 297.317 27.5321 295.982 26.3863 294.877C23.4938 292.292 20.2211 290.168 16.683 288.578L13.335 286.989C9.97087 285.516 6.95471 283.35 4.48284 280.634C2.47646 278.132 1.44795 274.986 1.58885 271.782C1.54284 269.159 2.25196 266.579 3.63167 264.348C5.03402 262.17 6.99317 260.407 9.30615 259.241C11.9104 258.004 14.7646 257.382 17.6476 257.425C19.5759 257.348 21.5014 257.637 23.3221 258.276L26.8403 259.809C27.7632 260.349 28.7864 260.697 29.8478 260.83C30.6989 260.83 31.2097 260.035 31.3799 258.39H33.366V265.994V273.711H31.3231C31.063 271.023 30.2103 268.426 28.8264 266.107C27.6562 264.129 25.9947 262.487 24.0031 261.341C22.2134 260.231 20.1504 259.642 18.0449 259.638C15.2512 259.515 12.5207 260.493 10.441 262.362C9.4902 263.241 8.73961 264.314 8.24026 265.508C7.7409 266.703 7.50449 267.991 7.54706 269.285C7.47445 270.613 7.70202 271.94 8.21286 273.168C8.72371 274.396 9.50469 275.493 10.4978 276.378C12.8079 278.33 15.3644 279.971 18.1016 281.258L21.3928 282.847C24.0129 284.103 26.5191 285.584 28.8831 287.273C30.8736 288.64 32.5237 290.445 33.7064 292.55C34.9174 294.876 35.504 297.477 35.4088 300.097C35.5088 303.038 34.7813 305.948 33.3092 308.496C31.9807 310.877 30.016 312.842 27.6347 314.17C25.2051 315.371 22.5112 315.937 19.8039 315.816Z" fill="#DB0D15"></path><path d="M56.1768 315.191V313.205H56.8577C58.4276 313.032 59.9709 312.67 61.454 312.127C62.658 311.627 63.7132 310.826 64.5182 309.801C65.5799 308.416 66.4396 306.887 67.0718 305.261L86.2515 258.56H88.9753L107.815 305.147C108.586 307.234 109.741 309.159 111.219 310.822C112.596 312.114 114.384 312.878 116.27 312.978H117.858V314.964H107.985H95.2739V313.205H96.8628C98.2621 313.126 99.6231 312.718 100.835 312.014C101.269 311.738 101.619 311.349 101.849 310.889C102.079 310.429 102.179 309.916 102.14 309.403C102.05 307.911 101.685 306.449 101.062 305.091L96.4656 294.763H74.2784L69.9658 305.091C69.6253 306.055 69.2848 306.907 69.0578 307.701C68.8074 308.334 68.6729 309.007 68.6606 309.687C68.6426 310.157 68.7549 310.624 68.9852 311.034C69.2155 311.445 69.5549 311.784 69.9658 312.014C71.3148 312.655 72.7847 313.004 74.2784 313.035H75.8672V315.021H65.7666L56.1768 315.191ZM75.2998 292.493H95.7279L85.7408 267.015L75.2998 292.493Z" fill="#DB0D15"></path><path d="M134.486 315.191V313.205H135.224C136.774 313.026 138.298 312.664 139.764 312.127C140.975 311.612 142.045 310.815 142.885 309.801C143.905 308.398 144.743 306.873 145.381 305.261L164.561 258.56H167.228L186.011 305.147C186.739 307.255 187.899 309.187 189.415 310.822C190.769 312.114 192.54 312.879 194.409 312.978H195.998V314.964H186.181H173.47V313.205H175.059C176.441 313.128 177.784 312.719 178.974 312.014C179.369 311.747 179.687 311.381 179.896 310.953C180.105 310.524 180.198 310.049 180.166 309.574C180.076 308.082 179.711 306.619 179.088 305.261L174.945 294.933H152.588L148.332 305.091C147.935 306.055 147.651 306.907 147.367 307.701C147.117 308.334 146.982 309.007 146.97 309.687C146.964 310.155 147.082 310.617 147.311 311.025C147.54 311.434 147.873 311.774 148.275 312.014C149.627 312.647 151.095 312.995 152.588 313.035H154.177V315.021H144.133L134.486 315.191ZM153.666 292.493H174.037L164.05 267.015L153.666 292.493Z" fill="#DB0D15"></path><path d="M262.217 315.816C260.971 315.908 259.723 315.68 258.591 315.154C257.459 314.627 256.48 313.82 255.748 312.808C254.27 310.62 253.336 308.111 253.024 305.488C252.745 303.345 252.328 301.222 251.776 299.133C251.218 297.113 250.336 295.197 249.165 293.458C247.876 291.543 246.091 290.014 244.002 289.032C241.353 287.891 238.486 287.348 235.603 287.443H232.653V304.467C232.554 306.376 232.746 308.289 233.22 310.141C233.346 310.653 233.6 311.124 233.957 311.511C234.314 311.898 234.763 312.188 235.263 312.354C236.634 312.766 238.039 313.051 239.462 313.206H241.051V315.192H229.305H217.558V313.206H219.147C220.572 313.063 221.979 312.778 223.346 312.354C223.846 312.188 224.295 311.898 224.652 311.511C225.01 311.124 225.263 310.653 225.389 310.141C225.864 308.289 226.055 306.376 225.957 304.467V269.115C226.052 267.206 225.861 265.293 225.389 263.44C225.225 262.899 224.916 262.412 224.497 262.032C224.077 261.652 223.561 261.394 223.006 261.284C221.638 260.861 220.231 260.576 218.807 260.433H217.218V258.277L228.964 258.56H240.313C243.679 258.533 247.035 258.933 250.3 259.752C253.123 260.458 255.696 261.931 257.734 264.008C259.733 266.356 260.749 269.384 260.571 272.463C260.598 275.194 259.786 277.868 258.245 280.123C256.799 282.123 254.838 283.692 252.57 284.663C250.163 285.72 247.625 286.445 245.023 286.819C248.602 286.959 252.008 288.39 254.613 290.848C257.316 293.765 258.973 297.498 259.323 301.459C259.623 303.862 260.194 306.222 261.025 308.496C261.52 309.83 262.339 311.019 263.408 311.957C264.153 312.595 265.095 312.956 266.075 312.979C266.659 312.976 267.237 312.86 267.778 312.638L269.253 312.014L269.82 314C268.713 314.521 267.552 314.92 266.359 315.192C265.011 315.577 263.619 315.787 262.217 315.816ZM240.256 260.603H232.653V285.287H239.349C243.053 285.593 246.738 284.5 249.676 282.223C250.774 280.95 251.611 279.473 252.136 277.876C252.662 276.278 252.867 274.593 252.74 272.917C252.938 269.654 251.95 266.43 249.96 263.838C248.667 262.638 247.132 261.728 245.458 261.171C243.784 260.613 242.011 260.419 240.256 260.603Z" fill="#DB0D15"></path><path d="M287.185 315.191V313.205H287.923C289.473 313.026 290.997 312.664 292.462 312.127C293.674 311.612 294.744 310.815 295.583 309.801C296.603 308.398 297.442 306.873 298.08 305.261L317.316 258.56H319.983L338.766 305.147C339.494 307.255 340.654 309.187 342.171 310.822C343.524 312.114 345.295 312.879 347.164 312.978H348.753V314.964H338.879H326.168V313.205H327.757C329.157 313.126 330.518 312.718 331.729 312.014C332.116 311.739 332.428 311.372 332.636 310.945C332.844 310.519 332.942 310.047 332.921 309.574C332.831 308.082 332.466 306.619 331.843 305.261L327.701 294.933H305.003L300.747 305.091C300.406 306.055 300.066 306.907 299.839 307.701C299.588 308.334 299.454 309.007 299.442 309.687C299.424 310.157 299.536 310.624 299.766 311.034C299.997 311.445 300.336 311.784 300.747 312.014C302.099 312.647 303.567 312.995 305.059 313.035H306.648V315.021H296.548L287.185 315.191ZM306.308 292.493H326.736L316.749 267.015L306.308 292.493Z" fill="#DB0D15"></path><path d="M369.805 315.248V313.262H371.394C372.839 313.166 374.267 312.899 375.65 312.468C376.147 312.308 376.593 312.019 376.942 311.63C377.291 311.241 377.53 310.767 377.636 310.255C378.101 308.401 378.292 306.489 378.203 304.58V263.384C377.582 262.66 376.878 262.012 376.104 261.454C374.84 260.643 373.346 260.264 371.848 260.376H369.465V258.277L384.899 258.56C385.864 259.865 387.112 261.625 388.758 263.781L394.149 270.987L400.277 279.159L406.462 287.216C408.448 289.827 410.207 292.153 412.137 294.196L415.825 299.133V269.115C415.921 267.206 415.729 265.293 415.258 263.44C415.137 262.935 414.892 262.469 414.545 262.082C414.198 261.696 413.761 261.402 413.272 261.227C411.751 260.725 410.163 260.457 408.562 260.433H406.973V258.277L417.471 258.56L427.174 258.277V260.263L425.585 260.433C424.143 260.583 422.718 260.868 421.329 261.284C420.846 261.462 420.41 261.749 420.056 262.123C419.701 262.497 419.438 262.948 419.287 263.44C418.844 265.298 418.653 267.207 418.719 269.115V314.965H416.336C415.215 312.737 413.965 310.577 412.591 308.496C410.888 305.886 409.016 302.821 406.916 299.984L400.05 290.564C397.667 287.387 395.34 284.266 393.014 281.258L386.488 272.974C384.445 270.534 382.8 268.434 381.381 266.788V304.353C381.321 306.262 381.512 308.169 381.948 310.028C382.075 310.539 382.328 311.01 382.685 311.397C383.042 311.784 383.492 312.074 383.991 312.241C385.376 312.661 386.804 312.928 388.247 313.035H389.836V315.021H379.679L369.805 315.248Z" fill="#DB0D15"></path><path d="M478.414 315.816C473.803 315.824 469.275 314.589 465.306 312.241C461.271 309.801 457.976 306.309 455.773 302.14C453.338 297.387 452.129 292.101 452.255 286.762C452.07 282.737 452.647 278.713 453.957 274.902C455.23 271.463 457.157 268.303 459.632 265.596C462.185 263.008 465.235 260.963 468.598 259.581C471.834 258.156 475.332 257.422 478.868 257.425C480.998 257.398 483.121 257.685 485.167 258.276C486.694 258.754 488.191 259.323 489.65 259.979L492.601 261.17C493.2 261.293 493.817 261.293 494.416 261.17C494.75 261.206 495.087 261.131 495.374 260.956C495.661 260.782 495.883 260.518 496.005 260.206C496.25 259.687 496.404 259.131 496.459 258.56H498.389V267.696V276.945H496.459C496.445 273.658 495.479 270.446 493.679 267.696C491.955 265.276 489.653 263.325 486.983 262.021C484.422 260.62 481.56 259.861 478.641 259.808C475.915 259.648 473.195 260.209 470.755 261.434C468.314 262.66 466.239 264.506 464.739 266.788C461.318 272.865 459.722 279.801 460.143 286.762C459.67 293.856 461.479 300.915 465.306 306.907C466.891 309.045 468.978 310.759 471.383 311.897C473.788 313.036 476.438 313.563 479.095 313.432C481.793 313.492 484.475 313.01 486.983 312.014C489.163 311.242 491.115 309.935 492.657 308.212C493.889 306.879 494.594 305.145 494.643 303.332V301.119C494.727 300.218 494.624 299.31 494.341 298.45C494.058 297.591 493.601 296.8 492.998 296.125C491.261 294.877 489.178 294.203 487.04 294.196L483.578 293.912V291.983L496.8 292.323L509 291.983V293.912L505.028 294.196C504.366 294.233 503.719 294.402 503.124 294.695C502.529 294.987 502 295.397 501.566 295.898C500.494 297.416 500.01 299.271 500.204 301.119V302.821C500.18 303.981 500.372 305.136 500.772 306.226C501.106 307.16 501.504 308.07 501.964 308.949L503.042 310.935L501.226 312.127C500.741 311.214 500.04 310.435 499.183 309.857C498.682 309.509 498.091 309.312 497.481 309.29C496.678 309.26 495.886 309.478 495.211 309.914C494.53 310.311 493.792 310.822 492.998 311.389C491.958 312.147 490.878 312.848 489.763 313.489C488.318 314.308 486.773 314.937 485.167 315.362C482.948 315.823 480.675 315.976 478.414 315.816Z" fill="#DB0D15"></path><defs><clipPath id="clip0_543_1838"><rect width="509" height="237" fill="white" transform="translate(0 0.412903)"></rect></clipPath></defs></svg> 