<?xml version="1.0" encoding="UTF-8"?> <svg xmlns="http://www.w3.org/2000/svg" width="70" height="97" viewBox="0 0 70 97" fill="none"><path d="M0 0H34.3773V34.3773H0V0Z" fill="#072F54"></path><path d="M35.6221 9.42188H69.9994V43.7992H35.6221V9.42188Z" fill="#FBC108"></path><path d="M0 35.6221H34.3773V69.9994H0V35.6221Z" fill="#FBC108"></path><path d="M35.6221 45.0439H69.9994V79.4212H35.6221V45.0439Z" fill="#072F54"></path><path d="M17.6104 28.5563V8.33984H16.2715V28.5563H17.6104Z" fill="#FBC108"></path><path d="M64.2712 26.1904H44.0547V27.5293H64.2712V26.1904Z" fill="#072F54"></path><path d="M28.3532 50.0342H8.13672V51.3731H28.3532V50.0342Z" fill="#222222"></path><path d="M53.5283 70.9479V50.7314H52.1895V70.9479H53.5283Z" fill="#FBC108"></path><path d="M9.8965 88.3818C8.25998 88.3818 7.15147 89.1893 7.15147 90.4814C7.15147 93.1625 11.2205 92.2251 11.2205 93.905C11.2205 94.4866 10.6937 94.8207 9.81097 94.8207C9.00354 94.8207 8.03417 94.433 7.25867 93.7225L6.70898 94.8207C7.48448 95.5312 8.60439 96.0159 9.7893 96.0159C11.4475 96.0159 12.6313 95.1868 12.6313 93.8411C12.6427 91.1269 8.57246 92.0107 8.57246 90.3628C8.57246 89.8564 9.05714 89.577 9.79956 89.577C10.3709 89.577 11.1886 89.7812 12.0074 90.2761L12.5343 89.1562C11.8352 88.6943 10.8761 88.3818 9.8965 88.3818Z" fill="#072F54"></path><path d="M21.5648 94.2702L22.2867 95.9717H23.6427L20.3479 88.4346H19.0456L15.7178 95.9717H17.043L17.7637 94.2702H21.5648ZM21.0801 93.14H18.2381L19.6591 89.7917L21.0801 93.14Z" fill="#072F54"></path><path d="M32.2754 89.5752L32.2857 88.4336H27.2256V95.9707H28.496V92.8802H31.9196V91.75H28.496V89.5752H32.2754Z" fill="#072F54"></path><path d="M41.3829 89.5752V88.4336H36V95.9707H41.5129V94.8292H37.2704V92.7513H40.9529V91.6097H37.2704V89.5752H41.3829Z" fill="#072F54"></path><path d="M50.4243 95.9707H51.8669L50.1768 93.4515C51.1781 93.0638 51.738 92.213 51.738 91.0064C51.738 89.3699 50.6284 88.4336 48.7011 88.4336H45.6436V95.9707H46.914V93.699H48.7011C48.8197 93.699 48.9383 93.699 49.0455 93.6876L50.4243 95.9707ZM46.914 92.5574V89.5752H48.7011C49.8643 89.5752 50.5315 90.0485 50.5315 91.0395C50.5315 92.0625 49.8643 92.5574 48.7011 92.5574H46.914Z" fill="#072F54"></path><path d="M58.3231 93.1174V92.2666H55.6738V93.1174H58.3231Z" fill="#072F54"></path><path d="M63.8242 95.9707V88.4336H62.5537V95.9707H63.8242Z" fill="#072F54"></path></svg> 