<svg xmlns="http://www.w3.org/2000/svg" viewBox="0 0 114 39" fill="none"><path fill="#fff" d="M94.503 21.646v-5.315h6.301c1.857 0 3.243-.386 4.158-1.157.914-.772 1.371-2.072 1.371-3.9 0-1.6-.428-2.815-1.286-3.644-.828-.829-2.157-1.243-3.986-1.243h-6.558V1.115h6.773c1.828 0 3.471.214 4.929.643 1.486.428 2.757 1.071 3.815 1.929 1.057.828 1.857 1.9 2.4 3.214.571 1.286.857 2.8.857 4.544 0 2.229-.514 4.1-1.543 5.615-1 1.514-2.5 2.658-4.5 3.429-1.972.771-4.444 1.157-7.416 1.157h-5.315Zm-5.058 7.758V1.114h6.901v28.29h-6.9Zm-32.871 0 9.602-28.29H76.29l9.602 28.29h-7.544L71.576 6.516h-.685l-6.773 22.889h-7.544Zm5.701-5.314v-4.63h18.946v4.63H62.275Zm-30.423 5.314V1.114h6.943v28.29h-6.943Zm5.015 0v-5.572h17.445v5.572H36.867Zm0-11.744v-5.015h15.259v5.015h-15.26Zm0-11.016v-5.53h17.316v5.53H36.867ZM14.868 30.005c-1.83 0-3.487-.171-4.973-.514-1.485-.343-2.771-.857-3.857-1.543a8.002 8.002 0 0 1-2.572-2.7c-.629-1.087-1-2.344-1.114-3.773l6.043-2.014c.086 1.2.429 2.2 1.029 3 .6.8 1.4 1.4 2.4 1.8 1.029.372 2.172.558 3.43.558 1.2 0 2.2-.143 3-.429.828-.314 1.443-.7 1.843-1.157.428-.486.643-1 .643-1.543 0-.629-.272-1.143-.815-1.543-.543-.43-1.285-.786-2.228-1.072a35.245 35.245 0 0 0-3.3-.9 90.004 90.004 0 0 1-4.202-1.115c-1.371-.4-2.614-.914-3.729-1.543-1.114-.657-2-1.486-2.657-2.486-.629-1.028-.943-2.314-.943-3.857 0-1.743.443-3.258 1.329-4.544.886-1.286 2.186-2.286 3.9-3C9.81.887 11.925.515 14.44.515c2.486 0 4.6.357 6.344 1.072 1.743.714 3.086 1.714 4.029 3 .943 1.258 1.457 2.73 1.543 4.415l-6.172 1.757c0-.828-.143-1.557-.429-2.185A3.843 3.843 0 0 0 18.64 7.03c-.486-.428-1.086-.743-1.8-.943-.715-.228-1.53-.342-2.444-.342-1.086 0-2.014.128-2.786.385-.743.258-1.3.6-1.672 1.029a2.01 2.01 0 0 0-.557 1.415c0 .685.286 1.257.857 1.714.6.429 1.4.8 2.4 1.114 1.03.286 2.158.572 3.387.858 1.229.257 2.5.586 3.815.986 1.314.371 2.543.871 3.686 1.5a7.414 7.414 0 0 1 2.743 2.572c.715 1.057 1.072 2.4 1.072 4.029 0 1.743-.472 3.272-1.415 4.586-.914 1.286-2.3 2.286-4.157 3-1.858.715-4.158 1.072-6.901 1.072Zm95.921 7.555a1.97 1.97 0 0 1-.676-.107 1.319 1.319 0 0 1-.489-.304 1.396 1.396 0 0 1-.304-.484 1.864 1.864 0 0 1-.101-.63 2 2 0 0 1 .101-.653 1.49 1.49 0 0 1 .304-.506c.131-.143.293-.252.484-.327.191-.078.411-.118.658-.118.248 0 .462.04.642.118a1.168 1.168 0 0 1 .675.827l-.838.282a.713.713 0 0 0-.09-.304.417.417 0 0 0-.192-.169.544.544 0 0 0-.247-.056.524.524 0 0 0-.248.056.486.486 0 0 0-.18.17.897.897 0 0 0-.113.275 1.531 1.531 0 0 0-.039.366c0 .198.024.365.073.5a.646.646 0 0 0 .225.299.646.646 0 0 0 .366.101c.146 0 .261-.03.343-.09a.524.524 0 0 0 .18-.22.888.888 0 0 0 .068-.264l.788.174a1.308 1.308 0 0 1-.113.406 1.01 1.01 0 0 1-.253.343 1.233 1.233 0 0 1-.422.23 1.879 1.879 0 0 1-.602.085Zm-3.007-.08v-2.97h.906v2.97h-.906Zm.456-3.387c-.173 0-.306-.035-.4-.107a.387.387 0 0 1-.135-.315c0-.142.045-.25.135-.32.094-.076.227-.113.4-.113.176 0 .309.037.399.112.094.072.141.177.141.316a.386.386 0 0 1-.141.32c-.09.072-.223.107-.399.107Zm-2.532 3.387v-1.84h-.456v-.658l.81.034v-.107a.87.87 0 0 1-.354-.14.647.647 0 0 1-.197-.248.75.75 0 0 1-.062-.304.69.69 0 0 1 .129-.422.82.82 0 0 1 .366-.276c.158-.064.342-.096.552-.096.183 0 .35.023.5.068.15.041.271.094.361.158l-.051.816a1.351 1.351 0 0 0-.321-.158.979.979 0 0 0-.326-.062.417.417 0 0 0-.265.084c-.071.053-.107.141-.107.265 0 .097.021.17.062.22.045.048.1.082.163.1a.839.839 0 0 0 .192.023h.653v.704h-.766v1.84h-.883Zm-1.83 0v-2.97h.906v2.97h-.906Zm.455-3.387c-.172 0-.305-.035-.399-.107a.387.387 0 0 1-.135-.315c0-.142.045-.25.135-.32.094-.076.227-.113.399-.113.177 0 .31.037.4.112.094.072.141.177.141.316a.386.386 0 0 1-.141.32c-.09.072-.223.107-.4.107Zm-2.269 3.467a1.96 1.96 0 0 1-.675-.107 1.331 1.331 0 0 1-.49-.304 1.41 1.41 0 0 1-.304-.484 1.864 1.864 0 0 1-.101-.63 2 2 0 0 1 .101-.653c.072-.195.173-.364.304-.506.132-.143.293-.252.484-.327.192-.078.411-.118.659-.118.247 0 .461.04.641.118a1.168 1.168 0 0 1 .675.827l-.838.282a.686.686 0 0 0-.09-.304.42.42 0 0 0-.191-.169.548.548 0 0 0-.248-.056.527.527 0 0 0-.248.056.486.486 0 0 0-.18.17.897.897 0 0 0-.112.275 1.53 1.53 0 0 0-.04.366c0 .198.025.365.074.5a.633.633 0 0 0 .225.299.642.642 0 0 0 .365.101c.147 0 .261-.03.344-.09a.54.54 0 0 0 .18-.22.885.885 0 0 0 .067-.264l.788.174a1.306 1.306 0 0 1-.112.406 1.013 1.013 0 0 1-.254.343 1.224 1.224 0 0 1-.422.23 1.874 1.874 0 0 1-.602.085Zm-4.054 0a.969.969 0 0 1-.439-.096.733.733 0 0 1-.298-.287.933.933 0 0 1-.107-.461c0-.169.032-.308.096-.416a.7.7 0 0 1 .287-.265c.127-.067.28-.122.456-.163.176-.045.376-.085.602-.118a7.78 7.78 0 0 0 .27-.051.357.357 0 0 0 .169-.084c.037-.038.056-.092.056-.164a.33.33 0 0 0-.101-.241c-.068-.068-.177-.102-.327-.102-.105 0-.2.019-.287.056a.604.604 0 0 0-.214.164.709.709 0 0 0-.135.258l-.799-.236c.049-.157.117-.294.203-.41a1.276 1.276 0 0 1 .743-.456 2.22 2.22 0 0 1 .512-.057c.3 0 .544.049.731.147a.872.872 0 0 1 .422.444c.094.199.14.456.14.771v.456c0 .135.003.272.007.41l.022.411c.011.136.024.272.039.411h-.799a6.662 6.662 0 0 1-.078-.686h-.107c-.053.142-.13.274-.231.394a1.05 1.05 0 0 1-.36.275 1.12 1.12 0 0 1-.473.096Zm.41-.642a.637.637 0 0 0 .203-.033.942.942 0 0 0 .203-.102.893.893 0 0 0 .176-.163.678.678 0 0 0 .118-.208l-.011-.444.123.028a.967.967 0 0 1-.236.107 2.11 2.11 0 0 1-.265.061 6.216 6.216 0 0 0-.258.051 1.22 1.22 0 0 0-.225.062.383.383 0 0 0-.152.107.28.28 0 0 0-.057.186c0 .105.036.19.107.253a.398.398 0 0 0 .276.096Zm-4.024-.455v-.698h.828c.244 0 .425-.05.546-.152.12-.101.18-.272.18-.512 0-.21-.057-.37-.17-.478-.108-.11-.282-.164-.523-.164h-.86v-.692h.889c.24 0 .455.028.647.085.195.056.362.14.5.253.14.109.244.25.316.422.075.169.112.367.112.596 0 .293-.067.539-.202.738a1.197 1.197 0 0 1-.591.45c-.26.101-.584.152-.974.152h-.698Zm-.663 1.018v-3.714h.905v3.714h-.905Zm-3.941.079a.968.968 0 0 1-.44-.096.732.732 0 0 1-.298-.287.934.934 0 0 1-.107-.461c0-.169.032-.308.096-.416a.7.7 0 0 1 .287-.265c.127-.067.28-.122.456-.163.176-.045.377-.085.602-.118.109-.02.199-.036.27-.051a.356.356 0 0 0 .169-.084c.037-.038.056-.092.056-.164a.33.33 0 0 0-.101-.241c-.068-.068-.177-.102-.327-.102-.105 0-.2.019-.287.056a.604.604 0 0 0-.213.164.71.71 0 0 0-.136.258l-.798-.236c.048-.157.116-.294.202-.41a1.278 1.278 0 0 1 .743-.456c.161-.038.332-.057.512-.057.3 0 .544.049.731.147a.872.872 0 0 1 .422.444c.094.199.141.456.141.771v.456c0 .135.002.272.006.41l.022.411c.012.136.025.272.04.411h-.8a6.662 6.662 0 0 1-.078-.686h-.107c-.053.142-.13.274-.23.394a1.05 1.05 0 0 1-.36.275 1.12 1.12 0 0 1-.474.096Zm.41-.642a.638.638 0 0 0 .203-.033.958.958 0 0 0 .202-.102.893.893 0 0 0 .175-.163.68.68 0 0 0 .118-.208l-.011-.444.123.028a.968.968 0 0 1-.236.107 2.113 2.113 0 0 1-.264.061 6.22 6.22 0 0 0-.26.051 1.225 1.225 0 0 0-.224.062.384.384 0 0 0-.152.107.281.281 0 0 0-.056.186c0 .105.035.19.106.253a.398.398 0 0 0 .276.096Zm-2.723.562v-2.97h.906v2.97h-.906Zm.456-3.387c-.173 0-.306-.035-.4-.107a.388.388 0 0 1-.135-.315c0-.142.046-.25.136-.32.093-.076.226-.113.399-.113.176 0 .31.037.4.112.093.072.14.177.14.316a.387.387 0 0 1-.14.32c-.09.072-.224.107-.4.107Zm-2.335 3.467a2.39 2.39 0 0 1-.54-.056 1.47 1.47 0 0 1-.423-.152 1.065 1.065 0 0 1-.298-.242.882.882 0 0 1-.157-.32l.675-.3c.026.065.071.13.135.198a.784.784 0 0 0 .264.157c.113.042.248.062.406.062.15 0 .266-.02.349-.062.086-.045.129-.108.129-.191a.162.162 0 0 0-.073-.14.567.567 0 0 0-.208-.096 2.988 2.988 0 0 0-.35-.085 9.902 9.902 0 0 1-.433-.101 2.09 2.09 0 0 1-.41-.163.918.918 0 0 1-.31-.276.795.795 0 0 1-.112-.439.79.79 0 0 1 .146-.478.957.957 0 0 1 .433-.327c.195-.078.432-.118.71-.118.247 0 .464.032.652.096s.343.156.467.276a.91.91 0 0 1 .264.422l-.725.259a.433.433 0 0 0-.119-.214.519.519 0 0 0-.219-.135.849.849 0 0 0-.31-.051.723.723 0 0 0-.343.068c-.079.045-.118.105-.118.18 0 .06.026.11.079.152a.794.794 0 0 0 .236.095c.102.026.222.055.36.085.147.03.291.065.434.107.146.037.277.09.394.157a.718.718 0 0 1 .388.67.864.864 0 0 1-.158.517.994.994 0 0 1-.467.332 2.17 2.17 0 0 1-.748.113Zm-5.481-.079 1.26-3.714h1.329l1.26 3.714h-.99l-.89-3.005h-.09l-.888 3.005h-.99Zm.749-.698v-.607h2.487v.607h-2.487Zm-4.381.777a.968.968 0 0 1-.44-.096.732.732 0 0 1-.297-.287.934.934 0 0 1-.107-.461c0-.169.031-.308.095-.416a.7.7 0 0 1 .287-.265c.128-.067.28-.122.456-.163.176-.045.377-.085.602-.118.109-.02.199-.036.27-.051a.356.356 0 0 0 .17-.084c.037-.038.055-.092.055-.164a.33.33 0 0 0-.1-.241c-.068-.068-.177-.102-.327-.102a.72.72 0 0 0-.287.056.604.604 0 0 0-.214.164.71.71 0 0 0-.135.258l-.8-.236a1.39 1.39 0 0 1 .203-.41 1.277 1.277 0 0 1 .743-.456c.162-.038.332-.057.512-.057.3 0 .544.049.732.147a.872.872 0 0 1 .422.444c.094.199.14.456.14.771v.456c0 .135.002.272.006.41l.023.411c.01.136.024.272.039.411h-.8a6.662 6.662 0 0 1-.078-.686h-.107a1.31 1.31 0 0 1-.23.394 1.049 1.049 0 0 1-.36.275 1.12 1.12 0 0 1-.473.096Zm.41-.642a.638.638 0 0 0 .203-.033 1.02 1.02 0 0 0 .203-.102.896.896 0 0 0 .174-.163.68.68 0 0 0 .118-.208l-.011-.444.124.028a.966.966 0 0 1-.237.107 2.113 2.113 0 0 1-.264.061 6.22 6.22 0 0 0-.259.051 1.225 1.225 0 0 0-.225.062.384.384 0 0 0-.152.107.281.281 0 0 0-.056.186c0 .105.035.19.107.253a.398.398 0 0 0 .275.096Zm-2.719.562v-2.97h.906v2.97h-.906Zm.456-3.387c-.172 0-.306-.035-.4-.107a.387.387 0 0 1-.134-.315c0-.142.045-.25.135-.32.093-.076.227-.113.4-.113.176 0 .309.037.399.112.094.072.14.177.14.316a.387.387 0 0 1-.14.32c-.09.072-.223.107-.4.107ZM71.61 37.56c-.247 0-.464-.062-.652-.186a1.28 1.28 0 0 1-.433-.54 2.068 2.068 0 0 1-.158-.844c0-.3.045-.567.135-.8.09-.232.223-.414.4-.545.18-.135.401-.203.664-.203.187 0 .345.034.472.102.132.067.24.168.327.303.086.135.156.306.208.512h.14l-.072-.36a8.527 8.527 0 0 1-.057-.32 2.452 2.452 0 0 1-.017-.265v-.985h.912v4.052h-.743l-.011-.878h-.124a1.554 1.554 0 0 1-.197.551.819.819 0 0 1-.332.31 1.045 1.045 0 0 1-.461.096Zm.327-.732a.546.546 0 0 0 .49-.27.884.884 0 0 0 .107-.253c.022-.09.033-.175.033-.253v-.119a.84.84 0 0 0-.112-.422.69.69 0 0 0-.13-.18.577.577 0 0 0-.41-.169.52.52 0 0 0-.321.102.662.662 0 0 0-.203.287c-.045.124-.067.27-.067.439 0 .168.024.317.073.444.049.124.12.222.214.293a.544.544 0 0 0 .326.101Zm-3.347.732c-.249 0-.47-.032-.665-.096a1.412 1.412 0 0 1-.5-.292 1.25 1.25 0 0 1-.31-.473 1.815 1.815 0 0 1-.107-.647c0-.236.034-.454.101-.653.071-.199.17-.37.298-.512.132-.146.291-.259.479-.338.191-.078.405-.118.641-.118.24 0 .45.04.63.118.184.075.334.188.45.338.12.15.209.334.265.551a2.3 2.3 0 0 1 .056.738l-2.324.017v-.473l1.807-.017-.321.22c.026-.188.015-.34-.034-.456a.497.497 0 0 0-.214-.26.581.581 0 0 0-.304-.084.592.592 0 0 0-.349.107.71.71 0 0 0-.23.31c-.056.135-.085.3-.085.495 0 .308.066.53.197.67a.684.684 0 0 0 .512.208.706.706 0 0 0 .254-.04.535.535 0 0 0 .163-.106.467.467 0 0 0 .101-.147.994.994 0 0 0 .062-.152l.788.17c-.03.138-.079.264-.146.376a.932.932 0 0 1-.265.293 1.126 1.126 0 0 1-.4.185 1.98 1.98 0 0 1-.55.068Zm-5.074.872V34.51h.742l.012.844.101.011c.034-.21.094-.384.18-.523a.82.82 0 0 1 .332-.31c.139-.067.296-.1.473-.1.262 0 .487.063.675.19.191.128.338.31.439.546.101.237.152.52.152.85 0 .293-.045.555-.135.788-.087.233-.22.416-.4.551-.176.136-.401.203-.675.203-.184 0-.34-.032-.467-.096a.93.93 0 0 1-.326-.292 1.829 1.829 0 0 1-.22-.479h-.107c.023.102.043.205.062.31.019.105.034.206.045.304.015.097.023.191.023.281v.844h-.906Zm1.564-1.587a.496.496 0 0 0 .315-.1.642.642 0 0 0 .208-.288c.05-.124.074-.268.074-.433 0-.177-.027-.327-.08-.45a.623.623 0 0 0-.213-.293.524.524 0 0 0-.326-.107.544.544 0 0 0-.299.079.618.618 0 0 0-.197.197.886.886 0 0 0-.107.253c-.022.09-.033.174-.033.253v.124a.84.84 0 0 0 .247.596.592.592 0 0 0 .18.124.59.59 0 0 0 .231.045Zm-3.645.715c-.3 0-.567-.058-.8-.174a1.274 1.274 0 0 1-.54-.524c-.13-.232-.197-.523-.197-.872s.066-.638.197-.867c.132-.232.314-.405.546-.517.233-.117.5-.175.8-.175.3 0 .566.058.798.175.233.116.415.29.546.523.132.229.197.518.197.867 0 .356-.067.65-.202.883a1.263 1.263 0 0 1-.558.518 1.838 1.838 0 0 1-.787.163Zm.028-.658c.135 0 .247-.03.337-.09a.571.571 0 0 0 .203-.287c.045-.128.068-.285.068-.473 0-.199-.025-.366-.074-.5a.638.638 0 0 0-.22-.316.567.567 0 0 0-.365-.113.576.576 0 0 0-.332.096.54.54 0 0 0-.202.281 1.454 1.454 0 0 0-.068.479c0 .307.056.538.169.692.116.154.278.23.484.23Zm-2.986.578v-4.05h.889v4.05h-.89Zm-1.813.08c-.255 0-.48-.036-.675-.107a1.323 1.323 0 0 1-.49-.304 1.396 1.396 0 0 1-.304-.484 1.852 1.852 0 0 1-.101-.63c0-.24.033-.458.101-.653a1.49 1.49 0 0 1 .304-.506c.131-.143.292-.252.484-.327.191-.078.41-.118.658-.118.248 0 .462.04.642.118a1.168 1.168 0 0 1 .675.827l-.838.282a.691.691 0 0 0-.09-.304.415.415 0 0 0-.192-.169.546.546 0 0 0-.247-.056.524.524 0 0 0-.248.056.483.483 0 0 0-.18.17.885.885 0 0 0-.113.275 1.533 1.533 0 0 0-.039.366c0 .198.024.365.073.5a.646.646 0 0 0 .225.299.644.644 0 0 0 .366.101c.146 0 .26-.03.343-.09a.532.532 0 0 0 .18-.22.89.89 0 0 0 .068-.264l.788.174a1.307 1.307 0 0 1-.113.406.999.999 0 0 1-.253.343 1.231 1.231 0 0 1-.422.23 1.879 1.879 0 0 1-.602.085Zm-3.685.956a2.74 2.74 0 0 1-.462-.04 2.481 2.481 0 0 1-.45-.118 1.189 1.189 0 0 1-.36-.197l.22-.804c.13.124.288.215.472.276.188.06.368.09.54.09a.92.92 0 0 0 .49-.119.707.707 0 0 0 .298-.349c.072-.16.113-.36.124-.596l.028-.49h-.135a1.698 1.698 0 0 1-.18.597.839.839 0 0 1-.32.343.921.921 0 0 1-.456.107.89.89 0 0 1-.546-.163.99.99 0 0 1-.332-.49 2.711 2.711 0 0 1-.107-.821v-1.233h.911v1.008c0 .345.034.592.102.742.07.147.181.22.332.22a.36.36 0 0 0 .213-.068.551.551 0 0 0 .164-.19c.045-.083.078-.183.1-.3.027-.12.04-.252.04-.399V34.51h.906v2.184c0 .236-.022.452-.067.647a1.69 1.69 0 0 1-.192.512 1.275 1.275 0 0 1-.76.59c-.168.05-.36.074-.573.074Zm-2.944-.956c-.255 0-.48-.036-.675-.107a1.323 1.323 0 0 1-.49-.304 1.396 1.396 0 0 1-.304-.484 1.852 1.852 0 0 1-.101-.63c0-.24.034-.458.101-.653a1.49 1.49 0 0 1 .304-.506c.131-.143.293-.252.484-.327a1.72 1.72 0 0 1 .658-.118c.248 0 .462.04.642.118a1.17 1.17 0 0 1 .675.827l-.838.282a.691.691 0 0 0-.09-.304.415.415 0 0 0-.192-.169.546.546 0 0 0-.247-.056.524.524 0 0 0-.248.056.483.483 0 0 0-.18.17.882.882 0 0 0-.112.275 1.48 1.48 0 0 0-.04.366c0 .198.025.365.073.5a.646.646 0 0 0 .225.299.644.644 0 0 0 .366.101c.146 0 .26-.03.343-.09a.531.531 0 0 0 .18-.22.887.887 0 0 0 .068-.264l.788.174a1.307 1.307 0 0 1-.113.406.999.999 0 0 1-.253.343 1.23 1.23 0 0 1-.422.23 1.878 1.878 0 0 1-.602.085Zm-5.019-.079v-2.97h.731l.011.871h.113c.049-.21.118-.386.208-.529a.836.836 0 0 1 .343-.315c.14-.071.302-.107.49-.107.349 0 .613.122.793.366.184.244.276.632.276 1.165v1.52h-.911v-1.419c0-.308-.045-.53-.136-.67a.425.425 0 0 0-.388-.213.503.503 0 0 0-.354.13.798.798 0 0 0-.203.342 1.585 1.585 0 0 0-.067.479v1.35h-.906Zm-3.446 0v-3.714h.912v3.714h-.912Zm.659 0v-.731h2.29v.731h-2.29Zm0-1.542v-.658h2.003v.658h-2.003Zm0-1.446v-.726h2.273v.726H42.23Zm-3.827 3.067a2.39 2.39 0 0 1-.54-.056 1.47 1.47 0 0 1-.422-.152 1.067 1.067 0 0 1-.298-.242.883.883 0 0 1-.158-.32l.676-.3a.63.63 0 0 0 .135.198.784.784 0 0 0 .264.157c.113.042.248.062.405.062.15 0 .267-.02.35-.062.086-.045.129-.108.129-.191a.162.162 0 0 0-.073-.14.567.567 0 0 0-.209-.096 2.988 2.988 0 0 0-.349-.085 9.575 9.575 0 0 1-.433-.101 2.09 2.09 0 0 1-.41-.163.918.918 0 0 1-.31-.276.795.795 0 0 1-.113-.439c0-.184.049-.343.147-.478a.957.957 0 0 1 .433-.327c.195-.078.431-.118.709-.118.248 0 .465.032.653.096.187.064.343.156.467.276a.91.91 0 0 1 .264.422l-.726.259a.433.433 0 0 0-.118-.214.52.52 0 0 0-.22-.135.849.849 0 0 0-.309-.051.723.723 0 0 0-.343.068c-.079.045-.118.105-.118.18 0 .06.026.11.079.152a.794.794 0 0 0 .236.095c.101.026.221.055.36.085.146.03.29.065.433.107.147.037.278.09.394.157a.718.718 0 0 1 .388.67.864.864 0 0 1-.157.517.994.994 0 0 1-.467.332 2.17 2.17 0 0 1-.749.113Zm-3.14 0a2.39 2.39 0 0 1-.54-.056 1.47 1.47 0 0 1-.422-.152 1.067 1.067 0 0 1-.3-.242.883.883 0 0 1-.157-.32l.675-.3c.026.065.071.13.135.198a.785.785 0 0 0 .264.157c.113.042.248.062.406.062.15 0 .266-.02.349-.062.086-.045.129-.108.129-.191a.162.162 0 0 0-.073-.14.57.57 0 0 0-.208-.096 2.988 2.988 0 0 0-.35-.085 9.537 9.537 0 0 1-.432-.101 2.087 2.087 0 0 1-.411-.163.917.917 0 0 1-.31-.276.795.795 0 0 1-.112-.439.79.79 0 0 1 .146-.478.956.956 0 0 1 .433-.327c.195-.078.432-.118.71-.118.247 0 .465.032.652.096.188.064.343.156.467.276a.91.91 0 0 1 .265.422l-.726.259a.433.433 0 0 0-.119-.214.52.52 0 0 0-.219-.135.848.848 0 0 0-.31-.051.722.722 0 0 0-.343.068c-.079.045-.118.105-.118.18 0 .06.026.11.079.152a.794.794 0 0 0 .236.095c.102.026.222.055.36.085.147.03.291.065.434.107.146.037.277.09.394.157a.718.718 0 0 1 .388.67.865.865 0 0 1-.158.517.994.994 0 0 1-.467.332 2.17 2.17 0 0 1-.748.113Zm-3.13 0c-.248 0-.469-.032-.664-.096a1.41 1.41 0 0 1-.5-.292 1.249 1.249 0 0 1-.31-.473 1.813 1.813 0 0 1-.107-.647c0-.236.034-.454.101-.653.071-.199.17-.37.298-.512.132-.146.291-.259.479-.338.191-.078.405-.118.641-.118.24 0 .45.04.63.118.184.075.334.188.45.338.12.15.209.334.265.551a2.3 2.3 0 0 1 .056.738l-2.324.017v-.473l1.807-.017-.321.22c.026-.188.015-.34-.034-.456a.498.498 0 0 0-.214-.26.581.581 0 0 0-.304-.084.592.592 0 0 0-.349.107.71.71 0 0 0-.23.31c-.056.135-.085.3-.085.495 0 .308.066.53.197.67a.684.684 0 0 0 .512.208.705.705 0 0 0 .254-.04.536.536 0 0 0 .163-.106.469.469 0 0 0 .101-.147.994.994 0 0 0 .062-.152l.788.17a1.22 1.22 0 0 1-.147.376.932.932 0 0 1-.264.293 1.125 1.125 0 0 1-.4.185 1.98 1.98 0 0 1-.551.068Zm-5.03-.079v-2.97h.731l.011.871h.113c.049-.21.118-.386.208-.529a.836.836 0 0 1 .343-.315c.14-.071.302-.107.49-.107.349 0 .613.122.793.366.184.244.276.632.276 1.165v1.52h-.912v-1.419c0-.308-.045-.53-.135-.67a.424.424 0 0 0-.388-.213.503.503 0 0 0-.354.13.796.796 0 0 0-.203.342 1.585 1.585 0 0 0-.067.479v1.35h-.906Zm-1.883.079a2.39 2.39 0 0 1-.54-.056 1.47 1.47 0 0 1-.422-.152 1.067 1.067 0 0 1-.299-.242.883.883 0 0 1-.157-.32l.675-.3c.026.065.071.13.135.198a.784.784 0 0 0 .265.157c.112.042.247.062.405.062.15 0 .266-.02.349-.062.086-.045.129-.108.129-.191a.162.162 0 0 0-.073-.14.567.567 0 0 0-.208-.096 2.988 2.988 0 0 0-.35-.085 9.902 9.902 0 0 1-.433-.101 2.09 2.09 0 0 1-.41-.163.918.918 0 0 1-.31-.276.795.795 0 0 1-.112-.439.79.79 0 0 1 .146-.478.957.957 0 0 1 .433-.327c.195-.078.432-.118.71-.118.247 0 .464.032.652.096s.343.156.467.276a.91.91 0 0 1 .265.422l-.726.259a.433.433 0 0 0-.118-.214.519.519 0 0 0-.22-.135.849.849 0 0 0-.31-.051.723.723 0 0 0-.343.068c-.078.045-.118.105-.118.18 0 .06.026.11.079.152a.794.794 0 0 0 .236.095c.102.026.222.055.36.085.147.03.291.065.434.107.146.037.277.09.394.157a.718.718 0 0 1 .388.67.864.864 0 0 1-.158.517.994.994 0 0 1-.467.332 2.17 2.17 0 0 1-.748.113Zm-3.137 0a2.39 2.39 0 0 1-.54-.056 1.47 1.47 0 0 1-.422-.152 1.067 1.067 0 0 1-.298-.242.883.883 0 0 1-.158-.32l.675-.3c.027.065.072.13.135.198a.784.784 0 0 0 .265.157c.112.042.247.062.405.062.15 0 .266-.02.349-.062.086-.045.13-.108.13-.191a.162.162 0 0 0-.074-.14.567.567 0 0 0-.208-.096 2.988 2.988 0 0 0-.349-.085 9.27 9.27 0 0 1-.433-.101 2.09 2.09 0 0 1-.411-.163.918.918 0 0 1-.31-.276.795.795 0 0 1-.112-.439c0-.184.049-.343.146-.478a.956.956 0 0 1 .434-.327c.195-.078.431-.118.709-.118.247 0 .465.032.652.096.188.064.344.156.467.276a.91.91 0 0 1 .265.422l-.726.259a.433.433 0 0 0-.118-.214.52.52 0 0 0-.22-.135.848.848 0 0 0-.31-.051.722.722 0 0 0-.342.068c-.08.045-.119.105-.119.18 0 .06.027.11.08.152a.783.783 0 0 0 .236.095c.1.026.22.055.36.085.146.03.29.065.433.107.146.037.278.09.394.157a.718.718 0 0 1 .388.67.865.865 0 0 1-.157.517 1 1 0 0 1-.467.332 2.169 2.169 0 0 1-.749.113Zm-3.134 0c-.247 0-.468-.032-.664-.096a1.41 1.41 0 0 1-.5-.292 1.249 1.249 0 0 1-.31-.473 1.813 1.813 0 0 1-.107-.647c0-.236.034-.454.101-.653.072-.199.171-.37.299-.512a1.32 1.32 0 0 1 .478-.338c.191-.078.405-.118.642-.118.24 0 .45.04.63.118.184.075.334.188.45.338.12.15.208.334.264.551.057.214.075.46.057.738l-2.324.017v-.473l1.806-.017-.32.22a.885.885 0 0 0-.034-.456.498.498 0 0 0-.214-.26.581.581 0 0 0-.304-.084.592.592 0 0 0-.35.107.71.71 0 0 0-.23.31c-.056.135-.084.3-.084.495 0 .308.065.53.197.67a.684.684 0 0 0 .512.208.705.705 0 0 0 .253-.04.535.535 0 0 0 .163-.106.469.469 0 0 0 .101-.147.994.994 0 0 0 .062-.152l.788.17c-.03.138-.079.264-.146.376a.932.932 0 0 1-.265.293 1.125 1.125 0 0 1-.4.185 1.98 1.98 0 0 1-.55.068Zm-3.007-.08v-4.05h.89v4.05h-.89Zm-1.891.08c-.248 0-.469-.032-.664-.096a1.41 1.41 0 0 1-.5-.292 1.248 1.248 0 0 1-.31-.473 1.813 1.813 0 0 1-.107-.647c0-.236.034-.454.101-.653.071-.199.17-.37.298-.512a1.32 1.32 0 0 1 .479-.338c.19-.078.405-.118.641-.118.24 0 .45.04.63.118.184.075.334.188.45.338.12.15.209.334.265.551a2.3 2.3 0 0 1 .056.738l-2.324.017v-.473l1.807-.017-.321.22c.026-.188.015-.34-.034-.456a.497.497 0 0 0-.214-.26.58.58 0 0 0-.304-.084.592.592 0 0 0-.349.107.71.71 0 0 0-.23.31 1.29 1.29 0 0 0-.085.495c0 .308.066.53.197.67a.684.684 0 0 0 .512.208.705.705 0 0 0 .254-.04.537.537 0 0 0 .163-.106.469.469 0 0 0 .101-.147.993.993 0 0 0 .062-.152l.788.17a1.22 1.22 0 0 1-.147.376.933.933 0 0 1-.264.293 1.126 1.126 0 0 1-.4.185 1.98 1.98 0 0 1-.551.068Zm-2.523-.006c-.35 0-.606-.092-.771-.276-.165-.187-.248-.486-.248-.895V35.22h-.422l.017-.704h.304a.604.604 0 0 0 .27-.056c.064-.034.103-.098.118-.191l.073-.417h.512v.659h.715v.737h-.715v1.097c0 .128.03.221.09.281.064.06.16.09.287.09a.883.883 0 0 0 .203-.022.51.51 0 0 0 .157-.062v.838a2.28 2.28 0 0 1-.59.084Zm-3.807.006a.968.968 0 0 1-.44-.096.732.732 0 0 1-.298-.287.933.933 0 0 1-.107-.461c0-.169.032-.308.096-.416a.7.7 0 0 1 .287-.265c.127-.067.28-.122.455-.163.177-.045.377-.085.603-.118.108-.02.198-.036.27-.051a.356.356 0 0 0 .168-.084c.038-.038.057-.092.057-.164a.33.33 0 0 0-.102-.241c-.067-.068-.176-.102-.326-.102-.105 0-.2.019-.287.056a.604.604 0 0 0-.214.164.709.709 0 0 0-.135.258l-.799-.236c.049-.157.116-.294.203-.41a1.277 1.277 0 0 1 .743-.456 2.22 2.22 0 0 1 .512-.057c.3 0 .544.049.731.147a.872.872 0 0 1 .422.444c.094.199.14.456.14.771v.456c0 .135.003.272.006.41l.023.411c.011.136.024.272.04.411h-.8a6.673 6.673 0 0 1-.078-.686h-.107c-.053.142-.13.274-.231.394a1.05 1.05 0 0 1-.36.275 1.12 1.12 0 0 1-.473.096Zm.41-.642a.638.638 0 0 0 .202-.033.942.942 0 0 0 .203-.102.895.895 0 0 0 .174-.163.679.679 0 0 0 .119-.208l-.012-.444.124.028a.966.966 0 0 1-.236.107 2.11 2.11 0 0 1-.265.061 6.221 6.221 0 0 0-.258.051 1.223 1.223 0 0 0-.226.062.383.383 0 0 0-.152.107.281.281 0 0 0-.056.186c0 .105.036.19.107.253a.398.398 0 0 0 .276.096Zm-2.236.636c-.35 0-.606-.092-.771-.276-.165-.187-.248-.486-.248-.895V35.22h-.422l.017-.704h.304a.604.604 0 0 0 .27-.056c.064-.034.103-.098.118-.191l.073-.417h.512v.659h.715v.737h-.715v1.097c0 .128.03.221.09.281.064.06.16.09.287.09a.883.883 0 0 0 .203-.022.51.51 0 0 0 .158-.062v.838a2.278 2.278 0 0 1-.59.084Zm-3.352.006a2.91 2.91 0 0 1-.653-.067 1.627 1.627 0 0 1-.507-.203 1.051 1.051 0 0 1-.337-.354 1.16 1.16 0 0 1-.147-.495l.794-.265a.728.728 0 0 0 .135.394.717.717 0 0 0 .315.237c.135.048.285.073.45.073.158 0 .29-.019.394-.057a.596.596 0 0 0 .242-.151.302.302 0 0 0 .085-.203.242.242 0 0 0-.107-.203.887.887 0 0 0-.293-.14 4.612 4.612 0 0 0-.433-.118 11.83 11.83 0 0 1-.552-.147 2.309 2.309 0 0 1-.49-.202 1.043 1.043 0 0 1-.348-.327.956.956 0 0 1-.124-.506c0-.23.058-.428.174-.597.117-.169.287-.3.512-.394a2.11 2.11 0 0 1 .833-.146c.327 0 .604.047.833.14a1.2 1.2 0 0 1 .53.395c.123.165.19.358.202.58l-.81.23a.687.687 0 0 0-.057-.287.505.505 0 0 0-.146-.203.594.594 0 0 0-.237-.123c-.093-.03-.2-.045-.32-.045-.143 0-.265.017-.366.05a.499.499 0 0 0-.22.135.277.277 0 0 0 .04.41c.079.057.184.106.315.147.135.038.283.075.445.113.16.034.328.077.5.13.173.048.334.114.484.196.15.083.27.195.36.338a.924.924 0 0 1 .141.529c0 .229-.062.43-.186.602-.12.169-.302.3-.545.394-.244.094-.546.14-.906.14Z" opacity=".4"></path></svg>